<svg id="Layer_1" data-name="Layer 1" xmlns="http://www.w3.org/2000/svg" viewBox="0 0 1920 1080">
	<defs>
		<style>.cls-1{fill:#b6dbf4;}.cls-2{fill:#f7941d;}.cls-3{fill:#57adc4;}.cls-4{fill:#fbedc4;}.cls-5{fill:#6c3231;}.cls-6{fill:#637679;}.cls-7{fill:#973d40;}.cls-8{fill:#6c2f2e;}.cls-9{fill:#b47477;}.cls-10{fill:#fbf7ef;}.cls-11{fill:#562624;}.cls-12{fill:#4f2323;}.cls-13{fill:#fcfcf5;}.cls-14{fill:#b67879;}.cls-15{fill:#607179;}.cls-16{fill:#76858d;}.cls-17{fill:#74848b;}.cls-18,.cls-19{fill:#372616;}.cls-19,.cls-22{stroke:#231f20;stroke-miterlimit:10;}.cls-20{fill:#744e29;}.cls-21{fill:#674326;}.cls-22{fill:none;}.cls-23{fill:#b47548;}.cls-24{fill:#9f8167;}.cls-25{fill:#a46641;}.cls-26{fill:#b5896a;}.cls-27{fill:#8d5834;}.cls-28{fill:#704724;}.cls-29{fill:#825229;}.cls-30{fill:#361f11;}.cls-31{fill:#fafaf3;}.cls-32{fill:#321d12;}.cls-33{fill:#683b19;}.cls-34{fill:#705d57;}.cls-35{fill:#f7f2cd;}.cls-36{fill:#fff2cc;}
		</style>
	</defs>
	<title>bullsandbear</title>
	<polyline class="cls-1" points="0 0 1920 0 1920 1080 0 1080"/>
	<polygon class="cls-2" points="816.51 365.47 0 911.68 0 1080 888.05 471.17 816.51 365.47"/>
	<rect class="cls-2" x="971.67" y="558.75" width="632.81" height="127.64" transform="translate(-127.6 828.97) rotate(-34.09)"/>
	<rect class="cls-2" x="690.87" y="531.33" width="542.02" height="127.64" transform="translate(915.61 -535.02) rotate(55.91)"/>
	<polygon class="cls-2" points="1799.17 256.98 1360.52 327.1 1606.23 690.15 1799.17 256.98"/>
	<rect class="cls-3" y="911.68" width="1917.05" height="168.32"/>
		<path class="cls-4" d="M752.66,702.31l4.18.93L768,689.62s9.69-6.49,26.51-3.68,18.34,12.41,18.34,12.41l3.52,17.06,2.48,18.5s3,9.61,4.48,10.57,7,1.36,7,1.36.16.88-5.77,2.56S813,740.47,811,738.23s-3.68-11.69-3.68-11.69-2-7.61-3.28-13.13-1.13-3.38-5.1-4.56c-13.71-4.09-17.08,3-20.12,5a4.33,4.33,0,0,0-2.08,4.85l2.24,3.54-5.66,3.06-7.23,2.32-9.47-1.26-7.73-4.32-2.84-10,2.29-6.86Z"/>
		<path class="cls-5" d="M747,786.83l-3,5.35c-3,5.35-.32,6.69-.32,6.69l7.26,5.64s9.84,13.22,14.84,7.42,9.52,0,9.52,0,.08,3.47.65,10.64,6,14.35,6,14.35l14.68,16.85,16.77,18.3s10.64,9,19.76,15.08,3.23,5.24,0,7.74c-5,3.9-8.23,4.35-8.23,4.35l-8.79-6.69-21.93-13.79S774.74,864.27,762,860.4s-23.3-16.21-23.3-16.21a362.81,362.81,0,0,0-28.55-24c-14.84-11-24.19.8-24.19.8l-10.25-14.52s-4.41-11.78.63-20.22c5.14-8.59,20.81-7.47,20.81-7.47l29-.05-6.62-4.84-10.94-13a6.91,6.91,0,0,1-1.38-5.9c.39-1.87,1.81-5.73,1.81-5.73l2.83-6.94,4.49-2.15,1.79-3.27,7.65-2.63,5.3,3.53-12.76,7.65s-5.25,6.1-5.1,10,7,12.76,7,12.76l14.67,11.34,8.83,4.93Z"/>
		<path class="cls-6" d="M554.94,911.38a.19.19,0,0,1,.32,0c1.22,2.39,8.57,16.72,10.29,17,1.88.35,1.12,4.71-3.64,3.52-4.5-1.12-13.41.09-14.15.2h-.1c-.64-.26-7.62-3.13-8.52-5.82s1.53-7.2,1.83-7.75a.17.17,0,0,1,.09-.08C542,918.12,553.48,913,554.94,911.38Z"/>
		<path class="cls-7" d="M327.54,849.36l-.15-.59-5.49-21.41s-1.69-11.85,5.64-19.18,16-15.46,16-15.46l11.09-11.54s5.17-7.67,5.17-16.54V737.29s7.39-27.1,14.78-34,15.52-14,29.07-14.78,35,2.22,40.15,2.46,37.44,6.16,37.44,6.16,16.26.49,18.48-.74S548,662.16,548,662.16l39.17-19.21s23.16-10.1,37.69-7.39,41.88,12.07,44.09,13.79,48,26.85,48,26.85l35.72,26.11-3.2,6.65s-1,5.17-.25,7.64,2.07,7.18,5.23,8,5.72,2,10.11,1.74,6.94.2,10.11-1.63a36,36,0,0,1,4.7-2.55c.82-.31,18.38,17.66,18.38,17.66a3.55,3.55,0,0,1,1,4.49c-1.33,2.86-4.29,8.58-3.88,14.39a58,58,0,0,0,2.25,11.64s1.74,2.76-5.72-.1-6,8.58-6,8.58-1.12,20.11-11.33,1.94-7.76-13.17-7.76-13.17-6.84-7-12.15,5.82c-6.74,12.35-6.94,13-6.94,13l-12.25-6.84-10.11-7.45-8.27-7-4.29-5.72s-5.41-13.88,16-22.46c1.63-.71-7.35.82-7.35.82a8.46,8.46,0,0,0-4.59,2.45c-2.35,2.25-5.31,5.72-5.31,5.72s-2.65,4.08-3,5.51-2.35,6.33.51,9.49,11,13.48,11.43,13.48,6.13,4.39,6.13,4.39L695,779.95s-15.62.18-18.58,9.27a24.79,24.79,0,0,0,1,17.15l11,12.15,19.91,28s7.65,6.5-2.86,18.17c-10.21,11.33-17.25,18-17.25,18l-13.68,15.93L668,905.08l-3.16,6-10.72,8-7.55,3s-3.16-.31-3.27-1.33-14.7-8.37-14.7-8.37,2.55-6.53,5.61-6.53,8.58-2.65,8.58-2.65,9.09-3,15.72-13.37,14.19-21.34,14.19-21.34,16.36-16.63-9.4-21.95C638.06,841.28,612.54,835,612.54,835s-24.84-4.91-27-22.36c-.41-3.37-7.86-4-7.86-4l-35.42-9.9-14.7-3.68s-6.8-3.4-17,.31c-2.91,1.05,4.32-1.51-28.69,8.88-1.57.5-26.75,24-26.75,24l-23.79,22.46s-14.5,13.58-33.48,15.93-26,2.55-26,2.55-9.39-.1-16.23,11.43-5.72,15.52-5.72,15.52-.92,21.95.82,24.6S333.13,922,333.13,922a55.86,55.86,0,0,1-1.53-22.66c1.74-12.66,5.72-30.22,10.31-35.22s18.61-16.28,27.46-22.66c4.39-3.16,5.31-4,5.31-4l-.2-57.88s1.74-21.23,6.13-29.5,9.09-19.29,11.54-23.48a121.86,121.86,0,0,1,7.66-10.72s5.1-5.92-6.64-4.9-16.54,5.61-16.54,5.61-6.74,6.13-9.09,10.62-3.27,11-3.27,11l-.41,10.51-.92,19.8-3.47,15.72S353,798,351.4,798.91s-9.09,16.23-9.09,16.23a41.9,41.9,0,0,0-4.29,6.43c-1.53,3.06-1.12,13.17-1.12,13.17L336.4,847l-1,1.74-.92-3.78-2.55-2-1.53-.71-1,1.43-.31,2.65-.2,4.29-.51,3.47Z"/>
		<path class="cls-8" d="M581,808.59l-.37-9.27s-.56-11.31.83-15.76,4.26-9.08,4.63-9.08,2.22-.37,2.22-.37-.09,4.11-1.11,5.11-2.79,6.47-2.79,6.47a33.85,33.85,0,0,0-.92,7.32c.09,3.15.19,14.27.19,14.27l-.17,3.54-2.64-1Z"/>
		<path class="cls-5" d="M517,793.58s-.08,3.9,2.56,6.27,12,17.7,12,17.7,8.87,13.73-.66,30.5A63.48,63.48,0,0,0,524,866.32s-5.2,10.6-2.06,17,6.68,11.83,13.7,16,18.57,10.85,18.57,10.85,4.29.82-4,4.49S542.76,920,540,919s-17.74-8.89-17.74-8.89l-15-10.28-8.42-7.91s-3.38-.9-1.16-8.73a80.82,80.82,0,0,0,2.72-14.35s.58-11.83-2.56-14-13-10.68-14.44-11.42-13-8.73-13-8.73l-11-7.1-3.2-2.12,24.13-21.3S512.27,793.54,517,793.58Z"/>
		<path class="cls-9" d="M797.11,771.33s15.39,15.28,16.79,18-4.95,6.88-7.42,8-7.42-1.08-14.63.54-16.54,14.14-16.54,14.14-4.09-5.26-8.64-.9S760,812.7,760,812.7s-3.56-1.25-7.28-6.09a32.73,32.73,0,0,0-9-7.74s-2.71-1.22,0-6.07,5.6-10.46,5.6-10.46l5.52-10.46s6.66-12.16,11.47-4.31c4.13,6.75,8.64,14.68,8.64,14.68s9.68,15.87,10.45-3.45C785.59,773.45,783.5,766.24,797.11,771.33Z"/>
		<path class="cls-10" d="M768,807.37s-11.23-5.59-13.88-11.94c-.54-1.29-5.92-2.89,0-8.6s9.11-8.72,9.11-8.72,8.21,6.78,8.32,14.63S770.11,808.54,768,807.37Z"/>
		<path class="cls-11" d="M794.7,780.69s-7.59,7.68-4,10.94a6.78,6.78,0,0,0,7.53,1.16v-7.05Z"/>
		<path class="cls-12" d="M786.11,762.72s-6-1.51-7.11-2.5-5.47-3.56-5.66-4.74-1.71-2.9-1.12-6.19a16.07,16.07,0,0,1,2.7-6.06l1.84-1.84s2.1.07,2.34,1.12,4.84,5.8,4.84,5.8l2.83,6.59,1.12,5.6.86,1.84Z"/>
		<path class="cls-13" d="M783.73,758.59a5.2,5.2,0,0,1-4-1.49c-2-2-2.36-2.71-2.24-4.32s.23-4.33,1-4.85,1.55-.92,2.39-.4,1.48,4.38,2.11,4.9.95,3.17,1.34,3.4,1.24,2.81.51,2.76A6.24,6.24,0,0,0,783.73,758.59Z"/>
		<path class="cls-14" d="M731.61,711.51l7.35,5.4s3,4.39,3.5,7.42-1.4,6.88-3,7.46-6.06,1.52-7.46,0-6.06-3.26-6.65-4.9-.93-8.51-.93-8.51-.12-7,1-6.88S731.61,711.51,731.61,711.51Z"/>
		<path class="cls-15" d="M825,899.26s-.94,7-1.79,9.25,2.36,6.46,2.36,6.46h26.18s-7.67-22.4-12.34-22.4a4,4,0,0,1-1.54-.24"/><path class="cls-16" d="M646.36,922.5,629.65,934.8s-15.6,4.89-21.82-15.3c-.27-.89-1.13-6.26,21-7l10.06,5.32s4,2,3.92,2.42,1.32,1.7,3.73,1.83C647.07,922.06,646.36,922.5,646.36,922.5Z"/>
		<path class="cls-17" d="M350.52,921.28s17,16,19.55,17.25-9.78,3.4-9.78,3.4l-19.44-2s-7.86-2.35-8.8-3.87.91-13.56.91-13.56l.17-.48S349.08,923.35,350.52,921.28Z"/>
		<polygon class="cls-18" points="1365.24 949.43 1382.62 961.6 1383.36 957.21 1377.77 950.74 1370.25 944.74 1366.35 944.74 1364.83 948.81 1365.24 949.43"/>
		<polygon class="cls-18" points="1385.56 943.35 1384.3 948.95 1395.12 959.84 1396.74 961.6 1396 953.17 1391.53 947.01 1387.91 942.34 1384.97 942.34 1385.56 943.35"/>
		<polygon class="cls-18" points="1397.91 941.01 1396.74 947.04 1408.16 957.21 1409.09 958.51 1409.09 953.17 1407.32 948.07 1402.91 942.93 1397.91 941.01"/>
		<polygon class="cls-18" points="1404.4 941.01 1404.59 943.44 1413.94 950.57 1413.94 946.75 1408.16 941.01 1405.48 940.24 1404.4 941.01"/>
		<polygon class="cls-19" points="1332.56 474.22 1345.11 452.99 1343.4 472.52 1354.79 457.51 1352.4 479.34 1360.52 462.99 1357.05 488.64 1366.31 470.82 1357.65 500.25 1332.56 474.22"/>
		<polygon class="cls-19" points="987.74 696.24 976.73 686.16 987.33 691.86 987.33 686.16 976.73 675.36 987.74 682.45 989.55 678.21 976.73 666.36 995.55 675.36 995.55 670.36 986.14 662.9 998.6 668.34 987.74 696.24"/>
		<polygon class="cls-19" points="1113.38 942.98 1101.13 952.66 1109.52 949.34 1104.56 957.21 1113.63 952.38 1115.24 952.83 1108.19 959.77 1118.02 954.79 1121.24 956.04 1114.05 964.78 1130 956.76 1137.25 948.97 1121.43 940.17 1113.38 942.98"/>
		<path class="cls-20" d="M1100.3,641.2l-15.19,19.07-9.61,17.52S1066.66,688,1064,689.58s-6.67,4-13,2.17-20.16-10.7-20.16-10.7L1015,671.44s-11-5.58-16.43-3.1-9.92,10.7-10.85,14.11,0,13.8,0,13.8,6.82,15.19,7.91,16.59,7.75,8.84,9.92,9.46,12.09,5,12.09,5l19.38,5.12,21.55,2.17s11.16-.78,14.11-2.95,15.35-8.84,15.35-8.84l12.25-8.37s14.26-10.54,14.88-10.85,1.55,1.4,2.33,5,5,8.53,7.44,27.91c.23,1.82.81,9.08,1.55,18,1.36,16.54,3.24,38.72,4.35,41.89,2.33,6.67,3.57,32.4,19.54,49s47.75,25.27,47.75,25.27l22,2.17s24.05,2.94,36.9,10.08c12.56,7,36.43,1.71,36.43,1.71s19.38-1.09,27.91-5.12,21.71-8.06,27-15.19,11.47-14.73,13.33-26.36,5.27-27.29,4.5-33.18-9.77-30.54-9.77-30.54l-15.35-18.45-25.58-27L1295,708s-7-8.84-9.15-27.91-3.41-38.3-3.41-38.3l15.66-7.91,14.42-11.78L1322.94,608l7.75-14.26,9-19.23,12.4-27.6,5.27-16.12,2.79-12.25.47-8.37.78-8.53-.47-9.92-3.88-3.1-1.86-6.67-2.79-2.64-2.95-1.09-4.65-3.57-5.58-2.17-6.67,1.71-8.53,6.67s.31,4.5-.93,6.2-7,10.7-7,10.7l-7.6,16.12-13.8,30.85a66.11,66.11,0,0,1-10.54,17.36c-7,8.06-10.39,13.64-18.92,20.62s-12.71,9.77-12.71,9.77a30.08,30.08,0,0,1,2.48,20c-2.64,10.85-16,31-16,31l-5.12,6-1.71-7.6s-21,31.21-22.48,45.43l-1.4,2.17-4.5-11.94s-4.5-14.57-6.67-.93-3.1,39.38-3.1,39.38l-14-14.88.62,42.64-20.78-33-2,4.35s-15.85-8.17-18.54-17.44-.12,9.15-.12,9.15-9.75-8-12-15.37c-1.1-3.66-.24-12.06-.24-12.06s-4.27,3.28-4.15,7.31-6.71-8.52-6.71-24.15c0-6.59-5.24,5.37-5.24,5.37s.3-14,7.47-22.18c1-1.17-9.79-3.89-9.79-3.89Z"/>
		<path class="cls-21" d="M1128.3,753.36s-38.21,89.62-29,114.41,22.22,51.28,36.32,61.11L1113.38,943l1.69,1.62-.89,2-4.65,2.77.8.63,5.54-2.59,1.25.54.09,2.06-3.58,2.41,1.61.45,4.65-3.58,3,.09v2.06l-1.61,2-3.31,1.43,3.22,1.25,4-2.24,1.52-1,4.11-.72.63,2.15-1.52,2.5,7.33.45h7l5.28-1.79,9.92-2.68,13.64-4.38,9.79-5.1,1.7-2.68v-4.29l-1.25-5.19-3.4-8.4-4.74-10.46-4-10.19s-5-8.58-1.79-14.93,10.24-17.79,28.23-18.33l1.3,0c10.7-.34,23.51-1,36.22,1.1a69.82,69.82,0,0,1,22,7.19q1.39.75,2.76,1.59c3.39,2.08,58.44,40.86,69,40.86,3.76,0-.07,10.66-3.31,13.41-1.79,1.52-.35,11,18.69,15.11,18.33,3.93,23.16,4.2,23.16,4.2l-2.24-2.77s-.72-9.57,7.15-3.22,6.08,5.54,6.08,5.54l8,.54-2.15-2.68s-1.92-12.43,7.15-2.59a10.76,10.76,0,0,1,2.5,3.58l6-.27-3.13-3.93s.2-7.9,6.08-2.32a15,15,0,0,1,2.68,3.49l2.5-.72-3.58-3.4s-2-3,2.24-3.49l.36-2.24s-25-23.39-42.65-28.43c-1.25-.36,5-30,7.6-32,.36-.27,11.58-77.28-3.16-89.52l-16-17.85,9.91,24,1.45,8.59-3.83,21.85,1.22,9.43-2.17,8.14s-5,9.78-7.56,13.35c-.64.88-6.75,9.38-9.17,9.91l-14.05,3.68-12.7,4.79-18.21.72-15.33-1.2-16.77,6.95-23-9.07-34.66-4.8-13.7-3.14-15.57-7.84-13.66-10.37-14.79-3-6.42-9.53L1139,820.86l-4.57-18.69L1130.09,772Z"/>
		<path class="cls-22" d="M1327.74,940.17s65.73-6.76,61.26-17.38"/>
		<path class="cls-23" d="M1337.12,497c-5.78.31-20.79,4.93-11.79,19.29s24,12.81,29.57,7.93,1.93-17.79-4.5-22.29S1338.4,497,1337.12,497Z"/>
		<path class="cls-23" d="M1336.27,493.83s-.43,3.86-4.71,0,0-9.64,0-9.64,5.36-2.36,6.43,3.43S1336.27,493.83,1336.27,493.83Z"/>
		<path class="cls-23" d="M1343.55,494.47c-1.71-.64-3.52-3-3.47-7.93s5.19-2.83,5.19-2.83a7.22,7.22,0,0,1,.86,7.33C1344.41,495.54,1343.55,494.47,1343.55,494.47Z"/>
		<path class="cls-23" d="M1351.05,500s-1.25,1.39-3.43-3,3.43-8.11,3.43-8.11,7,1.81,4.46,6.62S1355.23,500.26,1351.05,500Z"/>
		<path class="cls-23" d="M1356.08,506.26c-1.39-2.57-2-8.14,0-8.14s3.23,2.18,4.19,4.07-1.09,4.07-2.64,4.07Z"/>
		<path class="cls-23" d="M1023.17,687.76c7,3.54,13.76,38-15.33,33.12C995.65,718.83,1003.24,677.64,1023.17,687.76Z"/>
		<path class="cls-23" d="M993.39,703c1.21-1.21,5.74,1.33,6,1.88s2.1,3.64.77,5.52-4.2,2.32-5.41,1.33-4-5.07-1.88-9"/>
		<path class="cls-23" d="M996.34,700.77s-4.71,0-5.71-6.07,4.09-4.31,4.09-4.31,5.91,2,5.88,6.07S996.34,700.77,996.34,700.77Z"/>
		<path class="cls-23" d="M1003.22,691.72c-1.88,1-6.85-3.42-6.85-3.42s-2-6.85,3-4S1003.22,691.72,1003.22,691.72Z"/>
		<path class="cls-22" d="M1001.34,692.71"/>
		<path class="cls-23" d="M1005.43,686.86c-2.76-1.77-4.75-7.4-2.76-8.28s7.51-.22,8.06,2.43,1.55,5.41-.44,5.85A16.24,16.24,0,0,1,1005.43,686.86Z"/>
		<circle class="cls-24" cx="1135.05" cy="641.36" r="23.4"/>
		<path class="cls-25" d="M1114.27,649.08s3.4,8.53,11,12.81c4.8,2.69,11.27,3.69,19.62-.17,11.34-5.25,12.44-14.66,12.44-14.66l35.12-1.38a52,52,0,0,0,23.78-5.76c14.48-7.41,30.59-29,36.29-47.39,1-1.31,7.37,16.39,1.61,28.9-3.94,8.56-7.25,18-19.75,33.61-1.29,1.61-.94-8.56-.94-8.56s-19.17,17.59-24.9,50c-.35,2-11.38-51.92-14.46,25.58-.06,1.47-16-47.91-13.33,27.75l-21.05-32.43-.86,6.48s-18.35-8.31-19.08-19.23-.07,11.94-.07,11.94-11-9.47-13.47-30.34c-.24-2.05-2.1,10.31-2.1,10.31s-7.8-1.18-7.8-25.68c0-5.45-5.81,7.72-5.81,7.72S1109.42,655.35,1114.27,649.08Z"/>
		<path class="cls-26" d="M1123.41,657.35l0,0h0l6-9.36,2.74-9.37-1.63-6-5.94-.29-11.9,13.6s8.39,9.62,10.68,11.37Z"/>
		<path class="cls-27" d="M1123.63,657.5h0c1.49.84,19.87,10.61,29.93-9.5a17.36,17.36,0,0,1,2.64-3.12l-.2-.36Z"/>
		<path class="cls-27" d="M1236.81,588s1.1,2.45,0,4.24c-9.14,14.93-26.42,26.2-42.89,34.38-10.74,5.34-21.14,9.38-28.7,12.26a26.9,26.9,0,0,0-9,6l1.25,2.23,23.32-.57,12.21-.41,13-2.18,10.63-4.46,7.81-4,8.72-9.37,7.5-10.38,5.81-8.75s3.13-7.47,4.77-11C1258.37,580.49,1237.4,586.84,1236.81,588Z"/>
		<path class="cls-28" d="M1237.83,595.36a11.05,11.05,0,0,0,.72-3.6c-2.92-35.86-34.75-41.53-34.75-41.53,4.33,32.37-15,53-12,51.48,51.38-25.73-23.7,36.7-23.7,36.7l-2,3.19S1227,620.55,1237.83,595.36Z"/>
		<path class="cls-29" d="M1154.93,646.54s3.33-35.76-30-23.81c-5,1.79-7.92-2.93-12.14-.24-9.54,6.08-14.13,35.87-36,13.59-2.62-2.67,5.83-13.6-6.56-18.24-1.91-.72,26.92-5.25,27.42-37.68.12-7.75,26.23-27.66,26.23-27.66l23.61-11s-6.92-25.4,15.38-20.27S1191.46,535,1191.46,535s5.69,4.59-2.69,11.68c-1.13,1,15,3.57,15,3.57s5.06,23.86-12,51.48c-2.47,4,57-34.1-25.22,39.72Z"/>
		<path class="cls-30" d="M1119.51,576.4s-16.89,12.47-12.84,18.27C1110.34,599.92,1124.91,599.78,1119.51,576.4Z"/>
		<path class="cls-31" d="M1109,590.18s7.17-10,7.73-9.79,4.76,15.44-7.73,9.79"/>
		<path class="cls-32" d="M1069.72,617.72l-4.67.68s-3.58,3.58-2.39,6.77,4.44,10.3,8.36,10.07a19.68,19.68,0,0,1,4.72,0l1.25-6.2v-5.36l-2.38-3.25-3.36-2.17Z"/>
		<path class="cls-33" d="M1123.11,553.08s-26.39-31,23.82-24.27c1.93.26-3.31,1.58.53,12.73Z"/>
		<path class="cls-23" d="M1156.83,543.87s-7.32-26.76,26-7.08c3.8,2.25-.07,16.06-3.7,15.2S1175.65,542.32,1156.83,543.87Z"/>
		<path class="cls-34" d="M1130.18,649.43s6.07-21.23-19.76-16.2c-1.51.29,14.49-10.5,14.49-10.5s16.28,9.32,16.67,12.45-3.07,11.34-3.07,11.34l-6.61,6.07Z"/>
		<path class="cls-35" d="M1116.76,648.09l8.15,9.77s23.17-8.56,19.35-21.66c-.67-2.3-2.87,0-2.87,0S1137.17,659.3,1116.76,648.09Z"/>
		<path class="cls-36" d="M1095.2,644s11.5,8.24,17.15,5.56c0,0-11.08-7-8.58-10.35,2.16-2.87,5.79-9.67,29.66-10.16,2.49-.05-2.26-3.16-9.9-5.94a67.45,67.45,0,0,0-11.47-3.35l-11.21,12.55Z"/>
		<path class="cls-21" d="M1378.66,804.26"/>
		<path class="cls-24" d="M1158.45,642.87"/>
		<path class="cls-24" d="M1109.09,641.91"/>
</svg>