<?xml version="1.0" encoding="utf-8"?>
<!-- Generator: Adobe Illustrator 20.0.0, SVG Export Plug-In . SVG Version: 6.00 Build 0)  -->
<svg version="1.1" id="Layer_1" xmlns="http://www.w3.org/2000/svg" xmlns:xlink="http://www.w3.org/1999/xlink" x="0px" y="0px"
	 viewBox="0 0 1920 1080" style="enable-background:new 0 0 1920 1080;" xml:space="preserve">
<style type="text/css">
	.st0{fill:#7BC793;}
	.st1{opacity:0.1;clip-path:url(#SVGID_2_);fill:#010101;enable-background:new    ;}
	.st2{opacity:0.1;clip-path:url(#SVGID_4_);fill:#010101;enable-background:new    ;}
	.st3{clip-path:url(#SVGID_6_);}
	.st4{fill:none;stroke:#3D2E30;stroke-width:2.7965;stroke-miterlimit:10;}
	.st5{fill:#FCD5BC;}
	.st6{opacity:5.000000e-02;fill:#010101;enable-background:new    ;}
	.st7{fill:#CAA974;}
	.st8{fill:#793A3C;}
	.st9{fill:#C47174;}
	.st10{fill:#4E4E4E;}
	.st11{opacity:0.2;fill:#010101;enable-background:new    ;}
	.st12{fill:#3D2E30;}
	.st13{fill:none;stroke:#3D2E30;stroke-width:2.7965;stroke-linecap:round;stroke-linejoin:round;stroke-miterlimit:10;}
	.st14{opacity:0.1;fill:#010101;enable-background:new    ;}
	.st15{fill:#FFFFFF;}
	.st16{fill:#7A94A0;}
	.st17{opacity:0.3;fill:#010101;enable-background:new    ;}
	.st18{fill:#394C53;}
	.st19{opacity:0.15;fill:#010101;enable-background:new    ;}
	.st20{fill:#50636C;}
	.st21{fill:#F2F1EE;}
</style>
<rect x="-1" class="st0" width="1920" height="1080"/>
<polygon class="st0" points="499.8,107.7 1505.2,107.7 1647.4,882.4 499.8,1030.2 "/>
<g>
	<g>
		<defs>
			<rect id="SVGID_1_" x="231.5" y="62" width="1351.4" height="1005.4"/>
		</defs>
		<clipPath id="SVGID_2_">
			<use xlink:href="#SVGID_1_"  style="overflow:visible;"/>
		</clipPath>
		<ellipse class="st1" cx="865.5" cy="785.3" rx="217.7" ry="31.3"/>
	</g>
	<g>
		<defs>
			<rect id="SVGID_3_" x="231.5" y="62" width="1351.4" height="1005.4"/>
		</defs>
		<clipPath id="SVGID_4_">
			<use xlink:href="#SVGID_3_"  style="overflow:visible;"/>
		</clipPath>
		<ellipse class="st2" cx="1348.4" cy="787.9" rx="178.4" ry="22.3"/>
	</g>
	<g>
		<defs>
			<rect id="SVGID_5_" x="231.5" y="62" width="1351.4" height="1005.4"/>
		</defs>
		<clipPath id="SVGID_6_">
			<use xlink:href="#SVGID_5_"  style="overflow:visible;"/>
		</clipPath>
		<g class="st3">
			<polyline class="st4" points="703.8,499.1 888.2,517.8 1174.6,511.5 1186.6,513.9 1296.9,538 			"/>
			<g>
				<g>
					<path class="st5" d="M644.4,389.4c0,0,23.6,28.9,42.4,26.4c18.7-2.5,31.8-45.2,26.8-66.2C708.8,329.4,636.4,338,644.4,389.4z"
						/>
					<path class="st6" d="M676.6,400.8c-0.6-1.1-1.4-2-2.1-3c-0.1,0.1-0.3,0.1-0.5,0.1c-6-2.3-11.9-0.5-17.8,1
						c-0.7,0.2-1.5,0.3-2.3,0.5c5.4,5.1,12.7,11,20.1,14.2c0.3-1.4,0.8-2.9,1.3-4.3C676,406.7,678.1,403.2,676.6,400.8z"/>
					<path class="st5" d="M714,352.5c0,0,1.1,16.6,6.9,21.9c7,6.4-7,13-12.3,9.9L714,352.5z"/>
					<path class="st7" d="M695.4,375.7h5.4l4-19.5c0,0,45.2-6.3,32.2-46.9s-28.8-38.2-28.8-38.2s9.8,23.2-12.8,26.4
						c-22.6,3.2-69,2.4-68.6,48c0.4,45.6,11.9,45.2,29.5,56c0,0,29.1,1,28.5-21.6c-4.8,0-8.8-11.4-5.6-16.1
						C685,355.6,697.9,357.4,695.4,375.7z"/>
					<g>
						<path class="st6" d="M681.6,379.9c-3.3,17.7-28.1,16.9-28.1,16.9c-8.8-5.4-16.1-8-21.2-15c5.1,10.8,13.5,13.3,24,19.8
							c0,0,29.1,1,28.5-21.6C683.8,380.2,682.7,380.2,681.6,379.9z"/>
						<path class="st6" d="M737,309.4c-3.6-11.2-7.4-19.2-11-24.8c2.8,5.1,5.6,11.6,8.2,20c13,40.6-32.2,46.9-32.2,46.9l-4,19.5
							h-1.7c-0.1,1.2-0.4,3.5-0.9,4.7h5.4l4-19.5C704.8,356.2,750,349.9,737,309.4z"/>
					</g>
					
						<ellipse transform="matrix(0.26 -0.9656 0.9656 0.26 164.7488 960.7509)" class="st8" cx="709.2" cy="372.9" rx="3.2" ry="1.6"/>
					<path class="st7" d="M707.3,360.8c1,0.9,1.9,2.6,4.5,2.7c2.6,0.1,1.9,3.6,0.3,3.7c-1.6,0.1-4-0.9-5.9-4.2
						C704.7,360.3,706.9,360.3,707.3,360.8z"/>
					<g>
						<path class="st9" d="M688.5,399c0,0,0.8-0.7,2.1-1.2c0.7-0.3,1.5-0.6,2.4-0.7c0.5-0.1,0.9-0.2,1.4-0.2c0.5,0,1-0.1,1.5,0
							c0.5,0,1,0.1,1.5,0.2c0.5,0.1,0.9,0.2,1.4,0.3c0.9,0.3,1.7,0.6,2.3,1.1c0.6,0.4,1.1,0.9,1.3,1.2c0.3,0.4,0.3,0.6,0.3,0.6
							s-0.2-0.2-0.5-0.4c-0.3-0.2-0.8-0.5-1.5-0.7c-0.6-0.2-1.4-0.4-2.3-0.5c-0.4-0.1-0.9-0.1-1.3-0.2c-0.4,0-0.9-0.1-1.3-0.1
							c-0.4,0-0.9,0-1.3,0c-0.4,0-0.9,0.1-1.3,0.1c-0.9,0.1-1.7,0.2-2.4,0.3C689.4,398.9,688.5,399,688.5,399z"/>
					</g>
					<path class="st5" d="M651.4,393.6c0,0-6.2,20,0,30.1c0,0,13.8,7.5,22.8,0c0,0-4.3-15.1,1.7-22.4
						C680,396.3,662.4,384.7,651.4,393.6z"/>
					<path class="st7" d="M649,394.1c0,0,2.6,9.4,4.6,12c2,2.6-0.9-7.7,22-9.1C672.7,390.9,646.8,381.6,649,394.1z"/>
					<path class="st6" d="M671.5,393c-15.5,1.1-18.7,6.5-19.9,8.8c0.6,1.8,1.3,3.5,1.9,4.4c2,2.6-0.9-7.7,22-9.1
						C675,395.8,673.4,394.3,671.5,393z"/>
				</g>
				<path class="st10" d="M648.8,414.2c0,0-45.6,15.5-68.8,88c-13.5,42.2,114.6,3.5,114.6,3.5l-4.5-23.4c0,0-92.5,33.6-85.5,9.8
					c7-23.8,28.1-39.7,28.1-39.7L648.8,414.2z"/>
				<path class="st11" d="M620.2,521.3c33.2-3.1,74.4-15.5,74.4-15.5l-4.5-23.4c0,0-47.5,17.2-71.8,18.3
					C618.7,507.6,619.2,514.5,620.2,521.3z"/>
				<path class="st12" d="M622,769.4c0,0,10.9-0.9,24.2,1.9c8.2,1.7,9,2.1,17,3.1c7.3,0.9,21.2,0.2,25.7,3.3c2.2,1.6,1.3,9,1.3,9
					s-29.6,6.8-67.1,0.1L622,769.4z"/>
				<path class="st13" d="M695.4,500.4c0,0-97.4,42.9-116.4,121.7c-19.4,80.7-44.5-8.2-102.1-13"/>
				<g>
					<path class="st5" d="M727.7,500.6c1.4,1.1,1.5,2.8,0.2,3.8l0,0c-1.6,1.7-3.5,0.8-4.9-0.3l-5.4-4.2c-1.4-1.1-1.5-2.8-0.2-3.8
						l0,0c1.3-1,3.5-0.8,4.9,0.3L727.7,500.6z"/>
					<path class="st5" d="M724.4,505.2c1.3,1.2,1.7,3.4,0.3,4.3l0,0c-1.4,0.9-3.6,0.6-4.9-0.7l-5.9-5.5c-1.3-1.2-1.2-2.9,0.2-3.8
						l0,0c1.4-0.9,3.6-0.6,4.9,0.7L724.4,505.2z"/>
					<path class="st5" d="M719.5,508.6c1.2,1.1,1.1,2.7-0.2,3.5l0,0c-1.3,0.8-3.4,0.5-4.6-0.6l-7.1-7.2c-1.2-1.1-1.1-2.7,0.2-3.5
						l0,0c1.3-0.8,3.4-0.5,4.6,0.6L719.5,508.6z"/>
					<path class="st5" d="M707.6,502.2l7.5,8.3c1.1,1.2,0.8,2.8-0.6,3.5c-1.4,0.7-3.4,0.3-4.5-0.9l-6.8-8.1
						C704.6,504,706.1,503.1,707.6,502.2z"/>
					<path class="st5" d="M722.5,505.6c-6.9,0.3-8.1,9.8-13.1,5c-7.4-6.9-11.9-10.9-9.4-17.3c2.5-6.4,7.9-6,14.3-3.5
						C720.7,492.4,732.7,505.1,722.5,505.6z"/>
					<path class="st5" d="M705.4,489.1c-0.8,1.4,8.8,4.7,10.3,5.5l4.2,4.7c1.4,0.8,3.3,0.4,4.1-1.1l0,0c0.8-1.4,0.4-3.3-1.1-4.1
						c0,0-2.3-2.4-5.9-4.1C715.5,489.3,706.2,487.6,705.4,489.1L705.4,489.1z"/>
					<path class="st14" d="M724,497.6c0,0-4.8,6.6-10.9,5.9c-5.2-0.6-5.3-4.1-4.8-4.7c1-1.2,5.9-1.6,5.3-2.9
						c-0.6-1.4-4.3-2.6-4.3-2.6s6.6,0.9,5.9,2.7c-0.7,1.8-5.8,2.2-6.3,3.8C708.9,500.4,709.9,506.9,724,497.6z"/>
					<path class="st14" d="M708.6,504c-1-0.3-4.3-0.7-2.8,3.2c0,0,0.2-2.8,4.9-2.1C710.7,505,709.2,504.1,708.6,504z"/>
					<path class="st14" d="M715.7,510.4c0,0-2.1-4.5-5.1-6.3C710.6,504.1,714.1,509.5,715.7,510.4z"/>
					<path class="st14" d="M715.8,503.5c1.9,2,3.1,4.6,3.1,4.6c-1-0.5-2.7-2.8-3.9-4.5C715.3,503.5,715.6,503.5,715.8,503.5z"/>
					<path class="st14" d="M721.3,501.5c1.8,1.6,3.1,3.4,3.1,3.4c-0.9-0.3-2.6-1.8-4-3.1C720.7,501.7,721,501.6,721.3,501.5z"/>
				</g>
				<g>
					<path class="st5" d="M893.1,521.7c1.1,1.8,0.6,3.7-1.2,4.3l0,0c-2.4,1.3-4.2-0.4-5.3-2.2l-4.4-6.7c-1.1-1.8-0.6-3.7,1.2-4.3
						l0,0c1.8-0.6,4.2,0.4,5.3,2.2L893.1,521.7z"/>
					<path class="st5" d="M887.7,525.7c1,1.8,0.6,4.4-1.3,4.8l0,0c-1.9,0.4-4.2-0.7-5.2-2.6l-4.5-8.3c-1-1.8-0.2-3.7,1.7-4.1l0,0
						c1.9-0.4,4.2,0.7,5.2,2.6L887.7,525.7z"/>
					<path class="st5" d="M880.9,527.6c0.9,1.7,0.2,3.4-1.6,3.8l0,0c-1.8,0.4-3.9-0.7-4.8-2.4l-5.2-10.6c-0.9-1.7-0.2-3.4,1.6-3.8
						l0,0c1.8-0.4,3.9,0.7,4.8,2.4L880.9,527.6z"/>
					<path class="st5" d="M870,516l5.3,12c0.8,1.7-0.1,3.4-1.9,3.6c-1.8,0.3-3.9-0.9-4.7-2.7l-4.5-11.6
						C866.1,516.8,868.1,516.4,870,516z"/>
					<path class="st5" d="M885.4,525.3c-7.8-2.3-12.7,7.8-16.5,0.7c-5.6-10.5-9.2-16.6-4-22.8c5.2-6.2,11.1-3.7,17.3,1.6
						C888.4,510,896.9,528.7,885.4,525.3z"/>
					<path class="st5" d="M872.5,500.5c-1.5,1.3,8.1,8.5,9.3,10l2.9,6.8c1.3,1.5,3.5,1.6,5,0.4l0,0c1.5-1.3,1.6-3.5,0.4-5
						c0,0-1.7-3.5-5-6.8C883.7,504.5,874,499.2,872.5,500.5L872.5,500.5z"/>
				</g>
				<path class="st12" d="M886.7,770c0,0,10.7,0.4,20,4.3c8.9,3.7,35,7.2,39.8,7.2c8.1,0,6.4,9.8,6.4,9.8s-21.7,9.9-65.1-0.7
					L886.7,770z"/>
				<path class="st10" d="M726.6,565.8c0,0,150.7,59.5,179.6,208.3c0,0-0.9,3.6-9,3.4c-10.6-0.2-10.5-3.4-10.5-3.4
					S836,618.8,700.1,580.3c0,0,70,144.7-54.6,192.7c0,0-1.2,0.5-11.3,0.5c-10.2,0-12.1-4.1-12.1-4.1s78.9-44.3,77.3-96.8
					c-1.4-45.3-35.8-92.2-35.8-92.2L726.6,565.8z"/>
				<path class="st11" d="M710.3,606.9c-5.1-16.1-10.2-26.5-10.2-26.5c15.9,4.5,30.6,10.6,44.2,17.9c7.8-1.9,15.5-3.8,23.3-5.7
					c2-0.5,4-1,6-1.5c-26.9-17.3-47-25.2-47-25.2l-63.1,14.5c0,0,10.3,14,19.8,34.1C692.3,611.8,701.2,609.3,710.3,606.9z"/>
				<path class="st10" d="M648.8,414.2c0,0,5.4-1.4,11.1-1.4c6.8,0,8.2,1.4,13,3c0,0,132.6,71.1,197.6,83.4l-5.3,19.3
					c0,0-101.1-28.4-165.8-62.7c0,0,26.1,87.2,58.4,124.6l-88.3,17.9c0,0-48-89.2-42.8-149.5C626.8,448.9,621.6,427.2,648.8,414.2z"
					/>
				<path class="st15" d="M644.4,416.8l3.1-5.9c0,0,13.8-4.8,26.4,2.5l2.1,4.1C676,417.6,659.3,411.8,644.4,416.8z"/>
			</g>
			<g>
				<path class="st12" d="M1173.3,775.9l-44.7,10.3c0,0-0.6,8.4,0,9c0.6,0.5,60.5,4.2,66.4-3.7l-2.5-17.3L1173.3,775.9z"/>
				<path class="st10" d="M1301.5,591.2c0,0-105.5,70.4-128.3,185.2h18.7c0,0,36.7-120.4,124.9-171.3l21.2,5.7
					c0,0-71.9,107.2,12.9,162.9l11.7-11.9c0,0-79.1-53.9,0-149.2L1301.5,591.2z"/>
				<path class="st11" d="M1338,610.7c0,0-4.7,6.9-10.2,18.2c8-0.8,16.1-1.7,24.1-2.5c3.2-4.6,6.8-9.2,10.7-14l-61.1-21.4
					c0,0-9.4,6.3-23.1,18.2c6.5,2.5,13.1,5,19,8.6c6.2-4.6,12.6-9,19.4-12.9L1338,610.7z"/>
				<path class="st16" d="M1399.5,473.2c20.7,54-37.6,142.1-37.6,142.1l-60.4,2.2l8.1-11.3l-22.4-4.4
					c54.5-45.6,77.3-119.1,37.4-127.8C1306.9,470.2,1390.6,450,1399.5,473.2z"/>
				<path class="st11" d="M1395.7,536c1.4,5.4-3,9.9-15.2,17.7c-16.8,10.7-38.5,6.9-53.7,1.9c-3.2,5.3-6.8,10.6-10.8,15.9
					c9.2,3.4,21.2,6.2,36.3,6.8c13.8,0.5,24.8-2.5,33.5-7.8c4.7-10.6,9.2-22.4,12.5-34.4C1397.5,536.1,1396.6,536,1395.7,536z"/>
				<path class="st11" d="M1392,483.9c1.4,5.4,8.9,39-5.2,48.9c-16.3,11.5-35.8,12.1-51,7.1c-3.2,5.3-3.2,9.8-7.2,15.1
					c9.2,3.4,19.1,5.5,34.3,6c13.8,0.5,22.1-5.4,30.7-10.7c4.7-10.6,11.9-19.5,15.3-31.5C1408.1,518.7,1392.9,483.9,1392,483.9z"/>
				<path class="st12" d="M1362.6,761.7l9.3,8.7c0,0-9.9,22.3-20.4,24.4c-10.6,2.1-35.3,0-35.3,0v-6.5c0,0,38.4-3.9,30.8-17.5
					L1362.6,761.7z"/>
				<polygon class="st17" points="1309.5,606.3 1341.8,565.8 1305.2,605.4 				"/>
				<circle class="st18" cx="1336.4" cy="582.1" r="1.6"/>
				<circle class="st18" cx="1324.5" cy="596.9" r="1.6"/>
				<path class="st13" d="M1295.4,543.2c0,0,18.3,82.7-3.3,162c-21.6,79.3-34.4,148,56.6,155.8c121,10.4,124.8-24.8,110.1-34.2
					c-44.2-28.2-144.4-8.8-91.7,6.5c19.8,5.7,34.2,5,43.3,2.1"/>
				<g>
					<path class="st5" d="M1282.1,535.6c-1.8,0.4-2.6,1.9-1.9,3.3l0,0c0.7,2.2,2.7,2.3,4.5,1.9l6.7-1.4c1.8-0.4,2.6-1.9,1.9-3.3l0,0
						c-0.7-1.4-2.7-2.3-4.5-1.9L1282.1,535.6z"/>
					<path class="st5" d="M1283,541.2c-1.7,0.5-3,2.3-2.2,3.7l0,0c0.9,1.4,3,2.1,4.7,1.6l7.7-2.3c1.7-0.5,2.4-2.1,1.5-3.5l0,0
						c-0.9-1.4-3-2.1-4.7-1.6L1283,541.2z"/>
					<path class="st5" d="M1285.9,546.5c-1.6,0.5-2.2,1.9-1.4,3.2l0,0c0.8,1.3,2.8,2,4.4,1.5l9.5-3.3c1.6-0.5,2.2-1.9,1.4-3.2l0,0
						c-0.8-1.3-2.8-2-4.4-1.5L1285.9,546.5z"/>
					<path class="st5" d="M1299.4,546.1l-10.4,4.1c-1.5,0.6-2,2.1-1,3.4c0.9,1.3,2.9,1.8,4.5,1.2l9.7-4.3
						C1301.3,548.9,1300.4,547.5,1299.4,546.1z"/>
					<path class="st5" d="M1284.6,542.4c6,3.3,2.9,12.3,9.5,10.4c9.7-2.9,15.6-4.5,16.1-11.3c0.6-6.9-4.4-8.9-11.3-9.5
						C1292.1,531.4,1275.6,537.4,1284.6,542.4z"/>
					<path class="st5" d="M1307.3,535.3c0.1,1.7-10,0.3-11.7,0.4l-5.9,2.3c-1.7,0.1-3.1-1.1-3.2-2.8l0,0c-0.1-1.7,1.1-3.1,2.8-3.2
						c0,0,3.2-1.1,7.2-1.1C1298.1,530.9,1307.2,533.6,1307.3,535.3L1307.3,535.3z"/>
				</g>
				<path class="st16" d="M1172.8,502.6c0,0,109.2-43.7,199.1-47.3l14.6,1.6c0,0,17.6,1.7,25.4,14.9c7.7,13.2,8.8,98.6-59.5,94.9
					c-27.9-1.5-38.2-9.4-53.5-14.8c-2.7-12,8.3-17.9,8.3-17.9s44.6,26.4,73.4,8c25-16,21.4-34,1.7-69.5c-2.5-4.5-15.8,18.7-20,13.8
					c-20.1-22.9-175.3,25.9-175.3,25.9L1172.8,502.6z"/>
				<path class="st5" d="M1364.9,444.4c0,0,5.2,6.4-1.1,15.7c0,0,3.1,4.1,15.2,3c12-1.1,9.7-24.1,5.8-36.6
					C1384.8,426.6,1361.3,434.9,1364.9,444.4z"/>
				<path class="st14" d="M1366.8,449c6.4-2,12.9-4,18.8-7.3c0.7-0.4,1.4-0.8,2-1.2c-0.5-5-1.6-10-2.8-14c0,0-23.5,8.2-19.9,17.8
					C1364.9,444.4,1366.3,446.1,1366.8,449z"/>
				<path class="st5" d="M1326.4,428.5c-1.8,2.9-7.3,12-1.3,16.9c6,5,41.8,18.9,70.4-31.5c0,0,9.4,5.4,11.4-5.9
					c3-17.4-8.7-10.7-8.7-10.7s7-33.5-23.6-32.2c-30.5,1.3-48.7,17.2-43.5,38.8C1333.5,414.1,1330.1,422.5,1326.4,428.5z"/>
				<path class="st14" d="M1401.4,396.2c-1.8,0.3-3.2,1.1-3.2,1.1s7-33.5-23.6-32.2c-26.8,1.2-44.1,13.5-44.4,31.2
					c23.1,3.3,53.2-14.7,53.2-14.7c6.1,7.5,7.7,20.2,8.4,26.4c0.7,6.2,4.3,0,4.3,0C1398,405,1399.9,400.8,1401.4,396.2z"/>
				<path class="st8" d="M1323.4,390.1c0,0-7.1-40.8,42.1-45.7c51.1-5.1,43.1,48.7,32.6,65.2c0,0-5.6,4.7-6.3-1.6
					c-0.7-6.2-1-22.9-7.1-30.4C1384.7,377.6,1346.8,400.3,1323.4,390.1z"/>
				
					<ellipse transform="matrix(2.529949e-02 -0.9997 0.9997 2.529949e-02 917.7479 1759.3933)" class="st8" cx="1361.1" cy="409.1" rx="4.7" ry="2.7"/>
				<path class="st8" d="M1335.4,405.2c0.4-0.5,0.9-0.8,1.4-0.7c1.2,0.1,2.2,1.9,2,4.1c-0.1,2.2-1.2,3.9-2.5,3.8
					c-1.2-0.1-2.2-1.9-2-4.1C1334.4,407.1,1334.8,405.9,1335.4,405.2"/>
				<path class="st8" d="M1355.2,401.1c3.5,0,9.4-2.4,12.5-6.2c1.4-1.7,3.2-5,5.6-3.7c2.4,1.3-2.9,9.7-11,12.2
					c-6,1.8-9.9,1.3-9.9-0.7C1352.3,400.9,1354.4,401.1,1355.2,401.1z"/>
				<path class="st8" d="M1329.8,393.9c2.3,1.2,3.6,3.7,8.4,5.9c4.2,1.9,4.3,2.3,3.7,3.7c-0.6,1.4-5.2,2-12.7-4.8
					C1324.5,394.4,1328.8,393.3,1329.8,393.9z"/>
				<path class="st19" d="M1346,404.8c0,0-5.9,10.5-9.2,14.5c-2.8,3.5-0.7,10.6,6.8,9.1c7.5-1.6,7.6-6.8,4.8-7.8c0,0,2.5,6-6.2,6.2
					c-6.7,0.1-4.4-6.2-3-7.8C1340.6,417.3,1344.5,411.7,1346,404.8z"/>
				<path class="st15" d="M1331.4,439c0,0,5.5-3.5,4.2-8.7c0,0,14.7-0.2,17.7,0c0,0,5.7,10.2-0.6,15
					C1352.7,445.3,1334.4,444.7,1331.4,439z"/>
				<path class="st19" d="M1352.7,445.3c6.2-4.8,0.7-14.8,0.7-14.8c0.8,3.1,1.4,4.7,0.3,5.7c-2.1,1.7-7.2,1.1-7.2,1.1
					c4.9,1,5,0.6,7.2,1.1C1355.2,438.6,1353.7,443.1,1352.7,445.3z"/>
				<path class="st20" d="M1379.9,461.7l7,31.4l-9.1-5.9l1.9,15.3l-27.3,46.3l-2.2-52.5l5.6-13.6l-7,0.6l15.1-23.2
					c0,0,3.2,2.2,4.5,2.5C1371.2,463.3,1379.9,461.7,1379.9,461.7z"/>
				<path class="st21" d="M1365.9,461.1c0,0-2.7,8.7-3.3,11.6c-2.6,13.9-5.4,56.1-5.4,56.1s16.6-40.5,19-54.9c0.5-2.9,0-11.8,0-11.8
					S1368.2,463.3,1365.9,461.1z"/>
				<path class="st14" d="M1371.7,470.5c2,0.3,3.3,0.9,4.7,2l-0.1-10.3c0,0-8,1-10.3-1.1l-2.8,9.5
					C1366.1,469.9,1369.1,470.1,1371.7,470.5z"/>
				<path class="st18" d="M1373.6,466.1c-0.3,1.7-2.3,2.8-4.4,2.4l0,0c-2.1-0.4-3.6-2.1-3.2-3.8l0,0c0.3-1.7,2.3-2.8,4.4-2.4l0,0
					C1372.4,462.7,1373.9,464.4,1373.6,466.1L1373.6,466.1z"/>
				<polygon class="st18" points="1371.4,464.7 1363.5,510.8 1357.2,528.9 1358.9,510.8 1368.7,463.9 				"/>
				<polygon class="st15" points="1378.1,468.6 1376.2,462.2 1387.6,452.5 1394,458.3 				"/>
				<path class="st15" d="M1365.9,461.3l-4.4,2.2l0.7-8.6c0,0,3.4-0.8,4.3-0.7C1366.7,455.8,1365.9,461.3,1365.9,461.3z"/>
				<g>
					<path class="st5" d="M1159.8,513c-1.3,1.2-1.3,2.9,0,3.8l0,0c1.7,1.6,3.5,0.6,4.9-0.6l5.1-4.5c1.3-1.2,1.3-2.9,0-3.8l0,0
						c-1.3-0.9-3.5-0.6-4.9,0.6L1159.8,513z"/>
					<path class="st5" d="M1163.3,517.5c-1.2,1.3-1.5,3.5,0,4.3l0,0c1.5,0.8,3.6,0.4,4.8-0.9l5.6-5.8c1.2-1.3,1-3-0.4-3.8l0,0
						c-1.5-0.8-3.6-0.4-4.8,0.9L1163.3,517.5z"/>
					<path class="st5" d="M1168.4,520.7c-1.1,1.2-1,2.8,0.4,3.5l0,0c1.4,0.7,3.4,0.3,4.5-0.9l6.7-7.5c1.1-1.2,1-2.8-0.4-3.5l0,0
						c-1.4-0.7-3.4-0.3-4.5,0.9L1168.4,520.7z"/>
					<path class="st5" d="M1180,513.6l-7.1,8.7c-1,1.3-0.7,2.8,0.8,3.4c1.4,0.6,3.4,0.1,4.5-1.1l6.3-9
						C1183.1,514.7,1181.5,514.4,1180,513.6z"/>
					<path class="st5" d="M1165.3,517.7c6.9-0.1,8.6,9.3,13.4,4.3c7-7.3,11.3-11.6,8.4-17.8c-2.9-6.3-8.3-5.5-14.5-2.6
						C1166.3,504.5,1155.1,517.9,1165.3,517.7z"/>
					<path class="st5" d="M1181.5,500.3c0.9,1.4-8.6,5.2-10,6.1l-4,5c-1.4,0.9-3.3,0.6-4.2-0.8l0,0c-0.9-1.4-0.5-3.3,0.8-4.2
						c0,0,2.2-2.5,5.7-4.5C1171.4,501.1,1180.6,498.9,1181.5,500.3L1181.5,500.3z"/>
					<path class="st14" d="M1163.3,509.9c0,0,5.1,6.3,11.2,5.3c5.2-0.9,5-4.4,4.5-5c-1-1.1-6-1.2-5.5-2.6c0.5-1.4,4.1-2.9,4.1-2.9
						s-6.6,1.3-5.7,3c0.8,1.7,5.9,1.8,6.5,3.4C1178.6,511.8,1177.9,518.3,1163.3,509.9z"/>
					<path class="st14" d="M1179.1,515.4c1-0.4,4.2-0.9,3,3.1c0,0-0.4-2.8-5-1.8C1177.1,516.6,1178.5,515.6,1179.1,515.4z"/>
					<path class="st14" d="M1172.3,522.2c0,0,1.8-4.6,4.7-6.6C1177.1,515.6,1173.9,521.2,1172.3,522.2z"/>
					<path class="st14" d="M1171.8,515.3c-1.8,2.2-2.8,4.8-2.8,4.8c1-0.6,2.6-3,3.6-4.7C1172.4,515.3,1172.1,515.3,1171.8,515.3z"/>
					<path class="st14" d="M1166.3,513.6c-1.8,1.7-2.9,3.5-2.9,3.5c0.9-0.4,2.5-1.9,3.8-3.3C1166.8,513.8,1166.6,513.7,1166.3,513.6
						z"/>
				</g>
				<g>
					<path class="st12" d="M1182.2,511.3c-1-0.2-2-0.4-3-0.6c0.1,0.5,0,1-0.1,1.5c-0.3,0.8-0.7,1.5-1.5,1.8c1.2,0.2,2.5,0.5,3.9,0.8
						c1.5,0.3,3.1,0.6,4.7,1l0.7-3.4C1185.3,511.9,1183.7,511.6,1182.2,511.3z"/>
				</g>
			</g>
		</g>
	</g>
</g>
<g id="NoBQ8K.tif">
	
		<image style="overflow:visible;" width="402" height="859" id="Layer_1_1_" xlink:href="2DDED3E121662BA9.png"  transform="matrix(1.1172 0 0 1.1172 0 107.7452)">
	</image>
</g>
<g id="mAXHQj.tif">
	
		<image style="overflow:visible;" width="306" height="859" id="Layer_1_2_" xlink:href="2DDED3E121662BAB.png"  transform="matrix(1.1624 0 0 1.1624 1562.3297 83.7452)">
	</image>
</g>
</svg>
