<?xml version="1.0" encoding="utf-8"?>
<!-- Generator: Adobe Illustrator 20.0.0, SVG Export Plug-In . SVG Version: 6.00 Build 0)  -->
<svg version="1.1" id="Layer_1" xmlns="http://www.w3.org/2000/svg" xmlns:xlink="http://www.w3.org/1999/xlink" x="0px" y="0px"
	 viewBox="0 0 1920 1080" style="enable-background:new 0 0 1920 1080;" xml:space="preserve">
<style type="text/css">
	.st0{fill:#86CBCC;}
	.st1{fill:#FFFFFF;}
	.st2{fill:none;}
	.st3{fill:#4B687D;}
	.st4{fill:#2D586E;}
	.st5{fill:#ED5A47;}
	.st6{fill:#F07B63;}
	.st7{fill:#3D3D3C;}
	.st8{fill:none;stroke:#FFFFFF;stroke-width:2;stroke-miterlimit:10;}
	.st9{fill:none;stroke:#FFFFFF;stroke-width:2;stroke-miterlimit:10;stroke-dasharray:4.0153,4.0153;}
	.st10{fill:none;stroke:#2D586E;stroke-width:14;stroke-miterlimit:10;}
	.st11{fill:#EDEDED;}
</style>
<rect class="st0" width="1920" height="1080"/>
<path class="st1" d="M1048.3,774.1l2.2-11.7l-8.3-1.4c0-0.4,0-0.8,0-1.2s0-0.8,0-1.2l8.3-1.4l-2.2-11.7l-8.3,1.4
	c-0.3-0.8-0.6-1.5-0.9-2.3l7.3-3.9l-6.4-10.3l-7.3,3.9c-0.5-0.6-1.1-1.3-1.7-1.9l5.4-6l-9.8-7.6l-5.4,6c-0.8-0.4-1.5-0.8-2.3-1.2
	l2.9-7.4l-12-4.1l-2.9,7.4c-0.9-0.2-1.7-0.3-2.6-0.4v-7.8h-12.8v7.8c-0.9,0.1-1.8,0.3-2.6,0.4l-2.9-7.4l-12,4.1l2.9,7.4
	c-0.8,0.4-1.5,0.8-2.3,1.2l-5.4-6l-9.8,7.6l5.4,6c-0.6,0.6-1.2,1.2-1.7,1.9l-7.3-3.9l-6.4,10.3l7.3,3.9c-0.3,0.8-0.6,1.5-0.9,2.3
	l-8.3-1.4l-2.2,11.7l8.3,1.4c0,0.4,0,0.8,0,1.2c0,0.4,0,0.8,0,1.2l-8.3,1.4l2.2,11.7l8.3-1.4c0.3,0.8,0.6,1.5,0.9,2.3l-7.3,3.9
	l6.4,10.3l7.3-3.9c0.5,0.6,1.1,1.3,1.7,1.9l-5.4,6l9.8,7.6l5.4-6c0.8,0.4,1.5,0.8,2.3,1.2l-2.9,7.4l12,4.1l2.9-7.4
	c0.9,0.2,1.7,0.3,2.6,0.4v7.8h12.8v-7.8c0.9-0.1,1.8-0.3,2.6-0.4l2.9,7.4l12-4.1l-2.9-7.4c0.8-0.4,1.5-0.8,2.3-1.2l5.4,6l9.8-7.6
	l-5.4-6c0.6-0.6,1.2-1.2,1.7-1.9l7.3,3.9l6.4-10.3l-7.3-3.9c0.3-0.8,0.6-1.5,0.9-2.3L1048.3,774.1z M1026.5,759.9c0,0.3,0,0.5,0,0.8
	l5.4,0.9l-1.4,7.6l-5.4-0.9c-0.2,0.5-0.4,1-0.6,1.5l4.7,2.5l-4.1,6.6l-4.7-2.5c-0.4,0.4-0.7,0.8-1.1,1.2l3.5,3.9l-6.3,4.9l-3.5-3.9
	c-0.5,0.3-1,0.5-1.5,0.8l1.9,4.8l-7.8,2.6l-1.9-4.8c-0.6,0.1-1.1,0.2-1.7,0.3v5.1h-8.3v-5.1c-0.6-0.1-1.1-0.2-1.7-0.3l-1.9,4.8
	l-7.8-2.6l1.9-4.8c-0.5-0.3-1-0.5-1.5-0.8l-3.5,3.9l-6.3-4.9l3.5-3.9c-0.4-0.4-0.7-0.8-1.1-1.2l-4.7,2.5l-4.1-6.6l4.7-2.5
	c-0.2-0.5-0.4-1-0.6-1.5l-5.4,0.9l-1.4-7.6l5.4-0.9c0-0.3,0-0.5,0-0.8c0-0.3,0-0.5,0-0.8l-5.4-0.9l1.4-7.6l5.4,0.9
	c0.2-0.5,0.4-1,0.6-1.5l-4.7-2.5l4.1-6.6l4.7,2.5c0.4-0.4,0.7-0.8,1.1-1.2l-3.5-3.9l6.3-4.9l3.5,3.9c0.5-0.3,1-0.5,1.5-0.8l-1.9-4.8
	l7.8-2.6l1.9,4.8c0.6-0.1,1.1-0.2,1.7-0.3v-5.1h8.3v5.1c0.6,0.1,1.1,0.2,1.7,0.3l1.9-4.8l7.8,2.6l-1.9,4.8c0.5,0.3,1,0.5,1.5,0.8
	l3.5-3.9l6.3,4.9l-3.5,3.9c0.4,0.4,0.7,0.8,1.1,1.2l4.7-2.5l4.1,6.6l-4.7,2.5c0.2,0.5,0.4,1,0.6,1.5l5.4-0.9l1.4,7.6l-5.4,0.9
	C1026.5,759.3,1026.5,759.6,1026.5,759.9z"/>
<g>
	<ellipse class="st2" cx="1230.1" cy="785.5" rx="8.6" ry="8"/>
	<path class="st2" d="M1213.9,780.4c1.7-4.6,5.7-8.3,10.7-9.9v-13.7c-12.9,2.1-23.1,11.6-25.4,23.5H1213.9z"/>
	<path class="st2" d="M1235.6,770.6c5,1.6,9,5.2,10.7,9.9h14.8c-2.3-12-12.5-21.4-25.4-23.5L1235.6,770.6L1235.6,770.6z"/>
	<path class="st2" d="M1224.5,800.5c-5-1.6-9-5.2-10.7-9.9h-14.8c2.3,12,12.5,21.4,25.4,23.5V800.5z"/>
	<path class="st2" d="M1246.2,790.7c-1.7,4.6-5.7,8.3-10.7,9.9v13.7c12.9-2.1,23.1-11.6,25.4-23.5H1246.2z"/>
	<path class="st1" d="M1273.7,797.9l1.9-10.1l-7.2-1.2c0-0.4,0-0.7,0-1.1c0-0.4,0-0.7,0-1.1l7.2-1.2l-1.9-10.1l-7.2,1.2
		c-0.2-0.7-0.5-1.3-0.8-2l6.3-3.4l-5.5-8.9l-6.3,3.4c-0.5-0.6-1-1.1-1.5-1.6l4.7-5.2l-8.5-6.6l-4.7,5.2c-0.6-0.4-1.3-0.7-2-1.1
		l2.5-6.4l-10.4-3.5l-2.5,6.4c-0.7-0.1-1.5-0.3-2.3-0.4v-6.8h-11.1v6.8c-0.8,0.1-1.5,0.2-2.3,0.4l-2.5-6.4l-10.4,3.5l2.5,6.4
		c-0.7,0.3-1.3,0.7-2,1.1l-4.7-5.2l-8.5,6.6l4.7,5.2c-0.5,0.5-1,1.1-1.5,1.6l-6.3-3.4l-5.5,8.9l6.3,3.4c-0.3,0.7-0.5,1.3-0.8,2
		l-7.2-1.2l-1.9,10.1l7.2,1.2c0,0.4,0,0.7,0,1.1c0,0.4,0,0.7,0,1.1l-7.2,1.2l1.9,10.1l7.2-1.2c0.2,0.7,0.5,1.3,0.8,2l-6.3,3.4
		l5.5,8.9l6.3-3.4c0.5,0.6,1,1.1,1.5,1.6l-4.7,5.2l8.5,6.6l4.7-5.2c0.6,0.4,1.3,0.7,2,1.1l-2.5,6.4l10.4,3.5l2.5-6.4
		c0.7,0.1,1.5,0.3,2.3,0.4v6.8h11.1v-6.8c0.8-0.1,1.5-0.2,2.3-0.4l2.5,6.4l10.4-3.5l-2.5-6.4c0.7-0.3,1.3-0.7,2-1.1l4.7,5.2l8.5-6.6
		l-4.7-5.2c0.5-0.5,1-1.1,1.5-1.6l6.3,3.4l5.5-8.9l-6.3-3.4c0.3-0.7,0.5-1.3,0.8-2L1273.7,797.9z M1261,780.4h-14.8
		c-1.7-4.6-5.7-8.3-10.7-9.9v-13.7C1248.5,759,1258.7,768.5,1261,780.4z M1221.4,785.5c0-4.4,3.9-8,8.6-8c4.8,0,8.6,3.6,8.6,8
		c0,4.4-3.9,8-8.6,8C1225.3,793.5,1221.4,790,1221.4,785.5z M1224.5,756.9v13.7c-5,1.6-9,5.2-10.7,9.9h-14.8
		C1201.4,768.5,1211.6,759,1224.5,756.9z M1199.1,790.7h14.8c1.7,4.6,5.7,8.3,10.7,9.9v13.7C1211.6,812.1,1201.4,802.6,1199.1,790.7
		z M1235.6,814.2v-13.7c5-1.6,8.9-5.2,10.7-9.9h14.8C1258.7,802.6,1248.5,812.1,1235.6,814.2z"/>
</g>
<g>
	<path class="st1" d="M844.7,992.9l2.7-13.9l-10-1.6c0-0.5,0-1,0-1.5c0-0.5,0-1,0-1.5l10-1.6l-2.6-13.9l-9.9,1.6
		c-0.3-0.9-0.7-1.8-1.1-2.8l8.7-4.7l-7.6-12.2l-8.8,4.7c-0.7-0.8-1.3-1.5-2-2.2l6.5-7.2l-11.7-9.1l-6.5,7.2c-0.9-0.5-1.8-1-2.7-1.5
		l3.4-8.8l-14.3-4.8l-3.4,8.8c-1-0.2-2.1-0.4-3.1-0.5V918h-15.3v9.3c-1,0.1-2.1,0.3-3.1,0.5l-3.4-8.8l-14.3,4.8l3.4,8.8
		c-0.9,0.5-1.8,1-2.7,1.5l-6.5-7.2l-11.7,9.1l6.5,7.2c-0.7,0.7-1.4,1.5-2,2.2l-8.8-4.7l-7.6,12.2l8.7,4.7c-0.4,0.9-0.8,1.8-1.1,2.8
		l-9.9-1.6l-2.7,13.9l10,1.6c0,0.5,0,1,0,1.5s0,1,0,1.5l-10,1.6l2.7,13.9l9.9-1.6c0.3,0.9,0.7,1.8,1.1,2.8l-8.7,4.7l7.6,12.2
		l8.8-4.7c0.7,0.8,1.3,1.5,2,2.2l-6.5,7.2l11.7,9.1l6.5-7.2c0.9,0.5,1.8,1,2.7,1.5l-3.4,8.8l14.3,4.8l3.4-8.8c1,0.2,2.1,0.4,3.1,0.5
		v9.3h15.3v-9.3c1-0.1,2.1-0.3,3.1-0.5l3.4,8.8l14.3-4.8l-3.4-8.8c0.9-0.5,1.8-1,2.7-1.5l6.5,7.2l11.7-9.1l-6.5-7.2
		c0.7-0.7,1.4-1.5,2-2.2l8.8,4.7l7.6-12.2l-8.7-4.7c0.4-0.9,0.8-1.8,1.1-2.8L844.7,992.9z M784.5,1015.7
		c-23.8,0-43.1-17.9-43.1-39.9s19.3-39.9,43.1-39.9c23.8,0,43.1,17.9,43.1,39.9C827.6,997.9,808.3,1015.7,784.5,1015.7z"/>
	<path class="st1" d="M784.5,939.2c-21.9,0-39.6,16.4-39.6,36.7s17.7,36.7,39.6,36.7c21.9,0,39.6-16.4,39.6-36.7
		S806.3,939.2,784.5,939.2z M784.5,1004.8c-17.3,0-31.3-13-31.3-29c0-16,14-29,31.3-29c17.3,0,31.3,13,31.3,29
		C815.8,991.9,801.8,1004.8,784.5,1004.8z"/>
	<g>
		<path class="st1" d="M788.1,972.5h24.8c-1.6-12-11.9-21.4-24.8-23V972.5z"/>
		<path class="st1" d="M780.8,972.5v-23c-12.9,1.5-23.1,11-24.8,23H780.8z"/>
		<path class="st1" d="M780.8,979.2H756c1.6,12,11.9,21.4,24.8,23V979.2z"/>
		<path class="st1" d="M788.1,979.2v23c12.9-1.5,23.1-11,24.8-23H788.1z"/>
	</g>
</g>
<g>
	<path class="st2" d="M649.6,986.6c4.9-6.4,12.7-10.8,21.6-11.5v-3.4c-10.3,0.8-19.2,5.9-24.8,13.2L649.6,986.6z"/>
	<path class="st2" d="M677,975.1c8.9,0.8,16.6,5.2,21.6,11.5l3.2-1.7c-5.6-7.4-14.5-12.4-24.8-13.2V975.1z"/>
	<ellipse class="st2" cx="674.1" cy="1002.8" rx="19.7" ry="18.3"/>
	<path class="st2" d="M704.6,1016c2-4,3.2-8.5,3.2-13.2c0-4.7-1.1-9.2-3.2-13.3l-3.2,1.7c1.7,3.5,2.7,7.4,2.7,11.5s-1,8-2.7,11.5
		L704.6,1016z"/>
	<path class="st2" d="M698.5,1019c-4.9,6.4-12.7,10.8-21.6,11.5v3.4c10.3-0.8,19.2-5.9,24.8-13.2L698.5,1019z"/>
	<path class="st2" d="M671.2,1030.5c-8.9-0.8-16.6-5.2-21.6-11.5l-3.2,1.7c5.6,7.4,14.5,12.4,24.8,13.2V1030.5z"/>
	<path class="st2" d="M643.5,989.5c-2,4-3.2,8.5-3.2,13.2c0,4.7,1.1,9.2,3.2,13.2l3.2-1.7c-1.7-3.5-2.7-7.4-2.7-11.5
		c0-4.1,1-8,2.7-11.5L643.5,989.5z"/>
	<path class="st1" d="M717.4,1015l1.9-10l-7.2-1.2c0-0.4,0-0.7,0-1.1c0-0.4,0-0.7,0-1.1l7.2-1.2l-1.9-10l-7.2,1.2
		c-0.2-0.7-0.5-1.3-0.8-2l6.3-3.4l-5.5-8.8l-6.3,3.4c-0.5-0.6-1-1.1-1.5-1.6l4.7-5.2l-8.4-6.5l-4.7,5.2c-0.6-0.4-1.3-0.7-2-1.1
		l2.5-6.3l-10.3-3.5l-2.5,6.3c-0.7-0.1-1.5-0.3-2.2-0.4v-6.7h-11v6.7c-0.8,0.1-1.5,0.2-2.2,0.4l-2.5-6.3l-10.3,3.5l2.5,6.3
		c-0.7,0.3-1.3,0.7-2,1.1l-4.7-5.2l-8.4,6.5l4.7,5.2c-0.5,0.5-1,1.1-1.5,1.6l-6.3-3.4l-5.5,8.8l6.3,3.4c-0.3,0.7-0.5,1.3-0.8,2
		l-7.2-1.2l-1.9,10l7.2,1.2c0,0.3,0,0.7,0,1.1c0,0.4,0,0.7,0,1.1l-7.2,1.2l1.9,10l7.2-1.2c0.2,0.7,0.5,1.3,0.8,2l-6.3,3.4l5.5,8.8
		l6.3-3.4c0.5,0.6,1,1.1,1.5,1.6l-4.7,5.2l8.4,6.5l4.7-5.2c0.6,0.4,1.3,0.7,2,1.1l-2.5,6.3l10.3,3.5l2.5-6.3
		c0.7,0.1,1.5,0.3,2.2,0.4v6.7h11v-6.7c0.8-0.1,1.5-0.2,2.2-0.4l2.5,6.3l10.3-3.5l-2.5-6.3c0.7-0.3,1.3-0.7,2-1.1l4.7,5.2l8.4-6.5
		l-4.7-5.2c0.5-0.5,1-1.1,1.5-1.6l6.3,3.4l5.5-8.8l-6.3-3.4c0.3-0.7,0.5-1.3,0.8-2L717.4,1015z M701.4,991.3l3.2-1.7
		c2,4,3.2,8.5,3.2,13.3c0,4.7-1.1,9.2-3.2,13.2l-3.2-1.7c1.7-3.5,2.7-7.4,2.7-11.5C704.1,998.7,703.2,994.8,701.4,991.3z
		 M701.7,984.9l-3.2,1.7c-4.9-6.4-12.7-10.8-21.6-11.5v-3.4C687.2,972.5,696.1,977.5,701.7,984.9z M654.3,1002.8
		c0-10.1,8.8-18.3,19.7-18.3c10.9,0,19.7,8.2,19.7,18.3c0,10.1-8.8,18.3-19.7,18.3S654.3,1012.9,654.3,1002.8z M671.2,971.7v3.4
		c-8.9,0.8-16.6,5.2-21.6,11.5l-3.2-1.7C652,977.5,660.9,972.5,671.2,971.7z M646.7,1014.3l-3.2,1.7c-2-4-3.2-8.5-3.2-13.2
		c0-4.7,1.1-9.2,3.2-13.2l3.2,1.7c-1.7,3.5-2.7,7.4-2.7,11.5C644,1006.9,645,1010.8,646.7,1014.3z M646.4,1020.7l3.2-1.7
		c4.9,6.4,12.7,10.8,21.6,11.5v3.4C660.9,1033.1,652,1028.1,646.4,1020.7z M677,1033.9v-3.4c8.9-0.8,16.6-5.2,21.6-11.5l3.2,1.7
		C696.1,1028.1,687.2,1033.1,677,1033.9z"/>
</g>
<g>
	<path class="st2" d="M1142.1,811.5c0-16.2-14.2-29.3-31.7-29.3c-17.5,0-31.7,13.1-31.7,29.3c0,16.2,14.2,29.3,31.7,29.3
		C1128,840.8,1142.1,827.7,1142.1,811.5z M1085.3,811.5c0-12.9,11.3-23.3,25.2-23.3c5.3,0,10.3,1.5,14.4,4.2l-35,32.4
		C1087,821,1085.3,816.4,1085.3,811.5z M1110.5,834.8c-5.5,0-10.6-1.6-14.8-4.4l35.1-32.5c3,3.8,4.8,8.6,4.8,13.7
		C1135.7,824.4,1124.4,834.8,1110.5,834.8z"/>
	<path class="st2" d="M1115.1,767c14.3,1.3,26.7,8.3,34.6,18.5l5.1-2.7c-9-11.9-23.3-20-39.7-21.2V767z"/>
	<path class="st2" d="M1159.5,832.8c3.3-6.5,5.1-13.7,5.1-21.3c0-7.6-1.8-14.8-5.1-21.3l-5.1,2.7c2.8,5.6,4.3,11.9,4.3,18.5
		c0,6.6-1.6,12.9-4.3,18.5L1159.5,832.8z"/>
	<path class="st2" d="M1071.2,785.5c7.9-10.2,20.3-17.3,34.6-18.5v-5.5c-16.4,1.3-30.8,9.4-39.7,21.2L1071.2,785.5z"/>
	<path class="st2" d="M1061.4,790.2c-3.3,6.5-5.1,13.7-5.1,21.3s1.8,14.8,5.1,21.3l5.1-2.7c-2.8-5.6-4.3-11.9-4.3-18.5
		c0-6.6,1.6-12.9,4.3-18.5L1061.4,790.2z"/>
	<path class="st2" d="M1105.8,856c-14.3-1.3-26.7-8.3-34.6-18.5l-5.1,2.7c9,11.9,23.3,20,39.7,21.3L1105.8,856L1105.8,856z"/>
	<path class="st2" d="M1149.7,837.4c-7.9,10.2-20.3,17.3-34.6,18.5v5.5c16.4-1.3,30.8-9.4,39.7-21.2L1149.7,837.4z"/>
	<path class="st1" d="M1180.1,831.1l3.1-16.1l-11.5-1.9c0-0.6,0-1.1,0-1.7c0-0.6,0-1.1,0-1.7l11.5-1.9l-3.1-16.1l-11.5,1.9
		c-0.4-1.1-0.8-2.1-1.3-3.2l10.1-5.4l-8.8-14.1l-10.1,5.4c-0.8-0.9-1.5-1.8-2.3-2.6l7.5-8.3l-13.5-10.5l-7.5,8.3
		c-1-0.6-2.1-1.2-3.2-1.7l4-10.1l-16.6-5.6l-4,10.1c-1.2-0.2-2.4-0.4-3.6-0.6v-10.8h-17.6v10.8c-1.2,0.2-2.4,0.3-3.6,0.6l-4-10.1
		l-16.6,5.6l4,10.1c-1.1,0.5-2.1,1.1-3.2,1.7l-7.5-8.3l-13.5,10.5l7.5,8.3c-0.8,0.8-1.6,1.7-2.3,2.6l-10.1-5.4l-8.8,14.1l10.1,5.4
		c-0.5,1-0.9,2.1-1.2,3.2l-11.5-1.9l-3.1,16.1l11.5,1.9c0,0.6,0,1.1,0,1.7c0,0.6,0,1.1,0,1.7l-11.5,1.9l3.1,16.1l11.5-1.9
		c0.4,1.1,0.8,2.1,1.3,3.2l-10.1,5.4l8.8,14.1l10.1-5.4c0.8,0.9,1.5,1.8,2.3,2.6l-7.5,8.3l13.5,10.5l7.5-8.3c1,0.6,2.1,1.2,3.2,1.7
		l-4,10.1l16.6,5.6l4-10.1c1.2,0.2,2.4,0.4,3.6,0.6v10.8h17.6v-10.8c1.2-0.2,2.4-0.3,3.6-0.6l4,10.1l16.6-5.6l-4-10.1
		c1.1-0.5,2.1-1.1,3.2-1.7l7.5,8.3l13.5-10.5l-7.5-8.3c0.8-0.8,1.6-1.7,2.3-2.6l10.1,5.4l8.8-14.1l-10.1-5.4c0.5-1,0.9-2.1,1.3-3.2
		L1180.1,831.1z M1154.4,793l5.1-2.7c3.3,6.5,5.1,13.7,5.1,21.3c0,7.6-1.8,14.8-5.1,21.3l-5.1-2.7c2.8-5.6,4.3-11.9,4.3-18.5
		C1158.7,804.9,1157.2,798.6,1154.4,793z M1154.9,782.8l-5.1,2.7c-7.9-10.2-20.3-17.3-34.6-18.5v-5.5
		C1131.6,762.9,1145.9,770.9,1154.9,782.8z M1078.8,811.5c0-16.2,14.2-29.3,31.7-29.3c17.5,0,31.7,13.1,31.7,29.3
		c0,16.2-14.2,29.3-31.7,29.3C1093,840.8,1078.8,827.7,1078.8,811.5z M1105.8,761.6v5.5c-14.3,1.3-26.7,8.3-34.6,18.5l-5.1-2.7
		C1075,770.9,1089.4,762.9,1105.8,761.6z M1066.6,830l-5.1,2.7c-3.3-6.5-5.1-13.7-5.1-21.3c0-7.6,1.8-14.8,5.1-21.3l5.1,2.7
		c-2.8,5.6-4.3,11.9-4.3,18.5C1062.2,818.1,1063.8,824.4,1066.6,830z M1066.1,840.2l5.1-2.7c7.9,10.2,20.3,17.3,34.6,18.5v5.5
		C1089.4,860.1,1075,852,1066.1,840.2z M1115.1,861.4V856c14.3-1.3,26.7-8.3,34.6-18.5l5.1,2.7
		C1145.9,852,1131.6,860.1,1115.1,861.4z"/>
	<path class="st1" d="M1110.5,788.2c-13.9,0-25.2,10.4-25.2,23.3c0,4.9,1.7,9.5,4.5,13.3l35-32.4
		C1120.8,789.7,1115.8,788.2,1110.5,788.2z"/>
	<path class="st1" d="M1130.9,797.8l-35.1,32.5c4.1,2.8,9.2,4.4,14.8,4.4c13.9,0,25.2-10.4,25.2-23.3
		C1135.7,806.4,1133.9,801.7,1130.9,797.8z"/>
</g>
<g>
	<path class="st2" d="M1332.7,487.7c-17.3,0-31.3,13-31.3,29c0,16,14,29,31.3,29c17.3,0,31.3-13,31.3-29
		C1364.1,500.6,1350,487.7,1332.7,487.7z M1329.1,543c-12.9-1.5-23.1-11-24.8-23h24.8V543z M1329.1,513.3h-24.8
		c1.6-12,11.9-21.4,24.8-23V513.3z M1336.4,490.3c12.9,1.5,23.1,11,24.8,23h-24.8V490.3z M1336.4,543v-23h24.8
		C1359.5,532,1349.3,541.5,1336.4,543z"/>
	<path class="st2" d="M1376.3,516.7c0-22.3-19.5-40.3-43.6-40.3c-24.1,0-43.6,18.1-43.6,40.3c0,22.3,19.5,40.3,43.6,40.3
		C1356.8,557,1376.3,538.9,1376.3,516.7z M1332.7,553.3c-21.9,0-39.6-16.4-39.6-36.7c0-20.2,17.7-36.7,39.6-36.7
		c21.9,0,39.6,16.4,39.6,36.7C1372.3,536.9,1354.6,553.3,1332.7,553.3z"/>
	<path class="st2" d="M1339.1,455.5c19.6,1.7,36.8,11.4,47.6,25.5l7.1-3.8c-12.3-16.3-32.1-27.5-54.7-29.2L1339.1,455.5
		L1339.1,455.5z"/>
	<path class="st2" d="M1278.7,481c10.9-14.1,28-23.7,47.6-25.5v-7.5c-22.6,1.8-42.4,12.9-54.7,29.2L1278.7,481z"/>
	<path class="st2" d="M1400.2,545.9c4.5-8.9,7-18.8,7-29.3c0-10.5-2.5-20.4-7-29.3l-7.1,3.8c3.8,7.8,6,16.4,6,25.5
		c0,9.1-2.1,17.7-6,25.5L1400.2,545.9z"/>
	<path class="st2" d="M1265.3,487.4c-4.5,8.9-7,18.8-7,29.3c0,10.5,2.5,20.4,7,29.3l7.1-3.8c-3.8-7.8-6-16.4-6-25.5
		c0-9.1,2.1-17.7,6-25.5L1265.3,487.4z"/>
	<path class="st2" d="M1386.8,552.4c-10.9,14.1-28,23.7-47.6,25.5v7.5c22.6-1.8,42.4-12.9,54.7-29.2L1386.8,552.4z"/>
	<path class="st2" d="M1326.4,577.8c-19.6-1.7-36.8-11.4-47.6-25.5l-7.1,3.8c12.3,16.3,32.1,27.5,54.7,29.2L1326.4,577.8
		L1326.4,577.8z"/>
	<path class="st1" d="M1332.7,480c-21.9,0-39.6,16.4-39.6,36.7c0,20.2,17.7,36.7,39.6,36.7c21.9,0,39.6-16.4,39.6-36.7
		C1372.3,496.4,1354.6,480,1332.7,480z M1332.7,545.7c-17.3,0-31.3-13-31.3-29c0-16,14-29,31.3-29c17.3,0,31.3,13,31.3,29
		C1364.1,532.7,1350,545.7,1332.7,545.7z"/>
	<path class="st1" d="M1336.4,490.3v23h24.8C1359.5,501.3,1349.3,491.8,1336.4,490.3z"/>
	<path class="st1" d="M1304.3,513.3h24.8v-23C1316.2,491.8,1305.9,501.3,1304.3,513.3z"/>
	<path class="st1" d="M1329.1,543v-23h-24.8C1305.9,532,1316.2,541.5,1329.1,543z"/>
	<path class="st1" d="M1336.4,543c12.9-1.5,23.1-11,24.8-23h-24.8V543z"/>
	<path class="st1" d="M1428.5,543.7l4.2-22.1l-15.8-2.6c0-0.8,0.1-1.5,0.1-2.3c0-0.8,0-1.6-0.1-2.3l15.8-2.6l-4.2-22.1l-15.8,2.6
		c-0.5-1.5-1.1-2.9-1.7-4.4l13.9-7.4l-12.1-19.5l-13.9,7.4c-1-1.2-2.1-2.4-3.2-3.6l10.3-11.4l-18.6-14.5l-10.3,11.4
		c-1.4-0.8-2.9-1.6-4.4-2.3l5.5-14l-22.8-7.7l-5.5,14c-1.6-0.3-3.3-0.6-5-0.8v-14.9h-24.3v14.9c-1.7,0.2-3.3,0.5-5,0.8l-5.5-14
		l-22.8,7.7l5.5,14c-1.5,0.7-2.9,1.5-4.4,2.3l-10.3-11.4l-18.6,14.4l10.3,11.4c-1.1,1.2-2.2,2.4-3.2,3.6l-13.9-7.4l-12.1,19.5
		l13.9,7.4c-0.6,1.4-1.2,2.9-1.7,4.4l-15.8-2.6l-4.2,22.1l15.8,2.6c0,0.8-0.1,1.5-0.1,2.3c0,0.8,0,1.6,0.1,2.3l-15.8,2.6l4.2,22.1
		l15.8-2.6c0.5,1.5,1.1,2.9,1.7,4.4l-13.9,7.4l12.1,19.5l13.9-7.4c1,1.2,2.1,2.4,3.2,3.6l-10.3,11.4l18.6,14.4l10.3-11.4
		c1.4,0.8,2.9,1.6,4.4,2.3l-5.5,14l22.8,7.7l5.5-14c1.6,0.3,3.3,0.6,5,0.8v14.9h24.3v-14.9c1.7-0.2,3.3-0.5,5-0.8l5.5,14l22.8-7.7
		l-5.5-14c1.5-0.7,2.9-1.5,4.4-2.3l10.3,11.4l18.6-14.5l-10.3-11.4c1.1-1.2,2.2-2.3,3.2-3.6l13.9,7.4l12.1-19.5l-13.9-7.4
		c0.6-1.4,1.2-2.9,1.7-4.4L1428.5,543.7z M1393.2,491.2l7.1-3.8c4.5,8.9,7,18.8,7,29.3c0,10.5-2.5,20.4-7,29.3l-7.1-3.8
		c3.8-7.8,6-16.4,6-25.5C1399.1,507.6,1397,499,1393.2,491.2z M1393.8,477.2l-7.1,3.8c-10.9-14.1-28-23.7-47.6-25.5v-7.5
		C1361.8,449.7,1381.5,460.9,1393.8,477.2z M1289.2,516.7c0-22.3,19.5-40.3,43.6-40.3c24.1,0,43.6,18.1,43.6,40.3
		c0,22.3-19.5,40.3-43.6,40.3C1308.7,557,1289.2,538.9,1289.2,516.7z M1326.4,447.9v7.5c-19.6,1.7-36.8,11.4-47.6,25.5l-7.1-3.8
		C1284,460.9,1303.7,449.7,1326.4,447.9z M1272.3,542.1l-7.1,3.8c-4.5-8.9-7-18.8-7-29.3c0-10.5,2.5-20.4,7-29.3l7.1,3.8
		c-3.8,7.8-6,16.4-6,25.5C1266.4,525.8,1268.5,534.4,1272.3,542.1z M1271.7,556.1l7.1-3.8c10.9,14.1,28,23.7,47.6,25.5v7.5
		C1303.7,583.6,1284,572.5,1271.7,556.1z M1339.1,585.4v-7.5c19.6-1.7,36.8-11.4,47.6-25.5l7.1,3.8
		C1381.5,572.5,1361.8,583.6,1339.1,585.4z"/>
</g>
<g>
	<path class="st1" d="M1540,503.8l2.1-11.1l-7.9-1.3c0-0.4,0-0.8,0-1.2s0-0.8,0-1.2l7.9-1.3l-2.1-11.1l-7.9,1.3
		c-0.3-0.7-0.6-1.5-0.9-2.2l7-3.7l-6.1-9.7l-7,3.7c-0.5-0.6-1.1-1.2-1.6-1.8l5.2-5.7l-9.3-7.2l-5.2,5.7c-0.7-0.4-1.4-0.8-2.2-1.2
		l2.7-7l-11.4-3.8l-2.7,7c-0.8-0.2-1.6-0.3-2.5-0.4v-7.4H1486v7.4c-0.8,0.1-1.7,0.2-2.5,0.4l-2.7-7l-11.4,3.8l2.7,7
		c-0.7,0.4-1.5,0.8-2.2,1.2l-5.2-5.7l-9.3,7.2l5.2,5.7c-0.6,0.6-1.1,1.2-1.6,1.8l-7-3.7l-6.1,9.7l7,3.7c-0.3,0.7-0.6,1.5-0.9,2.2
		l-7.9-1.3l-2.1,11.1l7.9,1.3c0,0.4,0,0.8,0,1.2c0,0.4,0,0.8,0,1.2l-7.9,1.3l2.1,11.1l7.9-1.3c0.3,0.7,0.6,1.5,0.9,2.2l-7,3.7
		l6.1,9.7l7-3.7c0.5,0.6,1.1,1.2,1.6,1.8l-5.2,5.7l9.3,7.2l5.2-5.7c0.7,0.4,1.4,0.8,2.2,1.2l-2.7,7l11.4,3.8l2.7-7
		c0.8,0.2,1.7,0.3,2.5,0.4v7.4h12.1v-7.4c0.8-0.1,1.7-0.2,2.5-0.4l2.7,7l11.4-3.8l-2.7-7c0.7-0.4,1.5-0.8,2.2-1.2l5.2,5.7l9.3-7.2
		l-5.2-5.7c0.6-0.6,1.1-1.2,1.6-1.8l7,3.7l6.1-9.7l-7-3.7c0.3-0.7,0.6-1.4,0.9-2.2L1540,503.8z M1519.4,490.3c0,0.3,0,0.5,0,0.8
		l5.1,0.8l-1.4,7.2l-5.1-0.8c-0.2,0.5-0.4,1-0.6,1.4l4.5,2.4l-3.9,6.3l-4.5-2.4c-0.3,0.4-0.7,0.8-1,1.2l3.3,3.7l-6,4.7l-3.3-3.7
		c-0.5,0.3-0.9,0.5-1.4,0.8l1.8,4.5l-7.4,2.5l-1.8-4.5c-0.5,0.1-1.1,0.2-1.6,0.3v4.8h-7.9v-4.8c-0.5-0.1-1.1-0.2-1.6-0.3l-1.8,4.5
		l-7.4-2.5l1.8-4.5c-0.5-0.2-1-0.5-1.4-0.8l-3.3,3.7l-6-4.7l3.3-3.7c-0.4-0.4-0.7-0.8-1-1.2l-4.5,2.4l-3.9-6.3l4.5-2.4
		c-0.2-0.5-0.4-0.9-0.6-1.4l-5.1,0.8l-1.4-7.2l5.1-0.8c0-0.2,0-0.5,0-0.8s0-0.5,0-0.8l-5.1-0.8l1.4-7.2l5.1,0.8
		c0.2-0.5,0.4-1,0.6-1.4l-4.5-2.4l3.9-6.3l4.5,2.4c0.3-0.4,0.7-0.8,1-1.2l-3.3-3.7l6-4.7l3.3,3.7c0.5-0.3,0.9-0.5,1.4-0.8l-1.8-4.5
		l7.4-2.5l1.8,4.5c0.5-0.1,1.1-0.2,1.6-0.3v-4.8h7.9v4.8c0.5,0.1,1.1,0.2,1.6,0.3l1.8-4.5l7.4,2.5l-1.8,4.5c0.5,0.2,1,0.5,1.4,0.8
		l3.3-3.7l6,4.7l-3.3,3.7c0.4,0.4,0.7,0.8,1,1.2l4.5-2.4l3.9,6.3l-4.5,2.4c0.2,0.5,0.4,0.9,0.6,1.4l5.1-0.8l1.4,7.2l-5.1,0.8
		C1519.4,489.8,1519.4,490.1,1519.4,490.3z"/>
	<g>
		<path class="st1" d="M1504.5,473.8c-3.5-2.3-7.8-3.6-12.4-3.6c-12,0-21.8,9-21.8,20.1c0,4.3,1.4,8.2,3.9,11.5L1504.5,473.8z"/>
		<path class="st1" d="M1509.7,478.5l-30.4,28.1c3.6,2.4,8,3.8,12.8,3.8c12,0,21.8-9,21.8-20.1
			C1513.9,485.9,1512.3,481.8,1509.7,478.5z"/>
	</g>
</g>
<g>
	<g>
		<ellipse class="st2" cx="926.1" cy="892.5" rx="19" ry="17.6"/>
		<path class="st2" d="M890.6,881.3c3.7-10.2,12.4-18.2,23.4-21.7v-30c-28.4,4.7-50.8,25.4-55.8,51.7L890.6,881.3L890.6,881.3z"/>
		<path class="st2" d="M938.3,859.6c11,3.5,19.6,11.5,23.4,21.7h32.4c-5-26.3-27.4-47-55.8-51.7L938.3,859.6L938.3,859.6z"/>
		<path class="st2" d="M914,925.4c-11-3.5-19.6-11.5-23.4-21.7h-32.4c5,26.3,27.4,47,55.8,51.7L914,925.4L914,925.4z"/>
		<path class="st2" d="M961.7,903.7c-3.7,10.2-12.4,18.2-23.4,21.7v30c28.4-4.7,50.8-25.4,55.8-51.7H961.7z"/>
		<path class="st1" d="M1021.9,919.5l4.2-22.1l-15.8-2.6c0-0.8,0.1-1.5,0.1-2.3s0-1.6-0.1-2.3l15.8-2.6l-4.2-22.1l-15.8,2.6
			c-0.5-1.5-1.1-2.9-1.7-4.4l13.9-7.4l-12.1-19.5l-13.9,7.4c-1-1.2-2.1-2.4-3.2-3.6l10.3-11.4l-18.6-14.5l-10.3,11.4
			c-1.4-0.8-2.9-1.6-4.4-2.3l5.5-14l-22.8-7.7l-5.5,14c-1.6-0.3-3.3-0.6-5-0.8v-14.9H914v14.9c-1.7,0.2-3.3,0.5-5,0.8l-5.5-14
			l-22.8,7.7l5.5,14c-1.5,0.7-2.9,1.5-4.4,2.3l-10.3-11.4L853,829.2l10.3,11.4c-1.1,1.2-2.2,2.4-3.2,3.6l-13.9-7.4L834,856.2
			l13.9,7.4c-0.6,1.4-1.2,2.9-1.7,4.4l-15.8-2.6l-4.2,22.1l15.8,2.6c0,0.8-0.1,1.5-0.1,2.3c0,0.8,0,1.6,0.1,2.3l-15.8,2.6l4.2,22.1
			l15.8-2.6c0.5,1.5,1.1,2.9,1.7,4.4l-13.9,7.4l12.1,19.5l13.9-7.4c1,1.2,2.1,2.4,3.2,3.6L853,955.8l18.6,14.4l10.3-11.4
			c1.4,0.8,2.9,1.6,4.4,2.3l-5.5,14l22.8,7.7l5.5-14c1.6,0.3,3.3,0.6,5,0.8v14.9h24.3v-14.9c1.7-0.2,3.3-0.5,5-0.8l5.5,14l22.8-7.7
			l-5.5-14c1.5-0.7,2.9-1.5,4.4-2.3l10.3,11.4l18.6-14.5L989,944.4c1.1-1.2,2.2-2.3,3.2-3.6l13.9,7.4l12.1-19.5l-13.9-7.4
			c0.6-1.4,1.2-2.9,1.7-4.4L1021.9,919.5z M994.1,881.3h-32.4c-3.7-10.2-12.4-18.2-23.4-21.7v-30C966.7,834.2,989,855,994.1,881.3z
			 M907.2,892.5c0-9.7,8.5-17.6,19-17.6c10.5,0,19,7.9,19,17.6s-8.5,17.6-19,17.6C915.7,910.1,907.2,902.2,907.2,892.5z M914,829.6
			v30c-11,3.5-19.7,11.5-23.4,21.7h-32.4C863.2,855,885.6,834.2,914,829.6z M858.2,903.7h32.4c3.7,10.2,12.4,18.2,23.4,21.7v30
			C885.6,950.8,863.2,930,858.2,903.7z M938.3,955.4v-30c11-3.5,19.6-11.5,23.4-21.7h32.4C989,930,966.7,950.7,938.3,955.4z"/>
	</g>
	<ellipse class="st3" cx="926.1" cy="892.5" rx="69.1" ry="64"/>
	<path class="st4" d="M897.2,922.7l36.1,33.4c30.7-2.9,55.4-24.4,60.8-52.2l-45.9-42.5l-50.9,1.2V922.7z"/>
	<path class="st0" d="M942.5,917l-3.2-3c-1.4,0.6-3,1-4.6,1.2c-1.2,0.2-1.9,0.1-3.2,0l-0.2,0c-8.1-0.7-14.2-6.9-14.2-14.4
		c0-3.9,1.7-7.5,4.6-10.3c3-2.7,6.9-4.2,11.1-4.2c3.6,0,6.9,1.2,9.6,3.1V869c0-1.2-1.1-2.2-2.4-2.2l-41.2,0c0-1.5,2.5-2.3,2.5-2.3
		h41.1c2.6,0,2.5,2.1,2.5,2.1v25.2c2.2,2.5,3.5,5.7,3.5,9.1c0,2.1-0.5,4.1-1.4,6l1.7,1.6V863c0-1.7-2.3-2.1-2.3-2.1h-45.6
		c-6.8,0-6.8,5.8-6.8,5.8v53.8c0,1.2,1.1,2.2,2.4,2.2h43.5c1.3,0,2.4-1,2.4-2.2h3.7l-2.4-2.3L942.5,917z"/>
	<rect x="906" y="875.1" class="st1" width="25" height="4.4"/>
	<path class="st5" d="M957.5,920.6l-14.1-13c1.4-1.9,2.3-4.2,2.3-6.7c0-6.5-5.6-11.8-12.7-11.8c-7,0-12.7,5.2-12.7,11.7
		c0,6.1,5,11.2,11.5,11.7h0.1c1.3,0.1,1.7,0.1,2.6,0c2.1-0.2,4.1-0.9,5.8-2l14.1,13c0.9,0.8,2.3,0.8,3.1,0
		C958.4,922.7,958.4,921.4,957.5,920.6L957.5,920.6z"/>
	<path class="st1" d="M933,909.6c-5.3,0-9.5-4-9.5-8.8c0-4.9,4.3-8.8,9.6-8.8c5.2,0,9.5,4,9.5,8.8
		C942.5,905.7,938.2,909.7,933,909.6L933,909.6z"/>
	<path class="st1" d="M933,909.6"/>
</g>
<g>
	<g>
		<path class="st1" d="M1290.1,680.7l3.6-19.1l-13.7-2.2c0-0.7,0.1-1.3,0.1-2s0-1.3-0.1-2l13.7-2.2l-3.6-19.1l-13.7,2.2
			c-0.5-1.3-1-2.5-1.5-3.8l12-6.4l-10.5-16.8l-12,6.4c-0.9-1.1-1.8-2.1-2.8-3.1l8.9-9.9l-16.1-12.5l-8.9,9.8c-1.2-0.7-2.5-1.4-3.8-2
			l4.7-12.1l-19.7-6.6l-4.7,12.1c-1.4-0.3-2.8-0.5-4.3-0.7v-12.9h-21v12.9c-1.4,0.2-2.9,0.4-4.3,0.7l-4.7-12.1l-19.7,6.6l4.7,12.1
			c-1.3,0.6-2.5,1.3-3.8,2l-8.9-9.8l-16.1,12.5l8.9,9.9c-1,1-1.9,2-2.8,3.1l-12-6.4l-10.5,16.8l12,6.4c-0.5,1.2-1,2.5-1.5,3.8
			l-13.7-2.2l-3.6,19.1l13.7,2.2c0,0.7-0.1,1.3-0.1,2c0,0.7,0,1.3,0.1,2l-13.7,2.2l3.6,19.1l13.7-2.2c0.5,1.3,1,2.5,1.5,3.8l-12,6.4
			l10.5,16.8l12-6.4c0.9,1.1,1.8,2.1,2.8,3.1l-8.9,9.9l16.1,12.5l8.9-9.8c1.2,0.7,2.5,1.4,3.8,2l-4.7,12.1l19.7,6.6l4.7-12.1
			c1.4,0.3,2.8,0.5,4.3,0.7v12.9h21V724c1.4-0.2,2.9-0.4,4.3-0.7l4.7,12.1l19.7-6.6l-4.7-12.1c1.3-0.6,2.5-1.3,3.8-2l8.9,9.8
			l16.1-12.5l-8.9-9.9c1-1,1.9-2,2.8-3.1l12,6.4l10.5-16.8l-12-6.4c0.5-1.2,1-2.5,1.5-3.8L1290.1,680.7z M1254.4,657.3
			c0,0.4,0,0.9,0,1.3l8.9,1.4l-2.4,12.4l-8.8-1.4c-0.3,0.8-0.6,1.6-1,2.4l7.8,4.2l-6.8,10.9l-7.8-4.2c-0.6,0.7-1.2,1.3-1.8,2
			l5.8,6.4l-10.4,8.1l-5.8-6.4c-0.8,0.5-1.6,0.9-2.4,1.3l3.1,7.8l-12.8,4.3l-3.1-7.8c-0.9,0.2-1.8,0.3-2.8,0.4v8.3h-13.6v-8.3
			c-0.9-0.1-1.9-0.3-2.8-0.4l-3.1,7.8l-12.8-4.3l3.1-7.8c-0.8-0.4-1.6-0.9-2.4-1.3l-5.8,6.4l-10.4-8.1l5.8-6.4
			c-0.6-0.7-1.2-1.3-1.8-2l-7.8,4.2l-6.8-10.9l7.8-4.2c-0.3-0.8-0.7-1.6-1-2.4l-8.9,1.4l-2.4-12.4l8.9-1.4c0-0.4,0-0.9,0-1.3
			s0-0.9,0-1.3l-8.9-1.4l2.4-12.4l8.9,1.4c0.3-0.8,0.6-1.6,1-2.5l-7.8-4.2l6.8-10.9l7.8,4.2c0.6-0.7,1.2-1.3,1.8-2l-5.8-6.4
			l10.4-8.1l5.8,6.4c0.8-0.5,1.6-0.9,2.4-1.3l-3.1-7.8l12.8-4.3l3.1,7.8c0.9-0.2,1.8-0.3,2.8-0.4v-8.3h13.6v8.3
			c0.9,0.1,1.9,0.3,2.8,0.4l3.1-7.8l12.8,4.3l-3.1,7.8c0.8,0.4,1.6,0.9,2.4,1.3l5.8-6.4l10.4,8.1l-5.8,6.4c0.6,0.6,1.2,1.3,1.8,2
			l7.8-4.2l6.8,10.9l-7.8,4.2c0.3,0.8,0.7,1.6,1,2.4l8.8-1.4l2.4,12.4l-8.9,1.4C1254.4,656.4,1254.4,656.9,1254.4,657.3z"/>
		<g>
			<path class="st1" d="M1228.7,628.7c-6.1-3.9-13.5-6.2-21.4-6.2c-20.8,0-37.6,15.6-37.6,34.8c0,7.4,2.5,14.2,6.7,19.8
				L1228.7,628.7z"/>
			<path class="st1" d="M1237.7,636.9l-52.5,48.6c6.2,4.2,13.8,6.6,22,6.6c20.8,0,37.6-15.6,37.6-34.8
				C1244.9,649.7,1242.2,642.6,1237.7,636.9z"/>
		</g>
	</g>
	<ellipse class="st3" cx="1207.3" cy="657.3" rx="64.1" ry="59.4"/>
	<path class="st4" d="M1271.4,656.4l-16.2-14.8l-16.8,5.8l-34.4-10.2l-16.8,3.3l-22.7,24.1v6.5l26.3,17.6l-2.9,6.7l23,21.3
		c33.7-1.7,60.5-27.6,60.5-59.3C1271.4,657,1271.4,656.7,1271.4,656.4z"/>
	<g>
		<path class="st1" d="M1255.2,641.5v26.9c0,0-6.2,1.1-7.5,1.3c-1.3,0.1-5.3,1.3-8.2-1.2c-4.5-4-20.4-18.6-20.4-18.6
			s-2.7-2.5-7.2-0.3c-4,2-10,4.9-12.6,6c-4.7,2.3-8.7-1.4-8.7-4.2c0-2.2,1.5-3.7,3.6-4.8c5.7-3.2,17.8-9.5,22.8-11.9
			c3-1.5,5.2-1.6,9.4,1.6c5.2,4,9.7,7.7,9.7,7.7s1.5,1.2,3.9,0.7C1246,643.5,1255.2,641.5,1255.2,641.5L1255.2,641.5z"/>
		<path class="st1" d="M1191.8,687.1c0.8-1.8,0.5-3.9-1-5.3c-1.3-1.3-3.3-1.6-5.1-1.2c0.5-1.7,0.2-3.5-1.1-4.8
			c-1.3-1.3-3.3-1.6-5.1-1.2c0.5-1.7,0.2-3.5-1.1-4.8c-2.1-2-5.7-1.9-8.1,0.2c-2.4,2.1-3.9,5.9-1.8,8.2c2.1,2.2,4.5,0.9,6.4,0.5
			c-0.5,1.7-2.1,3.3-0.2,5.5c1.9,2.2,4.5,0.9,6.4,0.5c-0.5,1.7-2,3.4-0.2,5.5c1.8,2.1,4.8,1,6.8,0.4c-0.8,1.8-2.4,3.8-0.3,6
			c2.1,2.2,7,1.2,9.4-0.9c2.4-2.1,2.6-5.4,0.5-7.4C1195.9,686.8,1193.8,686.5,1191.8,687.1L1191.8,687.1z"/>
		<path class="st0" d="M1235.2,673.1c-17.2-15.9-9.1-8.4-18.4-17c0,0-2.8-2.6-6.4-1.1c-2.6,1-5.9,2.5-8.4,3.6
			c-2.7,1.3-4.7,1.7-5.6,1.7c-5.3,0-9.6-4-9.6-8.9c0-3.2,1.8-5.9,4.5-7.5c3.8-2.4,12.6-6.8,12.6-6.8s-2.7-3.1-8.6-3.1
			c-5.9,0-18.1,7.4-18.1,7.4s-3.5,2.1-8.4,0.2l-9.6-3.1v30.8c0,0,2.7,0.7,5.2,1.7c0.6-1.5,1.4-2.8,2.7-3.9
			c4.1-3.6,10.8-3.6,14.5-0.1c1.1,1.1,1.9,2.4,2.3,3.8c1.5,0.4,2.8,1.2,3.9,2.2c1.1,1.1,1.9,2.4,2.3,3.8c1.5,0.4,2.8,1.2,3.9,2.2
			c1.2,1.2,2,2.6,2.4,4.1c1.6,0.4,3,1.2,4.1,2.3c2.2,2.1,3,5,2.5,7.8c0,0,0,0,0,0c0,0,1.4,1.4,2.2,2.2c1.6,1.5,4.3,1.5,6,0
			c1.6-1.5,1.6-4,0-5.5c-0.1-0.1-5.9-5.7-5.4-6.2c0.5-0.4,7.9,6.8,8.1,6.9c1.6,1.5,4.3,1.5,6,0c1.6-1.5,1.6-4,0-5.5
			c-0.1-0.1-0.4-0.4-0.5-0.5c0,0-7.4-6.1-6.8-6.6c0.6-0.5,9.8,7.4,9.8,7.4c1.7,1.4,4.2,1.4,5.8-0.1c1.5-1.4,1.6-3.7,0.2-5.2
			c0-0.1-7-6.8-6.5-7.3c0.6-0.5,7.5,6.1,7.5,6.1c1.6,1.5,4.3,1.5,6,0C1236.9,677.2,1236.9,674.7,1235.2,673.1
			C1235.2,673.1,1235.2,673.1,1235.2,673.1L1235.2,673.1z"/>
		<path d="M1235.2,673.1"/>
	</g>
</g>
<g>
	<g>
		<path class="st2" d="M1081.7,682.7c3.5,0.9,6.7,2.6,9.2,4.9l10.2-5.5c-4.8-5.4-11.6-9.2-19.4-10.4L1081.7,682.7L1081.7,682.7z"/>
		<path class="st2" d="M1062,687.7c2.5-2.3,5.7-4.1,9.2-4.9v-10.9c-7.8,1.2-14.6,5-19.4,10.4L1062,687.7z"/>
		<path class="st2" d="M1096.8,701c0,1.7-0.3,3.4-0.7,4.9l10.2,5.5c1.3-3.2,2-6.7,2-10.4c0-3.7-0.7-7.2-2-10.4l-10.2,5.5
			C1096.6,697.6,1096.8,699.3,1096.8,701z"/>
		<ellipse class="st2" cx="1076.5" cy="701" rx="11.1" ry="10.3"/>
		<path class="st2" d="M1046.6,690.6c-1.3,3.2-2,6.7-2,10.4c0,3.7,0.7,7.2,2,10.4l10.2-5.5c-0.5-1.6-0.7-3.2-0.7-4.9
			c0-1.7,0.2-3.4,0.7-4.9L1046.6,690.6z"/>
		<path class="st2" d="M1090.9,714.3c-2.5,2.3-5.7,4.1-9.2,4.9v10.9c7.8-1.2,14.6-5,19.4-10.4L1090.9,714.3z"/>
		<path class="st2" d="M1071.3,719.2c-3.5-0.9-6.7-2.6-9.2-4.9l-10.2,5.5c4.8,5.4,11.6,9.2,19.4,10.4V719.2z"/>
		<path class="st1" d="M1121.9,713.8l2-10.5l-7.5-1.2c0-0.4,0-0.7,0-1.1s0-0.7,0-1.1l7.5-1.2l-2-10.5l-7.5,1.2
			c-0.3-0.7-0.5-1.4-0.8-2.1l6.6-3.5l-5.8-9.2l-6.6,3.5c-0.5-0.6-1-1.1-1.5-1.7l4.9-5.4l-8.8-6.9l-4.9,5.4c-0.7-0.4-1.4-0.8-2.1-1.1
			l2.6-6.6l-10.8-3.6l-2.6,6.6c-0.8-0.1-1.6-0.3-2.4-0.4v-7.1h-11.5v7.1c-0.8,0.1-1.6,0.2-2.4,0.4l-2.6-6.6l-10.8,3.6l2.6,6.6
			c-0.7,0.4-1.4,0.7-2.1,1.1l-4.9-5.4l-8.8,6.9l4.9,5.4c-0.5,0.5-1,1.1-1.5,1.7l-6.6-3.5l-5.8,9.2l6.6,3.5c-0.3,0.7-0.6,1.4-0.8,2.1
			l-7.5-1.2l-2,10.5l7.5,1.2c0,0.4,0,0.7,0,1.1c0,0.4,0,0.7,0,1.1l-7.5,1.2l2,10.5l7.5-1.2c0.3,0.7,0.5,1.4,0.8,2.1l-6.6,3.5
			l5.8,9.2l6.6-3.5c0.5,0.6,1,1.1,1.5,1.7l-4.9,5.4l8.8,6.9l4.9-5.4c0.7,0.4,1.4,0.8,2.1,1.1l-2.6,6.6l10.8,3.6l2.6-6.6
			c0.8,0.1,1.6,0.3,2.4,0.4v7.1h11.5v-7.1c0.8-0.1,1.6-0.2,2.4-0.4l2.6,6.6l10.8-3.6l-2.6-6.6c0.7-0.3,1.4-0.7,2.1-1.1l4.9,5.4
			l8.8-6.9l-4.9-5.4c0.5-0.5,1-1.1,1.5-1.7l6.6,3.5l5.8-9.2l-6.6-3.5c0.3-0.7,0.6-1.4,0.8-2.1L1121.9,713.8z M1108.4,701
			c0,3.7-0.7,7.2-2,10.4l-10.2-5.5c0.5-1.6,0.7-3.2,0.7-4.9c0-1.7-0.3-3.4-0.7-4.9l10.2-5.5C1107.7,693.8,1108.4,697.3,1108.4,701z
			 M1101.1,682.2l-10.2,5.5c-2.5-2.3-5.7-4.1-9.2-4.9v-10.9C1089.5,673,1096.3,676.8,1101.1,682.2z M1076.5,711.2
			c-6.1,0-11.1-4.6-11.1-10.3c0-5.7,5-10.3,11.1-10.3c6.1,0,11.1,4.6,11.1,10.3C1087.6,706.6,1082.6,711.2,1076.5,711.2z
			 M1071.3,671.8v10.9c-3.5,0.9-6.7,2.6-9.2,4.9l-10.2-5.5C1056.6,676.8,1063.5,673,1071.3,671.8z M1056.8,705.9l-10.2,5.5
			c-1.3-3.2-2-6.7-2-10.4c0-3.7,0.7-7.2,2-10.4l10.2,5.5c-0.5,1.6-0.7,3.2-0.7,4.9C1056.1,702.7,1056.4,704.3,1056.8,705.9z
			 M1051.8,719.7l10.2-5.5c2.5,2.3,5.7,4.1,9.2,4.9v10.9C1063.5,728.9,1056.6,725.1,1051.8,719.7z M1081.7,730.1v-10.9
			c3.5-0.9,6.7-2.6,9.2-4.9l10.2,5.5C1096.3,725.1,1089.5,728.9,1081.7,730.1z"/>
	</g>
	<ellipse class="st6" cx="1076.5" cy="701" rx="34.9" ry="32.3"/>
	<path class="st5" d="M1054.6,721.5l11,10.2c3.4,1,7.1,1.6,10.9,1.6c19.3,0,34.9-14.5,34.9-32.3c0-0.1,0-0.1,0-0.2l-17.3-16l-8-2.9
		l-26.2,24.1l-1.9,3.2L1054.6,721.5z"/>
	<path class="st1" d="M1096.8,693.2l-1.9,1.8l-11.6-10.7l1.9-1.8c2.1-2,5.6-2,7.7,0l3.9,3.6C1098.9,688.1,1098.9,691.3,1096.8,693.2
		L1096.8,693.2z M1069.7,714.7c-0.5,0.5-0.5,1.3,0,1.8c0.5,0.5,1.4,0.5,1.9,0l21.3-19.7l-1.9-1.8L1069.7,714.7z M1060,705.8
		c-0.5,0.5-0.5,1.3,0,1.8c0.5,0.5,1.4,0.5,1.9,0l21.3-19.7l-1.9-1.8L1060,705.8z M1085.2,689.7l-21.3,19.7c-1.1,1-1.1,2.6,0,3.6
		c1.1,1,2.8,1,3.9,0l21.3-19.7L1085.2,689.7z M1067.7,718.3c-0.7-0.6-1-1.4-1.1-2.2c-0.3,0-0.6,0.1-0.8,0.1c-1.5,0-2.8-0.5-3.9-1.5
		c-1-1-1.6-2.2-1.6-3.6c0-0.2,0-0.5,0.1-0.7c-0.9-0.1-1.7-0.5-2.3-1.1c-0.1-0.1-0.1-0.1-0.1-0.2l-3.3,12.4l13.3-3.1
		C1067.9,718.4,1067.8,718.4,1067.7,718.3L1067.7,718.3z"/>
</g>
<g>
	<g>
		<path class="st2" d="M1474.7,381.1c0-16.2-14.2-29.3-31.7-29.3s-31.7,13.1-31.7,29.3c0,16.2,14.2,29.3,31.7,29.3
			C1460.6,410.4,1474.7,397.3,1474.7,381.1z M1417.9,381.1c0-12.9,11.3-23.3,25.2-23.3c5.3,0,10.3,1.5,14.4,4.2l-35,32.4
			C1419.6,390.6,1417.9,386,1417.9,381.1z M1443.1,404.4c-5.5,0-10.6-1.6-14.8-4.4l35.1-32.5c3,3.8,4.8,8.6,4.8,13.7
			C1468.3,393.9,1457,404.4,1443.1,404.4z"/>
		<path class="st2" d="M1447.7,336.6c14.3,1.3,26.7,8.3,34.6,18.5l5.1-2.7c-9-11.9-23.3-20-39.7-21.2V336.6z"/>
		<path class="st2" d="M1492.1,402.3c3.3-6.5,5.1-13.7,5.1-21.3c0-7.6-1.8-14.8-5.1-21.3l-5.1,2.7c2.8,5.6,4.3,11.9,4.3,18.5
			c0,6.6-1.6,12.9-4.3,18.5L1492.1,402.3z"/>
		<path class="st2" d="M1403.8,355.1c7.9-10.2,20.3-17.3,34.6-18.5v-5.5c-16.4,1.3-30.8,9.4-39.7,21.2L1403.8,355.1z"/>
		<path class="st2" d="M1394.1,359.8c-3.3,6.5-5.1,13.7-5.1,21.3s1.8,14.8,5.1,21.3l5.1-2.7c-2.8-5.6-4.3-11.9-4.3-18.5
			c0-6.6,1.6-12.9,4.3-18.5L1394.1,359.8z"/>
		<path class="st2" d="M1438.5,425.5c-14.3-1.3-26.7-8.3-34.6-18.5l-5.1,2.7c9,11.9,23.3,20,39.7,21.2L1438.5,425.5L1438.5,425.5z"
			/>
		<path class="st2" d="M1482.3,407c-7.9,10.2-20.3,17.3-34.6,18.5v5.5c16.4-1.3,30.8-9.4,39.7-21.2L1482.3,407z"/>
		<path class="st1" d="M1512.7,400.7l3.1-16.1l-11.5-1.9c0-0.6,0-1.1,0-1.7c0-0.6,0-1.1,0-1.7l11.5-1.9l-3.1-16.1l-11.5,1.9
			c-0.4-1.1-0.8-2.1-1.3-3.2l10.1-5.4l-8.8-14.1l-10.1,5.4c-0.8-0.9-1.5-1.8-2.3-2.6l7.5-8.3l-13.5-10.5l-7.5,8.3
			c-1-0.6-2.1-1.2-3.2-1.7l4-10.1l-16.6-5.6l-4,10.1c-1.2-0.2-2.4-0.4-3.6-0.6v-10.8h-17.6V325c-1.2,0.2-2.4,0.3-3.6,0.6l-4-10.1
			l-16.6,5.6l4,10.1c-1.1,0.5-2.1,1.1-3.2,1.7l-7.5-8.3l-13.5,10.5l7.5,8.3c-0.8,0.8-1.6,1.7-2.3,2.6l-10.1-5.4l-8.8,14.1l10.1,5.4
			c-0.5,1-0.9,2.1-1.3,3.2l-11.5-1.9l-3.1,16.1l11.5,1.9c0,0.6,0,1.1,0,1.7c0,0.6,0,1.1,0,1.7l-11.5,1.9l3.1,16.1l11.5-1.9
			c0.4,1.1,0.8,2.1,1.3,3.2l-10.1,5.4l8.8,14.1l10.1-5.4c0.8,0.9,1.5,1.8,2.3,2.6l-7.5,8.3l13.5,10.5l7.5-8.3c1,0.6,2.1,1.2,3.2,1.7
			l-4,10.1l16.6,5.6l4-10.1c1.2,0.2,2.4,0.4,3.6,0.6v10.8h17.6v-10.8c1.2-0.2,2.4-0.3,3.6-0.6l4,10.1l16.6-5.6l-4-10.1
			c1.1-0.5,2.1-1.1,3.2-1.7l7.5,8.3l13.5-10.5l-7.5-8.3c0.8-0.8,1.6-1.7,2.3-2.6l10.1,5.4l8.8-14.1l-10.1-5.4c0.5-1,0.9-2.1,1.3-3.2
			L1512.7,400.7z M1487,362.6l5.1-2.7c3.3,6.5,5.1,13.7,5.1,21.3c0,7.6-1.8,14.8-5.1,21.3l-5.1-2.7c2.8-5.6,4.3-11.9,4.3-18.5
			C1491.3,374.5,1489.8,368.2,1487,362.6z M1487.5,352.4l-5.1,2.7c-7.9-10.2-20.3-17.3-34.6-18.5v-5.5
			C1464.2,332.4,1478.5,340.5,1487.5,352.4z M1411.4,381.1c0-16.2,14.2-29.3,31.7-29.3s31.7,13.1,31.7,29.3
			c0,16.2-14.2,29.3-31.7,29.3C1425.6,410.4,1411.4,397.3,1411.4,381.1z M1438.5,331.1v5.5c-14.3,1.3-26.7,8.3-34.6,18.5l-5.1-2.7
			C1407.7,340.5,1422,332.4,1438.5,331.1z M1399.2,399.6l-5.1,2.7c-3.3-6.5-5.1-13.7-5.1-21.3s1.8-14.8,5.1-21.3l5.1,2.7
			c-2.8,5.6-4.3,11.9-4.3,18.5C1394.9,387.7,1396.4,393.9,1399.2,399.6z M1398.7,409.8l5.1-2.7c7.9,10.2,20.3,17.3,34.6,18.5v5.5
			C1422,429.7,1407.7,421.6,1398.7,409.8z M1447.7,431v-5.5c14.3-1.3,26.7-8.3,34.6-18.5l5.1,2.7
			C1478.5,421.6,1464.2,429.7,1447.7,431z"/>
		<path class="st1" d="M1443.1,357.7c-13.9,0-25.2,10.4-25.2,23.3c0,4.9,1.7,9.5,4.5,13.3l35-32.4
			C1453.4,359.3,1448.4,357.7,1443.1,357.7z"/>
		<path class="st1" d="M1463.5,367.4l-35.1,32.5c4.1,2.8,9.2,4.4,14.8,4.4c13.9,0,25.2-10.4,25.2-23.3
			C1468.3,376,1466.5,371.2,1463.5,367.4z"/>
	</g>
	<ellipse class="st5" cx="1443.1" cy="381.1" rx="57.5" ry="53.3"/>
	<ellipse class="st6" cx="1443.1" cy="381.1" rx="57.5" ry="53.3"/>
	<path class="st5" d="M1459.3,346l-31.7,62.9l26.1,24.5c25.8-4.5,45.5-24.8,46.9-49.6L1459.3,346z"/>
	<path class="st1" d="M1483.2,406.4l-15.6-14.5l-2,1.1l-3.1-2.8c4.8-6.2,4.2-15-1.8-20.6c-0.4-0.4-0.9-0.7-1.3-1V346h-13.1v19.2
		c-1.9,0.2-3.8,0.7-5.5,1.6v-5.8h-13.1v48h13.1v-13.6c1.8,0.8,3.6,1.3,5.5,1.6v12.1h13.1v-14.1l2,1.8l-1.2,2.2l15.6,14.5
		c0,0,3.4,0,5.5-2.1C1483.3,409,1483.2,406.4,1483.2,406.4L1483.2,406.4z"/>
	<path class="st0" d="M1439,372.3c5.2-4.8,13.6-4.8,18.8,0c5.2,4.8,5.2,12.6,0,17.4c-5.2,4.8-13.6,4.8-18.8,0
		C1433.8,385,1433.8,377.1,1439,372.3L1439,372.3z"/>
	<rect x="1409" y="373.2" class="st1" width="13.1" height="35.7"/>
	<path d="M1439,372.3"/>
</g>
<rect x="832.5" y="671.8" class="st1" width="47.5" height="29.5"/>
<path class="st7" d="M829.8,725.3h82.4c0-17.5-15.4-31.8-34.3-31.8h-48.1V725.3z"/>
<g>
	<g>
		<path class="st4" d="M759.4,123.4c-4.5,0-8.5-3.7-11.5-10.5c-2.7-6.3-4.2-14.6-4.2-23.5s1.5-17.2,4.2-23.5
			c2.9-6.8,7-10.5,11.5-10.5c4.5,0,8.5,3.7,11.5,10.5c2.7,6.3,4.2,14.6,4.2,23.5s-1.5,17.2-4.2,23.5
			C768,119.6,763.9,123.4,759.4,123.4z M759.4,58.6c-5.8,0-12.2,12.6-12.2,30.8s6.4,30.8,12.2,30.8c5.8,0,12.2-12.6,12.2-30.8
			C771.7,71.3,765.2,58.6,759.4,58.6z"/>
	</g>
	<g>
		<path class="st4" d="M791.2,106.4c-2.2,3.6-7.8,5-15.5,3.9c-7.2-1-15.8-3.9-24.1-8.4c-8.3-4.4-15.3-9.8-19.9-15.1
			c-4.9-5.7-6.3-10.8-4.1-14.4c2.2-3.6,7.8-5,15.5-3.9c7.2,1,15.8,3.9,24.1,8.4c8.3,4.4,15.3,9.8,19.9,15.1
			C792,97.7,793.4,102.8,791.2,106.4z M730.6,74c-2.9,4.6,5.7,16.1,22.7,25.2c17,9.1,32,10.2,34.9,5.6c2.9-4.6-5.7-16.1-22.7-25.2
			C748.6,70.5,733.5,69.4,730.6,74z"/>
	</g>
	<g>
		<path class="st4" d="M791.2,72.4c2.2,3.6,0.8,8.7-4.1,14.4c-4.5,5.3-11.6,10.7-19.9,15.1c-8.3,4.4-16.8,7.4-24.1,8.4
			c-7.8,1-13.3-0.4-15.5-3.9c-2.2-3.6-0.8-8.7,4.1-14.4c4.5-5.3,11.6-10.7,19.9-15.1c8.3-4.4,16.8-7.4,24.1-8.4
			C783.4,67.4,789,68.8,791.2,72.4z M730.6,104.8c2.9,4.6,17.9,3.5,34.9-5.6c17-9.1,25.6-20.6,22.7-25.2c-2.9-4.6-17.9-3.5-34.9,5.6
			C736.3,88.7,727.7,100.2,730.6,104.8z"/>
	</g>
	<ellipse class="st5" cx="759.4" cy="89.4" rx="4.9" ry="4.5"/>
</g>
<g>
	<path class="st7" d="M659,153.9c0.6,0.3,0.8,1.1,0.4,1.6l-19.7,29.5c-0.4,0.6-1.2,0.7-1.8,0.4l0,0c-0.6-0.3-0.8-1.1-0.4-1.6
		l19.7-29.5C657.6,153.7,658.4,153.6,659,153.9L659,153.9z"/>
	<path class="st7" d="M629.8,162.8c0.3-0.6,1-0.9,1.7-0.7l34.8,12.8c0.7,0.2,1,0.9,0.7,1.5l0,0c-0.3,0.6-1,0.9-1.7,0.7l-34.8-12.8
		C629.9,164.1,629.6,163.5,629.8,162.8L629.8,162.8z"/>
	<ellipse class="st1" cx="649.4" cy="168.2" rx="10.8" ry="10"/>
	<ellipse class="st5" cx="673.6" cy="176.9" rx="8.4" ry="7.8"/>
	<ellipse class="st4" cx="636.8" cy="188.9" rx="8.4" ry="7.8"/>
	<g>
		<path class="st4" d="M661.4,142.2c-4.6,0-8.4,3.5-8.4,7.8c0,2.2,1,4.2,2.6,5.7l1.1-1.6c0.3-0.5,0.9-0.8,1.6-0.8
			c0.3,0,0.7,0.1,1,0.3c0.9,0.5,1.2,1.6,0.6,2.4l-1,1.5c0.8,0.2,1.7,0.4,2.5,0.4c4.6,0,8.4-3.5,8.4-7.8
			C669.8,145.6,666.1,142.2,661.4,142.2z"/>
	</g>
	<g>
		<path class="st5" d="M630.3,164.9c-0.6-0.2-1-0.7-1.2-1.3c-0.1-0.3,0-0.6,0.1-0.9c0.4-0.9,1.5-1.3,2.4-1l3,1.1
			c0.1-0.5,0.1-0.9,0.1-1.4c0-4.3-3.8-7.8-8.4-7.8s-8.4,3.5-8.4,7.8s3.8,7.8,8.4,7.8c2.8,0,5.2-1.3,6.8-3.2L630.3,164.9z"/>
	</g>
</g>
<g>
	<g>
		<line class="st8" x1="949.3" y1="149.9" x2="952.5" y2="149.5"/>
		<line class="st9" x1="959" y1="148.5" x2="1265.9" y2="102.4"/>
		<line class="st8" x1="1269.1" y1="101.9" x2="1272.3" y2="101.5"/>
	</g>
</g>
<polygon class="st1" points="1272.4,91.9 1291.6,98.1 1276.2,110.4 "/>
<g>
	<polygon class="st4" points="884.3,684.5 829.7,674.7 829.7,408.4 884.3,408.4 	"/>
</g>
<polygon class="st1" points="987.5,598.8 942,586.2 951,558 996.6,570.5 "/>
<g>
	<path class="st3" d="M1005.7,437.6l-141.5-36.1c-14.5-3.7-29.6,4.2-33.6,17.7c-4,13.5,4.5,27.4,19.1,31.1L966.3,480l-19.6,82.5
		l49.8,22.5l28.6-117.7C1028.2,454.2,1019.7,441.1,1005.7,437.6z"/>
</g>
<path class="st7" d="M932,608.6l79,21.7c5.4-16.8-5-34.5-23.1-39.5l-46.1-12.7L932,608.6z"/>
<g>
	<polyline class="st10" points="529.6,931.8 716.7,931.8 716.7,833.4 822.9,833.4 822.9,735.1 929.2,735.1 929.2,636.7 
		1035.4,636.7 1035.4,538.4 1141.6,538.4 1141.6,440 1247.8,440 1247.8,341.7 1354,341.7 1354,111.2 	"/>
	<polygon class="st4" points="1309.7,134.2 1354,63.1 1398.3,134.2 1354,115.9 	"/>
</g>
<g>
	<g>
		<polygon class="st5" points="722,486.5 596.9,448.6 619.7,365.5 756.6,406.9 		"/>
		<polygon class="st6" points="759.7,425.9 676.7,418.8 605.1,379.1 621.4,323.8 781.8,372.3 		"/>
		<g>
			<path class="st2" d="M671.2,413.2l-3,8.5c-0.3,1,0.2,2.1,1.3,2.4l9.4,2.9c1.1,0.3,2.2-0.2,2.6-1.2l3-8.5L671.2,413.2z"/>
			<polygon class="st2" points="685.6,414.2 687.4,409.2 674.1,405.1 672.3,410.2 			"/>
			<path class="st1" d="M671.9,401.2l-6.9,19.6c-0.9,2.6,0.6,5.5,3.5,6.3l9.4,2.9c2.8,0.9,5.9-0.6,6.8-3.2l6.9-19.6L671.9,401.2z
				 M687.4,409.2l-1.8,5.1l-13.3-4l1.8-5.1L687.4,409.2z M679,427l-9.4-2.9c-1.1-0.3-1.7-1.4-1.3-2.4l3-8.5l13.3,4l-3,8.5
				C681.2,426.8,680.1,427.3,679,427z"/>
		</g>
		<path class="st5" d="M676.4,340.5l3-8.6c1.9-5.4,8.2-8.4,14.1-6.6l29,8.8c5.9,1.8,9.1,7.6,7.2,13.1l-3,8.6l5.6,1.7l3-8.6
			c2.9-8.3-2-17.2-10.9-20l-29-8.8c-9-2.7-18.6,1.8-21.6,10.1l-3,8.6L676.4,340.5z"/>
	</g>
	<path class="st4" d="M1077.1,295l-82.2-23.6l-54.1-58.8c-8-7.6-28.5-6.2-33.1-6.2h-62.1c-3,0-99.3,0.9-99.3,0.9
		c-7.1,0-13.4,4.3-15.6,10.6l-28,83.5c-2.7,8,2.1,16.4,10.7,18.9c1.6,0.5,3.2,0.7,4.8,0.7c6.9,0,13.4-4.1,15.6-10.6l24.4-72.9h58.8
		v181.9h119.2V254.1l40.1,43.5l91.3,26.2c1.6,0.5,3.2,0.7,4.8,0.7c7,0,13.4-4.2,15.6-10.6C1090.5,305.9,1085.7,297.4,1077.1,295z"/>
	<g>
		<path class="st1" d="M898.8,206.4c0,0,9.5-2.4,11.5-0.7c2,1.8-11.9,33.2-11.9,33.2l-0.4-21.5c0,0,1.3-1.1,2.2-4.8
			C901.1,209,898.8,206.4,898.8,206.4z"/>
	</g>
	<g>
		<path class="st1" d="M887.1,206.4c0,0-1.6,5.2,3.3,11.8c-2.2,5.4-12.1,29.3-12.1,29.3l-12.2-41.4c0,0,6.4-4,8.8-4.2
			C877.3,201.8,887.1,206.4,887.1,206.4z"/>
	</g>
	<g>
		<ellipse class="st1" cx="711.7" cy="321.9" rx="18.6" ry="17.2"/>
		<path class="st11" d="M721.9,307.5c1.9,2.7,3.1,6,3.1,9.5c0,9.5-8.3,17.2-18.6,17.2c-3.8,0-7.3-1-10.2-2.8c3.3,4.7,9,7.8,15.5,7.8
			c10.3,0,18.6-7.7,18.6-17.2C730.3,315.9,726.9,310.6,721.9,307.5z"/>
	</g>
	<g>
		<ellipse class="st1" cx="1088.6" cy="314.4" rx="18.6" ry="17.2"/>
		<path class="st11" d="M1098.8,300.1c1.9,2.7,3.1,6,3.1,9.5c0,9.5-8.3,17.2-18.6,17.2c-3.8,0-7.3-1-10.2-2.8
			c3.3,4.7,9,7.8,15.5,7.8c10.3,0,18.6-7.7,18.6-17.2C1107.2,308.4,1103.8,303.1,1098.8,300.1z"/>
	</g>
	<ellipse class="st1" cx="888.1" cy="273.7" rx="3.8" ry="3.5"/>
	<ellipse class="st1" cx="888.1" cy="304.7" rx="3.8" ry="3.5"/>
	<ellipse class="st1" cx="888.1" cy="335.6" rx="3.8" ry="3.5"/>
	<ellipse class="st1" cx="888.1" cy="366.6" rx="3.8" ry="3.5"/>
	<ellipse class="st1" cx="888.1" cy="397.5" rx="3.8" ry="3.5"/>
</g>
<g>
	<g>
		<path class="st7" d="M844.9,120.6c0,0,8.2-23.3,27.9-29.4c15-4.7,30.9,1.3,37.6,4.4c16.3,2.3,36.9,4.3,58.4,0.8
			c-11.5,19.6-23.8,26.8-34.7,28.9c-14.8,2.8-27-3.6-31.4-1c-13.5,8.3-20.4,27.7-20.4,27.7s-5.6-12.1-15.7-9.3
			c-6.2,1.8-8,7.5-8.4,11.7c-0.4,10,1.2,19.3,4.2,27.4c-1.1-1-24-22.2-25.7-37C834.9,129.5,844.9,120.6,844.9,120.6z"/>
		<path class="st1" d="M858.2,154.3c0.5-4.2,2.3-10,8.4-11.7c10.1-2.9,15.7,9.3,15.7,9.3s6.9-19.5,20.4-27.7
			c4.3-2.7,16.6,3.8,31.4,1c3.4,9.2,4.8,20,3.6,31.4c-3.1,30.4-23.3,53.6-45.2,51.7c-13.5-1.2-24.4-11.6-30.1-26.5
			C859.3,173.7,857.8,164.3,858.2,154.3z"/>
		<g>
			<path class="st11" d="M878.1,148c0,0,0.2-0.5,0.5-1.4c-0.9-0.9-1.9-1.9-3.1-2.6C877.2,146.1,878.1,148,878.1,148z"/>
			<path class="st11" d="M934.1,125.1c-0.9,0.2-1.9,0.3-2.8,0.4c2.3,8.2,3.2,17.4,2.3,27.1c-3.1,30.4-23.3,53.6-45.2,51.7
				c-6-0.5-11.5-2.9-16.2-6.6c5.6,6,12.6,9.8,20.4,10.5c17.7,1.5,34.4-13.4,41.7-35.3c0.7-2,8.5-3.1,9-5.2c0.8-3.3-5.8-7.7-5.5-11.2
				C938.9,145.1,937.5,134.3,934.1,125.1z"/>
		</g>
	</g>
	<ellipse class="st7" cx="905.9" cy="154.5" rx="2.6" ry="2.4"/>
	<g>
		<path class="st7" d="M900.3,175.8c-0.5,11.7,17.5,14.7,21,3.4c0.3-1.1-1.5-1.5-1.8-0.5c-1.3,4.2-5.2,6.2-9.7,5.9
			c-5.1-0.3-7.9-4.5-7.7-8.9C902.2,174.6,900.4,174.7,900.3,175.8L900.3,175.8z"/>
	</g>
	<path class="st7" d="M910.1,148.7c0,0.7-0.6,1.3-1.4,1.3h-15.9c-0.8,0-1.4-0.6-1.4-1.3l0,0c0-0.7,0.6-1.3,1.4-1.3h15.9
		C909.5,147.3,910.1,147.9,910.1,148.7L910.1,148.7z"/>
	<ellipse class="st7" cx="934.6" cy="154.5" rx="2.6" ry="2.4"/>
	<path class="st7" d="M938.8,148.7c0,0.7-0.6,1.3-1.4,1.3h-15.9c-0.8,0-1.4-0.6-1.4-1.3l0,0c0-0.7,0.6-1.3,1.4-1.3h15.9
		C938.1,147.3,938.8,147.9,938.8,148.7L938.8,148.7z"/>
</g>
</svg>
