<?xml version="1.0" encoding="utf-8"?>
<!-- Generator: Adobe Illustrator 20.0.0, SVG Export Plug-In . SVG Version: 6.00 Build 0)  -->
<svg version="1.1" id="Layer_1" xmlns="http://www.w3.org/2000/svg" xmlns:xlink="http://www.w3.org/1999/xlink" x="0px" y="0px"
	 viewBox="0 0 1920 1080" style="enable-background:new 0 0 1920 1080;" xml:space="preserve">
<style type="text/css">
	.st0{fill:#89D3E0;}
	.st1{fill:#04ABC9;}
	.st2{opacity:5.000000e-02;fill:#010101;enable-background:new    ;}
	.st3{fill:#2D5B76;}
	.st4{fill:#FFFFFF;stroke:#010101;stroke-miterlimit:10;}
	.st5{fill:#E7635F;}
	.st6{fill:#1B3645;}
	.st7{fill:#D72B36;}
	.st8{fill:#365C78;}
	.st9{fill:#EAF6F9;}
	.st10{fill:#487496;}
	.st11{fill:#FCC5A2;}
	.st12{fill:#243A4A;}
	.st13{fill:#2C485C;}
	.st14{fill:#B17E50;}
	.st15{fill:#373333;}
	.st16{fill:#413E3D;}
	.st17{fill:#C1CBCE;}
	.st18{fill:#426A87;}
	.st19{fill:#A9957A;}
	.st20{fill:#4A202F;}
	.st21{fill:#642B3E;}
	.st22{fill:#58C6D4;}
	.st23{fill:#A2DCED;}
	.st24{fill:#53504F;}
	.st25{fill:#5A2719;}
	.st26{fill:#B1B4B0;}
	.st27{fill:#F5B993;}
	.st28{fill:#D8D9D8;}
	.st29{fill:#4D2230;}
	.st30{fill:#F1F0F0;}
	.st31{fill:#342423;}
	.st32{fill:#385A74;}
	.st33{fill:#90B4C7;}
	.st34{fill:#E8F3F5;}
	.st35{fill:#7D9DAD;}
</style>
<rect y="671.1" class="st0" width="1920" height="408.9"/>
<rect class="st1" width="1920" height="671.1"/>
<g>
	<ellipse class="st2" cx="1001.8" cy="812.5" rx="640.9" ry="129"/>
	<g>
		<rect x="989" y="623.2" class="st3" width="18.2" height="104.5"/>
		<rect x="914.4" y="623.2" class="st3" width="158.4" height="15.2"/>
		<path class="st4" d="M973.8,595.1c-0.5,9.2,6.9,16.7,16.6,16.7h17.8c9.7,0,17.9-7.5,18.5-16.7l3-54.6c0.5-9.2-6.9-16.7-16.6-16.7
			h-17.8c-9.7,0-17.9,7.5-18.5,16.7L973.8,595.1z"/>
		<path class="st5" d="M902.8,610.6c0,6.9,5.6,12.6,12.6,12.6H1071c6.9,0,12.6-5.6,12.6-12.6l0,0c0-6.9-5.6-12.6-12.6-12.6H915.4
			C908.4,598,902.8,603.7,902.8,610.6L902.8,610.6z"/>
		<path class="st3" d="M989.7,719.1c-2,5.6,0.9,11.8,6.6,13.8l55.8,19.8c5.6,2,11.8-0.9,13.8-6.6l0,0c2-5.6-0.9-11.8-6.6-13.8
			l-55.8-19.8C997.8,710.5,991.7,713.4,989.7,719.1L989.7,719.1z"/>
		<path class="st3" d="M1006.1,719.1c2,5.6-0.9,11.8-6.6,13.8l-55.8,19.8c-5.6,2-11.8-0.9-13.8-6.6l0,0c-2-5.6,0.9-11.8,6.6-13.8
			l55.8-19.8C998,710.5,1004.1,713.4,1006.1,719.1L1006.1,719.1z"/>
		<path class="st3" d="M989,744.4c0,4.9,4,8.9,8.9,8.9l0,0c4.9,0,8.9-4,8.9-8.9v-23.7c0-4.9-4-8.9-8.9-8.9l0,0c-4.9,0-8.9,4-8.9,8.9
			V744.4z"/>
		<circle class="st6" cx="1055.9" cy="766.9" r="13.6"/>
		<circle class="st6" cx="943" cy="766.9" r="13.6"/>
		<circle class="st6" cx="997.9" cy="766.9" r="13.6"/>
		<path class="st7" d="M920.6,533.5c-0.5,9.7,6.9,17.6,16.6,17.6h125.5c9.7,0,17.9-7.9,18.5-17.6l7.7-148.3
			c0.5-9.7-6.9-17.6-16.6-17.6H946.8c-9.7,0-17.9,7.9-18.5,17.6L920.6,533.5z"/>
		<path class="st5" d="M913.7,533.5c-0.5,9.7,6.9,17.6,16.6,17.6h125.5c9.7,0,17.9-7.9,18.5-17.6l7.7-148.3
			c0.5-9.7-6.9-17.6-16.6-17.6H939.9c-9.7,0-17.9,7.9-18.5,17.6L913.7,533.5z"/>
		<g>
			<path class="st8" d="M911.8,503.2c-8.4-4.6-11.5-15.1-6.9-23.4l38.9-71.9c4.6-8.4,15.1-11.5,23.4-6.9l0,0
				c8.4,4.6,11.5,15.1,6.9,23.4l-38.9,71.9C930.7,504.7,920.2,507.7,911.8,503.2L911.8,503.2z"/>
			<path class="st8" d="M1083.4,513.2c-8.9,3.4-18.9-1.1-22.3-10l-29.5-76.2c-3.4-8.9,1-18.9,10-22.3l0,0c8.9-3.4,18.9,1.1,22.3,10
				l29.5,76.2C1096.8,499.8,1092.3,509.8,1083.4,513.2L1083.4,513.2z"/>
			<path class="st9" d="M944.4,553.1c0,19.4,15.7,35.1,35.1,35.1h46.2c19.4,0,24.8,14,24.8-5.4l10.2-161.2
				c0-19.4-15.7-26.3-35.1-26.3H981c-19.4,0-35.1,2.2-35.1,21.6L944.4,553.1z"/>
			<g>
				<path class="st8" d="M1031.7,395.5c0.1,2.1,0.2,4.3,0.2,6.8l-4.5,185.9c17.9,0.8,23,13.3,23-5.4l10.2-161.2
					C1060.8,404.2,1048.2,396.9,1031.7,395.5z"/>
				<polygon class="st10" points="1032,395.3 1047.6,434.5 1039.8,446.3 1047.6,464.2 1029.7,492.7 				"/>
				<path class="st8" d="M975.9,568.7l0.7-172.5c0-0.3,0-0.7,0-1c-17.3,0.4-30.7,3.6-30.7,21.5l-1.5,136.3c0,18.7,14.7,34,33.2,35
					C976.5,582.2,975.9,575.7,975.9,568.7z"/>
				<polygon class="st10" points="976.6,395.3 961,434.5 968.8,446.3 961,464.2 976.2,493.2 				"/>
			</g>
			<polygon class="st10" points="996.9,515.9 1004.8,532.4 1012.7,515.9 1010.3,420.2 999.3,420.2 			"/>
			<path class="st11" d="M985.2,395.3c0,10.8,8.8,19.6,19.6,19.6l0,0c10.8,0,19.6-8.8,19.6-19.6v-24.1c0-10.8-8.8-19.6-19.6-19.6
				l0,0c-10.8,0-19.6,8.8-19.6,19.6V395.3z"/>
			<path class="st12" d="M924,583.3c0-13.1,10.6-23.7,23.7-23.7h79.8c13.1,0,23.7,10.6,23.7,23.7l0,0c0,13.1-10.6,23.7-23.7,23.7
				h-79.8C934.6,607,924,596.4,924,583.3L924,583.3z"/>
			<path class="st11" d="M940.4,368.5c-8.2-1.4-16,4.2-17.4,12.4l-1,6.2c-1.4,8.2,4.2,16,12.4,17.4l0,0c8.2,1.4,16-4.2,17.4-12.4
				l1-6.2C954.2,377.6,948.7,369.8,940.4,368.5L940.4,368.5z"/>
			<path class="st9" d="M946.7,400.9L933.6,476c-1.6,8.8-8.1,14.9-14.6,13.8l0,0c-6.5-1.2-10.5-9.2-8.9-18l13.1-75.1L946.7,400.9z"
				/>
			<path class="st10" d="M951.1,410.5l-14,80.5c-1.7,9.4-10.6,15.6-20,14l0,0c-9.4-1.7-15.7-10.6-14-20l14-80.5L951.1,410.5z"/>
			<path class="st6" d="M1023,766l10.1-112.9c0.9-10-4.6-18.7-12.2-19.4l0,0c-7.6-0.7-14.5,6.9-15.4,16.9l-10.1,112.9L1023,766z"/>
			<path class="st13" d="M1033.2,748.9l17.3-166.1c1.1-12.6-8.2-23.6-20.7-24.7l0,0c-12.6-1.1-23.6,8.2-24.7,20.7l-17.3,166.1
				L1033.2,748.9z"/>
			<path class="st11" d="M955.7,339.3c0,5.8,4.7,10.5,10.4,10.5l0,0c5.8,0,10.5-4.7,10.5-10.4l0-7.5c0-5.8-4.7-10.5-10.4-10.5l0,0
				c-5.8,0-10.5,4.7-10.5,10.4L955.7,339.3z"/>
			<path class="st11" d="M1027.5,339.3c0,5.8,4.7,10.5,10.4,10.5l0,0c5.8,0,10.5-4.7,10.5-10.4l0-7.5c0-5.8-4.7-10.5-10.4-10.5l0,0
				c-5.8,0-10.5,4.7-10.5,10.4L1027.5,339.3z"/>
			<path class="st11" d="M963.4,346.3c0,21.6,17.5,39.2,39.1,39.2l0,0c21.6,0,39.2-17.5,39.2-39.1l0-28c0-21.6-17.5-39.2-39.1-39.2
				l0,0c-21.6,0-39.2,17.5-39.2,39.1L963.4,346.3z"/>
			<path class="st14" d="M963.4,347.3l0-10.9c0-21.6,17.6-32.9,39.2-32.8c21.3,0,38.6,10.8,39.1,31.9l0-17
				c0-21.6-17.5-39.2-39.1-39.2c-21.6,0-39.2,17.5-39.2,39.1L963.4,347.3z"/>
			<path class="st15" d="M1034,785.8L1034,785.8c1.8-16.2-6.6-30.5-18.8-31.9l-10.8-1.2c-12.2-1.4-23.6,10.7-25.4,27l0,0L1034,785.8
				z"/>
			<path class="st6" d="M984.4,767.4l-15.8-112.3c-1.4-10-8.7-17.2-16.3-16.1l0,0c-7.6,1.1-12.5,10-11.1,20L957,771.3L984.4,767.4z"
				/>
			<path class="st13" d="M990.5,744.1l-20.9-165.7c-1.8-12.5-13.3-21.2-25.8-19.4l0,0c-12.5,1.8-21.2,13.3-19.4,25.8l20.9,165.7
				L990.5,744.1z"/>
			<path class="st16" d="M999.6,779.9L999.6,779.9c-1.9-16.2-13.4-28.2-25.6-26.7l-10.8,1.3c-12.2,1.5-20.5,15.8-18.6,32l0,0
				L999.6,779.9z"/>
			<circle class="st10" cx="1004.8" cy="414.9" r="9.4"/>
			<polygon class="st17" points="1024.4,389.9 1011.5,408.3 1019.2,421.6 1030.5,395 			"/>
			<polygon class="st17" points="984.2,389.9 997.1,408.3 989.4,421.6 978.1,395 			"/>
			<path class="st11" d="M958.7,531.6c2.2,8.1,10.4,12.8,18.5,10.7l6.1-1.6c8.1-2.2,12.8-10.4,10.7-18.5l0,0
				c-2.2-8.1-10.4-12.8-18.5-10.7l-6.1,1.6C961.3,515.2,956.5,523.5,958.7,531.6L958.7,531.6z"/>
			<path class="st17" d="M985.7,512.4l73.8-19c8.6-2.2,16.9,1.2,18.6,7.6l0,0c1.6,6.4-4,13.4-12.7,15.6l-73.8,19L985.7,512.4z"/>
			<path class="st10" d="M992.6,504.5l79.1-20.5c9.2-2.4,18.6,3.2,21,12.5l0,0c2.4,9.2-3.2,18.7-12.5,21l-79.1,20.5L992.6,504.5z"/>
		</g>
	</g>
	<g>
		<rect x="737.4" y="635.2" class="st3" width="18.2" height="104.5"/>
		<rect x="671.9" y="635.2" class="st3" width="158.4" height="15.2"/>
		<path class="st4" d="M750.7,607c1,9.2-6.1,16.7-15.8,16.7H717c-9.7,0-18.3-7.5-19.3-16.7l-5.8-54.6c-1-9.2,6.1-16.7,15.8-16.7
			h17.8c9.7,0,18.3,7.5,19.3,16.7L750.7,607z"/>
		<path class="st5" d="M841.9,622.6c0,6.9-5.6,12.6-12.6,12.6H673.7c-6.9,0-12.6-5.6-12.6-12.6l0,0c0-6.9,5.6-12.6,12.6-12.6h155.6
			C836.2,610,841.9,615.6,841.9,622.6L841.9,622.6z"/>
		<path class="st3" d="M755,731c2,5.6-0.9,11.8-6.6,13.8l-55.8,19.8c-5.6,2-11.8-0.9-13.8-6.6l0,0c-2-5.6,0.9-11.8,6.6-13.8
			l55.8-19.8C746.8,722.5,753,725.4,755,731L755,731z"/>
		<path class="st3" d="M738.5,731c-2,5.6,0.9,11.8,6.6,13.8l55.8,19.8c5.6,2,11.8-0.9,13.8-6.6l0,0c2-5.6-0.9-11.8-6.6-13.8
			l-55.8-19.8C746.7,722.5,740.5,725.4,738.5,731L738.5,731z"/>
		<path class="st3" d="M755.6,756.4c0,4.9-4,8.9-8.9,8.9l0,0c-4.9,0-8.9-4-8.9-8.9v-23.7c0-4.9,4-8.9,8.9-8.9l0,0
			c4.9,0,8.9,4,8.9,8.9V756.4z"/>
		<circle class="st6" cx="688.8" cy="778.9" r="13.6"/>
		<circle class="st6" cx="801.7" cy="778.9" r="13.6"/>
		<circle class="st6" cx="746.8" cy="778.9" r="13.6"/>
		<path class="st7" d="M808.6,545.5c0.9,9.7-6.2,17.6-15.9,17.6H667.2c-9.7,0-18.3-7.9-19.2-17.6l-13.9-148.3
			c-0.9-9.7,6.2-17.6,15.9-17.6h125.5c9.7,0,18.3,7.9,19.2,17.6L808.6,545.5z"/>
		<path class="st5" d="M815.5,545.5c0.9,9.7-6.2,17.6-15.9,17.6H674.1c-9.7,0-18.3-7.9-19.2-17.6L641,397.2
			c-0.9-9.7,6.2-17.6,15.9-17.6h125.5c9.7,0,18.3,7.9,19.2,17.6L815.5,545.5z"/>
		<g>
			<path class="st10" d="M833.6,502.9c7.9-5.4,9.9-16.1,4.5-24l-45.9-67.6c-5.4-7.9-16.1-9.9-24-4.5l0,0c-7.9,5.4-9.9,16.1-4.5,24
				l45.9,67.6C815,506.3,825.8,508.3,833.6,502.9L833.6,502.9z"/>
			<path class="st18" d="M787,556.3c0,19.4-15.7,35.1-35.1,35.1h-46.2c-19.4,0-24.8,14-24.8-5.4l-19.8-169.2
				c0-13,25.3-18.3,44.7-18.3h44.7c19.4,0,27.7,3.1,35.1,6.2L787,556.3z"/>
			<path class="st10" d="M648,516.5c8.9,3.4,18.9-1.1,22.3-10l20.9-78.6c3.4-8.9-1.1-18.9-10-22.3l0,0c-8.9-3.4-18.9,1.1-22.3,10
				L638,494.1C634.6,503.1,639.1,513,648,516.5L648,516.5z"/>
			<polygon class="st0" points="734.6,519.1 726.7,535.6 718.7,519.1 721.2,423.4 732.1,423.4 			"/>
			<path class="st11" d="M746.3,398.5c0,10.8-8.8,19.6-19.6,19.6l0,0c-10.8,0-19.6-8.8-19.6-19.6v-24.1c0-10.8,8.8-19.6,19.6-19.6
				l0,0c10.8,0,19.6,8.8,19.6,19.6V398.5z"/>
			<path class="st11" d="M895.3,389.3c6.8,4.8,8.4,14.3,3.5,21.1l-3.6,5.1c-4.8,6.8-14.3,8.4-21.1,3.5l0,0
				c-6.8-4.8-8.4-14.3-3.5-21.1l3.6-5.1C879.1,386,888.5,384.4,895.3,389.3L895.3,389.3z"/>
			<path class="st9" d="M867.9,407.8l-43.7,62.4c-5.1,7.3-4.8,16.3,0.6,20l0,0c5.4,3.8,13.9,0.9,19-6.4l43.7-62.4L867.9,407.8z"/>
			<path class="st10" d="M858.1,411.5l-47,66.9c-5.5,7.8-3.5,18.6,4.3,24l0,0c7.8,5.4,18.6,3.5,24-4.3l47-66.9L858.1,411.5z"/>
			<path class="st12" d="M807.4,586.6c0-13.1-10.6-23.7-23.7-23.7H704c-13.1,0-23.7,10.6-23.7,23.7l0,0c0,13.1,10.6,23.7,23.7,23.7
				h79.8C796.8,610.2,807.4,599.6,807.4,586.6L807.4,586.6z"/>
			<path class="st11" d="M768.7,540.1c-2.4,8-10.9,12.5-18.9,10l-6-1.8c-8-2.4-12.5-10.9-10-18.9l0,0c2.4-8,10.9-12.5,18.9-10l6,1.8
				C766.6,523.7,771.1,532.1,768.7,540.1L768.7,540.1z"/>
			<path class="st9" d="M742.4,520l-73.1-21.7c-8.5-2.5-17,0.6-18.8,6.9l0,0c-1.9,6.3,3.6,13.5,12.1,16l73.1,21.7L742.4,520z"/>
			<path class="st10" d="M735.8,511.8l-78.3-23.3c-9.2-2.7-18.8,2.6-21.4,11.7l0,0c-2.7,9.2,2.6,18.8,11.7,21.4L726,545L735.8,511.8
				z"/>
			<path class="st6" d="M708.5,769.2l-10.1-112.9c-0.9-10,4.6-18.7,12.2-19.4l0,0c7.6-0.7,14.5,6.9,15.4,16.9L736,766.8L708.5,769.2
				z"/>
			<path class="st13" d="M698.2,752.1L680.9,586c-1.1-12.6,8.2-23.6,20.7-24.7l0,0c12.6-1.1,23.6,8.2,24.7,20.7l17.3,166.1
				L698.2,752.1z"/>
			<path class="st11" d="M768,349.5c0,21.6-17.5,39.2-39.1,39.2l0,0c-21.6,0-39.2-17.5-39.2-39.1l0-28c0-21.6,17.5-39.2,39.1-39.2
				l0,0c21.6,0,39.2,17.5,39.2,39.1L768,349.5z"/>
			<path class="st19" d="M728.8,300c24.6,2,35.5,12.2,39.2,28.5l0-7c0-21.6-17.6-39.1-39.2-39.1c-21.6,0-39.1,17.6-39.1,39.2l0,6.8
				C693.4,312.3,713.7,318.1,728.8,300z"/>
			<path class="st11" d="M702.2,340.4c0,5.4-4.4,9.8-9.7,9.8l0,0c-5.4,0-9.8-4.4-9.8-9.7l0-7c0-5.4,4.4-9.8,9.7-9.8l0,0
				c5.4,0,9.8,4.4,9.8,9.7L702.2,340.4z"/>
			<path class="st20" d="M697.4,789L697.4,789c-1.8-16.2,6.6-30.5,18.9-31.9L727,756c12.2-1.4,23.6,10.7,25.4,27l0,0L697.4,789z"/>
			<path class="st6" d="M747,770.6l15.8-112.3c1.4-10,8.7-17.2,16.3-16.1l0,0c7.6,1.1,12.5,10,11.1,20l-15.8,112.3L747,770.6z"/>
			<path class="st13" d="M741,747.3l20.9-165.7c1.8-12.5,13.3-21.2,25.8-19.4l0,0c12.5,1.8,21.2,13.3,19.4,25.8l-20.9,165.7
				L741,747.3z"/>
			<path class="st21" d="M731.8,783.1L731.8,783.1c1.9-16.2,13.4-28.2,25.6-26.7l10.8,1.3c12.2,1.5,20.5,15.8,18.6,32l0,0
				L731.8,783.1z"/>
			<circle class="st0" cx="726.7" cy="418.1" r="9.4"/>
			<polygon class="st13" points="707.1,393.1 720,411.5 712.2,424.8 701,398.2 			"/>
			<polygon class="st13" points="747.3,393.1 734.3,411.5 742.1,424.8 753.3,398.2 			"/>
		</g>
	</g>
	<g>
		<rect x="1214.9" y="636.7" class="st3" width="18.2" height="104.5"/>
		<rect x="1140.3" y="636.7" class="st3" width="158.4" height="15.2"/>
		<path class="st4" d="M1219.9,608.6c-1,9.2,6.1,16.7,15.8,16.7h17.8c9.7,0,18.3-7.5,19.3-16.7l5.8-54.6c1-9.2-6.1-16.7-15.8-16.7
			H1245c-9.7,0-18.3,7.5-19.3,16.7L1219.9,608.6z"/>
		<path class="st5" d="M1128.7,624.1c0,6.9,5.6,12.6,12.6,12.6h155.6c6.9,0,12.6-5.6,12.6-12.6l0,0c0-6.9-5.6-12.6-12.6-12.6h-155.6
			C1134.4,611.5,1128.7,617.1,1128.7,624.1L1128.7,624.1z"/>
		<path class="st3" d="M1215.6,732.5c-2,5.6,0.9,11.8,6.6,13.8l55.8,19.8c5.6,2,11.8-0.9,13.8-6.6l0,0c2-5.6-0.9-11.8-6.6-13.8
			l-55.8-19.8C1223.7,724,1217.6,726.9,1215.6,732.5L1215.6,732.5z"/>
		<path class="st3" d="M1232,732.5c2,5.6-0.9,11.8-6.6,13.8l-55.8,19.8c-5.6,2-11.8-0.9-13.8-6.6l0,0c-2-5.6,0.9-11.8,6.6-13.8
			l55.8-19.8C1223.9,724,1230,726.9,1232,732.5L1232,732.5z"/>
		<path class="st3" d="M1214.9,757.9c0,4.9,4,8.9,8.9,8.9l0,0c4.9,0,8.9-4,8.9-8.9v-23.7c0-4.9-4-8.9-8.9-8.9l0,0
			c-4.9,0-8.9,4-8.9,8.9V757.9z"/>
		<circle class="st6" cx="1281.8" cy="780.4" r="13.6"/>
		<circle class="st6" cx="1168.9" cy="780.4" r="13.6"/>
		<circle class="st6" cx="1223.8" cy="780.4" r="13.6"/>
		<path class="st7" d="M1162,547c-0.9,9.7,6.2,17.6,15.9,17.6h125.5c9.7,0,18.3-7.9,19.2-17.6l13.9-148.3
			c0.9-9.7-6.2-17.6-15.9-17.6h-125.5c-9.7,0-18.3,7.9-19.2,17.6L1162,547z"/>
		<path class="st5" d="M1155.1,547c-0.9,9.7,6.2,17.6,15.9,17.6h125.5c9.7,0,18.3-7.9,19.2-17.6l13.9-148.3
			c0.9-9.7-6.2-17.6-15.9-17.6h-125.5c-9.7,0-18.3,7.9-19.2,17.6L1155.1,547z"/>
		<g>
			<path class="st22" d="M1173.2,520.1c-9.4-1.8-15.5-10.9-13.6-20.3l19.7-80.1c1.8-9.4,10.9-15.5,20.3-13.6l0,0
				c9.4,1.8,15.5,10.9,13.6,20.3l-19.7,80.1C1191.7,515.8,1182.6,521.9,1173.2,520.1L1173.2,520.1z"/>
			<path class="st11" d="M1056.4,507.7c0.3,8.3,7.3,14.9,15.6,14.6l6.3-0.2c8.3-0.3,14.9-7.3,14.6-15.6l0,0
				c-0.3-8.3-7.3-14.9-15.6-14.6l-6.3,0.2C1062.6,492.4,1056.1,499.4,1056.4,507.7L1056.4,507.7z"/>
			<path class="st11" d="M1086.9,495.1l76.2-1.9c8.9-0.2,16.2,5,16.4,11.6l0,0c0.1,6.6-6.9,12.1-15.8,12.3l-76.2,1.9L1086.9,495.1z"
				/>
			<path class="st22" d="M1095.5,489l81.7-2.2c9.5-0.2,17.4,7.3,17.7,16.9l0,0c0.2,9.5-7.3,17.4-16.9,17.7l-81.7,2.2"/>
			<path class="st0" d="M1183.6,557.8c0,19.4,15.7,35.1,35.1,35.1h46.2c19.4,0,24.8,14,24.8-5.4l14.3-172.6
				c0-3.4-19.8-14.9-39.2-14.9l-40.5,0c-11.1,0-32.9,6.7-35.8,7.9L1183.6,557.8z"/>
			<polygon class="st10" points="1220.1,520.6 1228,537.1 1235.9,520.6 1233.5,425 1222.5,425 			"/>
			<path class="st11" d="M1224.3,400c0,10.8,8.8,19.6,19.6,19.6l0,0c10.8,0,19.6-8.8,19.6-19.6v-24.1c0-10.8-8.8-19.6-19.6-19.6l0,0
				c-10.8,0-19.6,8.8-19.6,19.6V400z"/>
			<path class="st16" d="M1163.2,588.1c0-13.1,10.6-23.7,23.7-23.7h79.8c13.1,0,23.7,10.6,23.7,23.7l0,0c0,13.1-10.6,23.7-23.7,23.7
				h-79.8C1173.8,611.8,1163.2,601.1,1163.2,588.1L1163.2,588.1z"/>
			<path class="st23" d="M1322.6,523.2c-8.9,3.4-18.9-1.1-22.3-10l-24.8-82c-3.4-8.9,1.1-18.9,10-22.3l0,0c8.9-3.4,18.9,1.1,22.3,10
				l24.8,82C1335.9,509.8,1331.5,519.8,1322.6,523.2L1322.6,523.2z"/>
			<path class="st11" d="M1201.9,541.6c2.4,8,10.9,12.5,18.9,10l6-1.8c8-2.4,12.5-10.9,10-18.9l0,0c-2.4-8-10.9-12.5-18.9-10l-6,1.8
				C1204,525.2,1199.5,533.6,1201.9,541.6L1201.9,541.6z"/>
			<path class="st11" d="M1228.2,521.5l73.1-21.7c8.5-2.5,17,0.6,18.8,6.9l0,0c1.9,6.3-3.6,13.5-12.1,16l-73.1,21.7L1228.2,521.5z"
				/>
			<path class="st23" d="M1234.8,513.3l78.3-23.3c9.2-2.7,18.7,2.6,21.4,11.7l0,0c2.7,9.2-2.6,18.8-11.7,21.4l-78.3,23.3
				L1234.8,513.3z"/>
			<path class="st6" d="M1225.8,775.8l22.9-111c2-9.8-2.4-19.1-9.9-20.6l0,0c-7.5-1.5-15.2,5.2-17.2,15l-22.9,111L1225.8,775.8z"/>
			<path class="st24" d="M1238,759.9l36.1-163c2.5-12.3-5.4-24.4-17.8-26.9l0,0c-12.3-2.5-24.4,5.4-26.9,17.8l-36.1,163L1238,759.9z
				"/>
			<path class="st11" d="M1202.5,351.1c0,21.6,17.5,39.2,39.1,39.2l0,0c21.6,0,39.2-17.5,39.2-39.1l0-28c0-21.6-17.5-39.2-39.1-39.2
				l0,0c-21.6,0-39.2,17.5-39.2,39.1L1202.5,351.1z"/>
			<path class="st25" d="M1280.9,351.2l0-28c0-21.6-17.5-39.2-39.1-39.2c-20.9,0-38,16.3-39.2,36.9c7.6-7.6,9.9-1.3,25.5-13.1
				c3.4,9,46.2,18.5,46.2,40.1L1280.9,351.2z"/>
			<path class="st11" d="M1258.3,343.2c0,5.5,4.4,9.9,9.9,9.9l0,0c5.5,0,9.9-4.4,9.9-9.9l0-7.1c0-5.5-4.4-9.9-9.9-9.9l0,0
				c-5.5,0-9.9,4.4-9.9,9.9L1258.3,343.2z"/>
			<path class="st15" d="M1234.6,796.7L1234.6,796.7c3.6-15.9-3.1-31.1-15.1-33.8l-10.6-2.4c-12-2.7-24.7,8-28.3,23.9l0,0
				L1234.6,796.7z"/>
			<path class="st6" d="M1174.5,776.8l5.9-113.2c0.5-10-5.2-18.5-12.9-18.9l0,0c-7.6-0.4-14.2,7.4-14.7,17.5l-5.9,113.2
				L1174.5,776.8z"/>
			<path class="st24" d="M1184.9,755.2l11.1-166.6c0.6-12.6-9-23.3-21.6-24l0,0c-12.6-0.6-23.3,9-24,21.6l-11.1,166.6L1184.9,755.2z
				"/>
			<path class="st16" d="M1187.1,792L1187.1,792c1.2-16.3-7.8-30.2-20-31.1l-10.8-0.8c-12.3-0.9-23.2,11.6-24.4,27.9l0,0L1187.1,792
				z"/>
			<polygon class="st23" points="1224.3,400 1228.2,411.6 1214.7,424.3 1219.1,402.4 			"/>
			<circle class="st10" cx="1228" cy="419.6" r="9.4"/>
			<polygon class="st23" points="1263.5,394.6 1235.9,414.9 1243.7,428.2 1269.6,399.7 			"/>
		</g>
	</g>
	<g>
		<path class="st26" d="M564.7,494.9c3.4-8.9-1-18.9-9.9-22.3L478.6,443c-8.9-3.4-18.9,1-22.3,9.9l0,0c-3.4,8.9,1,18.9,9.9,22.3
			l76.2,29.6C551.3,508.2,561.3,503.8,564.7,494.9L564.7,494.9z"/>
		<g>
			<g>
				<path class="st3" d="M415.2,690.6c0.6,4.5-2.6,8.6-7.1,9.1l0,0c-4.5,0.6-8.6-2.6-9.1-7.1l-10.8-84.1c-0.6-4.5,2.6-8.6,7.1-9.1
					l0,0c4.5-0.6,8.6,2.6,9.1,7.1L415.2,690.6z"/>
				<path class="st5" d="M410,594.9c1.1,8.4-4.8,16-13.2,17.1l0,0c-8.4,1.1-16-4.8-17.1-13.2l-20.5-152.6c-1.1-8.4,4.8-16,13.2-17.1
					l0,0c8.4-1.1,16,4.8,17.1,13.2L410,594.9z"/>
			</g>
			<rect x="482.4" y="684.7" class="st3" width="18.2" height="104.5"/>
			<rect x="397.9" y="684.7" class="st3" width="167" height="15.2"/>
			<path class="st5" d="M576.5,672.1c0,6.9-5.6,12.6-12.6,12.6H435.6c-6.9,0-12.6-5.6-12.6-12.6l0,0c0-6.9,5.6-12.6,12.6-12.6h128.4
				C570.9,659.5,576.5,665.1,576.5,672.1L576.5,672.1z"/>
			<path class="st3" d="M500,780.5c2,5.6-0.9,11.8-6.6,13.8l-55.8,19.8c-5.6,2-11.8-0.9-13.8-6.6l0,0c-2-5.6,0.9-11.8,6.6-13.8
				l55.8-19.8C491.8,772,498,774.9,500,780.5L500,780.5z"/>
			<path class="st3" d="M483.5,780.5c-2,5.6,0.9,11.8,6.6,13.8l55.8,19.8c5.6,2,11.8-0.9,13.8-6.6l0,0c2-5.6-0.9-11.8-6.6-13.8
				L497.3,774C491.7,772,485.5,774.9,483.5,780.5L483.5,780.5z"/>
			<path class="st3" d="M500.6,805.9c0,4.9-4,8.9-8.9,8.9l0,0c-4.9,0-8.9-4-8.9-8.9v-23.7c0-4.9,4-8.9,8.9-8.9l0,0
				c4.9,0,8.9,4,8.9,8.9V805.9z"/>
			<circle class="st6" cx="433.8" cy="828.4" r="13.6"/>
			<circle class="st6" cx="546.6" cy="828.4" r="13.6"/>
			<circle class="st6" cx="491.8" cy="828.4" r="13.6"/>
		</g>
		<path class="st27" d="M486,447.2c-0.1,8-6.6,14.4-14.7,14.4l0,0c-8-0.1-23.7-0.2-23.6-8.2l9.7-42.6c0.1-8,6.6-14.4,14.7-14.4l0,0
			c8,0.1,24,7,23.9,15L486,447.2z"/>
		<path class="st28" d="M488.6,626.6c-2.3,20.1-20.5,34.6-40.6,32.3l0,0c-20.1-2.3-34.6-20.5-32.3-40.6l15.5-145.6
			c2.3-20.1,20.5-34.6,40.6-32.3l0,0c20.1,2.3,32.7,38.4,30.4,58.5L488.6,626.6z"/>
		<path class="st29" d="M417.6,600.4l-1.9,17.9c-2.3,20.1,12.1,38.3,32.3,40.6c20.1,2.3,38.3-12.1,40.6-32.3l1.8-17.1
			C466.3,605.5,442.1,602,417.6,600.4z"/>
		<path class="st21" d="M597.8,635.8c0-13.1-10.6-23.7-23.7-23.7H446.9c-13.1,0-23.7,10.6-23.7,23.7l0,0c0,13.1,10.6,23.7,23.7,23.7
			h127.2C587.2,659.5,597.8,648.9,597.8,635.8L597.8,635.8z"/>
		<path class="st30" d="M485.4,559.6c9.4-1.7,15.6-10.7,13.9-20.1L484.8,459c-1.7-9.4-10.7-15.6-20.1-13.9l0,0
			c-9.4,1.7-15.6,10.7-13.9,20.1l14.4,80.4C467,555.1,476,561.3,485.4,559.6L485.4,559.6z"/>
		<path class="st11" d="M601.8,521.6c1.4,8.2-4.1,16-12.3,17.4l-6.2,1.1c-8.2,1.4-16-4.1-17.4-12.3l0,0c-1.4-8.2,4.1-16,12.3-17.4
			l6.2-1.1C592.6,507.9,600.4,513.4,601.8,521.6L601.8,521.6z"/>
		<path class="st11" d="M569.3,515.5l-75,13.5c-8.8,1.6-14.9,8.2-13.7,14.6l0,0c1.2,6.5,9.2,10.4,18,8.8l75-13.5L569.3,515.5z"/>
		<path class="st11" d="M625.4,390.9c8,2.5,12.4,10.9,9.9,18.9l-1.9,6c-2.5,8-10.9,12.4-18.9,9.9l0,0c-8-2.5-12.4-10.9-9.9-18.9
			l1.9-6C609,392.9,617.4,388.4,625.4,390.9L625.4,390.9z"/>
		<path class="st11" d="M603.7,412l-51.9,55.9c-6,6.5-7,15.5-2.2,19.9l0,0c4.8,4.5,13.7,2.8,19.7-3.7l51.9-55.9L603.7,412z"/>
		<path class="st30" d="M559.7,511.2l-80.4,14.4c-9.4,1.7-15.6,10.7-13.9,20.1l0,0c1.7,9.4,10.7,15.6,20.1,13.9l80.4-14.4
			L559.7,511.2z"/>
		<path class="st26" d="M591.5,416.8l-55.1,60.3c-6.4,7.1-5.9,18,1.2,24.4l0,0c7.1,6.4,18,5.9,24.4-1.2l55.1-60.3L591.5,416.8z"/>
		<path class="st11" d="M597.5,794l-25.8-110.4c-2.3-9.8,1.9-19.1,9.3-20.9l0,0c7.4-1.7,15.3,4.8,17.6,14.6l25.8,110.4L597.5,794z"
			/>
		<path class="st31" d="M649.7,800.8c-0.9,7.7-3.3,13.7-12.9,12.6l-41.4-4.7c-9.6-1.1-9.2-7.3-8.3-15l0,0
			c0.9-7.7,2.7-13.8,12.3-12.7l34.6,3.9C643.5,786.1,650.6,793.2,649.7,800.8L649.7,800.8z"/>
		<path class="st21" d="M584.9,778.5l-32.4-138.4c-2.9-12.3,4.8-24.5,17-27.4l0,0c12.3-2.9,24.5,4.8,27.4,17l32.4,138.4L584.9,778.5
			z"/>
		<path class="st11" d="M524.3,392.4c0,21.6-17.5,39.2-39.1,39.2l0,0c-21.6,0-39.2-17.5-39.2-39.1l0-28c0-21.6,17.5-39.2,39.1-39.2
			l0,0c21.6,0,39.2,17.5,39.2,39.1L524.3,392.4z"/>
		<path class="st25" d="M462.2,407.6l1.9-28c1.4-21.6,19.1-22.9,40.7-21.4c7.1,0.5,13.7,1.2,19.4,2.7c-1.8-20-18.6-35.7-39.1-35.7
			c-21.6,0-39.1,17.6-39.1,39.2l0,28c0,14.5,7.9,27.1,19.6,33.9C463,420.7,461.8,414.3,462.2,407.6z"/>
		<path class="st11" d="M477.2,385.6c0,5.9-4.8,10.8-10.7,10.8l0,0c-5.9,0-10.8-4.8-10.8-10.7l0-7.7c0-5.9,4.8-10.8,10.7-10.8l0,0
			c5.9,0,10.8,4.8,10.8,10.7L477.2,385.6z"/>
		<path class="st11" d="M619.6,372.5c2.4,0.7,3.7,3.2,3.1,5.5l-7.4,25.7c-0.7,2.4-3.2,3.7-5.5,3l0,0c-2.4-0.7-3.7-3.2-3-5.5
			l7.4-25.7C614.7,373.2,617.2,371.8,619.6,372.5L619.6,372.5z"/>
	</g>
	<g>
		<path class="st13" d="M1349,784.2l45-104.1c4-9.2,1.5-19.2-5.5-22.2l0,0c-7-3-15.9,2-19.9,11.2l-45,104.1L1349,784.2z"/>
		<path class="st15" d="M1296.4,781.5c-0.5,7.7,0.8,14.1,10.5,14.7l41.6,2.7c9.6,0.6,10.3-5.6,10.8-13.3l0,0
			c0.5-7.7-0.2-14-9.8-14.6l-34.7-2.3C1305.1,768.1,1296.9,773.8,1296.4,781.5L1296.4,781.5z"/>
		<path class="st16" d="M1364.1,771.1l56.5-130.4c5-11.6-0.3-25-11.9-30l0,0c-11.6-5-25,0.3-30,11.9L1322.2,753L1364.1,771.1z"/>
		<path class="st13" d="M1432.2,545.5c-7.7-5.6-9.4-16.4-3.7-24.1l48-66.1c5.6-7.7,16.4-9.4,24.1-3.7l0,0c7.7,5.6,9.4,16.4,3.7,24.1
			l-48,66.1C1450.7,549.4,1439.9,551.1,1432.2,545.5L1432.2,545.5z"/>
		<path class="st11" d="M1374.2,429.9c-6.9,4.6-8.8,14-4.2,20.9l3.5,5.2c4.6,6.9,14,8.8,20.9,4.2l0,0c6.9-4.6,8.8-14,4.2-20.9
			l-3.5-5.2C1390.6,427.1,1381.2,425.3,1374.2,429.9L1374.2,429.9z"/>
		<path class="st9" d="M1401,449.3l41.7,63.8c4.8,7.5,4.3,16.4-1.2,20l0,0c-5.5,3.6-13.9,0.5-18.8-7l-41.7-63.8L1401,449.3z"/>
		<path class="st13" d="M1410.8,453.3l44.8,68.4c5.2,8,2.9,18.7-5.1,23.9l0,0c-8,5.2-18.7,2.9-23.9-5.1l-44.8-68.3L1410.8,453.3z"/>
		<g>
			<g>
				<path class="st3" d="M1558.7,688c-0.6,4.5,2.6,8.6,7.1,9.1l0,0c4.5,0.6,8.6-2.6,9.1-7.1l10.8-84.1c0.6-4.5-2.6-8.6-7.1-9.1l0,0
					c-4.5-0.6-8.6,2.6-9.1,7.1L1558.7,688z"/>
				<path class="st5" d="M1563.8,592.2c-1.1,8.4,4.8,16,13.2,17.1l0,0c8.4,1.1,16-4.8,17.1-13.2l20.5-152.6
					c1.1-8.4-4.8-16-13.2-17.1l0,0c-8.4-1.1-16,4.8-17.1,13.2L1563.8,592.2z"/>
			</g>
			<rect x="1473.2" y="682" class="st3" width="18.2" height="104.5"/>
			<rect x="1408.9" y="682" class="st3" width="167" height="15.2"/>
			<path class="st5" d="M1397.3,669.4c0,6.9,5.6,12.6,12.6,12.6h128.4c6.9,0,12.6-5.6,12.6-12.6l0,0c0-6.9-5.6-12.6-12.6-12.6
				h-128.4C1403,656.9,1397.3,662.5,1397.3,669.4L1397.3,669.4z"/>
			<path class="st3" d="M1473.9,777.9c-2,5.6,0.9,11.8,6.6,13.8l55.8,19.8c5.6,2,11.8-0.9,13.8-6.6l0,0c2-5.6-0.9-11.8-6.6-13.8
				l-55.8-19.8C1482,769.3,1475.9,772.3,1473.9,777.9L1473.9,777.9z"/>
			<path class="st3" d="M1490.3,777.9c2,5.6-0.9,11.8-6.6,13.8l-55.8,19.8c-5.6,2-11.8-0.9-13.8-6.6l0,0c-2-5.6,0.9-11.8,6.6-13.8
				l55.8-19.8C1482.2,769.3,1488.3,772.3,1490.3,777.9L1490.3,777.9z"/>
			<path class="st3" d="M1473.2,803.3c0,4.9,4,8.9,8.9,8.9l0,0c4.9,0,8.9-4,8.9-8.9v-23.7c0-4.9-4-8.9-8.9-8.9l0,0
				c-4.9,0-8.9,4-8.9,8.9V803.3z"/>
			<circle class="st6" cx="1540.1" cy="825.8" r="13.6"/>
			<circle class="st6" cx="1427.2" cy="825.8" r="13.6"/>
			<circle class="st6" cx="1482.1" cy="825.8" r="13.6"/>
		</g>
		<path class="st11" d="M1489.2,444.6c0.1,8,6.6,14.4,14.7,14.4l0,0c8-0.1,23.7-0.2,23.6-8.2l-9.7-42.6c-0.1-8-6.6-14.4-14.6-14.4
			l0,0c-8,0.1-24,7-23.9,15L1489.2,444.6z"/>
		<path class="st32" d="M1485.2,624c2.3,20.1,20.5,34.6,40.6,32.3l0,0c20.1-2.3,34.6-20.5,32.3-40.6L1542.7,470
			c-2.3-20.1-17.9-36.6-40.6-32.3l0,0c-20.1,2.3-31.1,47.4-28.8,67.5L1485.2,624z"/>
		<path class="st24" d="M1557.5,609.5h-157.7c-13.1,0-23.7,10.6-23.7,23.7l0,0c0,13.1,10.6,23.7,23.7,23.7h127.2
			c13.1,0,25.6-6.6,30.8-23.7C1560.5,624.1,1557.5,609.5,1557.5,609.5z"/>
		<path class="st10" d="M1518.3,565.3c-9.5,1-18-5.8-19-15.3l-9.1-81.2c-1-9.5,5.8-18,15.3-19l0,0c9.5-1,18,5.8,19,15.3l9.1,81.2
			C1534.6,555.8,1527.7,564.3,1518.3,565.3L1518.3,565.3z"/>
		<path class="st11" d="M1397.5,519c-2,8.1,2.9,16.3,11,18.3l6.1,1.5c8.1,2,16.3-2.9,18.3-11l0,0c2-8.1-2.9-16.3-11-18.3l-6.1-1.5
			C1407.7,506,1399.5,510.9,1397.5,519L1397.5,519z"/>
		<path class="st9" d="M1430.4,515.3l73.8,19c8.6,2.2,14.2,9.2,12.6,15.6l0,0c-1.7,6.4-10,9.7-18.6,7.5l-73.8-19L1430.4,515.3z"/>
		<path class="st10" d="M1440.3,511.7l79.2,20.3c9.2,2.4,14.8,11.8,12.3,21.1l0,0c-2.4,9.2-11.8,14.8-21.1,12.4l-79.2-20.3
			L1440.3,511.7z"/>
		<path class="st13" d="M1398.3,792.4l10.1-112.9c0.9-10-4.6-18.7-12.2-19.4l0,0c-7.6-0.7-14.5,6.9-15.4,16.9l-10.1,112.9
			L1398.3,792.4z"/>
		<path class="st16" d="M1347.6,806.4c1.9,7.5,5.2,13.1,14.5,10.7l40.3-10.5c9.4-2.4,8.1-8.6,6.1-16l0,0
			c-1.9-7.5-4.6-13.3-13.9-10.8l-33.7,8.7C1351.7,790.9,1345.7,798.9,1347.6,806.4L1347.6,806.4z"/>
		<path class="st24" d="M1408.6,775.2l12.7-141.6c1.1-12.6-8.2-23.6-20.7-24.7l0,0c-12.6-1.1-23.6,8.2-24.7,20.7l-12.7,141.6
			L1408.6,775.2z"/>
		<path class="st11" d="M1450.9,389.8c0,21.6,17.5,39.2,39.1,39.2l0,0c21.6,0,39.2-17.5,39.2-39.1l0-28c0-21.6-17.5-39.2-39.1-39.2
			l0,0c-21.6,0-39.2,17.5-39.2,39.1L1450.9,389.8z"/>
		<path class="st14" d="M1512.9,405l-1.9-28c-1.4-21.6-19.1-22.9-40.7-21.4c-7.1,0.5-13.7,1.2-19.4,2.7c1.8-20,18.6-35.7,39.1-35.7
			c21.6,0,39.1,17.6,39.1,39.2l0,28c0,14.5-7.9,27.1-19.6,33.9C1512.1,418.1,1513.4,411.7,1512.9,405z"/>
		<path class="st11" d="M1497.9,383c0,5.9,4.8,10.8,10.7,10.8l0,0c5.9,0,10.8-4.8,10.8-10.7l0-7.7c0-5.9-4.8-10.8-10.7-10.8l0,0
			c-5.9,0-10.8,4.8-10.8,10.7L1497.9,383z"/>
	</g>
	<g>
		<path class="st3" d="M1464.5,557.2c0,5.8-4.7,10.5-10.5,10.5H527.2c-5.8,0-10.5-4.7-10.5-10.5l0,0c0-5.8,4.7-10.5,10.5-10.5h926.7
			C1459.7,546.6,1464.5,551.3,1464.5,557.2L1464.5,557.2z"/>
		<g>
			<rect x="554.2" y="567.7" class="st9" width="18.9" height="308.2"/>
			<rect x="1408.1" y="567.7" class="st9" width="18.9" height="308.2"/>
		</g>
		<rect x="526.7" y="567.7" class="st9" width="927.8" height="12.5"/>
	</g>
	<g>
		<path class="st33" d="M889.8,502.4c0,4.7-3.8,8.5-8.5,8.5H755.4c-4.7,0-8.5-3.8-8.5-8.5v-72.6c0-4.7,3.8-8.5,8.5-8.5h125.9
			c4.7,0,8.5,3.8,8.5,8.5V502.4z"/>
		<path class="st34" d="M893.5,502.4c0,4.7-3.8,8.5-8.5,8.5H759c-4.7,0-8.5-3.8-8.5-8.5v-72.6c0-4.7,3.8-8.5,8.5-8.5H885
			c4.7,0,8.5,3.8,8.5,8.5L893.5,502.4L893.5,502.4z"/>
		<circle class="st33" cx="822" cy="466.1" r="31.6"/>
		<path class="st35" d="M848.1,529.6c0,4.7-3.8,8.5-8.5,8.5h-12c-4.7,0-8.5-3.8-8.5-8.5l-8.6-63.8c0-4.7,3.8-8.5,8.5-8.5h12
			c4.7,0,8.5,3.8,8.5,8.5L848.1,529.6z"/>
		<path class="st34" d="M872,538.1c0,4.7-3.8,8.5-8.5,8.5h-59.9c-4.7,0-8.5-3.8-8.5-8.5v0c0-4.7,3.8-8.5,8.5-8.5h59.9
			C868.2,529.6,872,533.4,872,538.1L872,538.1z"/>
	</g>
</g>
</svg>
