<?xml version="1.0" encoding="utf-8"?>
<!-- Generator: Adobe Illustrator 20.0.0, SVG Export Plug-In . SVG Version: 6.00 Build 0)  -->
<svg version="1.1" id="Layer_1" xmlns="http://www.w3.org/2000/svg" xmlns:xlink="http://www.w3.org/1999/xlink" x="0px" y="0px"
	 viewBox="0 0 1920 1080" style="enable-background:new 0 0 1920 1080;" xml:space="preserve">
<style type="text/css">
	.st0{fill:#F3A44D;}
	.st1{fill:#436A6E;}
	.st2{fill:#722716;}
	.st3{fill:#973520;}
	.st4{fill:#558A8F;}
	.st5{fill:#161616;}
	.st6{fill:#FFE4C7;}
	.st7{fill:#1A1A1A;}
	.st8{fill:#F5F6F6;}
	.st9{fill:#321C0F;}
	.st10{fill:#494949;}
</style>
<g>
	<polygon class="st0" points="1920,0 1920,543 1920,1086.1 960,1086.1 0,1086.1 0,814.6 0,543 0,0 960,0 	"/>
</g>
<g>
	<g>
		<path class="st1" d="M1579.7,631.1c0,0-224.7-61.5-447.2-61.5c-204,0-447.1,57.6-447.1,57.6l-0.1,96.6c0,6.5,0.8,12.9,2.2,19.2
			l325.4-14l566.8-82.4L1579.7,631.1L1579.7,631.1z"/>
	</g>
	<path class="st2" d="M912.5,706.6l-445,19.2v92.6c14.5,63.5,100.1,117.9,222,148.3l223-167.5V706.6z"/>
	<path class="st1" d="M1132.5,723.8l-223,74.9v92.6c65.6,16.3,141.8,25.7,223,25.7c247,0,447.2-86.5,447.2-193.2v-77.3L1132.5,723.8
		z"/>
	<g>
		<g>
			<path class="st3" d="M467.5,725.8c14.5,63.5,100.1,118,222,148.3l223-167.5L467.5,725.8z"/>
			<path class="st4" d="M1132.5,438c-247,0-447.2,86.5-447.2,193.2c0,6.5,0.8,12.9,2.2,19.2l445-19.2l-223,167.5
				c65.6,16.3,141.8,25.7,223,25.7c247,0,447.2-86.5,447.2-193.2S1379.5,438,1132.5,438z"/>
		</g>
	</g>
</g>
<g>
	<path class="st1" d="M1223.2,603.9c0,15.4,55.6,27.9,124.1,27.9c68.6,0.1,124.1-12.4,124.1-27.7c0-15.4-55.6-27.9-124.1-27.9
		C1278.7,576.1,1223.2,588.5,1223.2,603.9z"/>
	<path class="st5" d="M1266.7,497.1l9.4,89.7c0,0-20.8-15.5-30.8,2.3c-14.1,25.1,43.7,11.7,43.7,11.7l-3.1-86.6
		c0,0,65,11.6,145.5,1.5l7.8,78c0,0-23.6-21.3-31.7,0c-10.9,28.5,43.3,9.7,43.3,9.7l2.3-98.8C1453,504.6,1383.1,485,1266.7,497.1z"
		/>
	<path class="st6" d="M1163.9,205.9c-6.3,0.3-4.3,19-3.1,27.5c-0.4-2-1.2-4.2-2.2-4.1c-6.6,1.1-4.8,4.8-4.6,6.7
		c-0.3-1.6-1.3-4.8-4.2-4.1c-2.6,0.6-3.5,3.5-3.8,5.3c-0.3-1.2-1.2-3.1-3.5-2.6c-9.9,2,3.5,23.5,3.5,23.5l24.3-0.5
		C1170.3,257.6,1171.9,205.4,1163.9,205.9z"/>
	<path class="st7" d="M1404.2,332.8l-66.6,84.6l-62.8-85.9h-18.7l10.6,165.6c0,0,17.3,6,54.7,9.3c15.6,1.7,39.6,2.2,39.6,2.2
		c24.4,0.1,57.5-1,92-4l17.2-171.3L1404.2,332.8z"/>
	<polygon class="st8" points="1171.8,254 1171.2,248.1 1141.4,251.9 1142.6,257.3 	"/>
	<g>
		<g>
			<path class="st6" d="M1256.1,331.5c0,0-26.1-228,154.4-155.2c0,0,89.1-26.6,59.8,157.1L1256.1,331.5z"/>
			<path class="st9" d="M1223.8,105.3c0,0-22.3,126.6,169.3,99.8l22.2,42.7c0,0,18.8-19.7,24.9,0.9c6,20.6-19.8,14-19.8,14
				s23.7,57.2,49.7,70.6c0,0,55-228.2-38-190.1c0,0-4.6-48.1-63-49.2C1308.8,92.9,1279.1,163.8,1223.8,105.3z"/>
			
				<ellipse transform="matrix(0.9929 -0.1191 0.1191 0.9929 -21.3605 154.851)" class="st9" cx="1284.9" cy="256.1" rx="6" ry="10.3"/>
			
				<ellipse transform="matrix(0.9929 -0.1191 0.1191 0.9929 -20.6611 165.4593)" class="st9" cx="1374" cy="255.6" rx="6" ry="10.3"/>
			<path class="st7" d="M1257.7,338.3c0,0-66.1,125.9-83.7-86l-33.1,2.9c0,0,25.3,231.2,121.1,121.8L1257.7,338.3z"/>
			<polygon class="st8" points="1274.8,331.5 1337.6,417.4 1404.2,332.8 			"/>
			<polygon class="st10" points="1274.8,331.5 1273.7,368 1294.3,372.4 1291.2,400.2 1337.6,417.4 			"/>
			<polygon class="st10" points="1337.6,417.4 1382.8,395.8 1381.3,375.5 1403.1,367.8 1404.2,332.8 			"/>
			<polygon class="st5" points="1319.7,349.7 1326.6,339.6 1344.1,339.1 1350.5,351.4 1343.4,359.7 1352.7,398.3 1337.6,417.4 
				1320.9,394.6 1327.8,360 			"/>
			<path class="st9" d="M1374.6,284.4c-0.7,12.6-10,33-45,32.9c-35.9,0-35.9-35.3-35.9-35.3S1340.8,272.3,1374.6,284.4z"/>
		</g>
	</g>
	<circle class="st10" cx="1147" cy="261.7" r="2.6"/>
	<circle class="st10" cx="1148.5" cy="270.6" r="2.6"/>
	<circle class="st10" cx="1150.1" cy="279.2" r="2.6"/>
	<path class="st6" d="M1506.2,497.7l-20.4-5.2l-6.3,15.8c-0.4,1.1-2.3,8.2,1.1,9.1c1.6,0.4,2.8-0.6,3.7-1.8c0.1,1.5,0.5,2.9,2,3.3
		c1.4,0.4,2.6-0.4,3.5-1.5c0.1,1.3,0.6,2.6,2,2.9c1.6,0.4,2.8-0.5,3.7-1.8c0.1,1.5,0.5,2.9,2,3.3c3.1,0.8,4.8-3.6,5.3-5.2l0,0
		L1506.2,497.7z"/>
	<polygon class="st8" points="1484.5,492.5 1482.2,497.8 1506.2,504 1507,498.3 	"/>
	<path class="st7" d="M1469.4,339.1c0,0,84.5,10.4,39.9,161.7l-27.5-6.1c0,0,38-105.5-15.1-128.8L1469.4,339.1z"/>
	<path class="st10" d="M1511.3,477.4c-0.5,1.3-2,1.9-3.4,1.4c-1.3-0.5-2-2-1.4-3.4c0.5-1.3,2-2,3.4-1.4
		C1511.2,474.6,1511.8,476.1,1511.3,477.4z"/>
	<path class="st10" d="M1509.3,486.2c-0.5,1.3-2,2-3.4,1.4c-1.3-0.5-2-2-1.4-3.4c0.5-1.3,2-2,3.4-1.4
		C1509.2,483.4,1509.9,484.9,1509.3,486.2z"/>
	<circle class="st10" cx="1505.1" cy="493.8" r="2.6"/>
	<circle class="st10" cx="1337.1" cy="430.8" r="5.9"/>
	<path class="st10" d="M1343.7,459.2c-0.7,3.2-3.9,5.2-7.1,4.5c-3.2-0.7-5.2-3.9-4.5-7.1c0.7-3.2,3.9-5.2,7.1-4.5
		C1342.4,452.8,1344.4,456,1343.7,459.2z"/>
</g>
<g>
	<g>
		<g>
			<path class="st2" d="M775.1,768.4c0,14.8-53.7,26.9-120,27c-66.3,0.1-120-11.9-120-26.8c0-14.9,53.7-26.9,120-27
				C721.4,741.6,775.1,753.5,775.1,768.4z"/>
			<path class="st9" d="M735.4,675.8l-9.7,74.4c0,0,20.1-15,29.8,2.2c13.6,24.2-42.2,11.3-42.2,11.3l3.7-71.4
				c0,0-62.8,11.2-140.6,1.5l-8.2,73.1c0,0,22.8-20.6,30.7,0c10.5,27.5-41.9,9.4-41.9,9.4l-1.6-95.1
				C555.4,681.2,623,664.1,735.4,675.8z"/>
			<g>
				<g>
					<path class="st6" d="M745.7,540.3c0,0,25.2-220.3-149.2-150c0,0-55.2,39.2-57.8,151.8C707.2,578.1,745.7,540.3,745.7,540.3z"/>
					<path class="st9" d="M780.5,325.4c0,0,1.5,136.5-173.4,101.3L590.5,468c0,0-18.2-19-24,0.9c-5.8,19.9,19.1,13.5,19.1,13.5
						s-21.7,46.8-46.8,59.7c0.8,1.7-57.2-222.2,36.7-183.8c0,0,7.5-43.1,63.9-44.1C697.8,313.1,726.8,388.5,780.5,325.4z"/>
					
						<ellipse transform="matrix(0.9922 -0.1244 0.1244 0.9922 -53.2609 93.2321)" class="st9" cx="719.9" cy="473.1" rx="4.9" ry="8.4"/>
					
						<ellipse transform="matrix(0.9922 -0.1248 0.1248 0.9922 -54.1476 84.4326)" class="st9" cx="646.8" cy="474.4" rx="4.9" ry="8.4"/>
				</g>
			</g>
			<path class="st8" d="M745.7,540.3l-10.3,135.5c0,0-70.6,17.7-180.1,5.4l-16.6-139.1C538.8,542.1,676.2,563.1,745.7,540.3z"/>
		</g>
		<g>
			<path class="st8" d="M743.7,544.6l-0.9,23.3c6,2.2,11,5.3,15.2,9l12.2-19.5C756.7,546,743.7,544.6,743.7,544.6z"/>
			<path class="st6" d="M770.2,557.3L758,576.9c37.2,32.4,12.4,114.4,12.4,114.4l-4.9,15.7c-0.3,1.1-1.6,8.1,1.7,8.7
				c1.6,0.3,2.7-0.7,3.5-2c0.2,1.4,0.7,2.8,2.2,3.1c1.4,0.3,2.5-0.6,3.2-1.7c0.2,1.3,0.8,2.4,2.1,2.7c1.6,0.3,2.7-0.7,3.5-2
				c0.2,1.4,0.7,2.8,2.2,3.1c3,0.6,4.4-3.9,4.8-5.4l3.7-18.7C810,610.9,789.7,573.7,770.2,557.3z"/>
		</g>
		<polygon class="st9" points="690.3,570.7 694.6,578.7 688.5,588.2 699.4,641 684.2,663.5 667.2,643.4 676.6,589.1 669.7,579 
			673.4,572.5 		"/>
	</g>
	<g>
		<path class="st6" d="M536.7,372.2c-0.2,0-0.3,0-0.3,0S536.5,372.2,536.7,372.2z"/>
		<path class="st8" d="M541.8,547.2l3.1,23.4c-12.2-1.9-25.5-8.5-37.7-18.6l16.8-15.5C529.8,541.1,535.9,544.8,541.8,547.2z"/>
		<path class="st6" d="M463.4,457.4c2.4-54,44.6-87.3,44.6-87.3s33.7-22.4,44.8-3.1c0,0,2.6,4-1.5,3.6c-4.1-0.3-9.1-6.7-14.9-3.5
			c0,0,5.7-1.5,5.8,3c0,2.2-4.4,2.2-5.5,2.1c-0.2,0-0.3,0-0.3,0s0.1,0,0.3,0c1.1,0.1,5.1,0.5,5.2,3c0.2,3.7-3.1,3.7-4.2,3.6
			c-0.2,0-0.3,0-0.3,0s0.1,0,0.3,0c1,0.2,3.7,0.9,2.6,4.4c-1.2,3.6-6.8,0.9-6.8,0.9s-12.9-2.1-19.3,5.2
			c-50,60.6-23.9,120.5,9.9,147.2L507.2,552C483,531.9,462.9,497.7,463.4,457.4z"/>
		<path class="st6" d="M537.7,378.8c-0.2,0-0.3,0-0.3,0S537.5,378.8,537.7,378.8z"/>
	</g>
	<g>
		<path class="st9" d="M738.6,470.2c0,0.1-0.2,0.2,0,0.1C738.7,470.2,738.7,470.2,738.6,470.2z"/>
		<path class="st9" d="M715.8,450.2c-0.3,0.9,0.6,0.6,0.6,1.2c0,0.1,0.3-0.3,0.3-0.2c-0.1,0.7,0.6,0.9,1.3,0.8l0.1-0.1
			c0.1,0-0.1,0.4,0,0.4l0.2-0.2c-0.2,0.2,0,0.2,0,0.4l0.3-0.3l-0.2,0.3c-0.4,0.6,0.3,0.2,0.2,0.6l0.1-0.2c0,0.5,0.3,0.8,0.5,1.1
			l0.3-0.3c-0.2,0.2-0.2,0.4-0.1,0.5c0.2-0.2-0.1,0.3,0.1,0.3l0-0.1c-0.2,0.3,0.2-0.1,0,0.3l0.2-0.2c-0.3,0.4,0.2-0.1,0.1,0.1
			l-0.1,0.1c0,0.1,0.2,0,0.1,0.1l0,0c0,0.2,0.3,0.1,0,0.3c0.2-0.2,0-0.2,0.3-0.4c0.1,0.6,0.5,0.9,0.9,1.2l0.3-0.2
			c0,0.1,0.1,0.2,0,0.3c0,0,0.1-0.1,0.2-0.1c0.2,0-0.2,0.4,0,0.3l0.2-0.3c-0.1,0.3,0,0.3,0,0.4l0.1-0.2c-0.1,0.3,0.2,0.1,0.1,0.3
			l0.1-0.2c0.3-0.1-0.2,0.3-0.1,0.3l0.1-0.2c-0.2,0.4,0.1,0.4,0.1,0.6l0.1-0.1c0.1,0.1,0.2,0.1,0.2,0.3c0.1,0,0.3-0.4,0.4-0.2
			c-0.3,0.3,0.1,0.3-0.3,0.6c0.1,0,0.4,0,0.3,0.2c0.1-0.2,0.4-0.3,0.3-0.4l0.2-0.1c0.1-0.1-0.1,0,0.1-0.2c0,0,0,0.3,0.1,0.2
			c-0.1,0.2-0.3,0.7-0.3,0.8c0.1-0.2,0.3-0.3,0.3-0.4l-0.4,0.7c0,0,0.2-0.2,0.2-0.1l-0.1,0.2c0,0,0.1,0.2,0.4-0.1
			c0.1-0.1,0-0.1,0.1-0.2c0.1,0.1,0,0.2,0,0.2l0,0c0.1,0,0,0.2-0.2,0.4c0,0,0.2-0.2,0-0.1c-0.1,0.2-0.1,0.3,0,0.4l0.2-0.2
			c-0.1,0.3-0.1,0.5-0.1,0.7c-0.1,0.1,0.2-0.3,0.1-0.2c0.3-0.1,0,0.5,0.4,0.3c0,0-0.2,0.2-0.2,0.2c0.1,0,0.3-0.2,0.2-0.1
			c0.1-0.1,0,0.1,0,0.2c-0.1,0.1,0.1,0,0-0.1c0,0.2,0,0.6,0.3,0.5c-0.1,0.1-0.2,0.4-0.1,0.4l0.2-0.2c0.1-0.1,0.1,0.1,0.2,0
			c-0.1,0.3-0.1-0.4-0.2-0.2c0.2-0.1-0.1,0.4,0.1,0.1c0.1,0.1-0.1,0.3,0.1,0.2c0,0,0.2-0.3,0.2-0.2c0.1,0.1-0.1,0.1,0,0.2l0,0.1
			c-0.2,0.2,0.1,0-0.1,0.2c0.1-0.1,0,0.2,0.3-0.1l0.2-0.2c0,0.1-0.2,0.3-0.2,0.4l0.1-0.1c-0.3,0.4,0.1,0-0.1,0.4
			c0.2-0.1,0.2,0.2,0.5,0c0,0.2-0.1,0.3,0,0.3l0.1-0.2c0.1-0.1,0.1,0,0.1,0.1c0-0.1,0.3-0.1,0.4-0.2c0,0.2-0.2,0.3-0.3,0.5
			c0.4-0.3,0,0.4,0.3,0.1c0-0.1,0.1-0.3,0.2-0.3c0.4-0.3-0.1,0.4,0.1,0.3l-0.3,0.3c0.2-0.1,0,0.3,0.2,0c-0.1,0.1,0.2,0-0.1,0.3
			c0.4-0.1,0.2,0.5,0.8,0c0,0.1,0.1,0.1-0.1,0.2c-0.2,0.1,0.1-0.2-0.1-0.1l-0.1,0.2c0.1,0,0.2,0,0.3-0.3c0.3-0.1-0.3,0.6-0.1,0.6
			c0.1-0.1,0.2-0.2,0.2-0.1l-0.1,0.3c0.1,0,0.3-0.2,0.5-0.4c0,0.1,0.1,0.1,0,0.3l0.3-0.2c-0.2,0.1-0.1,0.2-0.1,0.2l0-0.1
			c0.1-0.1,0.1,0,0.1,0.1c-0.1,0.1-0.2,0.1-0.3,0.1c-0.1,0.1,0,0.1-0.1,0.3c0.2-0.2,0.2-0.1,0.3-0.1c0.1,0-0.1,0.2-0.1,0.2
			c0.1-0.1,0.1,0,0.2-0.1c0,0-0.1,0.1-0.1,0c0.1-0.1,0.3-0.2,0.2-0.1c0,0.1-0.4,0.4-0.2,0.3l0.1-0.2l0.2,0l-0.2,0.2l0.1-0.1
			c-0.1,0.2,0.1,0.2-0.1,0.4c0,0.1,0.2-0.1,0.2,0l0,0c0.1-0.1,0.1,0.1,0.1,0.2l0,0c0,0,0.1,0.1,0,0.2c0.2-0.1,0.6-0.7,0.5-0.4
			c0.1,0.1-0.2,0.4-0.3,0.5c0.2,0,0.1,0.4,0.4,0.2l-0.1,0.2c0.2,0.1,0.2,0.5,0.6,0.3c0-0.1,0.2-0.2,0.3-0.3c-0.1,0.2,0.2-0.1,0,0.2
			c-0.2,0.2-0.2,0.2-0.3,0.3c0,0.2,0.2,0.3,0.4,0.2c-0.1,0-0.1,0.1-0.1,0.2c0.2-0.3,0.3-0.2,0.3-0.1l-0.1,0.2l0.2-0.1
			c0,0.1-0.3,0.4-0.1,0.3l0.2-0.2c-0.1,0.2-0.2,0.5,0,0.4l0.3-0.2c0,0-0.1,0.2-0.2,0.3c0.2,0,0.3,0,0.5-0.2c-0.3,0.7,0,0.9,0.2,1.1
			l0.1-0.1c0.2-0.1-0.2,0.2,0,0.2c0.1-0.1,0.3-0.2,0.3-0.4c0.2-0.1-0.1,0.3-0.1,0.4c-0.1,0.2,0-0.1-0.1,0.1c0,0.1,0.2,0,0,0.2
			c0.1-0.1,0.2-0.3,0.3-0.4l-0.1,0.2c0.3-0.2,0.3-0.6,0.7-0.9l0,0.1c0.3-0.2,0.1-0.4,0.3-0.4c-0.1,0.2-0.3,0.5-0.5,0.6
			c0,0.2-0.5,0.6-0.3,0.7c0.2-0.1-0.1-0.1,0.1-0.3c0.2-0.1,0,0.2,0.1,0.2c-0.1,0-0.3,0.3-0.3,0.4c0.2-0.1,0.2-0.3,0.3-0.2
			c-0.1,0.1-0.1,0.3-0.3,0.4c-0.2,0.3,0.2,0,0,0.3c0.2-0.2,0.4-0.6,0.6-0.6c-0.2,0.2-0.1,0.4-0.5,0.7c0.1,0,0.2-0.2,0.3-0.3
			c0.2-0.1-0.2,0.5,0.2,0.1l-0.2,0.2l0.3-0.2c0,0-0.1,0.4,0.2,0.1c0,0,0.1,0.1-0.1,0.3c-0.2,0.1,0.1-0.2-0.2,0
			c0.3-0.2,0.1,0.1,0,0.2l0.1-0.1c0,0.1,0.1,0.1-0.1,0.2l0.2-0.2l-0.1,0.2c0,0.2,0.3-0.3,0.4-0.2l0.1-0.2c0,0,0.2-0.1,0.2,0
			l-0.4,0.6c0,0.1,0.2-0.2,0.1,0l0.1-0.3c0-0.1,0.3-0.3,0.4-0.2c0,0.1-0.2,0.4-0.3,0.4c0,0,0.2,0,0.3-0.2c0,0.1-0.2,0.2-0.2,0.3
			c0.1-0.1,0.4-0.2,0.6-0.3l0.2-0.4l0,0c0.2-0.3,0.2-0.2,0.4-0.4c0.1,0,0,0.1,0,0.2c-0.4,0.3-0.4,0.6-0.7,1c0,0.2,0.9-0.8,0.5-0.1
			c-0.1,0.1-0.3,0.4-0.3,0.2c0.1,0-0.3,0.4-0.1,0.3c0.1-0.2,0.4-0.3,0.5-0.6c-0.1,0.1-0.1,0-0.1,0c0.2-0.1,0.3-0.4,0.4-0.3
			c0,0.1,0.1,0.1-0.1,0.3c-0.2,0.2-0.1-0.1-0.2,0.2c0,0.2,0.3-0.1,0,0.3c0-0.1-0.2,0.1-0.4,0.3l0,0.1l0.1-0.1c0.2,0-0.2,0.3-0.1,0.3
			l0.3-0.2c0.2-0.3-0.2,0,0.1-0.4c0.1,0-0.1,0.3,0.1,0.2l0-0.1c0,0,0.5-0.5,0.3-0.1c-0.1,0.2-0.1,0.1-0.2,0.3c0.1,0.1,0,0.3,0,0.4
			c0.2-0.3,0.1,0.1,0.3-0.3c-0.2,0.1-0.3,0-0.1-0.3c0.3-0.3-0.1,0,0.1-0.4c0.1,0.1,0.4-0.3,0.6-0.5c0,0,0,0.1,0,0.2
			c-0.2,0.2-0.2,0.2-0.4,0.4c0.1,0,0.1,0.2,0,0.5c0.1-0.1,0.3-0.3,0.3-0.3c0.1,0.2,0.2,0.2,0.4,0.3c-0.4,0.3,0.1,0.2-0.2,0.4
			c-0.1,0-0.4,0.2-0.5,0.4c0.1,0,0.1-0.1,0.2-0.2c-0.1,0.2,0.3-0.2,0.1,0.1c0-0.2,0.3-0.4,0.5-0.7c-0.1,0.2,0.2-0.2,0.2-0.1
			c-0.1,0.2-0.1,0.4,0,0.5c0.3-0.1,0.3,0.2,0.4,0.3c0.2-0.1,0.4-0.4,0.5-0.4c0.1,0.1-0.3,0.3-0.1,0.2l0-0.1c0,0.1,0.3,0,0,0.4
			l0.2-0.3c0,0,0,0.1,0,0.1l0.2-0.3c0.3-0.2,0.1,0.1,0.1,0.2l-0.2,0.2c0,0.2,0.2,0.1,0.3,0.3l0.2-0.2l0,0.2c0.1-0.2,0.3-0.3,0.2-0.1
			l0.2-0.6c-0.1,0.1-0.1,0.3-0.3,0.4c-0.2,0.1-0.2,0-0.1-0.2c0.1,0,0,0.1,0,0.1c0.2-0.2,0.2-0.3,0.3-0.5c0,0,0.1,0,0,0.1
			c0.1-0.2,0-0.2,0-0.3c0,0.1-0.2,0.1-0.2,0.2c0.2-0.2,0.2-0.3,0.1-0.4c-0.3,0.2,0-0.3-0.2-0.3c-0.2,0.3-0.3,0.5-0.3,0.6
			c-0.2,0.1-0.1-0.1-0.2,0c0.1-0.2,0.3-0.5,0.3-0.6l-0.2,0.2c0-0.1,0.2-0.4,0.1-0.4c-0.2,0-0.4-0.2-0.5-0.3l-0.2,0.2
			c0.3-0.4-0.1-0.3,0-0.5c-0.3,0-0.2-0.4-0.5-0.2c-0.1-0.4-0.2-0.7-0.6-0.8l-0.2,0.3c0.1-0.2-0.2,0.1-0.2,0c0.2-0.1,0.2-0.3,0.3-0.5
			c-0.3,0.1-0.2-0.3-0.2-0.5l-0.2,0.2c0.2-0.4-0.2-0.2-0.4-0.3c-0.1,0.1-0.2,0.2-0.3,0.1c0.2-0.3,0.1-0.3,0.2-0.6
			c-0.1-0.1-0.3-0.1-0.4-0.1c0-0.6-0.5-0.6-0.5-1.1l-0.2,0.2c0.1-0.7-0.6-0.6-0.7-1l-0.3,0.4c-0.2,0-0.1-0.2,0.1-0.5
			c-0.2,0,0-0.3-0.3-0.1c-0.1,0,0-0.2,0-0.3c-0.3,0-0.3-0.1-0.4-0.3l0.1,0c-0.1,0.1-0.2,0.2-0.2,0.2c0-0.1-0.3-0.1,0.1-0.4
			c-0.4,0.1-0.2-0.5-0.6-0.3c0.1-0.1,0.1-0.2,0.1-0.2c-0.1-0.1-0.5,0-0.4-0.3c-0.1,0-0.1,0.2-0.2,0.2l0.1-0.2c0-0.4-0.6-0.2-0.8-0.4
			c-0.2-0.5-0.6-0.8-1-1.1l-0.1,0.1c0.2-0.4-0.6,0.1-0.2-0.5c-0.1,0.1-0.1-0.1-0.3,0.1c0.1-0.3-0.4,0-0.3-0.4l0,0.1
			c-0.3,0.1-0.2-0.3-0.5-0.3l-0.1,0.2c-0.2,0.1,0.2-0.5-0.2-0.1c0,0,0.1-0.2,0.2-0.2c-0.4-0.1-0.6-0.7-0.8-1c-0.4,0-0.6,0.6-0.5,0.2
			c-0.1,0.1,0.1-0.2,0-0.1c0-0.2-0.5,0.3-0.4,0.1c0.2-0.2,0.1-0.2,0.2-0.3c-0.3,0-0.5,0.2-0.5-0.1l-0.1,0.1c0.2-0.5-0.1-0.4,0.1-0.9
			c-0.7-0.7-1.2-1.6-1.8-2.2c-0.8-0.5-1.3-1.3-2.2-1.8c-0.5,0.2-0.5,0.2-0.5-0.1l-0.1,0.1c0.2-0.3-0.1-0.1,0.1-0.4
			c-0.3-0.2-0.5-0.5-0.8-0.7c0,0.1-0.2,0.3-0.2,0.2l0.1-0.2l-0.1,0.1c0-0.1,0.1-0.2,0.2-0.3c-0.5-0.8-1.6-0.9-2.2-1.6
			c-0.3,0-0.4-0.3-0.5-0.5c-0.8-0.1-1.5-0.2-1.8-0.9C716.3,449,715.7,449.8,715.8,450.2z"/>
		<path class="st9" d="M738.6,470.1c-0.1,0.1-0.3,0.1-0.4,0.4L738.6,470.1z"/>
		<path class="st9" d="M735.7,470.1C735.8,470,735.7,470.1,735.7,470.1c-0.1,0.1-0.2,0.2-0.1,0.2L735.7,470.1z"/>
		<path class="st9" d="M735.3,469.8c-0.1,0.1-0.1,0.3-0.1,0.4L735.3,469.8z"/>
		<path class="st9" d="M734.5,469.9c-0.1,0.1-0.2,0.1-0.1,0.2L734.5,469.9z"/>
		<path class="st9" d="M734.7,469.6c0,0-0.1,0-0.2,0.1C734.6,469.6,734.5,469.9,734.7,469.6z"/>
		<path class="st9" d="M733.6,469.3c0,0,0-0.2-0.1,0C733.6,469.1,733.4,469.5,733.6,469.3z"/>
		<path class="st9" d="M733.3,468.8L733.3,468.8c-0.1,0-0.2,0.1-0.1,0.1L733.3,468.8z"/>
		<polygon class="st9" points="726.8,462.1 726.8,462.2 726.9,462.1 		"/>
		<path class="st9" d="M723.8,459.4c0-0.1-0.1,0.1-0.2,0.1C723.7,459.6,723.8,459.4,723.8,459.4z"/>
		<polygon class="st9" points="722.7,457.4 722.7,457.4 722.9,457.1 		"/>
	</g>
	<g>
		<path class="st9" d="M630.5,471.2c-0.1,0-0.2-0.2-0.1,0C630.5,471.2,630.5,471.3,630.5,471.2z"/>
		<path class="st9" d="M649.5,449.7c-0.9-0.3-0.5,0.6-1.2,0.5c-0.1,0,0.3,0.3,0.2,0.3c-0.7-0.2-0.8,0.5-0.7,1.2l0.1,0.1
			c0,0.1-0.4-0.1-0.4,0l0.2,0.2c-0.2-0.2-0.2,0-0.4-0.1l0.3,0.3l-0.3-0.2c-0.6-0.4-0.2,0.3-0.6,0.2l0.1,0.1c-0.5,0-0.7,0.3-1.1,0.5
			l0.3,0.3c-0.2-0.2-0.4-0.2-0.5-0.1c0.2,0.2-0.3-0.1-0.3,0.1l0.1,0c-0.3-0.2,0.1,0.2-0.3,0l0.2,0.2c-0.4-0.3,0.1,0.2-0.1,0.1
			l-0.1-0.1c-0.1,0,0,0.1-0.1,0.1l0,0c-0.2,0,0,0.3-0.3,0c0.2,0.2,0.2,0,0.4,0.3c-0.6,0.1-0.8,0.5-1.1,0.8l0.2,0.3
			c-0.1,0-0.2,0.1-0.3,0c0,0,0.1,0.1,0.1,0.2c0,0.1-0.3-0.2-0.3,0l0.3,0.2c-0.3-0.1-0.3,0-0.4,0l0.2,0.1c-0.3-0.1-0.1,0.2-0.3,0.1
			l0.2,0.1c0.1,0.3-0.3-0.2-0.3-0.1l0.2,0.1c-0.3-0.2-0.4,0.1-0.5,0.1l0.1,0.1c-0.1,0.1-0.1,0.2-0.3,0.2c0,0.1,0.4,0.3,0.2,0.4
			c-0.3-0.3-0.3,0.1-0.6-0.3c0,0.1,0,0.4-0.2,0.3c0.1,0.1,0.3,0.4,0.4,0.3l0.1,0.2c0.1,0.1,0-0.1,0.1,0.1c0,0-0.3,0-0.2,0.1
			c-0.2-0.1-0.6-0.4-0.8-0.3c0.2,0.1,0.3,0.3,0.4,0.3l-0.7-0.4c0,0,0.2,0.2,0.1,0.2l-0.2-0.1c0,0-0.2,0.1,0.1,0.4
			c0.1,0.1,0.1,0,0.2,0.1c-0.1,0.1-0.2,0-0.2,0l0,0c0,0.1-0.2,0-0.4-0.2c0,0,0.2,0.2,0.1,0.1c-0.2-0.1-0.3-0.1-0.4,0l0.2,0.2
			c-0.3-0.1-0.5-0.1-0.7-0.1c-0.1-0.1,0.3,0.2,0.2,0.1c0.1,0.3-0.5,0-0.3,0.4c0,0-0.2-0.2-0.2-0.2c0,0.1,0.2,0.3,0.1,0.2
			c0.1,0.1-0.1,0-0.2,0c-0.1-0.1,0.1,0.1,0.1,0c-0.2,0-0.5,0-0.5,0.3c-0.1-0.1-0.4-0.2-0.4-0.1l0.2,0.2c0.1,0.1-0.1,0.1,0,0.2
			c-0.3-0.1,0.4-0.1,0.2-0.1c0.1,0.2-0.4-0.1-0.1,0.1c-0.1,0.1-0.3-0.1-0.2,0.1c0,0,0.3,0.2,0.2,0.2c-0.1,0.1-0.1-0.1-0.2,0l-0.1,0
			c-0.2-0.2,0,0.1-0.2-0.1c0.1,0.1-0.2,0,0.1,0.3l0.2,0.2c-0.1,0-0.3-0.2-0.4-0.2l0.1,0.1c-0.4-0.3,0,0.1-0.4-0.1
			c0.1,0.2-0.2,0.2,0,0.4c-0.2,0-0.3-0.1-0.3,0l0.2,0.1c0.1,0.1,0,0.1-0.1,0c0.1,0,0.1,0.3,0.2,0.4c-0.2,0-0.3-0.2-0.5-0.3
			c0.3,0.4-0.4,0-0.1,0.3c0.1,0,0.3,0.1,0.3,0.2c0.3,0.4-0.4-0.1-0.3,0.1l-0.3-0.3c0.1,0.2-0.3,0,0,0.2c-0.1-0.1,0,0.2-0.3-0.1
			c0.1,0.4-0.5,0.2,0,0.8c-0.1,0-0.1,0.1-0.2-0.1c-0.1-0.2,0.2,0.1,0.1-0.1l-0.1-0.1c0,0.1,0,0.2,0.3,0.3c0.1,0.3-0.6-0.3-0.6-0.1
			c0.1,0.1,0.2,0.2,0.1,0.2l-0.3-0.1c0,0.1,0.2,0.3,0.4,0.5c-0.1,0-0.1,0.1-0.3,0l0.2,0.3c-0.2-0.2-0.2-0.1-0.2-0.1l0.1,0
			c0.1,0.1,0,0.1-0.1,0.1c-0.1-0.1-0.1-0.2-0.1-0.3c-0.1-0.1-0.1,0-0.2-0.1c0.2,0.2,0.1,0.2,0.1,0.3c0,0.1-0.2-0.1-0.2-0.1
			c0.1,0.1,0,0.1,0.1,0.2c0,0-0.1-0.1,0-0.1c0.1,0.1,0.2,0.3,0.1,0.2c-0.1,0-0.4-0.4-0.3-0.2l0.2,0.1l0,0.2l-0.2-0.2l0.1,0.1
			c-0.2-0.2-0.2,0.1-0.4-0.1c0,0,0.1,0.2,0,0.2l0,0c0.1,0.1-0.1,0.1-0.2,0.1l0,0c0,0-0.1,0.1-0.2,0c0.1,0.2,0.7,0.6,0.4,0.5
			c-0.1,0.1-0.4-0.2-0.5-0.3c0,0.2-0.4,0.1-0.2,0.4l-0.2-0.1c-0.1,0.2-0.5,0.1-0.3,0.6c0.1,0,0.2,0.2,0.3,0.3
			c-0.2-0.1,0.1,0.2-0.2,0c-0.2-0.1-0.2-0.2-0.3-0.3c-0.2,0-0.3,0.2-0.2,0.3c-0.1-0.1-0.1-0.1-0.2-0.1c0.3,0.2,0.2,0.3,0.1,0.3
			l-0.2-0.1l0.1,0.2c-0.1,0-0.4-0.3-0.2-0.1l0.2,0.2c-0.2-0.1-0.5-0.2-0.4,0l0.2,0.3c0,0-0.2-0.1-0.3-0.2c0.1,0.2,0,0.3,0.2,0.5
			c-0.6-0.3-0.9,0-1,0.2l0.1,0.1c0.1,0.2-0.2-0.2-0.2,0c0.1,0.1,0.2,0.3,0.4,0.3c0.1,0.2-0.3-0.1-0.4-0.1c-0.2-0.1,0.1,0.1-0.1-0.1
			c-0.1,0,0,0.2-0.2,0c0.1,0.1,0.3,0.2,0.4,0.3l-0.2-0.1c0.2,0.3,0.6,0.3,0.9,0.7l-0.1,0c0.2,0.3,0.4,0.1,0.4,0.3
			c-0.2-0.1-0.5-0.3-0.6-0.5c-0.1,0-0.6-0.5-0.7-0.3c0.1,0.2,0.1-0.1,0.3,0.1c0.1,0.2-0.2,0-0.2,0.1c0-0.1-0.3-0.3-0.4-0.3
			c0.1,0.2,0.3,0.2,0.2,0.3c-0.1-0.1-0.3-0.1-0.4-0.3c-0.3-0.2,0,0.2-0.3,0c0.2,0.2,0.6,0.4,0.6,0.6c-0.2-0.2-0.4-0.2-0.7-0.5
			c0,0.1,0.2,0.2,0.3,0.3c0.1,0.2-0.5-0.2-0.1,0.2l-0.2-0.2l0.2,0.3c0,0-0.4-0.1-0.1,0.2c0,0-0.1,0.1-0.3-0.1
			c-0.1-0.2,0.2,0.1-0.1-0.2c0.2,0.3-0.1,0.1-0.2,0l0.1,0.1c-0.1,0-0.1,0-0.2-0.1l0.2,0.2l-0.2-0.2c-0.2,0,0.3,0.3,0.2,0.4l0.2,0.1
			c0,0,0.1,0.2,0,0.2l-0.6-0.4c-0.1,0,0.2,0.2,0,0.1l0.3,0.1c0.1,0,0.3,0.3,0.2,0.4c-0.1,0-0.4-0.2-0.4-0.3c0,0,0,0.2,0.2,0.3
			c-0.1,0-0.2-0.2-0.3-0.2c0.1,0.1,0.2,0.3,0.3,0.5l0.3,0.2l0,0c0.3,0.2,0.2,0.2,0.4,0.4c0,0.1-0.1,0-0.2,0c-0.3-0.4-0.6-0.4-1-0.7
			c-0.2,0,0.8,0.9,0.1,0.5c-0.1-0.1-0.4-0.3-0.2-0.3c0,0.1-0.4-0.3-0.3-0.1c0.2,0.1,0.3,0.4,0.6,0.5c-0.1-0.1,0-0.1,0-0.1
			c0.1,0.2,0.4,0.3,0.3,0.4c-0.1,0-0.1,0.1-0.3-0.1c-0.2-0.2,0.1,0-0.2-0.2c-0.1,0,0.2,0.3-0.2,0c0.1,0-0.1-0.2-0.3-0.4l-0.1,0
			l0.2,0.1c0,0.2-0.3-0.2-0.3-0.1l0.2,0.3c0.3,0.2,0-0.2,0.4,0.1c0,0.1-0.3-0.1-0.2,0.1l0.1,0c0,0,0.5,0.5,0.1,0.3
			c-0.2-0.1-0.1-0.1-0.3-0.2c-0.1,0.1-0.3,0-0.4,0c0.3,0.2-0.1,0.1,0.3,0.3c-0.1-0.2,0-0.3,0.3-0.1c0.3,0.3,0-0.1,0.4,0.2
			c-0.1,0.1,0.3,0.4,0.5,0.6c0,0-0.1,0-0.2,0c-0.2-0.2-0.2-0.2-0.4-0.4c0,0.1-0.2,0.1-0.5,0c0.1,0.1,0.3,0.3,0.3,0.3
			c-0.2,0.1-0.2,0.2-0.3,0.4c-0.3-0.4-0.2,0-0.4-0.2c0-0.1-0.2-0.4-0.4-0.5c0,0.1,0.1,0.1,0.2,0.2c-0.2-0.1,0.2,0.3-0.1,0.1
			c0.2,0,0.4,0.3,0.7,0.5c-0.2-0.1,0.2,0.2,0.1,0.2c-0.2-0.1-0.4-0.1-0.5,0c0.2,0.3-0.2,0.3-0.3,0.3c0.1,0.2,0.4,0.4,0.4,0.5
			c-0.1,0.1-0.3-0.3-0.2-0.1l0.1,0c-0.1,0,0,0.3-0.4,0l0.3,0.3c0,0-0.1,0-0.1,0l0.3,0.2c0.2,0.2-0.1,0.1-0.2,0.1l-0.1-0.2
			c-0.2,0-0.1,0.2-0.3,0.2l0.2,0.2l-0.2,0c0.2,0.1,0.3,0.3,0.1,0.2l0.6,0.2c-0.1-0.1-0.3-0.1-0.4-0.3c-0.1-0.2,0-0.2,0.2-0.1
			c0,0.1-0.1,0-0.1,0c0.2,0.2,0.3,0.2,0.5,0.3c0,0,0,0.1-0.1,0c0.2,0.1,0.2,0.1,0.3,0c-0.1,0-0.1-0.2-0.2-0.2
			c0.2,0.2,0.3,0.2,0.3,0.1c-0.2-0.3,0.3,0,0.3-0.1c-0.3-0.2-0.5-0.3-0.6-0.3c-0.1-0.2,0.1-0.1,0-0.2c0.2,0.1,0.5,0.3,0.6,0.4
			l-0.2-0.2c0.1,0,0.4,0.2,0.4,0.1c0-0.2,0.2-0.4,0.2-0.5l-0.2-0.1c0.4,0.3,0.3-0.1,0.5,0c0-0.3,0.4-0.2,0.2-0.5
			c0.3-0.1,0.6-0.2,0.8-0.5l-0.3-0.2c0.2,0.1-0.1-0.2,0-0.2c0.1,0.2,0.3,0.2,0.5,0.3c-0.1-0.3,0.2-0.2,0.5-0.2l-0.2-0.2
			c0.4,0.2,0.2-0.2,0.3-0.3c-0.1-0.1-0.2-0.2-0.1-0.3c0.3,0.2,0.3,0.1,0.6,0.2c0.1-0.1,0.1-0.2,0.1-0.4c0.6,0.1,0.6-0.4,1.1-0.5
			l-0.2-0.2c0.7,0.1,0.6-0.6,1-0.6l-0.4-0.3c0-0.2,0.2-0.1,0.5,0.1c0-0.2,0.3,0,0.1-0.3c0-0.1,0.2,0,0.3,0c0-0.3,0.1-0.3,0.3-0.4
			l0,0.1c-0.1-0.1-0.2-0.2-0.2-0.2c0.1,0,0.1-0.3,0.4,0.1c-0.1-0.4,0.5-0.2,0.3-0.6c0.1,0.1,0.2,0.1,0.2,0.1c0.1-0.1,0-0.5,0.3-0.4
			c0-0.1-0.2-0.1-0.2-0.2l0.2,0.1c0.4,0,0.2-0.6,0.4-0.8c0.5-0.2,0.7-0.6,1.1-0.9l-0.1-0.1c0.4,0.2-0.1-0.5,0.5-0.2
			c-0.1-0.1,0.1-0.1-0.1-0.3c0.3,0.1,0-0.4,0.4-0.3l-0.1,0c-0.1-0.3,0.3-0.2,0.2-0.5l-0.2-0.1c-0.1-0.2,0.4,0.2,0.1-0.2
			c0,0,0.2,0.2,0.2,0.2c0.1-0.4,0.6-0.5,1-0.7c0-0.4-0.6-0.6-0.2-0.5c-0.1-0.1,0.2,0.1,0.1,0c0.2,0-0.3-0.5-0.1-0.4
			c0.2,0.2,0.2,0.1,0.3,0.2c0-0.3-0.2-0.5,0.1-0.4l-0.1-0.1c0.5,0.2,0.4-0.1,0.9,0.1c0.7-0.6,1.5-1.1,2.1-1.7
			c0.5-0.7,1.3-1.2,1.7-2.1c-0.2-0.4-0.2-0.5,0.1-0.5l-0.1-0.1c0.3,0.2,0.1-0.1,0.4,0.1c0.2-0.3,0.4-0.5,0.7-0.7
			c-0.1,0-0.3-0.2-0.2-0.2l0.2,0.1l-0.1-0.1c0.1,0,0.2,0.1,0.3,0.2c0.8-0.4,0.8-1.5,1.5-2.1c0-0.2,0.3-0.4,0.5-0.5
			c0.1-0.8,0.2-1.5,0.9-1.8C650.6,450.2,649.8,449.6,649.5,449.7z"/>
		<path class="st9" d="M630.6,471.1c-0.1-0.1-0.1-0.3-0.4-0.4L630.6,471.1z"/>
		<path class="st9" d="M630.6,468.4C630.6,468.4,630.5,468.3,630.6,468.4c-0.1-0.1-0.2-0.2-0.2-0.1L630.6,468.4z"/>
		<path class="st9" d="M630.8,467.9c-0.1-0.1-0.3-0.1-0.3-0.1L630.8,467.9z"/>
		<path class="st9" d="M630.6,467.1c-0.1-0.1-0.1-0.2-0.2-0.1L630.6,467.1z"/>
		<path class="st9" d="M630.9,467.4c0,0,0-0.1-0.1-0.2C631,467.3,630.7,467.2,630.9,467.4z"/>
		<path class="st9" d="M631.3,466.3C631.3,466.3,631.4,466.3,631.3,466.3C631.4,466.3,631.1,466.1,631.3,466.3z"/>
		<path class="st9" d="M631.8,466.1L631.8,466.1c0-0.1-0.1-0.2-0.1-0.1L631.8,466.1z"/>
		<polygon class="st9" points="638.1,460 638,460 638.1,460.1 		"/>
		<path class="st9" d="M640.6,457.1c0.1,0-0.1-0.1-0.1-0.2C640.5,457,640.7,457.1,640.6,457.1z"/>
		<polygon class="st9" points="642.6,456.1 642.6,456.1 642.8,456.4 		"/>
	</g>
	<path class="st9" d="M693.9,511.1c0,0-22.5-8.3-39.4-2.4c0,0-7.5,20,15.4,20C693.6,528.7,693.9,511.1,693.9,511.1z"/>
</g>
</svg>
