<?xml version="1.0" encoding="utf-8"?>
<!-- Generator: Adobe Illustrator 20.0.0, SVG Export Plug-In . SVG Version: 6.00 Build 0)  -->
<svg version="1.1" id="Layer_1" xmlns="http://www.w3.org/2000/svg" xmlns:xlink="http://www.w3.org/1999/xlink" x="0px" y="0px"
	 viewBox="0 0 1920 1080" style="enable-background:new 0 0 1920 1080;" xml:space="preserve">
<style type="text/css">
	.st0{fill:#5DA4DA;}
	.st1{fill:#080707;}
	.st2{fill:#9D8A31;}
	.st3{fill:#FEDCB8;}
	.st4{opacity:0.21;fill:#FEDCB8;enable-background:new    ;}
	.st5{fill:#1B130E;}
	.st6{fill:#F0D1B0;}
	.st7{fill:#DA9089;}
	.st8{fill:#002D42;}
	.st9{fill:#FEF1ED;}
	.st10{fill:#FFFFFF;}
	.st11{fill:none;stroke:#FFFFFF;stroke-miterlimit:10;}
	.st12{fill:#F26B5B;}
	.st13{fill:#EACDAD;}
	.st14{fill:#11415D;}
	.st15{opacity:6.000000e-02;fill:#1D1D1B;enable-background:new    ;}
	.st16{opacity:0.31;}
	.st17{fill:#C1C1C0;}
	.st18{fill:#FEF7B8;}
	.st19{fill:#A65725;}
	.st20{fill:#8F4C21;}
	.st21{clip-path:url(#SVGID_2_);fill:#F3A44D;}
	.st22{clip-path:url(#SVGID_4_);fill:#5DA4DA;}
	.st23{clip-path:url(#SVGID_6_);fill:#5DA4DA;}
	.st24{clip-path:url(#SVGID_8_);fill:#5DA4DA;}
</style>
<rect y="-2.5" class="st0" width="1930.1" height="1091.1"/>
<g>
	<path class="st1" d="M337.6,786.7l4.9,6.7c0,0,30.4,6.4,17.6,11.1c-12.7,4.7-34.2-0.4-34.2-0.4l-2.5-2.2l-0.9,2.3l-16.4-1.2
		l-0.5-12.8L337.6,786.7z"/>
	<path class="st1" d="M302.8,793.4l4.1,7.2c0,0,29.4,9.8,16.3,13s-33.9-4.3-33.9-4.3l-2.3-2.5l-1.1,2.2l-16.2-3.1l1-12.8
		L302.8,793.4z"/>
	<path class="st2" d="M286.5,480.7c0,0-1.9,4.8-0.5,6.1c1.4,1.3,5.7-1.7,6.6-2.9c0,0-1.3,3.7,0.5,3.7c1.8,0.1,5.3-6,5.3-6
		S295,474.6,286.5,480.7z"/>
	<g>
		<g>
			
				<image style="overflow:visible;opacity:0.14;enable-background:new    ;" width="213" height="308" xlink:href="60E971E04641EA10.png"  transform="matrix(0.3352 0 0 0.3366 280.304 426.1165)">
			</image>
			<g>
				<path class="st3" d="M288.3,439.2c8.8-10.4,41.6-12.9,46.6-0.6c0,0,8,28.1,10.6,36.3c2.5,8.2,4.2,20.1-7.9,22.7
					c-5.2,1.1-11.7,1.2-18,0.2c-6.7,7.6-0.1,19.9-1.1,20.9c0.2,5.6-1.9,11.8-12.7-1c-0.4-1.5-11.6-32-13.3-36.7
					c-2.2-1.9-3.4-2.4-3.4-2.4S279.5,449.6,288.3,439.2z"/>
			</g>
		</g>
		<path class="st4" d="M294.7,476.5c16.1,19.6,43.5,18.2,52.4,9.7c-0.3,5.3-2.6,10-9.7,11.5c-5.2,1.1-11.7,1.2-18,0.2
			c-6.7,7.6-0.1,19.9-1.1,20.9c0.2,5.6-1.9,11.8-12.7-1c-0.4-1.5-11.6-32-13.3-36.7c-2.2-1.9-3.4-2.4-3.4-2.4s-1.2-3.7-2.4-8.9
			C289.1,472.3,292.5,473.8,294.7,476.5z"/>
		<polygon class="st3" points="311.6,518.2 325.7,518.1 316.3,500.6 309.5,500.2 304.4,512.1 		"/>
		<polygon class="st4" points="311.6,518.2 325.7,518.1 316.3,500.6 309.5,500.2 304.4,512.1 		"/>
	</g>
	<ellipse transform="matrix(0.9779 -0.2091 0.2091 0.9779 -87.4925 75.9444)" class="st5" cx="315.4" cy="451.8" rx="1.7" ry="3"/>
	<ellipse transform="matrix(0.9779 -0.2091 0.2091 0.9779 -87.1227 79.8104)" class="st5" cx="333.9" cy="452" rx="1.7" ry="3"/>
	<path class="st2" d="M346.9,415.7c0,0,4.5,21.8-17.4,21.9c-10.9,0-13.9,0.8-19.8-1.3c-6.4-2.3-22.8,9.2-12.4,29
		c10.4,19.8-3.9,4-3.9,4s-9.2-6.2-4.4,9.3c4.7,15.5-9.4-4.6-10.5-7.2c-1-2.6-19.3-50,37.7-43.7C340.7,430.5,346.9,415.7,346.9,415.7
		z"/>
	<path class="st2" d="M275.9,447c0,0-3.1,3.3-4.2,1.5c-2.2-3.7,3.7-2.5,3.7-2.5s-4.6-0.6-2.6-3.6c2-3.1,4.6,1.4,4.6,1.4"/>
	<path class="st2" d="M318.6,440.6c0,0,1.2,2.3-1,4.8c-2.3,2.4-6.5-1.1-9.5,3.5c-3.1,4.6-3.1-4.8,6.6-5.9
		C314.6,442.9,315.8,438.5,318.6,440.6z"/>
	<path class="st2" d="M325.4,442.1c0,0-0.7,2.1,1.6,3.8c2.3,1.7,5.2-1.9,8.5,1.4c3.3,3.4,1.8-4.4-6.4-3.9
		C329.1,443.4,327.4,439.9,325.4,442.1z"/>
	<path class="st3" d="M293.9,479.5c0,0-8,6-7-6.1c1-12.1,8.7-1.7,8.7-1.7"/>
	<path class="st6" d="M324.7,453c0.2,0.2,0.4,0.4,0.6,0.6c0.2,0.2,0.4,0.4,0.5,0.7c0.3,0.5,0.7,0.9,1,1.4l0.9,1.4
		c0.3,0.5,0.6,1,0.9,1.5l-1.4,0c0.4-1,1-1.9,1.9-2.5c0.9-0.6,1.9-1.1,3.1-1.1c0.6,0,1.2,0.1,1.7,0.4c0.5,0.2,1,0.6,1.4,1
		c0.4,0.4,0.7,0.9,0.9,1.4c0.2,0.5,0.3,1,0.4,1.5c0,0.1,0,0.3,0,0.4l0,0.2l0,0.1l0,0l0,0.1l0,0.3c0,0.2,0,0.3,0,0.5
		c-0.1,0.6-0.3,1.1-0.7,1.6c-0.3,0.5-0.7,0.8-1.2,1.1c-0.4,0.3-0.9,0.5-1.4,0.7c-1,0.3-2,0.4-3,0.1c-0.5-0.1-1-0.4-1.3-0.8
		c-0.3-0.4-0.5-0.9-0.4-1.4c0.1,0.5,0.4,0.8,0.7,1.1c0.3,0.2,0.7,0.3,1.1,0.4c0.8,0,1.7-0.2,2.4-0.5c0.4-0.2,0.7-0.4,1-0.6
		c0.3-0.2,0.5-0.5,0.7-0.8c0.2-0.3,0.3-0.6,0.3-0.9c0-0.1,0-0.1,0-0.2l0-0.3l0,0v0c0,0.1,0,0,0,0l0,0l0,0l0-0.1l0-0.2
		c0-0.1,0-0.2-0.1-0.3c-0.2-0.8-0.5-1.5-0.9-2c-0.4-0.5-1-0.8-1.7-0.8c-0.7,0-1.4,0.2-2,0.6c-0.6,0.4-1.1,1-1.5,1.7l-0.8,1.5
		l-0.6-1.5l-0.6-1.6l-0.6-1.6l-0.6-1.6c-0.1-0.3-0.2-0.5-0.3-0.8C325,453.5,324.9,453.3,324.7,453z"/>
	<g>
		<path class="st7" d="M336,474.1c0,0-0.1,0.2-0.3,0.6c-0.2,0.4-0.6,0.9-1.2,1.3c-0.3,0.2-0.7,0.4-1.1,0.6c-0.4,0.2-0.9,0.3-1.4,0.3
			c-0.5,0-1,0.1-1.5,0c-0.5-0.1-1-0.2-1.5-0.4c-0.5-0.1-0.9-0.4-1.4-0.6c-0.5-0.2-0.8-0.5-1.2-0.8c-0.8-0.5-1.3-1.2-1.9-1.7
			c-0.5-0.5-0.8-1-1.1-1.4c-0.2-0.3-0.4-0.5-0.4-0.5s0.8,0.5,2,1.3c0.3,0.2,0.6,0.4,0.9,0.6c0.3,0.2,0.7,0.4,1.1,0.6
			c0.4,0.2,0.7,0.4,1.1,0.6c0.4,0.2,0.8,0.4,1.2,0.5c0.4,0.2,0.8,0.3,1.2,0.3c0.4,0.1,0.8,0.1,1.2,0.1c0.4,0,0.8,0,1.1-0.1
			c0.4-0.1,0.7-0.2,1-0.3c0.6-0.3,1.1-0.6,1.4-0.8C335.8,474.3,336,474.1,336,474.1z"/>
	</g>
	
		<ellipse transform="matrix(0.998 -6.310046e-02 6.310046e-02 0.998 -40.9636 20.3846)" class="st8" cx="302.2" cy="658.7" rx="14.1" ry="20.7"/>
	<path class="st8" d="M348.4,635.4c0,0-19.5,98.8-5.8,156.1c0,0-30.9,13.3-40.7,2.6l19.6-156.6L348.4,635.4z"/>
	<path class="st8" d="M324.9,639.6c0,0-22.8,128.2-15.3,156.9c0,0-32.1,12.1-41.5,0.8l29.2-157.5L324.9,639.6z"/>
	<path class="st9" d="M340.5,516.6c0,0,46.2,44.8,67.8-12.5c0,0,32-5.3,33.6,10.5c0,0-62.7,67-100.1,12.9L340.5,516.6z"/>
	<path class="st9" d="M307.9,531.9c-7.2,2.3-82.5,9.6-53.4,85.7c0,0-16.4,35.5-22.9,20.2c0,0-33.1-85.7,66.6-124.7
		C298.2,513.1,313.3,530.2,307.9,531.9z"/>
	<path class="st3" d="M247.1,625.3c0,0,15.9-9.4,20.6-6.4c3.1,2-0.4,5.3-5.9,7c-5.2,1.6-3,6.4-0.3,10.5c2.7,4.2,4.9,7.1,9.8,8.4
		c6,1.6,4.8,9.1-0.7,7.9c-5.5-1.2-10-4.4-13.4-8.8c-0.7,0.7,0.1,2.2,1.3,5c1.2,2.8,2.5,3.6,6.2,6.5c3.5,2.7-0.2,7.9-4.6,5.7
		c-4.4-2.2-8-8.5-9.8-11.9c-0.9,0.3,1.1,8.6,2.2,12.2c1.1,3.6-3.5,6.9-7.3-0.7c-3.7-7.6-3.6-13.3-5.1-16.6
		C238.8,640.6,240,631,247.1,625.3z"/>
	<path class="st3" d="M445.9,492.2c-1.8-3.1-4.3-1.6-4.4-5.3c0-0.9-3.2,0.5-3.1-0.4c-1.6,1.4-4.7,1.8-5.5,1.4
		c3.7-5.3,5.7-10.9,5-17.4c-0.6-6.5-7.3-5.3-6.9,1.9c0.3,5.8-4.6,18.1-9.6,17.8c-8.6-0.5-6.5,10.8-7.2,13.4c2.2,2.2,3.8,2.5,3.8,2.5
		c8.8,5.8,19.4,2.9,23.1,0.9c1.4-0.8,7.7-5.7,8.2-10.2C447.5,495.5,446.9,493.9,445.9,492.2z"/>
	<g>
		<path class="st10" d="M250.9,619.4c0,0-0.3,0.2-0.8,0.5c-0.5,0.3-1.2,0.8-2,1.4c-0.8,0.6-1.8,1.3-2.7,2.1
			c-0.5,0.4-0.9,0.8-1.4,1.3c-0.5,0.4-0.9,0.9-1.4,1.4c-0.4,0.5-0.9,1-1.3,1.5c-0.4,0.5-0.8,1-1.1,1.5c-0.3,0.5-0.7,1-0.9,1.5
			c-0.2,0.5-0.5,1-0.7,1.4c-0.2,0.5-0.3,0.9-0.5,1.3c-0.1,0.4-0.2,0.7-0.3,1c-0.2,0.6-0.3,0.9-0.3,0.9s0-0.3,0-0.9
			c0-0.3,0-0.7,0-1.1c0.1-0.4,0.1-0.9,0.3-1.4c0.1-0.5,0.3-1,0.5-1.6c0.2-0.6,0.5-1.1,0.8-1.7c0.3-0.6,0.7-1.1,1.1-1.7
			c0.4-0.6,0.9-1.1,1.3-1.6c0.5-0.5,1-1,1.5-1.4c0.5-0.4,1.1-0.9,1.6-1.2c1.1-0.8,2.1-1.4,3-1.8c0.9-0.5,1.7-0.8,2.3-1
			C250.6,619.5,250.9,619.4,250.9,619.4z"/>
	</g>
	<g>
		<path class="st10" d="M415.3,507c0,0,0.3,0.2,0.8,0.5c0.5,0.3,1.2,0.7,2.1,1.2c0.9,0.5,1.9,1.1,3,1.6c0.6,0.3,1.2,0.5,1.7,0.8
			c0.6,0.3,1.2,0.5,1.8,0.7c0.6,0.2,1.2,0.4,1.9,0.6c0.6,0.1,1.2,0.3,1.8,0.4c0.6,0.1,1.2,0.2,1.8,0.2c0.6,0,1.1,0.1,1.6,0
			c0.5,0,1-0.1,1.4-0.1c0.4,0,0.8-0.1,1-0.2c0.6-0.1,0.9-0.1,0.9-0.1s-0.3,0.2-0.9,0.4c-0.3,0.1-0.6,0.3-1,0.4
			c-0.4,0.1-0.9,0.2-1.4,0.4c-0.5,0.1-1.1,0.1-1.7,0.2c-0.6,0.1-1.2,0-1.9,0c-0.7,0-1.3-0.2-2-0.3c-0.7-0.2-1.3-0.4-2-0.6
			c-0.6-0.3-1.3-0.5-1.9-0.8c-0.6-0.3-1.2-0.6-1.8-0.9c-1.1-0.6-2.1-1.4-2.9-2c-0.8-0.7-1.4-1.3-1.8-1.7
			C415.5,507.3,415.3,507,415.3,507z"/>
	</g>
	<path class="st9" d="M279,541.8c-6.5-11.7,3.8-23.9,17.6-28.7c1.9,1-2.6,1.9-0.5,2.2c3.4,1.2,7,1.5,10.7,0.8l0.1,0
		c4.8-0.7,9.2-2.6,13-5.7l1.9-2c10.8,0.4,27.5,12.8,31.5,20.2c14,25.6-4.3,106.3-4.3,106.3s2.7,16.9-54.4,6
		c-3.8-0.7,11.6-46.9-3.2-75.8C284.3,551.2,280.9,545.3,279,541.8z"/>
	<g>
		<path class="st10" d="M312.8,523.2c0,0,3.3,6,6.9,15.6c0.9,2.4,1.8,5,2.8,7.8c0.9,2.8,1.9,5.7,2.7,8.8c0.9,3.1,1.6,6.3,2.4,9.6
			c0.7,3.3,1.4,6.6,1.9,10c0.5,3.4,0.9,6.8,1.2,10.1c0.3,3.4,0.4,6.7,0.5,9.9c0,3.2-0.1,6.3-0.3,9.2c-0.1,1.5-0.3,2.9-0.4,4.3
			c-0.1,1.4-0.3,2.7-0.5,4c-0.3,2.5-0.9,4.8-1.3,6.9c-0.5,2-1,3.8-1.4,5.2c-0.9,2.8-1.5,4.5-1.5,4.5s0.4-1.6,1.2-4.5
			c0.3-1.5,0.7-3.2,1.1-5.2c0.3-2,0.8-4.3,1-6.9c0.2-1.3,0.3-2.6,0.4-3.9c0.1-1.4,0.2-2.8,0.3-4.2c0.1-2.9,0.2-6,0.1-9.2
			c-0.1-3.2-0.2-6.5-0.5-9.8c-0.3-3.3-0.7-6.7-1.2-10c-0.5-3.4-1.1-6.7-1.8-10c-0.7-3.3-1.4-6.5-2.3-9.5c-1.6-6.2-3.4-11.8-5-16.7
			c-1.7-4.8-3.2-8.8-4.3-11.5C313.5,524.8,312.8,523.2,312.8,523.2z"/>
	</g>
	<circle class="st11" cx="331.3" cy="563.6" r="1.2"/>
	<circle class="st11" cx="334.4" cy="574.4" r="1.2"/>
	<circle class="st11" cx="335.7" cy="585.4" r="1.2"/>
	<g>
		<path class="st12" d="M308.1,516.3c-2.7-1.5,7.9-2.7,8.1-1.7c0.1,0.4-0.2,7.9-0.2,7.9s-2.6,2.1-3,1.5
			C312.6,523.4,308.1,516.3,308.1,516.3z"/>
		<path class="st12" d="M315.9,521.6c0,0,6.3,11.9,25.3,17.3c11,3.1,30.8,19.4,29,36.1c0,0-7.2,10.7-9.6,11.2c0,0-8.2-6.7-10.1-8.9
			c0,0,4.7-22.6-13.8-31.2c-21.7-10.1-23.6-22.7-23.6-22.7L315.9,521.6z"/>
	</g>
	<g>
		
			<image style="overflow:visible;opacity:0.14;enable-background:new    ;" width="125" height="71" xlink:href="60E971E04641EA11.png"  transform="matrix(0.3345 0 0 0.3304 290.5739 501.6056)">
		</image>
		<g>
			<g>
				<path class="st10" d="M317.3,508.2c0,0,5.6-4.9,10.7-0.4l-7.8,9.4c0,0-2.2-5.6-8.3-1.8l-1.4-0.8l1.9-0.5L317.3,508.2z"/>
				<path class="st10" d="M304.5,510.9c0,0-5.6-2.5-9.6,4l9.2,5.7c0,0,1.4-6.3,7.9-5.3L304.5,510.9z"/>
			</g>
		</g>
	</g>
	
		<ellipse transform="matrix(0.998 -6.310046e-02 6.310046e-02 0.998 -29.8953 28.5672)" class="st3" cx="437.3" cy="487.6" rx="4.5" ry="4.3"/>
	
		<ellipse transform="matrix(0.998 -6.310046e-02 6.310046e-02 0.998 -30.0769 28.9187)" class="st3" cx="442.8" cy="490.6" rx="3.9" ry="3.7"/>
	
		<ellipse transform="matrix(0.998 -6.310046e-02 6.310046e-02 0.998 -30.3736 29.121)" class="st3" cx="445.9" cy="495.4" rx="3.9" ry="3.7"/>
	<g>
		<path class="st13" d="M432.7,487.4c-0.2,0.3-0.4,0.5-0.5,0.8c-0.1,0.1-0.1,0.3-0.2,0.4c-0.1,0.1-0.1,0.3-0.1,0.4
			c0,0.3,0.1,0.5,0.3,0.7c0.2,0.2,0.4,0.4,0.7,0.5c1.1,0.5,2.4,0.6,3.6,0.5l0.5,0l-0.2,0.4c-0.2,0.3-0.4,0.6-0.6,0.8
			c-0.1,0.1-0.2,0.2-0.3,0.4c-0.1,0.1-0.2,0.2-0.2,0.4c0,0.1-0.1,0.2-0.1,0.3l0,0.2l0.1,0.2c0,0.1,0.1,0.2,0.2,0.3l0.1,0.1
			c0,0,0.1,0.1,0,0l0.1,0.1c0.1,0.1,0.3,0.2,0.4,0.2c0.1,0,0.2,0.1,0.4,0.1c0.3,0.1,0.6,0.1,0.9,0.1c0.6,0,1.2-0.1,1.8-0.2l0.9-0.2
			l-0.5,0.7c-0.2,0.2-0.4,0.4-0.5,0.7c0,0.1-0.2,0.2-0.2,0.4l-0.1,0.4c0,0.1,0,0.3,0,0.4l0,0.2l0,0.1c0,0,0,0,0,0l0,0.1l0.2,0.4
			c0.1,0.1,0.2,0.2,0.2,0.3c0.1,0.1,0.2,0.2,0.3,0.3c0.1,0.1,0.2,0.2,0.4,0.2c0.1,0,0.3,0.1,0.4,0.1l0.5,0c0.3,0,0.6,0,0.9-0.1
			c0.3-0.1,0.6-0.1,0.9-0.2c-0.6,0.3-1.2,0.5-1.8,0.6l-0.5,0c-0.2,0-0.3,0-0.5-0.1c-0.2,0-0.3-0.1-0.5-0.2c-0.2-0.1-0.3-0.2-0.4-0.3
			c-0.1-0.1-0.3-0.3-0.3-0.4l-0.2-0.4l-0.1-0.1c0,0,0,0,0-0.1l0-0.1l-0.1-0.3c0-0.2-0.1-0.3-0.1-0.5l0.1-0.5c0-0.2,0.1-0.3,0.2-0.5
			c0.1-0.3,0.4-0.6,0.6-0.8l0.3,0.5c-0.6,0.2-1.3,0.3-2,0.3c-0.3,0-0.7,0-1-0.1c-0.2,0-0.4-0.1-0.5-0.2c-0.2-0.1-0.3-0.2-0.4-0.2
			l-0.1-0.1c-0.1-0.1-0.1-0.1-0.1-0.1l-0.2-0.2c-0.1-0.1-0.2-0.3-0.3-0.5l-0.1-0.3c0-0.1,0-0.2,0-0.3c0-0.2,0.1-0.4,0.2-0.6
			c0.1-0.2,0.2-0.3,0.3-0.4c0.1-0.1,0.2-0.3,0.3-0.4c0.2-0.2,0.4-0.5,0.5-0.7l0.3,0.4c-0.7,0-1.3,0-1.9-0.2
			c-0.6-0.1-1.3-0.3-1.8-0.6c-0.3-0.2-0.6-0.4-0.8-0.6c-0.2-0.3-0.4-0.6-0.3-1c0-0.2,0.1-0.3,0.1-0.5c0.1-0.2,0.1-0.3,0.2-0.4
			C432.2,487.8,432.5,487.6,432.7,487.4z"/>
	</g>
	<g>
		<path class="st13" d="M421.8,490.1c0,0,1.4-0.2,3.4-0.2c1,0.1,2.3,0.1,3.5,0.6c0.6,0.3,1.3,0.7,1.6,1.5c0.1,0.4,0.1,0.8,0.1,1.2
			c0,0.2-0.1,0.4-0.2,0.5c-0.1,0.2-0.2,0.4-0.3,0.5c-0.4,0.6-1,1.1-1.6,1.5c-0.6,0.4-1.3,0.6-2,0.7c-0.7,0.1-1.3,0.1-1.9,0.1
			c-0.6-0.1-1.1-0.2-1.6-0.3c-1-0.2-1.9-0.4-2.4-0.7c-0.3-0.1-0.5-0.3-0.6-0.4c-0.1-0.1-0.2-0.1-0.2-0.1s0.3,0.2,0.9,0.4
			c0.6,0.2,1.4,0.3,2.4,0.4c1,0.1,2.2,0.3,3.4,0c1.2-0.2,2.4-0.9,3.1-1.9c0.3-0.4,0.5-1.2,0.3-1.6c-0.2-0.5-0.7-0.9-1.2-1.1
			c-1.1-0.5-2.3-0.7-3.3-0.8c-1-0.1-1.9-0.1-2.5-0.2C422.2,490.1,421.8,490.1,421.8,490.1z"/>
	</g>
	<g>
		<path class="st14" d="M335,653.8c0,0,0.1,0.4,0,1.1c0,0.7-0.2,1.7-0.6,2.9c-0.4,1.2-1,2.7-1.8,4.3c-0.8,1.6-1.8,3.4-3.3,5.1
			c-0.7,0.8-1.6,1.7-2.7,2.3c-1.1,0.6-2.1,1.2-3,1.9c-1,0.7-1.8,1.7-2.3,2.8c-0.5,1.1-0.8,2.4-1,3.8c-0.5,2.7-1,5.5-1.5,8.3
			c-0.5,2.8-0.9,5.7-1.4,8.6c-1,5.8-1.9,11.6-2.7,17c-0.4,2.7-0.8,5.3-1.2,7.8c-0.4,2.5-0.7,4.9-1,7c-0.3,2.2-0.5,4.2-0.8,6
			c-0.2,1.8-0.4,3.3-0.5,4.6c-0.1,1.3-0.2,2.3-0.3,3c-0.1,0.7-0.1,1.1-0.1,1.1s0-0.4,0-1.1c0-0.7,0-1.7,0.1-3
			c0.1-2.6,0.3-6.2,0.8-10.6c0.5-4.4,1-9.5,1.8-15c0.8-5.5,1.6-11.3,2.5-17.1c0.5-2.9,1-5.8,1.5-8.6c0.5-2.8,1.1-5.6,1.6-8.3
			c0.3-1.4,0.6-2.7,1.2-4c0.6-1.3,1.7-2.3,2.7-3.1c1.1-0.8,2.2-1.4,3.2-1.9c1-0.5,1.8-1.2,2.6-2c1.4-1.6,2.5-3.3,3.4-4.8
			c0.9-1.5,1.5-3,2-4.1c0.4-1.2,0.7-2.2,0.8-2.9C335,654.2,335,653.8,335,653.8z"/>
	</g>
	
		<ellipse transform="matrix(0.998 -6.310046e-02 6.310046e-02 0.998 -45.1927 22.6958)" class="st8" cx="336.7" cy="726.8" rx="3" ry="7.9"/>
	
		<ellipse transform="matrix(0.998 -6.310046e-02 6.310046e-02 0.998 -35.8278 15.7902)" class="st9" cx="232.1" cy="575.1" rx="3" ry="6.7"/>
	<path class="st15" d="M350.5,803.4c76.6,2.7,138.4,12,138.1,20.6s-62.7,13.4-139.2,10.6c-76.6-2.7,31.6-112,31.9-120.6
		C381.6,705.5,273.9,800.7,350.5,803.4z"/>
	<g class="st16">
		<g>
			<g>
				<g>
					<path d="M614.2,428c5.3-1.5,10.8-0.4,16.1,0.5c3.5,0.6,7.3,1.4,10.8,0.2c5-1.7,3.3-5.7-1-6.8c-5.1-1.3-10.7-1.2-15.9-1.4
						c-2.7-0.1-5.3,0-7.9,0.8c-3.8,1.1-7.1,3.7-2.8,6.7c0-0.4,0-0.9,0-1.3c-2.9,1.4-4.8,4.1-1.7,6.4c2,1.5,4.8,1.5,7.2,1.6
						c3.8,0.1,7.6-0.3,11.4-0.2c4.1,0.2,11,2,14.2-1.7c2.3-2.8,0-4.9-2.9-5.1c-1-0.1-1,1.5,0,1.5c2.5,1.1,2.8,2.2,0.8,3.4
						c-1,0.5-2,0.8-3.1,0.8c-1,0.1-2.1,0.1-3.2,0c-2.4-0.1-4.7-0.4-7.1-0.5c-3.1-0.1-6.3,0.2-9.4,0.2c-1.5,0-3.2,0-4.7-0.3
						C612.3,432.3,611.4,429.4,614.2,428c0.6-0.3,0.4-1,0-1.3c-4.2-3,5.4-4.7,7.3-4.7c3-0.1,6.2,0.3,9.2,0.5
						c3.1,0.2,8.2-0.1,10.9,1.7c3.6,2.4-2.7,3.6-4.4,3.6c-3,0-6-0.7-9-1.1c-4.8-0.8-9.7-1.5-14.5-0.1
						C612.8,426.8,613.2,428.3,614.2,428L614.2,428z"/>
				</g>
				<g>
					<path d="M615.2,433.9c-2.7,1.6-3,4.3,0,5.9c3.5,1.9,8.4,0.3,12.1,0c4.8-0.3,10.4,0.5,14.9-1.6c2.9-1.3,3.1-3.3,0.1-4.7
						c-0.9-0.4-1.7,0.9-0.8,1.3c3.6,1.7-3.4,2.8-4.4,2.9c-2.9,0.3-5.7,0.3-8.6,0.4c-1.9,0.1-3.8,0.3-5.7,0.5c-1,0.1-2,0.2-3.1,0.3
						c-0.9,0-1.7,0-2.6-0.1c-1.8-0.2-2.3-1.4-1.2-3.6C616.9,434.8,616.1,433.4,615.2,433.9L615.2,433.9z"/>
				</g>
				<g>
					<path d="M618.1,439.6c-4,10.3,25.6,15.8,20.1-1.2c-0.3-0.9-1.8-0.5-1.5,0.4c4.8,14.6-20.1,9-17.1,1.2
						C619.9,439.1,618.5,438.7,618.1,439.6L618.1,439.6z"/>
				</g>
				<g>
					<path d="M616.4,422.5c0.1-4.8,0.6-8.7-2.1-12.9c-3.1-4.9-5.8-9.4-7.2-15.2c-2.7-11.1,1.2-21.9,11.8-26.9
						c8.4-4,20.7-4.1,27.5,2.9c6.3,6.4,7.7,17,5.4,25.5c-0.8,3-2.2,5.9-3.9,8.4c-1.6,2.4-3.9,3.4-5.8,5.4c-3.4,3.5-0.4,8.4-1.8,12.5
						c-0.3,0.9,1.2,1.4,1.5,0.4c0.7-2.3,0.3-4.5,0.1-6.9c-0.2-4.2,2-5.3,4.8-7.7c3.6-3.1,5.9-8.5,6.9-13.1
						c1.8-8.3,0.4-18.1-5.3-24.7c-12.5-14.7-40.5-5.6-43.5,12.8c-1,6.1,0.6,12.6,2.9,18.2c1.3,3.1,3,5.7,4.8,8.5
						c2.7,4.1,2.3,7.9,2.2,12.6C614.8,423.4,616.4,423.4,616.4,422.5L616.4,422.5z"/>
				</g>
				<g>
					<path d="M626.9,420.8c0-4.1,0.9-9.2-0.5-13.2c-0.9-2.5-3.3-4.1-5-6c-0.7-0.7-1.8,0.4-1.1,1.1c1.8,1.9,4.2,3.5,4.8,6.1
						c0.9,3.7,0.2,8.2,0.2,12C625.4,421.8,626.9,421.8,626.9,420.8L626.9,420.8z"/>
				</g>
				<g>
					<path d="M636.5,401.7c-1.9,1.9-5.1,2.8-6.2,5.4c-1.7,4.1-0.5,10.3-0.5,14.6c0,1,1.5,1,1.5,0c0-2.2,0-4.3-0.1-6.5
						c0-2.1-0.4-5.5,0.5-7.5c1-2.2,4.1-3.2,5.8-4.9C638.3,402.1,637.2,401,636.5,401.7L636.5,401.7z"/>
				</g>
				<g>
					<path d="M633.6,409.6c-5.2,1.1-10.1,1.8-13.9-2.7c-3.7-4.4-2.2-9.8,3.1-11.9c4.2-1.7,9.8-1.9,13.3,1.4c4.7,4.5,3,11.8-3.2,13.6
						c-0.9,0.3-0.5,1.8,0.4,1.5c6-1.8,9-8,5.8-13.7c-3.2-5.8-10.5-6.5-16.3-4.5c-5.2,1.8-8.4,6.8-5.8,12.2
						c3.5,7.1,10.4,7.1,17.1,5.6C635,410.8,634.6,409.4,633.6,409.6L633.6,409.6z"/>
				</g>
				<g>
					<path d="M635.5,388.7c1.5,0.8,3,1.4,3.8,3c0.4,0.9,1.8,0.1,1.3-0.8c-0.9-1.8-2.6-2.6-4.3-3.5
						C635.3,386.9,634.6,388.3,635.5,388.7L635.5,388.7z"/>
				</g>
				<g>
					<path d="M636.6,387.2c2.3,0.3,3.6,2.3,3.7,4.5c0,1,1.6,1,1.5,0c-0.1-3.1-2.1-5.6-5.2-6C635.7,385.5,635.7,387.1,636.6,387.2
						L636.6,387.2z"/>
				</g>
				<g>
					<path d="M619.9,387.3c-2,0.6-3.2,2.2-4.1,4c-0.5,0.9,0.9,1.7,1.3,0.8c0.7-1.4,1.6-2.8,3.2-3.3
						C621.2,388.5,620.8,387,619.9,387.3L619.9,387.3z"/>
				</g>
				<g>
					<path d="M619.3,385.7c-2.1-0.2-3.7,1.1-4.7,2.8c-0.5,0.9,0.8,1.6,1.3,0.8c0.7-1.3,1.8-2.2,3.4-2
						C620.2,387.3,620.2,385.8,619.3,385.7L619.3,385.7z"/>
				</g>
				<g>
					<path d="M601.7,358.9c-0.8-1.8-3.6-3-5.2-4c-1.2-0.7-2.4-1.5-3.3-2.5c-0.4-0.4-0.6-0.7-0.6-1.3c0-0.4-0.2-0.2,0.1-0.1
						c1.7,0.7,3.2,3,4.4,4.4c1.1,1.3,2.1,3,3.4,4c0.8,0.6,1.9-0.5,1.1-1.1c-1.8-1.4-3.1-3.8-4.6-5.5c-0.9-1.1-3.1-4-4.9-3.5
						c-2.3,0.7-0.4,3.8,0.6,4.7c1.2,1.1,2.7,2,4.1,2.9c1.1,0.7,3,1.5,3.6,2.8C600.8,360.6,602.1,359.8,601.7,358.9L601.7,358.9z"/>
				</g>
				<g>
					<path d="M634.2,346.6c-0.6-3-2.2-5.9-2.5-8.9c-0.1-0.9-0.2-2.7,0.3-3.5c1-1.6,1.9-0.5,2,0.8c0.5,3.8-0.7,7.9-1.4,11.6
						c-0.2,1,1.3,1.4,1.5,0.4c0.5-2.9,1.1-5.9,1.3-8.9c0.2-2.1,0.5-5.5-1.8-6.7c-2.2-1.1-3.1,1.9-3.4,3.5c-0.7,4.3,1.6,8,2.4,12.1
						C632.9,348,634.4,347.6,634.2,346.6L634.2,346.6z"/>
				</g>
				<g>
					<path d="M660.8,357.3c0.6-1.3,1.8-2.4,2.8-3.3c0.7-0.7,3.1-3.2,4.3-2.5c1.5,0.9-3.1,2.7-3.6,2.9c-1.5,0.6-3.6,1.2-4.7,2.4
						c-0.7,0.7,0.4,1.8,1.1,1.1c1.2-1.3,12.7-4.2,8.1-7.6c-1.7-1.2-3.9,0.6-5.2,1.6c-1.5,1.2-3.3,2.9-4.2,4.6
						C659,357.4,660.4,358.2,660.8,357.3L660.8,357.3z"/>
				</g>
			</g>
			<g>
				<g>
					<path d="M557.3,440.1c-4.2-12.7-15.4-21.9-28.7-23.6c-13.6-1.8-26.6,5.2-32.7,17.5c-6,12.2-2.9,26.4,6.4,36
						c8.9,9.2,22.6,13.3,34.7,8.2c7.1-3,12-8.5,15.7-15.1c3.9-6.9,7.2-15.7,3.9-23.5c-0.3-0.7-1.5-0.4-1.2,0.3
						c2.9,6.8,0.4,14.5-2.8,20.8c-2.8,5.4-6.5,10.6-11.6,14c-11,7.2-24.9,5.4-34.9-2.8c-9.5-7.8-14.6-20.5-11-32.6
						c3.8-12.9,15.6-21.9,29.1-21.9c14.3,0,27.4,9.5,31.9,23C556.4,441.2,557.6,440.9,557.3,440.1L557.3,440.1z"/>
				</g>
				<g>
					<path d="M523.7,417.1c0,20.6,0.6,41.3,0.6,61.9c0,0.8,1.2,0.8,1.2,0c0-20.6-0.6-41.3-0.6-61.9
						C524.9,416.3,523.7,416.3,523.7,417.1L523.7,417.1z"/>
				</g>
				<g>
					<path d="M523.4,417.2c-17.5,8.9-18.2,36.4-9.3,51.5c2.2,3.6,4.8,8.6,8.8,10.5c3.7,1.7,7-0.6,9.5-3.4
						c8.1-9.3,12.9-24.7,9.9-36.9c-1.3-5.3-3.8-10.5-6.9-14.9c-2.6-3.6-6.3-7.4-11.1-7.5c-0.8,0-0.8,1.2,0,1.2
						c8.5,0.1,13.9,12.3,16.1,19.1c3.5,10.9,0.3,23.6-5.4,33.1c-2.2,3.7-6.7,10.8-11.9,7.9c-3.7-2-6.1-6.7-8.2-10.2
						c-4.2-7.3-5.5-16.2-4.9-24.5c0.7-9.9,4.7-20.3,14-25C524.7,417.9,524.1,416.8,523.4,417.2L523.4,417.2z"/>
				</g>
				<g>
					<path d="M504.2,423.9c5.8,6.5,13.5,11,22.4,9.3c6.4-1.2,12.2-5.2,16.4-10.1c0.5-0.6-0.4-1.5-0.9-0.9c-3.8,4.4-8.8,8-14.5,9.5
						c-8.9,2.3-16.8-2.2-22.6-8.7C504.5,422.5,503.7,423.3,504.2,423.9L504.2,423.9z"/>
				</g>
				<g>
					<path d="M496,438.6c0.8,0,0.8-1.2,0-1.2C495.2,437.3,495.2,438.6,496,438.6L496,438.6z"/>
				</g>
				<g>
					<path d="M495.5,438.4c8.3,8,20.8,11.2,32.1,10c9.7-1.1,20.9-6.4,25.6-15.3c0.4-0.7-0.7-1.3-1.1-0.6c-4.7,8.8-15.9,14-25.5,14.8
						c-10.7,0.9-22.4-2.1-30.3-9.7C495.8,437,495,437.8,495.5,438.4L495.5,438.4z"/>
				</g>
				<g>
					<path d="M494.4,454c7.8,6.3,19.8,5.4,29.2,5.4c11.4,0,23.7-1.6,33.5-7.9c0.7-0.4,0-1.5-0.6-1.1c-9.4,6-21.3,7.7-32.2,7.7
						c-9.2,0-21.4,1.1-29.1-5C494.6,452.7,493.8,453.5,494.4,454L494.4,454z"/>
				</g>
				<g>
					<path d="M501.4,469.2c13.8,5.9,31.6,7,45.8,1.7c0.7-0.3,0.4-1.5-0.3-1.2c-13.8,5.2-31.3,4.3-44.8-1.5
						C501.3,467.8,500.7,468.8,501.4,469.2L501.4,469.2z"/>
				</g>
			</g>
		</g>
		<g>
			<g>
				<path d="M721.6,517.4c0.3-7.1-6.5-15.4-11.8-19.5c-6.8-5.2-16.7-7.7-25.2-7.9c-17.1-0.3-33,12.3-36,29.3
					c-4.7,27.3,26.4,52.3,52.1,41.7c15.6-6.4,27.7-28.8,20.8-45c-0.4-1-1.9-0.1-1.5,0.9c6,14.1-4.1,34-16.8,41
					c-10.7,6-24,4.3-34.3-1.8c-10.5-6.2-18.5-17.2-19-29.7c-0.6-15.9,10.8-30,26.2-33.7c9.1-2.2,19.8-0.3,28.2,3.8
					c6.8,3.4,16,12.7,15.7,20.9C719.8,518.5,721.5,518.5,721.6,517.4L721.6,517.4z"/>
			</g>
			<g>
				<path d="M697.8,494.7c-0.6,1.6-0.6,2.6-2.3,3.1c-1.3,0.4-2.8,0.1-4.1,0.5c-2.2,0.7-3.7,2.5-5.3,4.1c-0.3,0.3-0.4,0.9,0,1.2
					c1.2,1,3.7,2,1.4,4c-1.5,1.3-3-0.1-4.3-0.7c-1.6-0.7-3.2-0.4-4.8,0.1c-1.5,0.5-3.2,1.1-4.2,2.4c-0.7,0.8-0.7,1.5-1,2.4
					c-0.1,0.2,0,0.4-0.1,0.6c-0.6,1.7-1.2,2.4-2.6,3.6c-3.9,3.5-7.5,6.5-6.8,12.3c0.5,4.4,3.5,8.6,8,9.6c2.4,0.5,4.8,0.1,6.8,1.9
					c1.3,1.2,1.8,2.7,2.2,4.4c0.7,2.6,1,5.3,2.5,7.6c1.6,2.5,5.4,6.1,8.7,5.8c4.5-0.5,4.2-7.4,4.7-10.6c0.6-3.9,2-7,4.6-10
					c1.2-1.3,2.9-2.7,3.2-4.6c0.2-1.6-0.6-3.1-2.2-3.4c-0.4-0.1-1.8,0.5-2.1,0.4c-0.3-1-0.6-2-0.9-3c0.6,0.3,1.3,0.6,1.9,0.9
					c0.9,0.5,1.8,1.2,2.7,1.6c2.6,1.2,4.6,0.5,7.3,0.5c3.9,0,5.4,4.4,9.1,5.3c1.1,0.3,1.5-1.4,0.5-1.7c-3.1-0.8-4-4-6.9-5.1
					c-3.4-1.3-6.6,1-10-1c-2.3-1.3-8.4-4.7-8.8,0.5c-0.1,1.4,0.7,2.6,1.8,3.3c1,0.6,1.7,0.3,2.6,0.6c0.4,0.1,0.4-0.8,1.1-0.3
					c0.3,1.1,0.6,2.3,0.9,3.4c-0.3,0.4-0.7,0.7-1,1.1c-1.5,2.3-3.4,3.9-4.4,6.6c-1.2,3.4-0.7,7.3-2,10.6c-2,5.1-6.1,2.1-8.5-0.7
					c-2.5-2.9-2.4-6.8-3.7-10.1c-0.7-1.7-1.7-3.4-3.3-4.3c-3.9-2.3-8.6-0.3-11.5-5c-2.6-4.1-1.9-8.9,1.4-12.3c1.8-1.9,4.8-3.2,6-5.6
					c0.4-0.9,0.2-1.8,0.6-2.7c0.8-2,2.9-3.2,4.9-3.4c2.7-0.4,3.9,2,6.2,1.9c1.7-0.1,4.1-2.3,4.3-4c0.3-2-2.1-2.3-2.1-3.8
					c0-1.7,4.1-2.9,5.2-3c1.1-0.2,2.8,0.1,3.9-0.5c1.5-0.8,1.6-2.5,2.1-4C699.8,494.1,698.2,493.7,697.8,494.7L697.8,494.7z"/>
			</g>
			<g>
				<path d="M694.1,513.7c-3.2,0.1-5.8,1.2-9,0.5c-1.7-0.4-3.6-1-5.4-0.7c-2.2,0.3-4.4,2.6-2.6,4.6c1.2,1.2,3.7,2,5.3,2.6
					c1.5,0.6,2.9,1.4,4.5,1.5c5.1,0.5,5.6-4.1,8.5-7c0.8-0.8-0.4-2-1.2-1.2c-1.8,1.9-2.6,5.5-5.2,6.4c-2.8,1-6.6-1.5-9-2.6
					c-0.3-0.2-1.3-0.5-1.5-0.8c-0.7-1.3,0.8-1.7,1.8-1.7c1.3-0.1,2.8,0.3,4.1,0.6c3.6,0.9,6.1-0.2,9.7-0.4
					C695.2,515.4,695.2,513.7,694.1,513.7L694.1,513.7z"/>
			</g>
			<g>
				<path d="M717.5,516.1c-1.2-1.2-3-2.1-4.8-2.3c-0.3,0-0.6,0.2-0.7,0.4c-1.1,2-2,4.1-2.3,6.4c0,0.3,0.3,0.8,0.6,0.8
					c1.6,0.2,3.1,1.1,4.7,1.6c1.2,0.4,2.5,0.9,3.7,0.2c2.7-1.8,0.6-5.9-1.4-7.3c-0.9-0.7-1.8,0.8-0.9,1.5c1.3,1,3,5,0.1,4.3
					c-1.9-0.5-3.7-1.6-5.7-2c0.2,0.3,0.4,0.6,0.6,0.8c0.2-2,1.1-3.8,2-5.5c-0.2,0.1-0.5,0.3-0.7,0.4c1.2,0.2,2.7,0.9,3.5,1.8
					C717,518.1,718.3,516.8,717.5,516.1L717.5,516.1z"/>
			</g>
			<g>
				<path d="M668.6,495.3c0,1.8-0.1,3.2-1.3,4.7c-0.4,0.5-1,0.7-1.4,1.4c-1.4,2.4,0.3,5.2-2.9,6.6c-2.6,1.1-4.7,0.9-6.7,3.3
					c-1.5,1.9-3.7,6-4.1,8.5c-0.2,1.8,0.5,2.2,1.7,2.8c1.5,0.8,2.8,0.4,1.9,2.2c-0.6,1.3-2.2,1.7-2.8,3.1c-1.2,2.6,0.1,6.3,1.1,8.7
					c1.4,3.4,3.3,6.5,5,9.8c0.7,1.3,1.4,2.4,2.5,3.3c0.8,0.7,5.2,2.1,3.3,3.9c-0.8,0.8,0.4,2,1.2,1.2c1.4-1.4,1.8-2.7,0.3-4.2
					c-0.9-0.9-2.2-1.2-3.2-1.9c-2.4-1.6-3-4.1-4.3-6.5c-2.5-4.4-6.7-10.3-2.8-15c1-1.2,2.9-2.6,1.8-4.4c-1.7-2.8-4.7-0.2-3.2-4.5
					c0.5-1.4,1.1-3,1.9-4.2c1.7-2.9,3.9-3.4,6.8-4.3c2.5-0.8,3.2-2.4,3.6-4.9c0.7-3.7,3.2-5.4,3.2-9.5
					C670.4,494.2,668.7,494.2,668.6,495.3L668.6,495.3z"/>
			</g>
		</g>
		<g>
			<g>
				<path d="M623.1,600c9.6,0.9,16.3-6.4,14.1-16c-2.4-10.2-12.1-12.5-20.4-7.4c0.4,0.2,0.9,0.5,1.3,0.7c-0.3-5.8,1-12.4-5.8-14.8
					c-6.4-2.3-10.6,3.2-12.6,8.6c0.5-0.1,1.1-0.1,1.6-0.2c-5.2-7.5-13.8-14.5-22.9-8.4c-7.2,4.9-6.3,13.6-1.3,19.7
					c0.2-0.5,0.4-1,0.6-1.5c-5.4,0.3-14.1,1.7-15,8.5c-0.7,5.2,4.1,9.2,8.3,11.1c3.3,1.4,7,1.9,10.5,1.7c2.8-0.2,5.2-1,7.9-1.7
					c3.5-0.9,5.7-0.6,8.8,1.1c3.8,2.2,7.4,2.6,11.5,1.1c5.3-1.9,7.9-4.9,13.9-2.5c1,0.4,1.5-1.3,0.5-1.7c-2.8-1.1-5.6-1.7-8.5-0.6
					c-3.7,1.4-6.6,3.9-10.8,4c-4.1,0.1-6.5-3.3-10.3-3.9c-4.3-0.6-8.7,2.1-13,2.4c-5.8,0.4-13.7-1.4-16.5-7.1
					c-3.8-7.8,7.3-10.3,12.6-10.6c0.8,0,1.1-0.9,0.6-1.5c-4.7-5.7-5.1-13.6,2-17.6c8-4.5,15.1,2.1,19.5,8.4c0.4,0.6,1.3,0.5,1.6-0.2
					c1.9-5.2,7.4-11.3,12.9-5.8c3,3,1.9,7.7,2,11.5c0,0.6,0.7,1.1,1.3,0.7c7.4-4.5,15.8-2.7,17.9,6.4c1.9,8.5-3.9,14.5-12.4,13.8
					C621.9,598.2,621.9,599.9,623.1,600L623.1,600z"/>
			</g>
		</g>
		<g>
			<g>
				<path d="M758.3,463.6c9.6,0.9,16.3-6.4,14.1-16c-2.4-10.2-12.1-12.5-20.4-7.4c0.4,0.2,0.9,0.5,1.3,0.7c-0.3-5.8,1-12.4-5.8-14.8
					c-6.4-2.3-10.6,3.2-12.6,8.6c0.5-0.1,1.1-0.1,1.6-0.2c-5.2-7.5-13.8-14.5-22.9-8.4c-7.2,4.9-6.3,13.6-1.3,19.7
					c0.2-0.5,0.4-1,0.6-1.5c-5.4,0.3-14.1,1.7-15,8.5c-0.7,5.2,4.1,9.2,8.3,11.1c3.3,1.4,7,1.9,10.5,1.7c2.8-0.2,5.2-1,7.9-1.7
					c3.5-0.9,5.7-0.6,8.8,1.1c3.8,2.2,7.4,2.6,11.5,1.1c5.3-1.9,7.9-4.9,13.9-2.5c1,0.4,1.5-1.3,0.5-1.7c-2.8-1.1-5.6-1.7-8.5-0.6
					c-3.7,1.4-6.6,3.9-10.8,4c-4.1,0.1-6.5-3.3-10.3-3.9c-4.3-0.6-8.7,2.1-13,2.4c-5.8,0.4-13.7-1.4-16.5-7.1
					c-3.8-7.8,7.3-10.3,12.6-10.6c0.8,0,1.1-0.9,0.6-1.5c-4.7-5.7-5.1-13.6,2-17.6c8-4.5,15.1,2.1,19.5,8.4c0.4,0.6,1.3,0.5,1.6-0.2
					c1.9-5.2,7.4-11.3,12.9-5.8c3,3,1.9,7.7,2,11.5c0,0.6,0.7,1.1,1.3,0.7c7.4-4.5,15.8-2.7,17.9,6.4c1.9,8.5-3.9,14.5-12.4,13.8
					C757.2,461.7,757.2,463.5,758.3,463.6L758.3,463.6z"/>
			</g>
		</g>
		<g>
			<g>
				<g>
					<path d="M1060.5,327.1c3.7-5.3-4.7-8.8-8.7-6.1c-2.1,1.5-3.1,4.5-1.8,6.8c1.2,2.1,3.7,3.3,6,3.4c2.9,0.2,5-1.6,4.9-4.6
						c0-1.1-1.8-1.1-1.7,0c0.2,5-8.2,2.8-8.2-1.2c0-6.1,11-3.8,7.9,0.8C1058.4,327.2,1059.9,328,1060.5,327.1L1060.5,327.1z"/>
				</g>
				<g>
					<path d="M1050.6,316c0-1.2-0.2-2.7,0-3.9c0.2-1.5-0.3-1.2,1-1.6c3.7-1.3,2.9,2,3.3,3.8c0.6,2.6,2.2,2,4.5,3
						c0.4,0.2,0.9,0.1,1.2-0.3c0.5-0.8,0.8-1.6,1.3-2.4c1-1.8,1.8-1.7,3.4-0.1c1.4,1.4,0.8,1-0.4,3.6c-1.3,2.8-0.2,3.1,0.9,6.1
						c0.2,0.5,0.6,0.7,1.1,0.6c1.4-0.3,2.7-0.7,4.1-0.9c-0.4-0.3-0.7-0.6-1.1-0.8c0.1,1.2,1,4.4,0,5.3c-0.3,0.3-2.2,0.3-2.7,0.5
						c-1.8,0.7-2.9,2.4-4.1,3.8c-0.3,0.4-0.3,0.9,0,1.2c1.2,1.3,2.3,1.7,1.2,3.5c-1.3,2.3-3.2,1.1-4.5-0.7c-0.2-0.3-0.6-0.5-1-0.4
						c-1.6,0.5-3.1,0.8-4.7,1.1c-0.3,0-0.6,0.3-0.6,0.6c-0.6,4.4-4.2,3-6.8,1.5c0.1,0.4,0.2,0.8,0.3,1.2c1.6-2.9,2.4-8.1-1.8-9.2
						c-0.8-0.2-1.5-0.1-2.3,0.1c-0.7,0.2-1.4,0.5-2,0.7c-0.8-0.8-1.3-1.7-1.5-2.8c0.9-1.7,4.4-0.1,6-1.2c2.6-1.7,1.2-4.1-0.9-5.4
						c-2.4-1.4-3.8-1.1-2.1-4.1c1.9-3.4,3.6-2.9,6.9-1.4c1,0.4,1.9-1.1,0.9-1.5c-1.9-0.8-4.3-2.2-6.4-1.4c-2.3,1-3.4,4.5-4.4,6.5
						c-0.2,0.3-0.2,0.8,0.1,1.1c1,0.9,4,1.5,4.5,2.5c1.7,3.6-2.7,2.2-3.8,2.3c-1,0.1-1.5,0.3-2.4,0.7c-0.3,0.2-0.5,0.6-0.4,1
						c0.5,1.8,1.2,3.6,2,5.3c0.1,0.3,0.7,0.5,1,0.4c0.7-0.3,1.9-1.1,2.6-1c1.1-0.5,1.8,0.2,2,2.1c1.8,1.3,2,2.7,0.6,4.3
						c-0.2,0.4-0.1,0.9,0.3,1.2c2.4,1.4,6,3.1,8.3,0.6c1.3-1.5,2.2-4.3,5-2.9c1,0.5,1.3,1.9,2.6,2.2c2.3,0.5,5.6-1.8,5.3-4.3
						c-0.2-1.2-2-2.4-1.9-3.4c0.2-2.3,4.5-3,6-3.1c0.5,0,0.8-0.4,0.9-0.9c0.2-2.1-0.2-4-0.3-6.1c0-0.6-0.5-0.9-1.1-0.8
						c-1.4,0.3-2.7,0.6-4.1,0.9c0.4,0.2,0.7,0.4,1.1,0.6c-0.8-2.1-1.4-2.9-0.7-5.3c0.3-0.9,1.3-2,1.2-3c-0.2-2.3-4-3.9-5.8-4.3
						c-0.3-0.1-0.8,0-1,0.4c-0.7,1.6-1.3,3.2-2.2,4.6c0.4-0.1,0.8-0.2,1.2-0.3c-1.6-0.8-3-0.6-3.5-2.6c-0.2-0.9,0.1-2.3-0.5-3.1
						c-1.4-2.1-4.6-1.4-6.6-1.2c-0.5,0-0.9,0.4-0.9,0.9c0,2.1,0,4.1,0,6.2C1048.9,317.1,1050.6,317.1,1050.6,316L1050.6,316z"/>
				</g>
			</g>
			<g>
				<g>
					<path d="M1075.3,290c3.7-5.3-4.7-8.8-8.7-6.1c-2.1,1.5-3.1,4.5-1.8,6.8c1.2,2.1,3.7,3.3,6,3.4c2.9,0.2,5-1.6,4.9-4.6
						c0-1.1-1.8-1.1-1.7,0c0.2,5-8.2,2.8-8.2-1.2c0-6.1,11-3.8,7.9,0.8C1073.2,290.1,1074.7,290.9,1075.3,290L1075.3,290z"/>
				</g>
				<g>
					<path d="M1065.4,278.8c0-1.2-0.2-2.7,0-3.9c0.2-1.5-0.3-1.2,1-1.6c3.7-1.3,2.9,2,3.3,3.8c0.6,2.6,2.2,2,4.5,3
						c0.4,0.2,0.9,0.1,1.2-0.3c0.5-0.8,0.8-1.6,1.3-2.4c1-1.8,1.8-1.7,3.4-0.1c1.4,1.4,0.8,1-0.4,3.6c-1.3,2.8-0.2,3.1,0.9,6.1
						c0.2,0.5,0.6,0.7,1.1,0.6c1.4-0.3,2.7-0.7,4.1-0.9c-0.4-0.3-0.7-0.6-1.1-0.8c0.1,1.2,1,4.4,0,5.3c-0.3,0.3-2.2,0.3-2.7,0.5
						c-1.8,0.7-2.9,2.4-4.1,3.8c-0.3,0.4-0.3,0.9,0,1.2c1.2,1.3,2.3,1.7,1.2,3.5c-1.3,2.3-3.2,1.1-4.5-0.7c-0.2-0.3-0.6-0.5-1-0.4
						c-1.6,0.5-3.1,0.8-4.7,1.1c-0.3,0-0.6,0.3-0.6,0.6c-0.6,4.4-4.2,3-6.8,1.5c0.1,0.4,0.2,0.8,0.3,1.2c1.6-2.9,2.4-8.1-1.8-9.2
						c-0.8-0.2-1.5-0.1-2.3,0.1c-0.7,0.2-1.4,0.5-2,0.7c-0.8-0.8-1.3-1.7-1.5-2.8c0.9-1.7,4.4-0.1,6-1.2c2.6-1.7,1.2-4.1-0.9-5.4
						c-2.4-1.4-3.8-1.1-2.1-4.1c1.9-3.4,3.6-2.9,6.9-1.4c1,0.4,1.9-1.1,0.9-1.5c-1.9-0.8-4.3-2.2-6.4-1.4c-2.3,1-3.4,4.5-4.4,6.5
						c-0.2,0.3-0.2,0.8,0.1,1.1c1,0.9,4,1.5,4.5,2.5c1.7,3.6-2.7,2.2-3.8,2.3c-1,0.1-1.5,0.3-2.4,0.7c-0.3,0.2-0.5,0.6-0.4,1
						c0.5,1.8,1.2,3.6,2,5.3c0.1,0.3,0.7,0.5,1,0.4c0.7-0.3,1.9-1.1,2.6-1c1.1-0.5,1.8,0.2,2,2.1c1.8,1.3,2,2.7,0.6,4.3
						c-0.2,0.4-0.1,0.9,0.3,1.2c2.4,1.4,6,3.1,8.3,0.6c1.3-1.5,2.2-4.3,5-2.9c1,0.5,1.3,1.9,2.6,2.2c2.3,0.5,5.6-1.8,5.3-4.3
						c-0.2-1.2-2-2.4-1.9-3.4c0.2-2.3,4.5-3,6-3.1c0.5,0,0.8-0.4,0.9-0.9c0.2-2.1-0.2-4-0.3-6.1c0-0.6-0.5-0.9-1.1-0.8
						c-1.4,0.3-2.7,0.6-4.1,0.9c0.4,0.2,0.7,0.4,1.1,0.6c-0.8-2.1-1.4-2.9-0.7-5.3c0.3-0.9,1.3-2,1.2-3c-0.2-2.3-4-3.9-5.8-4.3
						c-0.3-0.1-0.8,0-1,0.4c-0.7,1.6-1.3,3.2-2.2,4.6c0.4-0.1,0.8-0.2,1.2-0.3c-1.6-0.8-3-0.6-3.5-2.6c-0.2-0.9,0.1-2.3-0.5-3.1
						c-1.4-2.1-4.6-1.4-6.6-1.2c-0.5,0-0.9,0.4-0.9,0.9c0,2.1,0,4.1,0,6.2C1063.7,280,1065.4,280,1065.4,278.8L1065.4,278.8z"/>
				</g>
			</g>
			<g>
				<g>
					<path d="M1113.8,302c3.7-5.3-4.7-8.8-8.7-6.1c-2.1,1.5-3.1,4.5-1.8,6.8c1.2,2.1,3.7,3.3,6,3.4c2.9,0.2,5-1.6,4.9-4.6
						c0-1.1-1.8-1.1-1.7,0c0.2,5-8.2,2.8-8.2-1.2c0-6.1,11-3.8,7.9,0.8C1111.7,302.1,1113.2,302.9,1113.8,302L1113.8,302z"/>
				</g>
				<g>
					<path d="M1103.9,290.8c0-1.2-0.2-2.7,0-3.9c0.2-1.5-0.3-1.2,1-1.6c3.7-1.3,2.9,2,3.3,3.8c0.6,2.6,2.2,2,4.5,3
						c0.4,0.2,0.9,0.1,1.2-0.3c0.5-0.8,0.8-1.6,1.3-2.4c1-1.8,1.8-1.7,3.4-0.1c1.4,1.4,0.8,1-0.4,3.6c-1.3,2.8-0.2,3.1,0.9,6.1
						c0.2,0.5,0.6,0.7,1.1,0.6c1.4-0.3,2.7-0.7,4.1-0.9c-0.4-0.3-0.7-0.6-1.1-0.8c0.1,1.2,1,4.4,0,5.3c-0.3,0.3-2.2,0.3-2.7,0.5
						c-1.8,0.7-2.9,2.4-4.1,3.8c-0.3,0.4-0.3,0.9,0,1.2c1.2,1.3,2.3,1.7,1.2,3.5c-1.3,2.3-3.2,1.1-4.5-0.7c-0.2-0.3-0.6-0.5-1-0.4
						c-1.6,0.5-3.1,0.8-4.7,1.1c-0.3,0-0.6,0.3-0.6,0.6c-0.6,4.4-4.2,3-6.8,1.5c0.1,0.4,0.2,0.8,0.3,1.2c1.6-2.9,2.4-8-1.8-9.2
						c-0.8-0.2-1.5-0.1-2.3,0.1c-0.7,0.2-1.4,0.5-2,0.7c-0.8-0.8-1.3-1.7-1.5-2.8c0.9-1.7,4.4-0.1,6-1.2c2.6-1.7,1.2-4.1-0.9-5.4
						c-2.4-1.4-3.8-1.1-2.1-4.1c1.9-3.4,3.6-2.9,6.9-1.4c1,0.4,1.9-1.1,0.9-1.5c-1.9-0.8-4.3-2.2-6.4-1.4c-2.3,1-3.4,4.5-4.4,6.5
						c-0.2,0.3-0.2,0.8,0.1,1.1c1,0.9,4,1.5,4.5,2.5c1.7,3.6-2.7,2.2-3.8,2.3c-1,0.1-1.5,0.3-2.4,0.7c-0.3,0.2-0.5,0.6-0.4,1
						c0.5,1.8,1.2,3.6,2,5.3c0.1,0.3,0.7,0.5,1,0.4c0.7-0.3,1.9-1.1,2.6-1c1.1-0.5,1.8,0.2,2,2.1c1.8,1.3,2,2.7,0.6,4.3
						c-0.2,0.4-0.1,0.9,0.3,1.2c2.4,1.4,6,3.1,8.3,0.6c1.3-1.5,2.2-4.3,5-2.9c1,0.5,1.3,1.9,2.6,2.2c2.3,0.5,5.6-1.8,5.3-4.3
						c-0.2-1.2-2-2.4-1.9-3.4c0.2-2.3,4.5-3,6-3.1c0.5,0,0.8-0.4,0.9-0.9c0.2-2.1-0.2-4-0.3-6.1c0-0.6-0.5-0.9-1.1-0.8
						c-1.4,0.3-2.7,0.6-4.1,0.9c0.4,0.2,0.7,0.4,1.1,0.6c-0.8-2.1-1.4-2.9-0.7-5.3c0.3-0.9,1.3-2,1.2-3c-0.2-2.3-4-3.9-5.8-4.3
						c-0.3-0.1-0.8,0-1,0.4c-0.7,1.6-1.3,3.2-2.2,4.6c0.4-0.1,0.8-0.2,1.2-0.3c-1.6-0.8-3-0.6-3.5-2.6c-0.2-0.9,0.1-2.3-0.5-3.1
						c-1.4-2.1-4.6-1.4-6.6-1.2c-0.5,0-0.9,0.4-0.9,0.9c0,2.1,0,4.1,0,6.2C1102.2,292,1103.9,292,1103.9,290.8L1103.9,290.8z"/>
				</g>
			</g>
		</g>
		<g>
			<g>
				<path d="M1159.5,334.2c2.2,10.1,1.6,21,1.3,31.3c-0.2,7.3-2.2,15.8,1.5,22.5c0.1,0.3,0.5,0.3,0.7,0.2c4.1-1.8,8.7-0.3,12.9-0.9
					c1.6-0.2,2.6-0.7,2.7-2.5c0.2-4.3-0.8-9-1.1-13.3c-0.4-5.2-0.8-10.4-0.9-15.7c-0.1-6.8,2.6-14.8,0-21.4
					c-0.9-2.2-2.2-2.8-4.5-2.6c-4.1,0.4-8.3,0.6-12.2,1.7c-0.6,0.2-0.4,1.2,0.3,1c3.6-1,7.2-1.1,10.9-1.5c1.8-0.2,3.3-0.7,4.4,1.2
					c0.8,1.4,0.9,3.1,1.1,4.6c0.5,6.6-1,13.2-0.8,19.8c0.3,8.4,1.3,16.7,1.9,25.1c0.1,1.2,0.2,1.9-1,2.4c-1.3,0.5-3.3,0.3-4.6,0.3
					c-3.3-0.1-6.4-0.4-9.5,0.9c0.2,0.1,0.5,0.1,0.7,0.2c-3.9-7.1-1.4-16.7-1.3-24.4c0-9.6,0.7-19.7-1.4-29.1
					C1160.4,333.3,1159.4,333.5,1159.5,334.2L1159.5,334.2z"/>
			</g>
			<g>
				<path d="M1183.2,340c1,7,0.9,14.2,0.9,21.3c0,8.5,0.2,17.1,0.4,25.6c0,0.7,1.1,0.7,1,0c-0.3-8.8-0.4-17.5-0.4-26.3
					c0-6.9,0.1-13.9-0.9-20.8C1184.1,339.1,1183.1,339.4,1183.2,340L1183.2,340z"/>
			</g>
			<g>
				<path d="M1183.7,340.4c4.6-0.1,9.1-0.8,13.7-0.6c1.2,0.1,3.9-0.1,5,0.5c1,0.6,0.8,2.1,0.9,3.1c0.4,4.4-0.1,8.9,0.3,13.3
					c0.3,4.5,0.8,9,1.2,13.4c0.4,4.4,0.7,8.9,0.6,13.4c0,0.4,0.1,2.3,0.1,2.3c-0.1,0.1-0.6,0-0.7,0.1c-0.8,0.3-2,0.1-2.8,0.1
					c-5.6,0.2-11.3,0.3-16.9,0.3c-0.7,0-0.7,1,0,1c5.2,0,10.4-0.1,15.6-0.3c1.4,0,3.5,0.2,4.9-0.2c1.5-0.5,0.9-2.5,0.9-3.8
					c0-8.5-1.1-16.9-1.7-25.4c-0.3-4.1-0.1-8.2-0.2-12.4c0-1.3,0.2-4.4-0.8-5.5c-1-1.2-4.5-0.9-5.8-1c-4.7-0.3-9.4,0.6-14.1,0.6
					C1183.1,339.4,1183.1,340.4,1183.7,340.4L1183.7,340.4z"/>
			</g>
			<g>
				<path d="M1209.6,347.2c1.3,9,2.7,17.9,2.6,27c0,3,0,5.9,0.1,8.9c0.1,1.2-0.2,4.1,1,5c0.5,0.4,1.3-0.3,0.7-0.7
					c-1.2-1-0.7-5.7-0.7-7.1c0-2.6,0-5.1,0-7.7c0-8.6-1.5-17.1-2.7-25.7C1210.5,346.2,1209.5,346.5,1209.6,347.2L1209.6,347.2z"/>
			</g>
			<g>
				<path d="M1210.1,347.6c4.2,0,8.3-0.2,12.5-0.4c3.2-0.1,5.9,0,6,3.8c0.1,2.8-0.3,5.5-0.1,8.3c0.2,4.1,0.8,8.2,1.3,12.2
					c0.5,4.1,1,8.1,1.2,12.2c0,1,0.1,2,0.1,3c0,1.4,0.3,1.2-0.7,1.5c-1,0.3-2.7,0-3.8,0c-4-0.1-8-0.2-12-0.4c-0.7,0-0.7,1,0,1
					c5.6,0.3,11.3,0.6,17,0.4c0.3,0,0.5-0.2,0.5-0.5c0.2-12.2-2.9-24.2-2.5-36.4c0.1-2.4-0.1-4.9-2.6-5.8c-2.1-0.7-4.6-0.3-6.7-0.2
					c-3.4,0.2-6.7,0.3-10.1,0.3C1209.5,346.5,1209.5,347.6,1210.1,347.6L1210.1,347.6z"/>
			</g>
			<g>
				<path d="M1237.4,359.3c1.6,10.1,2.8,20.3,2.6,30.6c0,0.3,0.2,0.5,0.5,0.5c4.9-0.3,9.8-0.6,14.8-0.8c0.3,0,0.5-0.2,0.5-0.5
					c0.2-6.5,0.2-12.9-0.4-19.3c-0.3-3-0.8-5.9-1.1-8.9c-0.1-0.7,0.1-1.8-0.5-2.4c-0.5-0.5-1.3-0.4-1.9-0.3
					c-1.6,0.1-3.3,0.3-4.9,0.3c-3,0.1-6.3-0.2-9.3,0.2c-0.7,0.1-0.4,1.1,0.3,1c2.6-0.4,5.4-0.1,8.1-0.1c1.3,0,2.5,0,3.8-0.1
					c0.6,0,2.7-0.6,3.2-0.2c0.5,0.5,0.3,2.9,0.4,3.6c0.4,2.6,0.7,5.3,0.9,7.9c0.4,5.2,0.5,10.5,0.4,15.8c0,0.5,0,1,0,1.5
					c0.2,0.5,0.1,0.7-0.5,0.5c-0.6,0.2-1.6,0.1-2.2,0.1c-1.7,0.1-3.4,0.2-5.1,0.3c-1.3,0.1-2.7,0.2-4,0.2c-0.5,0-1.1,0.2-1.6,0.1
					c-1-0.2-0.2,0.4-0.3-0.4c-0.4-5-0.2-9.9-0.7-14.9c-0.5-5-1.2-10-2-15C1238.3,358.3,1237.3,358.6,1237.4,359.3L1237.4,359.3z"/>
			</g>
			<g>
				<path d="M1162.3,372.6c0-0.1,0-0.3,0-0.4c0-0.7-1-0.7-1,0c0,0.1,0,0.3,0,0.4C1161.3,373.2,1162.3,373.2,1162.3,372.6
					L1162.3,372.6z"/>
			</g>
			<g>
				<path d="M1161.8,372.2c4.8,0.2,9.5-0.8,14.3-0.4c0.7,0.1,0.7-1,0-1c-4.8-0.4-9.5,0.7-14.3,0.4
					C1161.1,371.1,1161.1,372.1,1161.8,372.2L1161.8,372.2z"/>
			</g>
			<g>
				<path d="M1163.7,372.2c-0.9,1-1.7,2-2.5,3c-0.5,0.5,0.2,1.1,0.7,0.7c1-0.8,2-1.5,3-2.4c-0.3-0.2-0.5-0.4-0.8-0.6
					c-0.8,1.2-1.7,2.2-2.7,3.2c0.2,0.2,0.5,0.5,0.7,0.7c1.3-1.3,2.8-2.3,4.4-3.3c-0.2-0.3-0.4-0.5-0.6-0.8c-1.7,1.6-3.4,3.2-4.7,5.2
					c-0.3,0.4,0.3,1,0.7,0.7c2.2-1.6,4.2-3.5,6.4-5.1c-0.2-0.3-0.4-0.5-0.6-0.8c-1.8,2.2-4.1,3.9-5.8,6.2c-0.3,0.4,0.3,1,0.7,0.7
					c2.5-1.9,4.9-3.8,7.4-5.6c-0.2-0.3-0.4-0.5-0.6-0.8c-2.7,2.8-5.1,5.7-7.7,8.6c-0.5,0.5,0.2,1.2,0.7,0.7c3.7-3,7.3-6.2,10.8-9.5
					c-0.3-0.2-0.5-0.4-0.8-0.6c-2.3,4.5-6.2,7.8-9.1,11.9c-0.4,0.5,0.4,1.1,0.8,0.6c3.2-3.6,6.7-7,10.2-10.3
					c-0.3-0.2-0.6-0.3-0.9-0.5c-1.4,4.3-5.7,6.9-8.3,10.3c-0.4,0.5,0.2,1.2,0.7,0.7c3.9-3.6,7.1-7.8,11.1-11.4
					c-0.3-0.2-0.5-0.4-0.8-0.6c-3.2,4.6-7,8.6-10.6,12.9c-0.4,0.5,0.2,1.2,0.7,0.7c3.6-3.2,6.3-7.3,10.1-10.2
					c-0.2-0.2-0.5-0.5-0.7-0.7c-1.6,3.5-4.5,6-6.6,9.2c-0.3,0.4,0.3,1,0.7,0.7c2.2-1.6,4.1-3.5,6.1-5.4c-0.3-0.2-0.5-0.4-0.8-0.6
					c-0.9,2-2.1,3.6-3.5,5.2c-0.4,0.4,0.1,1.2,0.6,0.8c1.8-1.2,3.5-2.5,5.1-3.8c-0.3-0.2-0.5-0.4-0.8-0.6c-0.8,1.1-1.5,2.4-2.4,3.5
					c-0.3,0.4,0.2,0.9,0.6,0.8c0.7-0.2,1.4-0.4,2-0.6c-0.2-0.2-0.4-0.4-0.6-0.6c-0.1,0.4-0.3,0.7-0.4,1.1c-0.2,0.6,0.8,0.9,1,0.3
					c0.1-0.4,0.3-0.7,0.4-1.1c0.1-0.4-0.3-0.8-0.6-0.6c-0.7,0.2-1.4,0.4-2,0.6c0.2,0.3,0.4,0.5,0.6,0.8c0.9-1.1,1.5-2.3,2.4-3.5
					c0.4-0.5-0.4-1-0.8-0.6c-1.6,1.3-3.2,2.6-4.9,3.7c0.2,0.3,0.4,0.5,0.6,0.8c1.5-1.7,2.8-3.4,3.7-5.4c0.2-0.5-0.4-1.1-0.8-0.6
					c-1.9,1.8-3.7,3.7-5.9,5.3c0.2,0.2,0.5,0.5,0.7,0.7c2.1-3.2,4.9-5.7,6.6-9.2c0.2-0.4-0.3-1.1-0.7-0.7c-3.9,3-6.7,7.1-10.3,10.4
					c0.2,0.2,0.5,0.5,0.7,0.7c3.6-4.3,7.5-8.4,10.8-13.1c0.4-0.5-0.4-1-0.8-0.6c-4,3.5-7.2,7.8-11.1,11.4c0.2,0.2,0.5,0.5,0.7,0.7
					c2.8-3.6,7.2-6.3,8.6-10.8c0.2-0.5-0.5-0.8-0.9-0.5c-3.6,3.3-7,6.7-10.2,10.3c0.3,0.2,0.5,0.4,0.8,0.6c3-4,6.8-7.4,9.1-11.9
					c0.3-0.5-0.4-1-0.8-0.6c-3.5,3.3-7,6.5-10.8,9.5c0.2,0.2,0.5,0.5,0.7,0.7c2.6-2.9,5.1-5.8,7.7-8.6c0.4-0.4-0.1-1.2-0.6-0.8
					c-2.5,1.8-5,3.7-7.4,5.6c0.2,0.2,0.5,0.5,0.7,0.7c1.6-2.2,3.9-3.9,5.6-6c0.3-0.4-0.1-1.2-0.6-0.8c-2.2,1.6-4.2,3.4-6.4,5.1
					c0.2,0.2,0.5,0.5,0.7,0.7c1.2-1.9,2.8-3.4,4.5-5c0.4-0.4-0.1-1.1-0.6-0.8c-1.7,1-3.2,2.1-4.6,3.4c-0.5,0.5,0.2,1.2,0.7,0.7
					c1.1-1,2-2.2,2.9-3.4c0.4-0.5-0.4-1-0.8-0.6c-1,0.8-2,1.6-3,2.4c0.2,0.2,0.5,0.5,0.7,0.7c0.9-1,1.7-2,2.5-3
					C1164.9,372.4,1164.1,371.7,1163.7,372.2L1163.7,372.2z"/>
			</g>
			<g>
				<path d="M1184.9,360.1c5.8,2.2,12.4,1,18.5,0.9c0.7,0,0.7-1,0-1c-6,0-12.5,1.2-18.2-0.9C1184.6,358.8,1184.3,359.8,1184.9,360.1
					L1184.9,360.1z"/>
			</g>
			<g>
				<path d="M1186,360.7c-0.5,0.9-0.8,1.8-1.6,2.5c-0.4,0.4,0.1,1.1,0.6,0.8c1.1-0.6,2.3-1.1,3.5-1.7c-0.2-0.3-0.4-0.5-0.6-0.8
					c-1.2,1.1-2.1,2.3-3,3.7c-0.3,0.5,0.3,0.9,0.7,0.7c1.7-0.8,3-2,4.6-3c-0.2-0.2-0.5-0.5-0.7-0.7c-1.3,2.4-3.5,4.2-5.2,6.4
					c-0.3,0.4,0.3,1,0.7,0.7c2.9-2,5.3-4.5,7.7-7c-0.3-0.2-0.6-0.3-0.9-0.5c-1,4.1-4.7,6.8-7.3,9.9c-0.4,0.5,0.2,1.2,0.7,0.7
					c3.5-3.1,6.4-6.7,10-9.6c-0.3-0.2-0.5-0.4-0.8-0.6c-2.4,5-6.7,8.5-10.1,12.7c-0.4,0.5,0.1,1.1,0.6,0.8
					c5.8-2.5,8.1-9.2,12.9-12.9c-0.2-0.2-0.5-0.5-0.7-0.7c-4.3,4.2-8.2,9-11.1,14.2c-0.3,0.6,0.6,1.1,0.9,0.5
					c3.3-6,8.7-10.3,13.6-14.8c-0.3-0.2-0.5-0.4-0.8-0.6c-3.6,7.4-10.6,12.5-15.6,19c-0.4,0.5,0.4,1,0.8,0.6
					c6.5-5.8,11-13.7,17.8-19.2c-0.3-0.2-0.5-0.4-0.8-0.6c-4.6,7-10.4,12.9-15.5,19.5c-0.4,0.5,0.4,1,0.8,0.6
					c6.2-6.1,11.8-12.6,16.8-19.7c-0.3-0.2-0.6-0.4-0.9-0.5c-4.4,7.5-10.4,13.8-15.5,20.8c-0.3,0.5,0.4,1.1,0.8,0.6
					c5.2-5.8,9.3-12.5,15.2-17.6c-0.3-0.2-0.6-0.3-0.9-0.5c-2.6,8.5-10.8,13.6-16.2,20.2c0.2,0.2,0.5,0.5,0.7,0.7
					c5.2-6.4,10.4-13.6,17.6-18.1c-0.2-0.2-0.5-0.5-0.7-0.7c-4.6,6.8-10.5,12.6-15.7,19c-0.4,0.5,0.3,1.3,0.7,0.7
					c5-5.8,10.3-11.3,15.3-17.2c-0.3-0.2-0.6-0.3-0.9-0.5c-2,6.1-7.3,10.3-11.2,15.1c0.2,0.2,0.5,0.5,0.7,0.7
					c3.1-3.9,6.4-7.7,10.2-10.9c-0.3-0.2-0.5-0.4-0.8-0.6c-2.1,4.5-5.9,7.8-9.2,11.4c-0.4,0.4,0.1,1.2,0.6,0.8
					c3.4-2.5,6.2-5.7,9.4-8.5c-0.3-0.2-0.6-0.3-0.9-0.5c-1.4,4.1-5.8,6-7.8,9.6c-0.3,0.5,0.3,0.9,0.7,0.7c3.6-1.8,6-5.1,9.3-7.3
					c-0.2-0.2-0.5-0.5-0.7-0.7c-1.7,3.3-4.9,5.7-7.6,8.2c-0.4,0.4,0.1,1.2,0.6,0.8c2.3-1.7,4.4-3.7,7-5c-0.2-0.3-0.4-0.5-0.6-0.8
					c-1,1.2-2,2.5-2.9,3.8c-0.4,0.5,0.4,1,0.8,0.6c1-0.8,2.1-1.4,3.2-2c-0.2-0.2-0.5-0.5-0.7-0.7c-0.4,0.5-0.7,1.1-1,1.6
					c-0.2,0.4,0.1,0.9,0.6,0.8c0.5-0.2,1-0.3,1.6-0.4c0.7-0.2,0.4-1.2-0.3-1c-0.5,0.1-1,0.3-1.6,0.4c0.2,0.3,0.4,0.5,0.6,0.8
					c0.3-0.6,0.6-1.1,1-1.6c0.3-0.5-0.3-0.9-0.7-0.7c-1.2,0.6-2.3,1.3-3.4,2.1c0.3,0.2,0.5,0.4,0.8,0.6c0.9-1.2,1.8-2.4,2.7-3.6
					c0.4-0.4-0.1-1.1-0.6-0.8c-2.6,1.4-4.7,3.4-7,5c0.2,0.3,0.4,0.5,0.6,0.8c2.8-2.6,6-5,7.7-8.4c0.2-0.4-0.3-1-0.7-0.7
					c-3.2,2.3-5.7,5.6-9.3,7.3c0.2,0.2,0.5,0.5,0.7,0.7c2.1-3.7,6.5-5.6,7.9-9.8c0.2-0.5-0.5-0.8-0.9-0.5c-3.1,2.7-5.8,5.9-9.2,8.3
					c0.2,0.3,0.4,0.5,0.6,0.8c3.4-3.6,7.2-7,9.4-11.6c0.3-0.5-0.4-1-0.8-0.6c-3.8,3.3-7.1,7-10.2,10.9c-0.4,0.5,0.3,1.3,0.7,0.7
					c4.1-4.9,9.4-9.3,11.5-15.6c0.2-0.5-0.5-0.9-0.9-0.5c-4.9,5.9-10.2,11.4-15.3,17.2c0.2,0.2,0.5,0.5,0.7,0.7
					c5.2-6.5,11.1-12.4,15.8-19.2c0.3-0.4-0.3-1-0.7-0.7c-7.2,4.5-12.5,11.7-17.8,18.3c-0.4,0.5,0.3,1.3,0.7,0.7
					c5.5-6.8,13.8-11.9,16.5-20.7c0.2-0.5-0.5-0.8-0.9-0.5c-5.9,5.1-10,11.8-15.2,17.6c0.3,0.2,0.5,0.4,0.8,0.6
					c5.1-7,11.2-13.3,15.5-20.8c0.3-0.6-0.5-1.1-0.9-0.5c-4.9,7-10.5,13.5-16.6,19.5c0.3,0.2,0.5,0.4,0.8,0.6
					c5-6.6,10.9-12.6,15.5-19.5c0.3-0.5-0.4-1-0.8-0.6c-6.9,5.5-11.3,13.4-17.8,19.2c0.3,0.2,0.5,0.4,0.8,0.6
					c5-6.5,11.9-11.5,15.6-19c0.3-0.5-0.4-1-0.8-0.6c-5,4.6-10.5,9-13.8,15c0.3,0.2,0.6,0.4,0.9,0.5c2.8-5.2,6.8-9.9,11-14
					c0.5-0.5-0.2-1.1-0.7-0.7c-4.8,3.7-6.9,10.3-12.7,12.8c0.2,0.3,0.4,0.5,0.6,0.8c3.5-4.3,7.9-7.8,10.3-12.9
					c0.3-0.6-0.4-1-0.8-0.6c-3.6,2.9-6.6,6.5-10,9.6c0.2,0.2,0.5,0.5,0.7,0.7c2.7-3.3,6.5-6.1,7.5-10.3c0.1-0.5-0.5-0.9-0.9-0.5
					c-2.4,2.4-4.7,4.9-7.5,6.9c0.2,0.2,0.5,0.5,0.7,0.7c1.7-2.2,3.8-3.9,5.2-6.4c0.2-0.4-0.3-1-0.7-0.7c-1.6,1-2.9,2.2-4.6,3
					c0.2,0.2,0.5,0.5,0.7,0.7c0.8-1.3,1.7-2.5,2.8-3.5c0.4-0.4-0.1-1.1-0.6-0.8c-1.1,0.6-2.3,1.1-3.5,1.7c0.2,0.3,0.4,0.5,0.6,0.8
					c0.9-0.8,1.2-1.7,1.7-2.8C1187.2,360.6,1186.3,360.1,1186,360.7L1186,360.7z"/>
			</g>
			<g>
				<path d="M1213.3,369.9c5.2-0.1,10.4-1.1,15.7-0.9c0.7,0,0.7-1,0-1c-5.2-0.2-10.4,0.8-15.7,0.9
					C1212.6,368.9,1212.6,369.9,1213.3,369.9L1213.3,369.9z"/>
			</g>
			<g>
				<path d="M1215,370.7c0,0,0.1-0.1,0.1-0.1c0.2-0.2,0.2-0.5,0-0.7c0,0,0,0-0.1-0.1c-0.1-0.1-0.3-0.2-0.5-0.1
					c-0.6,0.2-0.9,0.7-1.2,1.2c-0.2,0.4,0.1,0.9,0.6,0.8c0.6-0.2,1.2-0.5,1.8-0.7c-0.2-0.3-0.4-0.5-0.6-0.8
					c-0.5,0.9-0.9,1.9-1.5,2.9c-0.3,0.5,0.4,1.1,0.8,0.6c1-1.2,2-2.3,3.1-3.4c-0.3-0.2-0.5-0.4-0.8-0.6c-1.4,2.2-3,4.2-4.7,6.1
					c-0.4,0.5,0.1,1.1,0.6,0.8c2.8-1.4,4.4-4.1,6.7-6.2c-0.3-0.2-0.6-0.3-0.9-0.5c-1.2,3.5-3.4,6.4-5.3,9.5
					c-0.3,0.5,0.4,1.1,0.8,0.6c2.4-2.4,4.2-5.1,6.3-7.8c-0.3-0.2-0.5-0.4-0.8-0.6c-1.6,3.7-4.1,6.8-6.1,10.3c-0.3,0.5,0.4,1,0.8,0.6
					c4.3-3.8,8.2-7.9,11.9-12.3c-0.3-0.2-0.5-0.4-0.8-0.6c-3.3,4.8-6.8,9.4-10.9,13.6c-0.5,0.5,0.3,1.2,0.7,0.7
					c3.8-3.8,6.5-8.4,9.2-13c0.3-0.5-0.4-1.1-0.8-0.6c-2.8,2.9-5.3,6.1-7.6,9.5c-0.4,0.5,0.4,1,0.8,0.6c3.1-2.7,5-6.4,7.2-9.8
					c0.3-0.5-0.4-1.1-0.8-0.6c-1.5,1.6-2.6,3.5-3.9,5.2c0.3,0.2,0.6,0.4,0.9,0.5c1.2-1.8,2.1-3.6,2.2-5.8c0-0.6-0.7-0.6-1-0.3
					c-1.6,2.2-3.1,4.3-3.5,7.1c-0.1,0.5,0.3,0.8,0.8,0.6c3.1-1.3,5.4-3.6,7.7-6c-0.3-0.2-0.5-0.4-0.8-0.6c-2.7,5.2-6.3,10-10.5,14
					c0.2,0.2,0.5,0.5,0.7,0.7c4.6-5.1,10-9.4,13.8-15.2c-0.3-0.1-0.6-0.3-1-0.4c-2.1,6.7-8.4,11.1-12.6,16.4
					c-0.4,0.5,0.3,1.2,0.7,0.7c5.1-5.1,9.4-10.8,14.2-16.1c-0.2-0.2-0.5-0.5-0.7-0.7c-5,5.7-10,11.3-14.4,17.5
					c-0.4,0.5,0.4,1,0.8,0.6c5.1-4.6,9.3-10,14.1-14.8c-0.2-0.2-0.5-0.5-0.7-0.7c-3.2,4.2-7.1,7.7-10.2,12c-0.3,0.4,0.3,1,0.7,0.7
					c3.6-2.6,6.9-5.5,10.2-8.4c-0.3-0.2-0.5-0.4-0.8-0.6c-2,3.3-4.8,5.9-7,9.1c-0.4,0.5,0.4,1,0.8,0.6c2.4-2.2,4.6-4.5,6.9-6.7
					c-0.3-0.2-0.5-0.4-0.8-0.6c-1.3,2.6-3.4,4.6-5.1,6.9c-0.4,0.5,0.4,1,0.8,0.6c1.6-1.3,3.1-2.8,4.6-4.2c-0.2-0.2-0.5-0.5-0.7-0.7
					c-0.9,1.1-1.7,2.3-2.5,3.4c-0.3,0.4,0.3,1,0.7,0.7c0.9-0.6,1.8-1,2.7-1.6c-0.2-0.2-0.5-0.5-0.7-0.7c-0.6,0.8-1.2,1.7-1.8,2.6
					c-0.3,0.4,0.2,0.9,0.6,0.8c0.7-0.3,1-0.4,1.7-0.7c-0.2-0.2-0.5-0.5-0.7-0.7c-0.4,0.7-0.8,1.3-1.2,1.9c-0.2,0.3,0.1,0.8,0.5,0.8
					c0.8-0.1,0.9,1,1.5,1.5c0.2-0.2,0.5-0.5,0.7-0.7c-3.1-2.5-6.8-2.2-10.5-3.3c0,0.3,0.1,0.6,0.1,1c0.9-0.5,1.8-1.1,2.8-1.5
					c0.5-0.2,0.2-1-0.3-1c-1,0.1-2,0.2-3.1,0.3c0.1,0.3,0.3,0.6,0.4,1c1.6-0.9,3.1-1.8,4.8-2.7c0.6-0.3,0.1-1.2-0.5-0.9
					c-1.6,0.8-3.2,1.8-4.8,2.7c-0.6,0.3-0.1,1,0.4,1c0.9-0.2,1.9-0.2,2.8-0.3c-0.1-0.3-0.2-0.6-0.3-1c-1,0.4-1.8,1-2.8,1.5
					c-0.4,0.2-0.3,0.8,0.1,1c3.4,1.1,7.1,0.7,10,3c0.5,0.4,1.2-0.3,0.7-0.7c-0.5-0.4-0.5-1-0.7-1.6c-0.1-0.2-0.3-0.4-0.5-0.4
					c-0.4,0-0.7,0.1-1.1,0.1c0.2,0.3,0.3,0.5,0.5,0.8c0.4-0.6,0.8-1.3,1.2-1.9c0.3-0.5-0.3-0.9-0.7-0.7c-0.5,0.2-1,0.4-1.4,0.6
					c0.2,0.3,0.4,0.5,0.6,0.8c0.6-0.8,1.2-1.7,1.8-2.6c0.3-0.4-0.3-1-0.7-0.7c-0.9,0.6-1.8,1-2.7,1.6c0.2,0.2,0.5,0.5,0.7,0.7
					c0.8-1.1,1.5-2.2,2.4-3.2c0.4-0.5-0.2-1.2-0.7-0.7c-1.5,1.4-3,2.9-4.6,4.2c0.3,0.2,0.5,0.4,0.8,0.6c1.6-2.4,3.7-4.3,5.1-6.9
					c0.3-0.5-0.4-1-0.8-0.6c-2.3,2.2-4.5,4.5-6.9,6.7c0.3,0.2,0.5,0.4,0.8,0.6c2.2-3.1,5-5.8,7-9.1c0.3-0.5-0.4-1-0.8-0.6
					c-3.3,2.8-6.5,5.7-10,8.3c0.2,0.2,0.5,0.5,0.7,0.7c3-4.2,6.8-7.7,10-11.8c0.4-0.5-0.2-1.2-0.7-0.7c-4.8,4.8-9,10.3-14.1,14.8
					c0.3,0.2,0.5,0.4,0.8,0.6c4.3-6.1,9.3-11.6,14.2-17.3c0.4-0.5-0.3-1.2-0.7-0.7c-4.8,5.3-9.2,11-14.2,16.1
					c0.2,0.2,0.5,0.5,0.7,0.7c4.3-5.4,10.7-10,12.8-16.9c0.2-0.6-0.6-0.9-1-0.4c-3.7,5.7-9.1,10-13.6,14.9c-0.5,0.5,0.2,1.2,0.7,0.7
					c4.3-4.1,7.9-9,10.7-14.2c0.3-0.5-0.4-1.1-0.8-0.6c-2.2,2.3-4.5,4.6-7.5,5.9c0.3,0.2,0.5,0.4,0.8,0.6c0.4-2.6,1.9-4.7,3.4-6.8
					c-0.3-0.1-0.6-0.2-1-0.3c-0.1,2-1,3.6-2,5.3c-0.4,0.6,0.5,1,0.9,0.5c1.3-1.6,2.4-3.4,3.8-5c-0.3-0.2-0.5-0.4-0.8-0.6
					c-2.2,3.4-4,7-7,9.6c0.3,0.2,0.5,0.4,0.8,0.6c2.3-3.3,4.7-6.4,7.5-9.3c-0.3-0.2-0.5-0.4-0.8-0.6c-2.7,4.5-5.3,9-9.1,12.8
					c0.2,0.2,0.5,0.5,0.7,0.7c4.1-4.2,7.7-8.9,11-13.8c0.3-0.5-0.4-1.1-0.8-0.6c-3.7,4.3-7.6,8.5-11.9,12.3c0.3,0.2,0.5,0.4,0.8,0.6
					c1.9-3.5,4.5-6.6,6.1-10.3c0.2-0.5-0.4-1.1-0.8-0.6c-2.1,2.6-4,5.4-6.3,7.8c0.3,0.2,0.5,0.4,0.8,0.6c2-3.2,4.2-6.2,5.4-9.8
					c0.2-0.5-0.5-0.8-0.9-0.5c-2.2,2-3.7,4.7-6.4,6.1c0.2,0.3,0.4,0.5,0.6,0.8c1.7-2,3.4-4.1,4.8-6.3c0.3-0.5-0.4-1-0.8-0.6
					c-1.1,1.1-2.1,2.2-3.1,3.4c0.3,0.2,0.5,0.4,0.8,0.6c0.5-0.9,0.9-1.9,1.5-2.9c0.2-0.4-0.1-0.9-0.6-0.8c-0.6,0.2-1.2,0.4-1.8,0.7
					c0.2,0.3,0.4,0.5,0.6,0.8c0-0.5,0-1,0-1.4C1213.8,370.4,1214.5,371.2,1215,370.7L1215,370.7z"/>
			</g>
			<g>
				<path d="M1240.6,377.1c4.8,0,9.5-0.4,14.3-0.4c0.7,0,0.7-1.1,0-1c-4.8,0.1-9.5,0.4-14.3,0.4
					C1239.9,376.1,1239.9,377.1,1240.6,377.1L1240.6,377.1z"/>
			</g>
			<g>
				<path d="M1241.6,376.6c-0.9,0.7-1.5,1.1-1.9,2.1c-0.2,0.5,0.4,0.7,0.8,0.6c0.9-0.4,1.8-0.7,2.7-1.2c-0.2-0.2-0.5-0.5-0.7-0.7
					c-0.6,0.9-1.2,1.9-1.9,2.8c-0.3,0.4,0.1,1.2,0.6,0.8c1.4-1,2.7-2,4.1-3c-0.2-0.3-0.4-0.5-0.6-0.8c-1.4,1.8-2.9,3.4-4.1,5.3
					c-0.3,0.4,0.3,1,0.7,0.7c1.9-1.4,3.4-3.4,5.5-4.6c-0.2-0.2-0.5-0.5-0.7-0.7c-1.4,2.1-3.1,3.9-4.5,6c-0.3,0.4,0.3,1,0.7,0.7
					c2.1-1.6,4-3.5,6-5.3c-0.3-0.2-0.5-0.4-0.8-0.6c-1.4,2.7-3.6,4.7-5.5,7c-0.4,0.5,0.2,1.2,0.7,0.7c3.2-2.7,5.7-6.1,8.9-8.9
					c-0.3-0.2-0.5-0.4-0.8-0.6c-2.4,4.4-6.3,7.7-9.5,11.5c-0.4,0.5,0.2,1.2,0.7,0.7c4.1-3.6,7.9-7.6,11.7-11.5
					c-0.3-0.2-0.5-0.4-0.8-0.6c-2.6,4.1-5.9,7.6-9.3,11.1c-0.5,0.5,0.3,1.2,0.7,0.7c3.6-3.5,6.6-7.7,10.8-10.4
					c-0.2-0.2-0.5-0.5-0.7-0.7c-1.6,2.8-3.9,5.1-6.1,7.4c0.2,0.2,0.5,0.5,0.7,0.7c2-2.1,4.1-3.9,6.3-5.7c-0.3-0.2-0.6-0.3-0.9-0.5
					c-1.2,2.9-3.9,4.8-5.5,7.4c-0.3,0.4,0.3,1,0.7,0.7c1.1-0.8,2.1-1.6,3.1-2.4c0.5-0.4-0.2-1.2-0.7-0.7c-1.1,1-2.2,2-3.2,3
					c-0.4,0.4,0.1,1.1,0.6,0.8c1.2-0.7,2.4-1.1,3.7-1.7c-0.2-0.3-0.4-0.5-0.6-0.8c-0.5,0.6-0.8,1-1.2,1.6c-0.3,0.4,0.3,1,0.7,0.7
					c1-0.6,2-1.2,3-1.9c-0.2-0.2-0.5-0.5-0.7-0.7c-0.3,0.6-0.6,1.3-0.8,1.9c-0.2,0.5,0.4,1.1,0.8,0.6c2.4-2.3,2-6.2,1.2-9.2
					c-0.2-0.6-1-0.4-1,0.1c-0.1,2.2-0.7,4.2-1.4,6.2c0.3,0,0.7,0.1,1,0.1c0.1-1.1-0.1-2.1-0.1-3.2c0-0.4-0.6-0.7-0.9-0.4
					c-1.1,1.1-1.8,2.2-2.2,3.7c-0.1,0.4,0.4,0.8,0.8,0.6c0.8-0.5,1.5-1.1,2.2-1.8c0.4-0.4-0.1-1.1-0.6-0.8c-2.4,1.1-5,2-7.4,3.1
					c-0.6,0.3-0.1,1.2,0.5,0.9c1-0.4,2-0.9,3-1.5c0.5-0.3,0.2-1.2-0.4-1c-2.7,1,0.1-3,0.7-3.9c0.9-1.3,1.8-2.5,2.7-3.8
					c0.2-0.3,0-0.7-0.3-0.8c-2.1-0.6-3.9-0.5-6,0.1c-0.6,0.1-0.5,1.1,0.1,1c1.3-0.1,2.6,0,3.9,0.1c-0.2-0.3-0.3-0.5-0.5-0.8
					c-0.3,0.3-0.6,0.5-1,0.6c-0.6,0.2-0.4,1.2,0.3,1c0.9-0.3,1.1-0.3,1.7-1.1c0.2-0.3-0.1-0.8-0.5-0.8c-1.3,0-2.6-0.2-3.9-0.1
					c0,0.3,0.1,0.7,0.1,1c1.9-0.5,3.5-0.6,5.4-0.1c-0.1-0.3-0.2-0.5-0.3-0.8c-1.5,2.3-3.5,4.4-4.5,7c-0.8,2.1,0.2,3,2.3,2.3
					c-0.1-0.3-0.3-0.6-0.4-1c-1,0.5-1.9,1-3,1.5c0.2,0.3,0.4,0.6,0.5,0.9c2.5-1,5-2,7.4-3.1c-0.2-0.3-0.4-0.5-0.6-0.8
					c-0.6,0.6-1.3,1.1-2,1.6c0.3,0.2,0.5,0.4,0.8,0.6c0.4-1.3,1-2.3,1.9-3.2c-0.3-0.1-0.6-0.2-0.9-0.4c0.1,1.1,0.2,2.1,0.1,3.2
					c0,0.6,0.8,0.7,1,0.1c0.8-2.1,1.3-4.2,1.5-6.5c-0.3,0-0.7,0.1-1,0.1c0.7,2.6,1.2,6.1-0.9,8.2c0.3,0.2,0.5,0.4,0.8,0.6
					c0.3-0.6,0.5-1.3,0.8-1.9c0.2-0.4-0.2-1-0.7-0.7c-1,0.7-2,1.2-3,1.9c0.2,0.2,0.5,0.5,0.7,0.7c0.4-0.5,0.7-1,1.1-1.4
					c0.4-0.5-0.1-1.1-0.6-0.8c-1.2,0.5-2.5,1-3.7,1.7c0.2,0.3,0.4,0.5,0.6,0.8c1.1-1,2.1-2,3.2-3c-0.2-0.2-0.5-0.5-0.7-0.7
					c-0.9,0.8-1.9,1.5-2.9,2.3c0.2,0.2,0.5,0.5,0.7,0.7c1.7-2.7,4.4-4.6,5.6-7.6c0.2-0.5-0.5-0.8-0.9-0.5c-2.1,1.9-4.3,3.7-6.3,5.7
					c-0.5,0.5,0.3,1.2,0.7,0.7c2.3-2.3,4.6-4.7,6.3-7.6c0.3-0.4-0.3-1-0.7-0.7c-4.3,2.8-7.4,7-11.1,10.6c0.2,0.2,0.5,0.5,0.7,0.7
					c3.4-3.6,6.8-7.1,9.5-11.3c0.3-0.5-0.4-1.1-0.8-0.6c-3.8,4-7.6,7.9-11.7,11.5c0.2,0.2,0.5,0.5,0.7,0.7c3.3-3.9,7.2-7.3,9.6-11.7
					c0.3-0.5-0.4-1-0.8-0.6c-3.1,2.8-5.6,6.2-8.9,8.9c0.2,0.2,0.5,0.5,0.7,0.7c2-2.4,4.3-4.4,5.7-7.2c0.3-0.5-0.4-1-0.8-0.6
					c-1.9,1.7-3.8,3.6-5.8,5.1c0.2,0.2,0.5,0.5,0.7,0.7c1.4-2.1,3.1-3.9,4.5-6c0.3-0.4-0.3-1-0.7-0.7c-2.1,1.2-3.5,3.2-5.5,4.6
					c0.2,0.2,0.5,0.5,0.7,0.7c1.1-1.8,2.6-3.4,3.9-5.1c0.3-0.4-0.1-1.2-0.6-0.8c-1.4,0.9-2.7,2-4.1,3c0.2,0.3,0.4,0.5,0.6,0.8
					c0.8-0.9,1.4-2,2.1-3c0.3-0.4-0.3-1-0.7-0.7c-0.9,0.5-1.8,0.8-2.7,1.2c0.3,0.2,0.5,0.4,0.8,0.6c0.3-0.7,0.8-1.2,1.4-1.5
					C1242.7,377.1,1242.2,376.2,1241.6,376.6L1241.6,376.6z"/>
			</g>
			<g>
				<path d="M1213.6,375.2c0,3.4,0,6.9,0,10.3c0.3,0,0.7,0,1,0c0-3.3,0-6.6,0-9.9c0-0.7-1-0.7-1,0c-0.1,3.1-0.9,8.7,1.4,11.2
					c2.4,2.7,8.3,1,11.4,0.9c0.7,0,0.7-1,0-1c-2.7,0-5.4-0.1-8,0.5c-0.7,0.2-0.4,1.1,0.3,1c4-0.6,8.2-0.4,12.2-1.2
					c0.2,0,0.4-0.3,0.4-0.5c0.1-4.6-0.6-9.1-0.9-13.6c0-0.7-1-0.7-1,0c0,4.5,0.5,8.9,0.5,13.4c0.3,0,0.7-0.1,1-0.1
					c-1-5.1-1.1-10.3-1.9-15.5c0-0.2-0.3-0.4-0.5-0.4c-2.7,0-5.4,0.7-8.2,0.7c0,0.3,0.1,0.7,0.1,1c2.5-0.9,5.1-1.4,7.7-1.7
					c0.6-0.1,0.4-1.1-0.1-1c-2.7,0.2-5.2,0.8-7.9,0.9c-0.7,0-0.7,1.1,0,1c2.7-0.1,5.2-0.8,7.9-0.9c0-0.3-0.1-0.7-0.1-1
					c-2.6,0.4-5.2,0.8-7.7,1.7c-0.5,0.2-0.5,1,0.1,1c1.6,0,3.1-0.2,4.7-0.4c1.2-0.2,2.3-0.7,3.1,0.3c0.3,0.4,0.4,3,0.4,3.7
					c0.4,3.6,0.6,7.2,1.3,10.8c0.1,0.6,1,0.4,1-0.1c0-4.5-0.5-8.9-0.5-13.4c-0.3,0-0.7,0-1,0c0.1,2.3,0.4,4.5,0.6,6.8
					c0.1,1.6,1,4.9,0.1,6.2c-0.7,1-4.8,0.8-6.2,0.9c-1.8,0.1-3.6,0.2-5.4,0.5c0.1,0.3,0.2,0.7,0.3,1c2.6-0.6,5.1-0.5,7.8-0.5
					c0-0.3,0-0.7,0-1c-2.7,0.1-8.8,1.7-10.7-0.7c-1.9-2.4-1.1-7.5-1-10.4c-0.3,0-0.7,0-1,0c0,3.3,0,6.6,0,9.9c0,0.7,1,0.7,1,0
					c0-3.4,0-6.9,0-10.3C1214.7,374.6,1213.6,374.6,1213.6,375.2L1213.6,375.2z"/>
			</g>
			<g>
				<path d="M1189.9,374.2c-1,2.7-0.7,5.6-1.4,8.4c0.3,0,0.7,0.1,1,0.1c0.1-2.7-0.1-5.3-0.9-8c-0.1-0.5-0.9-0.5-1,0
					c-0.7,3.3,0,6.5,0,9.8c0,0.7,1,0.7,1,0c0.1-2.2-0.2-4.3-0.5-6.5c-0.1-0.6-1.1-0.7-1,0c0.1,1.7,0.3,3.3,0.5,5
					c0.1,0.7,1.1,0.7,1,0c-0.1-1.7-0.3-3.3-0.6-4.9c-0.1-0.5-0.9-0.5-1,0c-0.4,2.3-0.4,4.5-0.4,6.9c0,0.7,1,0.7,1,0
					c0-2,0.1-4.1-0.5-6.1c-0.1-0.5-0.8-0.5-1,0c-0.8,2.5-1.5,5.8,1.8,6.5c3.4,0.7,7.1-0.8,10.5-0.7c0.7,0,0.7-1,0-1
					c-1.5-0.1-2.9-0.4-4.3-0.8c-0.1,0.3-0.2,0.7-0.3,1c3.1,0.8,7.4,1.5,8.7-2.3c1.2-3.7-0.2-8.2-0.1-12c-0.3,0-0.7,0-1,0
					c0,4.3,0.6,8.6,0.9,13c0,0.5,0.9,0.8,1,0.1c0.6-4.2,0.4-8.4,1.4-12.5c-0.3,0-0.7,0-1,0c1.2,4.1,0.9,8.3,0.9,12.5
					c0.3,0,0.7,0,1,0c0-3.8-0.7-7.5-0.9-11.3c-0.3,0-0.7,0.1-1,0.1c0.5,3.1,0.9,6.3,0.9,9.4c0.3,0,0.7-0.1,1-0.1
					c-1.3-6-2.2-12-1.9-18.1c0-0.2-0.2-0.4-0.4-0.5c-4-1.2-8.2-1.3-12.2-0.2c-0.7,0.2-0.4,1.1,0.3,1c3.6-0.6,7.3-0.3,10.9,0.2
					c0-0.3-0.1-0.7-0.1-1c-3.4,0.5-6.8,0.9-10.2,1.4c-0.7,0.1-0.4,1.1,0.3,1c3.4-0.5,6.8-0.8,10.2-1.4c0.6-0.1,0.4-1-0.1-1
					c-3.7-0.5-7.4-0.8-11.2-0.1c0.1,0.3,0.2,0.7,0.3,1c2.5-0.7,5-1,7.6-0.7c1.3,0.1,3,0.1,3.6,1.3c0.3,0.7,0,2.6,0,3.4
					c0.2,4.8,1,9.4,2,14.1c0.1,0.6,1,0.4,1-0.1c0-3.3-0.5-6.5-1-9.7c-0.1-0.6-1.1-0.4-1,0.1c0.2,3.8,0.9,7.5,0.9,11.3
					c0,0.7,1,0.7,1,0c0.1-4.3,0.3-8.6-0.9-12.8c-0.1-0.5-0.9-0.5-1,0c-0.9,4.1-0.7,8.3-1.4,12.5c0.3,0,0.7,0.1,1,0.1
					c-0.3-4.3-0.9-8.6-0.9-13c0-0.7-1-0.7-1,0c-0.1,3.2,0.6,6.3,0.5,9.5c-0.2,4.8-3.8,4.9-7.7,3.8c-0.7-0.2-0.9,0.8-0.3,1
					c1.5,0.5,3,0.7,4.6,0.9c0-0.3,0-0.7,0-1c-2.6-0.1-5.2,0.6-7.8,0.8c-1,0.1-2.5,0.3-3.4-0.4c-1.5-1.1-0.5-3.5-0.1-4.9
					c-0.3,0-0.7,0-1,0c0.5,1.9,0.4,3.8,0.4,5.8c0.3,0,0.7,0,1,0c0-2.2-0.1-4.4,0.3-6.6c-0.3,0-0.7,0-1,0c0.3,1.5,0.5,3.1,0.6,4.7
					c0.3,0,0.7,0,1,0c-0.2-1.7-0.4-3.3-0.5-5c-0.3,0-0.7,0-1,0c0.3,2.2,0.5,4.3,0.5,6.5c0.3,0,0.7,0,1,0c0-3.2-0.7-6.3,0-9.5
					c-0.3,0-0.7,0-1,0c0.8,2.5,1,5.1,0.9,7.7c0,0.6,0.9,0.7,1,0.1c0.6-2.8,0.4-5.7,1.4-8.4C1191.2,373.8,1190.2,373.6,1189.9,374.2
					L1189.9,374.2z"/>
			</g>
			<g>
				<path d="M1175.2,375.2c0,2.6-0.2,5.1,0.5,7.6c0.1,0.6,1,0.5,1-0.1c0-2.3,0-4.6,0-6.9c0-0.7-1-0.7-1,0c-0.1,3.1,0.1,6.2,1.3,9.2
					c0.2,0.6,1,0.5,1-0.1c0.2-2.3,0-4.6-0.4-6.9c-0.1-0.6-1-0.4-1,0.1c0,1.5,0,3.1-0.1,4.6c0.3,0,0.7-0.1,1-0.1
					c-0.9-3.2-1.3-6.5-1.3-9.8c0-0.3-0.2-0.5-0.5-0.5c-3.1-0.4-6.3-0.5-9.4,0.3c-0.6,0.2-0.5,1,0.1,1c2.6-0.1,5.1,0.1,7.7,0.5
					c0-0.3,0-0.7,0-1c-4,0.9-8.1,1.1-12.2,1.3c-0.3,0-0.5,0.2-0.5,0.5c-0.3,3.5,0.8,6.7,1.3,10.1c0.1,0.5,0.9,0.8,1,0.1
					c0.4-2.1,0.7-4.3,0.9-6.4c-0.3,0-0.7,0-1,0c0,2,0,4,0,6c0,0.6,0.8,0.7,1,0.1c0.6-1.5,1.1-3.1,1.5-4.7c-0.3,0-0.7,0-1,0
					c0.5,2,1.3,5.1-1.3,6c-0.5,0.2-0.5,1,0.1,1c3.3-0.1,6.6,0,10,0c0.7,0,0.7-1,0-1c-2.6-0.2-5.2-0.7-7.7-0.9c0,0.3,0,0.7,0,1
					c2.5,0,5.4,0,7.7,0.9c0.6,0.2,0.9-0.8,0.3-1c-2.4-0.9-5.4-1-8-0.9c-0.7,0-0.7,1,0,1c2.6,0.2,5.2,0.7,7.7,0.9c0-0.3,0-0.7,0-1
					c-3.3,0-6.6,0-10,0c0,0.3,0.1,0.7,0.1,1c3.2-1.1,2.7-4.6,2-7.2c-0.1-0.5-0.9-0.5-1,0c-0.4,1.6-0.9,3.2-1.5,4.7
					c0.3,0,0.7,0.1,1,0.1c0-2,0-4,0-6c0-0.7-1-0.6-1,0c-0.3,2.1-0.5,4.1-0.9,6.1c0.3,0,0.7,0.1,1,0.1c-0.2-1.6-0.6-3.1-0.9-4.7
					c-0.2-1.1-0.6-2.4-0.5-3.5c0.1-1.4,0.1-1.2,1.4-1.4c3.6-0.5,7.1-0.4,10.6-1.2c0.5-0.1,0.5-0.9,0-1c-2.6-0.4-5.3-0.6-7.9-0.5
					c0,0.3,0.1,0.7,0.1,1c1.6-0.4,3.2-0.6,4.9-0.6c0.8,0,1.8-0.1,2.6,0.1c0.9,0.2,0.8,0.1,1.1,1c0.4,1.2,0.2,2.9,0.3,4.2
					c0.2,1.5,0.6,3,1,4.5c0.2,0.6,1,0.4,1-0.1c0.1-1.5,0.1-3,0.1-4.6c-0.3,0-0.7,0.1-1,0.1c0.3,2.2,0.6,4.4,0.3,6.6
					c0.3,0,0.7-0.1,1-0.1c-1.1-2.9-1.4-5.9-1.2-8.9c-0.3,0-0.7,0-1,0c0,2.3,0,4.6,0,6.9c0.3,0,0.7-0.1,1-0.1
					c-0.6-2.4-0.5-4.8-0.5-7.3C1176.2,374.6,1175.2,374.6,1175.2,375.2L1175.2,375.2z"/>
			</g>
			<g>
				<path d="M1241.6,337.2c-3.5-7.5-13.4-11.7-20.7-14.4c-10.6-3.9-22.2-6.8-33.5-5.2c0.2,0.2,0.4,0.3,0.7,0.5
					c-0.2-1.8,0.1-3.4,0.8-5c0.2-0.5-0.2-1-0.7-0.7c-3.5,1.8-7,4.4-9.7,7.3c-0.2,0.2-0.2,0.5,0,0.7c2.7,2.4,5.6,4.5,8.4,6.8
					c0.3,0.2,0.8,0.2,0.9-0.2c0.2-1.3,0.1-3.4,0.7-4.6c1-2,4.3-1.1,6.1-0.9c5.1,0.6,10.2,1.3,15.2,2.6c5,1.3,9.8,3.5,14.4,5.9
					c5.1,2.7,9.7,5.7,12.4,10.9c0.3,0.5,1.1,0.2,1-0.4c-0.5-1.6-0.2-3.5,0-5.1c-0.3,0.1-0.5,0.2-0.8,0.3c1.4,0.9,2.8,1.8,4.2,2.8
					c0.5,0.4,1.1-0.5,0.5-0.9c-1.3-1-2.8-1.9-4.2-2.8c-0.3-0.2-0.7,0-0.8,0.3c-0.3,1.8-0.6,3.8,0,5.6c0.3-0.1,0.6-0.3,1-0.4
					c-2.8-5.4-7.6-8.5-12.8-11.3c-5.4-2.8-10.9-5.2-16.9-6.6c-5.3-1.2-11.3-2.5-16.8-2.4c-4,0.1-3.7,3.4-4.2,6.5
					c0.3-0.1,0.6-0.2,0.9-0.2c-1.6-1.3-3.3-2.6-5-3.9c-0.7-0.6-1.4-1.1-2.1-1.7c-1.1-0.9-0.9-0.6-0.3-1.6c0.9-1.3,3-2.6,4.3-3.5
					c1.3-0.9,2.7-1.8,4.1-2.5c-0.2-0.2-0.5-0.5-0.7-0.7c-0.8,1.8-1.2,3.5-1,5.6c0,0.4,0.3,0.6,0.7,0.5c10.9-1.5,22,1.3,32.2,4.9
					c7.3,2.6,17.4,6.7,20.8,14.2C1241,338.3,1241.9,337.8,1241.6,337.2L1241.6,337.2z"/>
			</g>
		</g>
		<g>
			<g>
				<path d="M739.2,311.9c-3.8-4.6-10.2-6.4-15.4-2.9c-3.6,2.5-3.6,6-0.4,8.9c4,3.7,9.8,4.5,13.4,8.6c3.1,3.5,4.4,8.6-1.1,10.6
					c-5.8,2.1-9.7-2.1-12.2-6.8c-0.5-1-2-0.1-1.5,0.9c2.7,5,6.9,9.6,13.1,8c4.7-1.2,7.5-5,5.6-9.7c-1.9-4.8-6.1-7-10.4-9.2
					c-2.4-1.2-7.7-3.6-7.7-6.8c0-3.7,6.2-5.1,8.9-4.5c2.6,0.6,4.7,2.1,6.4,4.1C738.7,314,739.9,312.8,739.2,311.9L739.2,311.9z"/>
			</g>
			<g>
				<path d="M729.1,299.3c2.4,6.6,0.8,14.3,0.5,21.1c-0.3,7.7-0.5,15.5-0.6,23.3c0,1.1,1.7,1.1,1.7,0c0-8.1,0.2-16.3,0.6-24.4
					c0.4-6.7,1.7-14-0.6-20.5C730.4,297.8,728.8,298.3,729.1,299.3L729.1,299.3z"/>
			</g>
			<g>
				<path d="M733.4,298.6c0.5,7.6-0.4,15.1-0.9,22.6c-0.5,8-0.6,16-0.6,23.9c0,1.1,1.7,1.1,1.7,0c0-8,0.1-16,0.6-23.9
					c0.5-7.5,1.3-15,0.9-22.6C735.1,297.5,733.4,297.5,733.4,298.6L733.4,298.6z"/>
			</g>
			<g>
				<path d="M721.7,283.7c-0.5-3.9-2.9-7-3.8-10.7c-0.4,0.3-0.8,0.7-1.3,1c2.2,1.5,3.9,3.6,6.1,5.2c0.4,0.3,1,0.1,1.2-0.3
					c1-1.6,1.9-3.2,3.2-4.6c-0.5-0.1-1-0.3-1.4-0.4c0.5,1.4,1.2,2.1,2.1,3.2c0.4,0.4,1.1,0.3,1.4-0.2c0.5-0.8,1.1-1.5,1.6-2.3
					c-0.5,0-1,0-1.5,0c0.7,1.3,1.2,2.5,1.4,4c0.1,0.7,1,0.8,1.4,0.4c2.4-2.2,4.3-4.7,7-6.6c-0.4-0.2-0.9-0.5-1.3-0.7
					c-0.1,2.1-0.8,4-0.8,6.1c0,0.7,0.8,1.1,1.3,0.7c2.4-1.5,4.9-2.6,7.8-3.1c-0.3-0.4-0.7-0.8-1-1.3c-1.8,2.9-4.1,9-7.6,10.1
					c-3.4,1-8.6-0.3-12.2-0.1c-1.8,0.1-5,0.1-6,1.9c-0.8,1.3-0.1,2.1,1.1,2.7c2.2,1,5.5,0.6,7.8,0.6c3.2,0,6.4,0.8,9.6,0.7
					c5.7-0.2,6.8-7.3,0.2-6.3c-1.1,0.2-0.6,1.8,0.5,1.7c0.5,2.3-0.1,3.2-1.7,2.8c-1-0.1-2-0.3-3-0.4c-0.7-0.1-1.4-0.2-2.1-0.3
					c-1.4-0.1-2.8,0.1-4.2,0.1c-1.5,0-4.6,0.5-5.9-0.4c-1.8-1.1,2-1.3,2.8-1.3c1.2-0.1,2.3-0.1,3.5-0.1c3.3,0,9,1.3,11.9-0.6
					c3-1.9,5.1-7.3,6.9-10.3c0.4-0.7-0.3-1.4-1-1.3c-3,0.5-5.6,1.6-8.2,3.2c0.4,0.2,0.9,0.5,1.3,0.7c0.1-2.1,0.7-4,0.8-6.1
					c0-0.6-0.8-1.1-1.3-0.7c-2.8,1.9-4.9,4.5-7.3,6.8c0.5,0.1,1,0.3,1.4,0.4c-0.3-1.6-0.9-2.9-1.6-4.4c-0.3-0.6-1.2-0.5-1.5,0
					c-0.5,0.8-1.1,1.5-1.6,2.3c0.5-0.1,0.9-0.1,1.4-0.2c-0.7-0.7-1.3-1.5-1.7-2.5c-0.2-0.6-1-0.9-1.4-0.4c-1.4,1.5-2.4,3.2-3.5,4.9
					c0.4-0.1,0.8-0.2,1.2-0.3c-2.2-1.6-3.8-3.7-6.1-5.2c-0.7-0.4-1.4,0.3-1.3,1c0.9,3.6,3.3,6.6,3.8,10.3
					C720.1,284.8,721.9,284.9,721.7,283.7L721.7,283.7z"/>
			</g>
			<g>
				<path d="M719.8,287.9c-8.6,6.9-13.7,18.8-16,29.3c-2.1,9.8-2.1,22,6.5,28.8c9.8,7.7,26.2,9.1,37.7,4.9
					c11.9-4.4,15.1-15.9,12.4-27.5c-1.6-6.7-4.7-13.4-7.7-19.6c-3-6.1-6.8-12.1-13.4-14.8c-1-0.4-1.5,1.3-0.5,1.7
					c10.4,4.2,14.9,18.7,18.4,28.4c4.1,11.3,3.4,24.9-9.3,29.9c-10.6,4.2-25.6,3-35.1-3.3c-9.3-6.2-9.6-18.2-7.4-28.1
					c2.2-10.3,7.1-21.9,15.5-28.6C721.9,288.5,720.6,287.2,719.8,287.9L719.8,287.9z"/>
			</g>
		</g>
	</g>
</g>
<path class="st17" d="M845.7,539.9c-128.9-35.2-96.4,73.8-96.4,73.8c-31.3,9.5-58.5,61.4,2.4,85.4c-50.4,15.1-38,57.8-29.8,76.3
	c18.8,5.1,36.6,13,53.5,23.9c7.1,6.2,14.3,12.3,21.4,18.5c47.8,20.6,59.4-32.3,59.4-32.3c7.5,15.4,45.4,41.5,52.8,10.8
	c40.2,71.8,116.7,36.4,118.2-20.6c97.2,75.2,164.2-38.7,108.8-90.9c50.4,18.9,87.4-53,46.6-74.9c25.9-1.8,40.4-54.3-1.4-53.2
	c14.3-18.3,44.2-70.7,12.7-109.8s-98.3-35.1-109.8-3.3c-8.9-68.6-100.4-51.3-82,21.1C932.8,376.4,823.3,452.7,845.7,539.9z"/>
<g>
	<path class="st1" d="M773.5,634.5l-5.1,8.1c0,0-34.6,9.7-19.5,14.2c15,4.5,39.4-2.9,39.4-2.9l2.7-2.7l1.2,2.6l18.8-2.6l-0.4-14.9
		L773.5,634.5z"/>
	<path class="st8" d="M946.8,610.6c0,0-105,47.3-166.1,115.1c0,0-29.9-17-24.7-40.4c5.2-23.5,172.9-88.7,172.9-88.7L946.8,610.6z"/>
	<path class="st8" d="M899.3,568.8c0,0-7.6,24.9,17.1,43.6c24.6,18.7,30.5-1.7,30.5-1.7L899.3,568.8z"/>
	<path class="st8" d="M898.9,570.3c0,0-162.1-80.8-130.5,63c0,0,37.8,13.2,44.8,7.1c7-6.2-45-106.3,100-48.9
		C913.3,591.4,908.9,572.6,898.9,570.3z"/>
	<path class="st9" d="M1000.3,475.3c-7.4-5.1-66.6-77.5,27.5-57.5c0,0,22.8-39.2,4-35.2c0,0-114.7,2.6-57.8,94.1
		C974,476.6,1005.8,479,1000.3,475.3z"/>
	<path class="st3" d="M1029.8,407.4c0,0,1.6,21.4,7.6,23.8c4,1.6,4.7-3.9,2.7-10.3c-1.9-6,4.1-7.1,9.8-7.2c5.7-0.2,10,0,14.4,3.7
		c5.5,4.6,11.8-1.5,7-5.9c-4.8-4.4-10.7-6.6-17.2-6.9c0.1-1.1,2.1-1.4,5.5-2.1s5.1-0.1,10.3,1.6c4.9,1.6,7.4-5.5,2.4-8.1
		c-5-2.7-13.4-1.9-17.8-1.4c-0.3-1.1,8.9-4.7,13-6c4.2-1.3,4.2-7.9-5.5-6.4c-9.7,1.5-15,5.4-19.1,6.2
		C1038.9,389.3,1030.5,396.9,1029.8,407.4z"/>
	<g>
		<path class="st10" d="M1027.2,413.2c0,0-0.1-0.4-0.3-1c-0.2-0.7-0.4-1.6-0.6-2.8c-0.1-1.2-0.3-2.6-0.2-4.1c0-0.8,0-1.5,0.1-2.3
			c0.1-0.8,0.2-1.6,0.3-2.4c0.2-0.8,0.4-1.6,0.6-2.3c0.3-0.7,0.5-1.5,0.9-2.2c0.4-0.7,0.6-1.4,1.1-1.9c0.4-0.6,0.7-1.1,1.2-1.6
			c0.4-0.4,0.8-0.8,1.2-1.2c0.4-0.3,0.7-0.6,1-0.8c0.6-0.4,0.9-0.6,0.9-0.6s-0.3,0.3-0.7,0.8c-0.2,0.3-0.5,0.6-0.8,0.9
			c-0.3,0.4-0.6,0.8-0.9,1.3c-0.3,0.5-0.6,1.1-0.9,1.6c-0.3,0.6-0.5,1.2-0.8,1.9c-0.3,0.6-0.4,1.4-0.7,2.1c-0.2,0.7-0.4,1.5-0.5,2.2
			c-0.1,0.8-0.3,1.5-0.4,2.3c-0.1,0.8-0.2,1.5-0.2,2.2c-0.1,1.4-0.2,2.8-0.2,4c0,1.2,0,2.2,0,2.8
			C1027.2,412.8,1027.2,413.2,1027.2,413.2z"/>
	</g>
	<path class="st9" d="M1035.4,505.5c3.3,8.3,63.4,84.9,65.2-11.5c0,0,43.1-13.4,35,4c0,0-31.4,109.2-107.5,33
		C1028.1,531,1033,499.4,1035.4,505.5z"/>
	<path class="st3" d="M1111,494.4c0,0-20.4-6.4-21.4-12.8c-0.7-4.3,4.8-3.8,10.6-0.4c5.4,3.2,7.8-2.4,9.3-8
		c1.5-5.6,2.3-9.7-0.4-14.9c-3.3-6.4,4.1-11.2,7.3-5.5s4,12,2.8,18.3c1.1,0.1,1.8-1.8,3.3-5c1.5-3.2,1.2-5,0.8-10.4
		c-0.4-5.1,7-6,8.4-0.5c1.5,5.5-1.1,13.5-2.7,17.7c1,0.6,6.5-7.6,8.8-11.4c2.2-3.8,8.7-2.3,5,6.8c-3.7,9.1-8.7,13.4-10.3,17.3
		C1130.7,489.6,1121.4,496,1111,494.4z"/>
	<path class="st2" d="M1074.4,477.8c0,0-2.8,5.8-5.2,5.6c-2.4-0.2-3.1-6.6-2.7-8.5c0,0-2.3,4.2-3.9,2.7s1.2-9.9,1.2-9.9
		S1073,464.9,1074.4,477.8z"/>
	<g>
		<g>
			
				<image style="overflow:visible;opacity:0.14;enable-background:new    ;" width="329" height="304" xlink:href="60E971E04641EA17.png"  transform="matrix(0.3389 0 0 0.3366 1004.2675 393.0653)">
			</image>
			<g>
				<path class="st3" d="M1111.3,441.6c2.3-16.8-22.6-49.3-38.1-43.6c0,0-32.6,15.9-42.2,20.4c-9.6,4.5-22.1,12.9-14.4,26.3
					c3.3,5.7,8.6,11.8,14.7,16.8c-1.5,12.6-18.3,16.6-18.4,18.5c-5.3,4.5-9.3,11.6,11.5,10.9c1.7-0.9,39.1-15.9,45-18.2
					c3.6,0.4,5,1.1,5,1.1S1108.9,458.4,1111.3,441.6z"/>
			</g>
		</g>
		<path class="st4" d="M1071.5,466.6c-31.5,1.4-52.9-25.2-52.4-40.5c-4.7,4.6-7,10.7-2.6,18.5c3.3,5.7,8.6,11.8,14.7,16.8
			c-1.5,12.6-18.3,16.6-18.4,18.5c-5.3,4.5-9.3,11.6,11.5,10.9c1.7-0.9,39.1-15.9,45-18.2c3.6,0.4,5,1.1,5,1.1s4.4-1.9,10.2-5.2
			C1080,468.3,1075.8,466.4,1071.5,466.6z"/>
		<polygon class="st3" points="1019,485.7 1007.4,472.6 1031.3,466.7 1037.3,472.6 1030.5,487.3 		"/>
		<polygon class="st4" points="1019,485.7 1007.4,472.6 1031.3,466.7 1037.3,472.6 1030.5,487.3 		"/>
	</g>
	<path class="st5" d="M1078.2,428.7c-1.8,1-3.7,1.1-4.3,0.1c-0.6-1,0.4-2.7,2.2-3.7c1.8-1,3.7-1.1,4.3-0.1
		C1081,426,1080,427.6,1078.2,428.7z"/>
	<path class="st5" d="M1062.7,411.7c-1.8,1-3.7,1.1-4.3,0.1c-0.6-1,0.4-2.7,2.2-3.7c1.8-1,3.7-1.1,4.3-0.1
		C1065.5,409,1064.5,410.7,1062.7,411.7z"/>
	<path class="st2" d="M1084.4,367.7c0,0-23.9,13.9-5.8,34.3c9,10.1,10.8,13.6,17.6,17.2c7.5,4,10.3,28.8-16.6,35.6
		c-26.9,6.8-0.4,6.9-0.4,6.9s13.3,3.3-4.9,11.8c-18.2,8.5,12.1,4.9,15.4,3.7c3.3-1.2,62.1-23.7,9.1-71.2
		C1075.9,385.7,1084.4,367.7,1084.4,367.7z"/>
	<path class="st2" d="M1114.3,459.5c0,0-0.5,5.7,2.1,5.1c5.2-1-0.8-5.5-0.8-5.5s4.3,3.8,5.5-0.6c1.2-4.4-5.1-3.1-5.1-3.1"/>
	<path class="st9" d="M1031.1,533.8c13.9-6.8,8.3-32.2-1.6-46c-2.5-0.3,1.3,3.5-1,2.4c-4.1-1.1-7.6-3.3-10.6-6.4l-0.1-0.1
		c-4.1-3.9-6.9-8.6-8.5-14l-0.5-3.2c-10.5-6.8-34.6-6.1-43.2-1.8c-30.3,15.1-66.3,103.9-66.3,103.9s-8.8,0.4,47.5,41.9
		c3.6,2.7,23.9-45.4,57.1-63C1019.9,539.1,1027,535.8,1031.1,533.8z"/>
	<g>
		<path class="st10" d="M1104.8,495.6c0,0,0.4,0.1,1,0.3c0.7,0.2,1.6,0.4,2.8,0.7c1.1,0.2,2.5,0.5,3.9,0.7c0.7,0.1,1.5,0.2,2.2,0.3
			c0.8,0.1,1.5,0.1,2.3,0.1c0.8,0,1.5,0,2.3,0c0.7-0.1,1.5-0.1,2.2-0.2c0.7-0.2,1.4-0.2,2-0.4c0.6-0.2,1.3-0.3,1.8-0.5
			c0.5-0.2,1-0.4,1.5-0.6c0.4-0.2,0.8-0.4,1.1-0.6c0.6-0.3,1-0.5,1-0.5s-0.3,0.3-0.8,0.7c-0.3,0.2-0.6,0.5-1,0.8
			c-0.4,0.3-0.9,0.6-1.4,0.9c-0.5,0.3-1.1,0.5-1.8,0.8c-0.6,0.3-1.4,0.4-2.1,0.6c-0.7,0.2-1.5,0.3-2.3,0.4c-0.8,0.1-1.6,0.1-2.4,0.1
			c-0.8-0.1-1.6-0.1-2.4-0.2c-0.8-0.1-1.6-0.2-2.3-0.4c-1.5-0.3-2.8-0.8-3.9-1.2c-1.1-0.4-2-0.9-2.6-1.2
			C1105.1,495.8,1104.8,495.6,1104.8,495.6z"/>
	</g>
	<g>
		<path class="st10" d="M1007.6,486.7c0,0-1.7,1-4.6,2.8c-2.9,1.8-7,4.6-11.8,8.1c-4.8,3.4-10.2,7.7-15.8,12.5
			c-2.8,2.4-5.6,4.9-8.5,7.6c-2.8,2.7-5.6,5.4-8.3,8.3c-1.3,1.4-2.7,2.8-4,4.3c-1.3,1.4-2.6,2.9-3.8,4.4c-2.5,2.9-4.8,6-7,8.9
			c-2.2,3-4.2,5.9-5.9,8.8c-0.9,1.4-1.7,2.8-2.5,4.2c-0.4,0.7-0.8,1.4-1.2,2c-0.4,0.7-0.7,1.3-1,2c-1.4,2.6-2.5,5.1-3.5,7.2
			c-1,2.2-1.7,4.1-2.4,5.7c-1.2,3.2-1.8,5.1-1.8,5.1s0.6-1.9,1.6-5.2c0.6-1.6,1.3-3.6,2.2-5.8c0.9-2.2,2-4.7,3.3-7.4
			c0.3-0.7,0.7-1.3,1-2c0.4-0.7,0.7-1.4,1.1-2.1c0.8-1.4,1.5-2.9,2.4-4.3c1.7-2.9,3.7-6,5.8-9c2.2-3,4.5-6.1,7-9.1
			c1.2-1.5,2.5-3,3.8-4.5c1.3-1.5,2.6-2.9,4-4.4c2.7-2.9,5.6-5.6,8.4-8.3c2.9-2.6,5.7-5.2,8.6-7.5c2.8-2.4,5.7-4.6,8.4-6.6
			c2.7-2,5.3-3.9,7.8-5.6C1000.5,490.2,1007.6,486.7,1007.6,486.7z"/>
	</g>
	<circle class="st11" cx="963.3" cy="512.8" r="1.4"/>
	<circle class="st11" cx="953.2" cy="521" r="1.4"/>
	<circle class="st11" cx="944.7" cy="530.6" r="1.4"/>
	<g>
		<path class="st12" d="M1016.6,483.1c3.6,0.3-5.7-7.9-6.5-6.9c-0.3,0.4-5,7.6-5,7.6s1,3.7,1.9,3.4
			C1007.7,486.9,1016.6,483.1,1016.6,483.1z"/>
		<path class="st12" d="M1007.7,486c0,0-9.5,12.4-6,35c2,13.1-5.5,41.8-24,48c0,0-14.8-2.4-16.4-4.8c0,0,3.1-11.9,4.5-15
			c0,0,26-5.9,26.2-29.6c0.2-27.8,12.5-35.8,12.5-35.8L1007.7,486z"/>
	</g>
	<g>
		
			<image style="overflow:visible;opacity:0.14;enable-background:new    ;" width="108" height="117" xlink:href="60E971E04641EA12.png"  transform="matrix(0.3274 0 0 0.3225 999.1444 457.5181)">
		</image>
		<g>
			<g>
				<path class="st10" d="M1013.3,469.3c0,0-2.1-8.3-9.9-7.5l1.2,14.1c0,0,5.7-3.9,9,3.7l1.8,0.2l-1.5-1.8L1013.3,469.3z"/>
				<path class="st10" d="M1023.6,480.5c0,0,6.9,1.4,6.5,10.2l-12.5-0.7c0,0,2.9-6.9-4-10.4L1023.6,480.5z"/>
			</g>
		</g>
	</g>
	<path class="st2" d="M1084.8,414.7c0,0-3.2,0.8-3.5,4.9c-0.3,4.1,6.4,5.1,4.7,11.7c-1.7,6.7,6.9-1.1,0-11
		C1086,420.3,1089,415.5,1084.8,414.7z"/>
	<path class="st2" d="M1077.8,409.6c0,0-1.4,2.4-4.8,1.7c-3.4-0.7-2.6-6.5-8.4-6.7s2.6-5.4,8.9,2.7
		C1073.5,407.2,1078.2,405.9,1077.8,409.6z"/>
	<path class="st3" d="M1069.4,470c0,0,1.1,12.4,11.4,1.5s-5.6-9.5-5.6-9.5"/>
	<path class="st6" d="M1068.3,419.3c-0.3-0.1-0.7-0.1-1.1-0.1c-0.4,0-0.7,0-1.1,0.1c-0.7,0.1-1.4,0.2-2.1,0.2l-2.1,0.4
		c-0.7,0.1-1.4,0.3-2.1,0.4l1.2,1.3c0.6-1.2,0.9-2.5,0.8-3.8c-0.1-1.3-0.6-2.7-1.5-3.8c-0.5-0.5-1.1-1-1.8-1.3
		c-0.7-0.3-1.4-0.4-2.1-0.4c-0.7,0-1.4,0.1-2,0.4c-0.6,0.2-1.2,0.5-1.7,0.9c-0.1,0.1-0.3,0.2-0.4,0.3l-0.2,0.1l-0.1,0.1l0,0
		l-0.1,0.1l-0.3,0.3c-0.1,0.1-0.3,0.3-0.4,0.4c-0.5,0.6-0.8,1.2-0.9,1.9c-0.2,0.7-0.2,1.4-0.1,2c0.1,0.7,0.3,1.3,0.6,1.8
		c0.5,1.1,1.3,2.2,2.4,2.8c0.5,0.3,1.2,0.5,1.8,0.5c0.6,0,1.2-0.3,1.6-0.8c-0.5,0.3-1.1,0.4-1.5,0.2c-0.5-0.1-0.9-0.4-1.3-0.8
		c-0.7-0.7-1.2-1.7-1.5-2.6c-0.1-0.5-0.2-1-0.2-1.4c0-0.5,0.1-0.9,0.2-1.3c0.1-0.4,0.4-0.7,0.6-1c0.1-0.1,0.1-0.1,0.2-0.2l0.3-0.3
		l0,0l0,0c-0.1,0.1,0,0,0,0l0,0l0,0l0.1-0.1l0.2-0.1c0.1-0.1,0.2-0.1,0.3-0.2c0.8-0.5,1.7-0.8,2.6-0.8c0.8,0,1.5,0.3,2.1,0.9
		c0.6,0.6,0.9,1.5,1.1,2.4c0.1,0.9,0,1.9-0.3,2.8l-0.7,2l1.9-0.7l2-0.7l2-0.7l2-0.8c0.3-0.1,0.7-0.3,1-0.4
		C1067.6,419.5,1067.9,419.4,1068.3,419.3z"/>
	<g>
		<path class="st7" d="M1039.5,426.4c0,0,0,0.3,0,0.8c0,0.3,0,0.6,0.1,0.9c0,0.3,0.2,0.7,0.3,1.1c0.2,0.4,0.3,0.8,0.5,1.2
			c0.2,0.4,0.5,0.8,0.8,1.2c0.4,0.4,0.7,0.7,1.2,1c0.4,0.3,0.9,0.6,1.4,0.9c0.5,0.3,1,0.5,1.5,0.7c0.5,0.2,1,0.4,1.5,0.5
			c0.5,0.2,1,0.3,1.5,0.4c0.5,0.1,0.9,0.2,1.4,0.4c0.8,0.2,1.6,0.3,2.1,0.4c0.5,0.1,0.8,0.2,0.8,0.2s-0.3,0-0.8,0.1
			c-0.3,0-0.6,0-0.9,0.1c-0.4,0-0.8,0.1-1.2,0c-0.4,0-0.9-0.1-1.4-0.1c-0.5,0-1.1-0.1-1.6-0.3c-0.5-0.1-1.1-0.2-1.7-0.5
			c-0.6-0.2-1.2-0.4-1.7-0.7c-0.5-0.3-1.1-0.6-1.5-1.1c-0.5-0.4-0.9-0.9-1.3-1.3c-0.3-0.5-0.6-1-0.8-1.5c-0.2-0.5-0.3-1-0.4-1.5
			c0-0.5-0.1-0.9,0-1.3c0-0.4,0.1-0.7,0.1-0.9C1039.3,426.6,1039.5,426.4,1039.5,426.4z"/>
	</g>
	<ellipse class="st8" cx="838.1" cy="638" rx="10.2" ry="7.2"/>
	<ellipse class="st8" cx="787.4" cy="558.5" rx="10.2" ry="7.2"/>
	<path class="st1" d="M777.1,722.6c0,0-14.3-51.3-41.3-48.1C709.5,677.8,777.1,722.6,777.1,722.6z"/>
	<path class="st1" d="M774.3,732.5c0.3-0.4,6.4-6.8,6.4-6.8l-11.4-23.9l-11.8,11.7L774.3,732.5z"/>
</g>
<g>
	<g>
		<path class="st10" d="M1380.5,827.5c22.1-9.9,36.5-26,36.5-44.1c0-30-39.3-54.4-87.8-54.4c-16.4,0-31.7,2.8-44.9,7.6v90.9
			L1380.5,827.5L1380.5,827.5z"/>
		<path class="st10" d="M1508.6,827.5c-11.7-19.6-37.5-33.3-67.6-33.3c-30.1,0-56,13.6-67.6,33.3H1508.6z"/>
		<path class="st10" d="M1607,827.5c-7.8-27.9-34.7-48.5-66.7-48.5s-58.8,20.6-66.7,48.5H1607z"/>
		<path class="st10" d="M1656.9,827.5c-10.5-9.7-25.6-15.9-42.3-15.9s-31.8,6.1-42.3,15.9H1656.9z"/>
	</g>
	<rect x="1722" y="309.7" class="st18" width="3" height="95.1"/>
	<path class="st12" d="M1670.1,346.4c21.6,19.2,40.8-5.6,54.9,5v-37.7c-14.1-10.6-33.3,14.2-54.9-5V346.4z"/>
	<g>
		<path class="st8" d="M1476.5,616.6c0,0-12.7,10.2-31.4,0.3c-18.7-9.9-7.9-19.5-7.9-19.5L1476.5,616.6z"/>
		<path class="st9" d="M1505.4,526.2c7.9,10.3,9,65.7,53.3,26c0,0,24,14.1,12.8,17.7c0,0-76.4,36.5-73.7-30.3
			C1497.8,539.7,1502.9,523,1505.4,526.2z"/>
		<path class="st3" d="M1562.9,557.2c0,0-5.6-12-3.2-15.2c1.6-2.1,3.7,0.6,4.6,4.7c0.8,3.8,4.3,2.5,7.4,0.9c3.1-1.7,5.3-3.1,6.6-6.4
			c1.5-4.2,6.8-2.8,5.5,1c-1.2,3.8-3.7,6.9-7.1,9c0.4,0.6,1.6,0.1,3.6-0.6c2-0.7,2.7-1.5,5-4c2.1-2.3,5.6,0.7,3.7,3.7
			c-1.9,3-6.6,5.2-9.1,6.2c0.2,0.7,6.2-0.2,8.8-0.8c2.6-0.6,4.6,3-1,5.1c-5.6,2.1-9.7,1.7-12.1,2.5
			C1573.2,564.2,1566.4,562.7,1562.9,557.2z"/>
		<g>
			<path class="st10" d="M1559.7,554.9c0,0,0.5,0.8,1.3,2.1c0.8,1.2,1.8,2.8,3,4.2c0.3,0.3,0.6,0.7,0.9,1c0.3,0.3,0.6,0.7,1,0.9
				c0.3,0.3,0.6,0.6,1,0.8c0.3,0.2,0.6,0.5,0.9,0.6c0.3,0.2,0.6,0.3,0.8,0.5c0.3,0.1,0.5,0.2,0.7,0.3c0.4,0.2,0.6,0.3,0.6,0.3
				s-0.2,0-0.7,0c-0.2,0-0.5,0-0.8-0.1c-0.3-0.1-0.6-0.1-1-0.2c-0.4-0.1-0.7-0.3-1.1-0.5c-0.4-0.2-0.8-0.4-1.2-0.7
				c-0.8-0.5-1.5-1.2-2.2-2c-0.3-0.4-0.6-0.8-0.9-1.2c-0.3-0.4-0.5-0.8-0.8-1.2c-0.5-0.8-0.8-1.6-1-2.3
				C1559.8,555.9,1559.7,554.9,1559.7,554.9z"/>
		</g>
		<path class="st2" d="M1477.9,490.6c0,0-2.5,3.1-1.7,4.4c0.8,1.3,4.5,0,5.4-0.7c0,0-1.7,2.4-0.5,2.9c1.3,0.5,5.1-3.3,5.1-3.3
			S1485.4,488,1477.9,490.6z"/>
		<g>
			<g>
				
					<image style="overflow:visible;opacity:0.14;enable-background:new    ;" width="154" height="242" xlink:href="60E971E04641EA13.png"  transform="matrix(0.3311 0 0 0.3343 1475.9006 453.6784)">
				</image>
				<g>
					<path class="st3" d="M1488.2,460.3c8.7-5.8,33.2-0.4,34.2,9.8c0,0-0.2,22.5-0.1,29.1c0.1,6.6-1.3,15.8-10.7,15.1
						c-4-0.3-8.8-1.7-13.2-3.8c-6.6,4.2-4.4,14.7-5.4,15.3c-1.1,4.2-3.9,8.3-9-3.5c0-1.2-1.5-26.2-1.8-30.1
						c-1.2-1.9-1.9-2.5-1.9-2.5S1479.5,466.1,1488.2,460.3z"/>
				</g>
			</g>
			<path class="st4" d="M1484.8,489.3c7.5,18,27.9,23,36.3,18.7c-1.3,3.8-4.1,6.8-9.6,6.4c-4-0.3-8.8-1.7-13.2-3.8
				c-6.6,4.2-4.4,14.7-5.4,15.3c-1.1,4.2-3.9,8.3-9-3.5c0-1.2-1.5-26.2-1.8-30.1c-1.2-1.9-1.9-2.5-1.9-2.5s-0.1-3,0.2-7.1
				C1481.6,484.9,1483.8,486.8,1484.8,489.3z"/>
			<polygon class="st3" points="1488.1,523.8 1498.4,526.9 1495.4,511.8 1490.5,510.1 1484.1,517.8 			"/>
			<polygon class="st4" points="1488.1,523.8 1498.4,526.9 1495.4,511.8 1490.5,510.1 1484.1,517.8 			"/>
		</g>
		
			<ellipse transform="matrix(7.820293e-02 -0.9969 0.9969 7.820293e-02 913.4306 1939.1846)" class="st5" cx="1505.3" cy="475.6" rx="2.3" ry="1.3"/>
		
			<ellipse transform="matrix(7.820293e-02 -0.9969 0.9969 7.820293e-02 921.8247 1956.4399)" class="st5" cx="1518.9" cy="479.7" rx="2.3" ry="1.3"/>
		<path class="st2" d="M1536.1,455.8c0,0-1.4,17.1-17.5,12.4c-8-2.4-10.4-2.5-14.2-5.3c-4.2-3.1-18.7,1.8-15.4,18.8
			c3.3,16.9-3.7,2.1-3.7,2.1s-5.4-6.6-5.3,5.9s-5.9-5.5-6.1-7.7c-0.2-2.2-3.3-41.2,37-24C1528.4,465.3,1536.1,455.8,1536.1,455.8z"
			/>
		<path class="st2" d="M1477.4,463.4c0,0-3,1.8-3.4,0.2c-0.8-3.2,3.3-1,3.3-1s-3.2-1.4-1.1-3.3c2.1-1.9,3.1,2.1,3.1,2.1"/>
		<path class="st9" d="M1458.3,529.8c0.1-9.6,15.6-13.2,25.9-11.3c0.8,1.3-2.3,0.2-1.1,1.2c1.7,2,3.8,3.4,6.3,4.3l0.1,0
			c3.2,1.3,6.6,1.6,10,1.1l1.9-0.6c6.5,4.1,6.8,12.2,7.6,18.1c3.6,25.6-33.9,73.5-33.9,73.5s-17.1,1.3-37.1-18.5
			c-2-2,23.2-15.3,19.8-48.8C1456.7,537.6,1458.2,532.6,1458.3,529.8z"/>
		<g>
			<path class="st10" d="M1490.6,530.5c0,0,0,1.2-0.1,3.4c-0.1,2.1-0.4,5.2-0.9,8.8c-0.3,1.8-0.6,3.8-1,5.8
				c-0.4,2.1-0.8,4.2-1.4,6.5c-0.5,2.2-1.2,4.5-1.9,6.8c-0.7,2.3-1.5,4.6-2.3,6.9c-0.5,1.1-0.9,2.3-1.4,3.4
				c-0.5,1.1-0.9,2.3-1.5,3.3c-1.1,2.2-2,4.4-3.2,6.3c-1.1,2-2.2,4-3.5,5.7c-0.6,0.9-1.2,1.7-1.8,2.5c-0.3,0.4-0.6,0.8-0.8,1.2
				c-0.3,0.4-0.6,0.7-0.9,1.1c-1.2,1.4-2.3,2.7-3.2,3.8c-1,1.1-2,2-2.8,2.7c-1.6,1.5-2.4,2.3-2.4,2.3s0.8-0.9,2.3-2.5
				c0.7-0.8,1.6-1.7,2.6-2.9c0.9-1.2,1.9-2.5,3-4c0.3-0.4,0.6-0.7,0.8-1.1c0.3-0.4,0.5-0.8,0.8-1.2c0.5-0.8,1.1-1.7,1.6-2.6
				c1.2-1.7,2.1-3.7,3.3-5.7c1.2-2,2.1-4.1,3.1-6.3c0.5-1.1,1-2.2,1.4-3.3c0.4-1.1,0.9-2.3,1.3-3.4c0.9-2.3,1.6-4.6,2.4-6.8
				c0.7-2.3,1.4-4.5,2-6.7c0.6-2.2,1.1-4.3,1.6-6.4c0.5-2,0.9-4,1.2-5.8c0.7-3.6,1.2-6.6,1.4-8.7
				C1490.4,531.7,1490.6,530.5,1490.6,530.5z"/>
		</g>
		<path class="st11" d="M1487,561.9c-0.2,0.4,0,0.9,0.4,1.2c0.4,0.2,0.9,0,1.1-0.4c0.2-0.4,0-0.9-0.4-1.2
			C1487.8,561.3,1487.3,561.5,1487,561.9z"/>
		<path class="st11" d="M1485.1,569.8c-0.2,0.4,0,0.9,0.4,1.2c0.4,0.2,0.9,0,1.1-0.4c0.2-0.4,0-0.9-0.4-1.2
			C1485.8,569.2,1485.3,569.4,1485.1,569.8z"/>
		<path class="st11" d="M1482.1,577.1c-0.2,0.4,0,0.9,0.4,1.2c0.4,0.2,0.9,0,1.1-0.4c0.2-0.4,0-0.9-0.4-1.2
			C1482.8,576.5,1482.3,576.7,1482.1,577.1z"/>
		<g>
			<path class="st12" d="M1495.4,525.1c1.6-1.5-5.9-0.7-5.9,0.1c0,0.3,1.4,5.5,1.4,5.5s2.1,1.1,2.3,0.6
				C1493.4,530.8,1495.4,525.1,1495.4,525.1z"/>
			<path class="st12" d="M1493,530.4c0,0,1.7,9.5,13.4,17.4c6.8,4.5,16.6,20,11.8,31c0,0-7.2,5.8-9,5.6c0,0-4.1-6.4-4.9-8.3
				c0,0,8.1-14.4-2.6-24.4c-12.5-11.7-11-20.7-11-20.7L1493,530.4z"/>
		</g>
		<g>
			
				<image style="overflow:visible;opacity:0.14;enable-background:new    ;" width="100" height="63" xlink:href="60E971E04641EA1E.png"  transform="matrix(0.3161 0 0 0.3184 1478.1542 513.7384)">
			</image>
			<g>
				<g>
					<path class="st10" d="M1498.7,522.7c0,0,5.2-1,6.8,3.5l-8.1,3.1c0,0,0.6-4.2-4.5-4.1l-0.6-1l1.4,0.4L1498.7,522.7z"/>
					<path class="st10" d="M1489.8,519.9c0,0-2.6-3.5-7.3-1l3.7,6.9c0,0,3.1-3.5,6.8-0.5L1489.8,519.9z"/>
				</g>
			</g>
		</g>
		<path class="st2" d="M1510,468c0,0,0.4,2-1.8,3.3c-2.2,1.3-4.5-2.3-7.7,0.5c-3.2,2.7-1.2-4.2,6.1-2.9
			C1506.6,468.8,1508.5,465.8,1510,468z"/>
		<path class="st2" d="M1514.7,470.6c0,0-1,1.4,0.3,3.2c1.3,1.7,4.3-0.3,5.9,2.9c1.7,3.2,2.3-2.9-3.8-4.3
			C1517.1,472.4,1516.6,469.4,1514.7,470.6z"/>
		<path class="st3" d="M1483.5,491.3c0,0-7.2,2.7-3.8-6c3.3-8.7,6.7,0.6,6.7,0.6"/>
		<path class="st6" d="M1511.8,478.5c0.1,0.2,0.2,0.4,0.3,0.6c0.1,0.2,0.2,0.4,0.2,0.6c0.2,0.4,0.3,0.8,0.4,1.3l0.4,1.3
			c0.1,0.4,0.2,0.8,0.3,1.3l-1.1-0.3c0.5-0.7,1.2-1.2,1.9-1.5c0.8-0.3,1.6-0.4,2.5-0.1c0.4,0.1,0.8,0.3,1.2,0.6
			c0.4,0.3,0.6,0.7,0.8,1.1c0.2,0.4,0.3,0.8,0.3,1.3c0,0.4,0,0.8,0,1.2c0,0.1,0,0.2,0,0.3l0,0.1l0,0.1l0,0l0,0.1l-0.1,0.3
			c0,0.1-0.1,0.2-0.1,0.3c-0.2,0.4-0.5,0.8-0.8,1c-0.3,0.3-0.7,0.5-1.1,0.6c-0.4,0.1-0.8,0.2-1.2,0.2c-0.8,0-1.5-0.2-2.2-0.6
			c-0.3-0.2-0.6-0.5-0.8-0.9c-0.2-0.4-0.1-0.8,0-1.1c0,0.4,0.1,0.7,0.3,0.9c0.2,0.2,0.5,0.4,0.8,0.5c0.6,0.2,1.2,0.2,1.8,0.1
			c0.3-0.1,0.6-0.1,0.9-0.3c0.3-0.1,0.5-0.3,0.7-0.5c0.2-0.2,0.3-0.4,0.4-0.6c0-0.1,0-0.1,0-0.1l0.1-0.3l0,0l0,0c0,0.1,0,0,0,0l0,0
			l0,0l0-0.1l0-0.1c0-0.1,0-0.2,0-0.2c0-0.6,0-1.2-0.2-1.7c-0.2-0.5-0.6-0.8-1.1-0.9c-0.5-0.2-1.1-0.1-1.6,0c-0.5,0.2-1,0.5-1.5,0.9
			l-0.9,1l-0.1-1.3l-0.1-1.3l-0.1-1.3l-0.1-1.3c0-0.2,0-0.4-0.1-0.6C1511.9,478.9,1511.9,478.7,1511.8,478.5z"/>
		<path class="st8" d="M1444.1,671.5c-2.3,0.7-3.4,4-2.5,7.3c1,3.4,3.6,5.6,6,4.9c2.3-0.7,3.4-4,2.5-7.3
			C1449.1,673,1446.5,670.8,1444.1,671.5z"/>
		<path class="st8" d="M1510.7,648.5c-2.3,0.7-3.4,4-2.5,7.3c1,3.4,3.6,5.6,6,4.9c2.3-0.7,3.4-4,2.5-7.3
			C1515.7,650,1513.1,647.8,1510.7,648.5z"/>
		<path class="st19" d="M1644,450.6l-1.2-0.8c-2.4-1.5-5.6-0.7-7.1,1.8l-219.8,369.2c-0.7,1.1-0.8,2.4-0.6,3.6h12.2l218.3-366.7
			C1647.2,455.3,1646.4,452.1,1644,450.6z"/>
		<path class="st20" d="M1624.8,484.3l-24.9-0.3c-2.3,0-4.2-2-4.2-4.3l0-1.2c0-2.3,2-4.2,4.3-4.2l24.9,0.3c2.3,0,4.2,2,4.2,4.3
			l0,1.2C1629.1,482.5,1627.2,484.4,1624.8,484.3z"/>
		<path class="st20" d="M1604.2,520.5l-24.9-0.3c-2.3,0-4.2-2-4.2-4.3l0-1.2c0-2.3,2-4.2,4.3-4.2l24.9,0.3c2.3,0,4.2,2,4.2,4.3
			l0,1.2C1608.4,518.6,1606.5,520.5,1604.2,520.5z"/>
		<path class="st20" d="M1577.8,562.3l-24.9-0.3c-2.3,0-4.2-2-4.2-4.3l0-1.2c0-2.3,2-4.2,4.3-4.2l24.9,0.3c2.3,0,4.2,2,4.2,4.3
			l0,1.2C1582.1,560.4,1580.1,562.3,1577.8,562.3z"/>
		<path class="st20" d="M1550.5,607.7l-24.9-0.3c-2.3,0-4.2-2-4.2-4.3l0-1.2c0-2.3,2-4.2,4.3-4.2l24.9,0.3c2.3,0,4.2,2,4.2,4.3
			l0,1.2C1554.8,605.8,1552.9,607.7,1550.5,607.7z"/>
		<path class="st20" d="M1491.8,706.6l-24.9-0.3c-2.3,0-4.2-2-4.2-4.3l0-1.2c0-2.3,2-4.2,4.3-4.2l24.9,0.3c2.3,0,4.2,2,4.2,4.3
			l0,1.2C1496.1,704.8,1494.1,706.7,1491.8,706.6z"/>
		<path class="st20" d="M1463.8,754.6l-24.9-0.3c-2.3,0-4.2-2-4.2-4.3l0-1.2c0-2.3,2-4.2,4.3-4.2l24.9,0.3c2.3,0,4.2,2,4.2,4.3
			l0,1.2C1468,752.8,1466.1,754.7,1463.8,754.6z"/>
		<path class="st20" d="M1434.6,802.8l-24.9-0.3c-2.3,0-4.2-2-4.2-4.3l0-1.2c0-2.3,2-4.2,4.3-4.2l24.9,0.3c2.3,0,4.2,2,4.2,4.3
			l0,1.2C1438.9,800.9,1436.9,802.8,1434.6,802.8z"/>
		<path class="st1" d="M1438.8,728.1l2.3,6.3c0,0,22.2,11.9,11.2,12.7c-10.9,0.8-26.5-8-26.5-8l-1.5-2.3l-1.2,1.6l-12.5-4.6
			l2.5-10.2L1438.8,728.1z"/>
		<path class="st1" d="M1474.1,688.4c0,0-3.4,3-3.9,4.4c-2.8,8.1,18.2,13.5-5,10.3c-9.6-1.3-5-20.2-5-20.2l1.1-2.1l-1.7-0.3
			l-1.7-11.7l8.8-2.3L1474.1,688.4z"/>
		<path class="st8" d="M1435.5,604.4c0,0,1.2,71.3-26.2,120.7c0,0,15.7,14.3,28.3,6.5c12.6-7.7,12.7-118.7,12.7-118.7L1435.5,604.4z
			"/>
		<path class="st8" d="M1479.3,618.8c0,0,82.3,35.9-3.8,72.5c0,0-13.5-20-11.8-25.6c1.2-3.9,77.4,8.2-7.3-51.5
			C1456.5,614.3,1468.4,609.8,1479.3,618.8z"/>
		<g>
			
				<image style="overflow:visible;opacity:0.14;enable-background:new    ;" width="246" height="263" xlink:href="60E971E04641EA1F.png"  transform="matrix(0.333 0 0 0.3335 1439.7119 519.4908)">
			</image>
			<g>
				<path class="st9" d="M1471.1,529.6c-4.1,3.6-38.4,25,46.1,52.1c0,0-1.1,27.9-9.4,19.4c0,0-104.9-49.6-45.7-77.4
					C1462,523.7,1476.2,525.1,1471.1,529.6z"/>
			</g>
		</g>
		<g>
			<path class="st10" d="M1515.4,583.8c0,0-0.5,0.8-1.2,2.1c-0.7,1.3-1.6,2.9-2.2,4.6c-0.1,0.4-0.3,0.9-0.4,1.3
				c-0.1,0.4-0.3,0.9-0.3,1.3c-0.1,0.4-0.2,0.8-0.2,1.2c0,0.4-0.1,0.8-0.1,1.1c0,0.3,0,0.7,0,1c0,0.3,0,0.5,0.1,0.8
				c0,0.4,0,0.7,0,0.7s-0.1-0.2-0.3-0.6c-0.2-0.4-0.4-1-0.6-1.7c-0.1-0.4-0.1-0.8-0.1-1.2c-0.1-0.4,0-0.9,0-1.4c0-0.5,0.1-1,0.2-1.4
				c0.1-0.5,0.3-1,0.4-1.4c0.4-0.9,0.8-1.8,1.3-2.6c0.5-0.8,1.1-1.5,1.6-2C1514.6,584.3,1515.4,583.8,1515.4,583.8z"/>
		</g>
		<path class="st9" d="M1457.9,526c0,0,11.7-12.3,22.6-4.9c10.9,7.3-22.6,20.5-22.6,20.5L1457.9,526z"/>
		<path class="st9" d="M1481.2,607.7c-3.7,5.2-6.2,8.4-6.2,8.4s-17.1,1.3-37.1-18.5c-0.8-0.8,2.9-3.5,7.3-8.7"/>
		<path class="st20" d="M1524.8,652.6l-24.9-0.3c-2.3,0-4.2-2-4.2-4.3l0-1.2c0-2.3,2-4.2,4.3-4.2l24.9,0.3c2.3,0,4.2,2,4.2,4.3
			l0,1.2C1529.1,650.8,1527.2,652.6,1524.8,652.6z"/>
		<path class="st19" d="M1612.7,452.9l-1.2-0.8c-2.4-1.5-5.6-0.7-7.1,1.8l-220.6,370.5h13.7l216.9-364.4
			C1615.9,457.6,1615.1,454.4,1612.7,452.9z"/>
		<path class="st3" d="M1514.9,587.6c0,0,7.8-10.4,11.7-9.7c2.6,0.5,1.2,3.6-1.9,6.2c-2.9,2.5-0.2,5,2.7,7.1c2.9,2,5.1,3.4,8.6,3
			c4.3-0.5,5.6,4.8,1.7,5.4c-3.9,0.7-7.7-0.2-11.1-2.3c-0.3,0.6,0.7,1.4,2.2,3c1.5,1.5,2.6,1.8,5.8,2.7c3,0.9,2,5.3-1.4,5
			c-3.4-0.3-7.5-3.5-9.6-5.3c-0.5,0.5,3,5.4,4.7,7.5c1.7,2.1-0.5,5.5-4.9,1.4c-4.5-4.1-5.9-7.9-7.8-9.7
			C1513.6,600,1511.8,593.3,1514.9,587.6z"/>
		<g>
			<path class="st7" d="M1512.6,494.7c0,0,0.3-0.4,0.9-0.8c0.3-0.2,0.7-0.4,1.1-0.6c0.4-0.2,0.9-0.3,1.4-0.4c0.5-0.1,1-0.1,1.5,0
				c0.5,0.1,0.9,0.2,1.3,0.5c0.2,0.1,0.3,0.3,0.4,0.4c0.1,0.1,0.2,0.2,0.2,0.3c0.1,0.2,0.1,0.3,0.1,0.3s-0.1,0-0.3-0.1
				c-0.1,0-0.2-0.1-0.3-0.1c-0.1,0-0.3-0.1-0.4-0.1c-0.2,0-0.3,0-0.5,0c-0.2,0-0.3,0-0.5,0c-0.2,0-0.4,0-0.6,0.1
				c-0.2,0-0.4,0.1-0.6,0.1c-0.8,0.1-1.7,0.3-2.4,0.3C1513.1,494.7,1512.6,494.7,1512.6,494.7z"/>
		</g>
	</g>
	<path class="st10" d="M1852.4,487.1v-44.5c-8.1-12.1-23-20.4-39.6-20.4c-0.9,0-1.8,0-2.7,0.1c0.9-3.7,0.4-7.6,1.3-11.4
		c6.4-26.8-11.6-50.9-46.2-48.2c-19.9,1.6-36.9,13.1-43.4,31.5c-4.4-2.1-9.1-3.2-14-3.2c-15.4,0-21.6,15-28,30.8
		c-3.6-0.8-14.4-5.3-18.2-5.3c-27.1,0-49,21.6-49,48.2c0,20.5,19.7,39.6,37.8,41.5c-4.9,18.2,15.1,33.5,39.5,33
		c11.6-0.2,27.4-15.8,28.1-15.6c9.5,13.9,25.4,23,43.3,23c15.5,0,29.5-6.8,39.1-17.6c0.9-0.2,7.4,10.7,24.9,10.7
		c22.9,0,24.5-17.3,26.2-31.3c0.8-6.1-0.3-11.8-2.7-16.9C1849.9,490,1851.4,488.6,1852.4,487.1z"/>
	<g>
		<g>
			<defs>
				<rect id="SVGID_1_" x="1292.5" y="268.1" width="565.1" height="580.7"/>
			</defs>
			<clipPath id="SVGID_2_">
				<use xlink:href="#SVGID_1_"  style="overflow:visible;"/>
			</clipPath>
			<path class="st21" d="M1661.5,941.5c0,0,0-23.7,24.5-23.3c0,0-169.1,68.8-135.2,69.5c33.9,0.7,210.5-80.8,212.4-73.1
				c0,0-151.2,55-92.8,64.8c58.4,9.8,217.1-49.9,217.1-49.9s47.1,10.6,16,17.3c-31.1,6.7-73.4,0-73.4,0s-49.7,23.8-79.9,9.6
				c0,0-64.1,9.7-76.3-2.6c0,0-46.1,9.8-53.7,0C1612.6,944,1648.4,940.8,1661.5,941.5z"/>
		</g>
		<g>
			<defs>
				<rect id="SVGID_3_" x="1292.5" y="268.1" width="565.1" height="580.7"/>
			</defs>
			<clipPath id="SVGID_4_">
				<use xlink:href="#SVGID_3_"  style="overflow:visible;"/>
			</clipPath>
			<path class="st22" d="M1624.6,849.6c0,0,0-23.7,24.5-23.3c0,0,0.9-31.2,34.8-30.5c33.9,0.7,40.5,19.2,42.4,26.9
				c0,0,18.8-45,77.2-35.2c58.4,9.8,47.1,50.1,47.1,50.1s47.1,10.6,16,17.3c-31.1,6.7-73.4,0-73.4,0s-49.7,23.8-79.9,9.6
				c0,0-64.1,9.7-76.3-2.6c0,0-46.1,9.8-53.7,0C1575.6,852.1,1611.4,849,1624.6,849.6z"/>
		</g>
		<g>
			<defs>
				<rect id="SVGID_5_" x="1292.5" y="268.1" width="565.1" height="580.7"/>
			</defs>
			<clipPath id="SVGID_6_">
				<use xlink:href="#SVGID_5_"  style="overflow:visible;"/>
			</clipPath>
			<path class="st23" d="M1826.5,683.9c0,0,0-23.7,24.5-23.3c0,0,0.9-31.2,34.8-30.5c33.9,0.7,40.5,19.2,42.4,26.9
				c0,0,18.8-45,77.2-35.2c58.4,9.8,47.1,50.1,47.1,50.1s47.1,10.6,16,17.3c-31.1,6.7-73.4,0-73.4,0s-49.7,23.8-79.9,9.6
				c0,0-64.1,9.7-76.3-2.6c0,0-46.1,9.8-53.7,0C1777.5,686.4,1813.3,683.3,1826.5,683.9z"/>
		</g>
		<g>
			<defs>
				<rect id="SVGID_7_" x="1292.5" y="268.1" width="565.1" height="580.7"/>
			</defs>
			<clipPath id="SVGID_8_">
				<use xlink:href="#SVGID_7_"  style="overflow:visible;"/>
			</clipPath>
			<path class="st24" d="M1425.5,298.6c0,0,0-23.7,24.5-23.3c0,0,0.9-31.2,34.8-30.5c33.9,0.7,40.5,19.2,42.4,26.9
				c0,0,18.8-45,77.2-35.2c58.4,9.8,47.1,50.1,47.1,50.1s46.6,8.7,16,17.3c-49.4,13.9-73.4,0-73.4,0s-13.6,30.9-79.9,9.6
				c0,0-42.9,30.7-76.3-2.6c0,0-46.1,9.8-53.7,0C1376.5,301.2,1412.3,298,1425.5,298.6z"/>
		</g>
	</g>
</g>
</svg>
