<?xml version="1.0" encoding="utf-8"?>
<!-- Generator: Adobe Illustrator 20.0.0, SVG Export Plug-In . SVG Version: 6.00 Build 0)  -->
<svg version="1.1" id="Layer_1" xmlns="http://www.w3.org/2000/svg" xmlns:xlink="http://www.w3.org/1999/xlink" x="0px" y="0px"
	 viewBox="0 0 1920 1080" style="enable-background:new 0 0 1920 1080;" xml:space="preserve">
<style type="text/css">
	.st0{fill:#F89A29;}
	.st1{opacity:0.1;fill:#010101;enable-background:new    ;}
	.st2{fill:#FFFFFF;}
	.st3{fill:#4ABA7D;}
	.st4{display:none;}
	.st5{display:inline;fill:#F9ED23;}
	.st6{display:inline;}
	.st7{fill:#F9ED23;}
	.st8{fill:#66C6B9;}
</style>
<g id="Layer_3">
	<rect x="4.1" y="3.8" class="st0" width="1920" height="1080"/>
</g>
<g id="Layer_2">
</g>
<g id="Layer_1_1_">
	<g>
		<polygon class="st1" points="789.6,344.9 554.7,1058.9 356.6,701.9 554.7,344.9 		"/>
		<polygon class="st1" points="787.1,1061.9 552.3,348 354.1,704.9 552.3,1061.9 		"/>
	</g>
	<g>
		<polygon class="st1" points="1156.7,1061.9 1391.5,348 1589.7,705 1391.5,1061.9 		"/>
		<polygon class="st1" points="1156.7,348 1391.5,1061.9 1589.7,705 1391.5,348 		"/>
	</g>
	<path class="st2" d="M682.7,1060.6c0,0-10.6-84.2,8.6-132.7c19.1-48.6,31.9-59.4,90.8-67.5c58.9-8.1,91.4-30.6,99.7-38
		c8.3-7.4,21.6-15.3,29.6-18.8c0,0-2.3-57.8-31.3-91.6c0,0-11.1-4-13-11.7c-1.9-7.7-7.6-41.5,0.6-55.7c0,0,5.4-6.7,4.8-11.5
		c-0.6-4.8-6.9-47.4,32.3-81.8c0,0,11.6-18.1-16.5-21.1c0,0,13.1-6.6,32.5,3c0,0-7.8-11.5,4.5-17.6c0,0-5.3,18.4,15.3,12.3
		c20.6-6.1,49.9-11.5,69.4-4.5c19.5,7,24.1,16.7,49,18.1c24.8,1.4,33.7,32.1,34.4,43.7c0.6,11.6-0.6,58.7,3.9,65
		c4.6,6.3,6.1,10.9,4.6,22.2c-1.5,11.3-10.9,40.6-16.1,41.1c-5.2,0.4-9.6,4.7-10,6.6c-0.3,1.8-15.2,42.3-14.9,56.6
		c0.2,14.3,0.6,30.7,12.1,34c11.5,3.3,26.5,23.5,35.7,32.5c9.2,9,63.5,21.1,88.1,32.3c24.6,11.2,34.6,9.5,49,56.1
		c14.4,46.6,25.7,94.5,25.9,128.7L682.7,1060.6L682.7,1060.6z"/>
	<g>
		<path class="st3" d="M1417.2,670.1c0,2.7,2.4,6.2,7.9,10v-17c-2.2,0.3-3.9,1.1-5.4,2.3C1417.9,666.7,1417.2,668.2,1417.2,670.1z"
			/>
		<path class="st3" d="M1430.1,701.6v19.3c2.8-0.2,4.9-1.1,6.7-2.5c1.9-1.6,2.8-3.4,2.9-5.7c0-1.8-0.7-3.5-2.3-5.4
			C1435.9,705.8,1433.5,703.8,1430.1,701.6z"/>
		<path class="st3" d="M1482.4,692.5c-1.4-8.8-2.8-15-2.8-15l0-0.2V677c0.1-21.7-18.2-39.8-41.4-49.8h-29
			c-23.2,9.9-41.5,28.1-41.4,49.8v0.2l-0.1,0.2c0,0-5.5,25.1-5.5,45.2c-0.1,10,1.6,18.8,4.9,21.8c9.3,9.2,33,14.4,56.6,14.3
			c23.6,0.1,47.3-5.1,56.6-14.3c3.3-3,5-11.8,4.9-21.8C1485.1,712.6,1483.8,701.3,1482.4,692.5z M1444.9,721.4
			c-3.9,3.1-8.9,4.8-14.9,4.9v7h-5v-7c-7.8-0.4-14.2-2.9-19-7.6l-0.4-0.4l2.7-14.4h3.7l0.1,0.8c1.2,10,5.4,15.1,12.8,16.1v-22.5
			c-7.2-4.9-12-8.9-14.7-12.1c-2.7-3.3-4.1-6.9-4.1-10.8c0-4.8,2-9,5.8-12.4c3.6-3.2,8-5,13-5.4v-3.9v-1h5v4.9
			c6.7,0.4,12.3,2.6,16.8,6.5l0.4,0.3l-1.6,14.3h-3.8l-0.1-0.9c-0.3-5-1.6-8.7-3.8-11.2c-2-2.3-4.5-3.5-7.9-3.8v20.5
			c8.3,5.4,13.9,9.7,16.8,13.3c2.9,3.6,4.4,7.5,4.4,11.8C1451.2,713.7,1449.1,718.1,1444.9,721.4z"/>
		<path class="st3" d="M1409.2,616.8c-1.1,0-2.1,1.5-2.1,3.4c0,1.9,0.9,3.4,2.1,3.4h29.8c1.1,0,2.1-1.5,2.1-3.4
			c0-1.9-0.9-3.4-2.1-3.4H1409.2z"/>
		<path class="st3" d="M1414.6,612.8c14.8,1.2,24.1,1.2,31.5-11.4c7.4-12.6,13.9-24.2,7.1-23c-6.8,1.2-18.5,3.9-29,1.2
			c-10.5-2.7-29.3-10.5-29-5.4c0.3,5.1,2.2,11.7,2.2,11.7S1399.8,611.6,1414.6,612.8z"/>
	</g>
	<g class="st4">
		<path class="st5" d="M987,425.2c0,3.4-3,6.1-6.8,6.1H946c-3.7,0-6.7-2.7-6.7-6.1l0,0c0-3.4,3-6.1,6.7-6.1h34.3
			C984,419.1,987,421.8,987,425.2L987,425.2z"/>
		<path class="st5" d="M937.3,424.6h51.6c0.7-0.7,2-1.9,4.2-4.1c2.9-2.8,4.5-4.7,5.4-6.1h-70.8c0.1,0.3,0.3,0.6,0.5,0.8
			C928.9,416.2,935.6,422.9,937.3,424.6z"/>
		<path class="st5" d="M1001.3,384.2c0,1.9-1.4,3.5-3.2,3.5h-69.5c-1.8,0-3.2-1.6-3.2-3.5l0,0c0-1.9,1.5-3.5,3.2-3.5h69.5
			C999.8,380.7,1001.3,382.3,1001.3,384.2L1001.3,384.2z"/>
		<path class="st5" d="M1001.3,394.5c0,1.9-1.4,3.5-3.2,3.5h-69.5c-1.8,0-3.2-1.6-3.2-3.5l0,0c0-1.9,1.5-3.5,3.2-3.5h69.5
			C999.8,391,1001.3,392.6,1001.3,394.5L1001.3,394.5z"/>
		<path class="st5" d="M1001.3,404.9c0,1.9-1.4,3.5-3.2,3.5h-69.5c-1.8,0-3.2-1.6-3.2-3.5l0,0c0-1.9,1.5-3.5,3.2-3.5h69.5
			C999.8,401.4,1001.3,402.9,1001.3,404.9L1001.3,404.9z"/>
		<path class="st5" d="M1000.7,412.8c0,1.2-1.4,2.2-3.2,2.2h-69c-1.8,0-3.2-1-3.2-2.2l0,0c0-1.2,1.4-2.2,3.2-2.2h69
			C999.3,410.6,1000.7,411.6,1000.7,412.8L1000.7,412.8z"/>
		<path class="st5" d="M1001.8,373.9c0,1.9-1.5,3.5-3.3,3.5H928c-1.8,0-3.3-1.6-3.3-3.5l0,0c0-1.9,1.5-3.5,3.3-3.5h70.6
			C1000.4,370.3,1001.8,371.9,1001.8,373.9L1001.8,373.9z"/>
		<g class="st6">
			<g>
				<path class="st7" d="M929.8,363.8h-3.4l-2.3-2c-5.2-4.5-10.7-10.3-12.1-18.6c-0.4-2.3-0.7-4.6-1-7c-0.5-3.9-0.9-7.6-1.8-10.7
					c-2-7.6-6.2-14.5-10.3-21.1c-1.1-1.9-2.3-3.7-3.3-5.6l-1.8-3.1c-4.6-8-9.4-16.3-13.7-25.1c-4.9-10.2-7.6-22.2-8.5-37.8l0-5.7
					c0.4-12.3,3-23.4,8.1-34.1c4.9-10.2,11.6-17.5,18.2-23.9c16.7-16.2,36-24.5,59.2-25.3l6.4,0c26,1.3,47.7,10,63.4,25.2
					c17.1,16.6,25.8,36.4,26.6,60.6v2.4c-1.3,25.3-11,42.6-20.3,59.3c-1.3,2.3-2.6,4.7-3.9,7c-1,1.8-2,3.7-3.1,5.5
					c-4,7.1-8.1,14.5-10.8,22.1c-1,2.8-1.5,6.4-2.2,10.2c-1.5,9.3-3.2,19.9-11.8,26l-2.1,1.5l-5.3,0c-6.4,0-12.8-0.1-19-0.1
					c-6.1-0.1-12.2-0.1-18.2-0.1c-10.4,0-19,0.2-27,0.5L929.8,363.8z M963.2,159.1l-5.7,0c-18.7,0.7-34.6,7.5-48.3,20.8
					c-5.5,5.4-11.2,11.4-15,19.4c-4.2,8.8-6.4,18-6.7,27.9v5.1c0.7,13.1,2.9,23.3,7,31.7c4.1,8.3,8.7,16.4,13.2,24.1l1.8,3.1
					c1,1.7,2.1,3.5,3.2,5.3c4.4,7.2,9.3,15.4,12,25.1c1.1,4.2,1.6,8.5,2.2,12.7c0.3,2.2,0.5,4.3,0.9,6.4c0.5,2.7,2.4,5.1,4.7,7.4
					c7.3-0.3,15.2-0.4,24.5-0.4c6.1,0,12.2,0.1,18.4,0.1c6.1,0.1,12.2,0.1,18.4,0.1c2.2-3.1,3.1-8.8,4-14.4
					c0.7-4.3,1.4-8.8,2.8-12.9c3.1-8.8,7.7-17.1,11.8-24.5c1-1.8,2-3.6,3-5.4c1.3-2.4,2.7-4.8,4-7.2c8.9-15.9,17.3-30.9,18.4-52.3
					l0-1.8c-0.6-19.8-7.8-36.2-21.9-49.9C1002.8,167.2,985.1,160.2,963.2,159.1z"/>
			</g>
		</g>
	</g>
	<g>
		<g>
			<path class="st8" d="M537.7,706.1v-15.4l-12.2-2.5c-0.7-3.2-1.7-6.2-3-9.1l8.3-9l-9.3-12.4l-11.4,4.9c-2.5-2.1-5.1-4-8-5.6
				l1.3-12l-15.1-4.8l-6.3,10.5c-1.6-0.2-3.3-0.2-4.9-0.2c-1.7,0-3.3,0.1-4.9,0.2l-6.3-10.5l-15.1,4.8l1.3,12
				c-2.8,1.6-5.5,3.5-8,5.6l-11.4-4.9l-9.3,12.5l8.4,9c-1.3,2.9-2.3,5.9-3,9.1l-12.2,2.5l0,15.4l12.2,2.5c0.7,3.1,1.7,6.2,3,9.1
				l-8.3,9l9.4,12.5l11.4-4.9c2.5,2.1,5.1,4,8,5.6l-1.3,12l15.1,4.7l6.2-10.5c1.6,0.2,3.3,0.2,4.9,0.2c1.7,0,3.3-0.1,4.9-0.2
				l6.3,10.5l15.1-4.8l-1.3-12c2.9-1.6,5.5-3.5,8-5.6l11.4,4.9l9.3-12.5l-8.3-9c1.3-2.9,2.3-5.9,3-9.1L537.7,706.1z M477.1,732.9
				c-19.6,0-35.5-15.4-35.5-34.4c0-19,15.9-34.4,35.5-34.4c19.6,0,35.5,15.4,35.5,34.4C512.6,717.5,496.7,732.9,477.1,732.9z"/>
		</g>
		<g>
			<path class="st8" d="M599.7,661.3v-9.2l-7.3-1.5c-0.4-1.9-1-3.7-1.8-5.4l4.9-5.4l-5.6-7.4l-6.8,2.9c-1.5-1.2-3-2.4-4.7-3.3
				l0.8-7.2l-9-2.8l-3.7,6.2c-1-0.1-1.9-0.1-2.9-0.1c-1,0-2,0.1-2.9,0.1l-3.7-6.2l-9,2.8l0.8,7.1c-1.7,1-3.3,2.1-4.7,3.3l-6.8-2.9
				l-5.6,7.4l5,5.4c-0.8,1.7-1.4,3.5-1.8,5.4l-7.3,1.5l0,9.2l7.3,1.5c0.4,1.9,1,3.7,1.8,5.4l-5,5.3l5.6,7.4l6.8-2.9
				c1.5,1.3,3,2.4,4.7,3.3l-0.8,7.2l9,2.8l3.7-6.2c1,0.1,1.9,0.1,2.9,0.1c1,0,2,0,2.9-0.1l3.7,6.2l9-2.8l-0.8-7.2
				c1.7-1,3.3-2.1,4.7-3.3l6.8,2.9l5.5-7.4l-5-5.4c0.8-1.7,1.4-3.5,1.8-5.4L599.7,661.3z M563.6,677.2c-11.6,0-21.1-9.2-21.1-20.4
				c0-11.3,9.4-20.4,21.1-20.4c11.6,0,21.1,9.2,21.1,20.4C584.7,668,575.3,677.2,563.6,677.2z"/>
		</g>
	</g>
	<g>
		<path class="st2" d="M941,257.1l-2.6,0.1V217l2.6,0.2l2.6-0.2v40.1L941,257.1z"/>
		<path class="st2" d="M987.2,245.4c-0.6,1.5-1.4,2.8-2.2,3.9c-0.5,0.6-0.9,1.2-1.4,1.7c-0.5,0.5-1,1-1.7,1.6c-2.1,2-4.9,3.4-8.3,4
			c-0.6,0.1-1.3,0.2-2.1,0.3c-0.8,0.1-1.4,0.1-1.8,0.1l-5.3,0.2h-11.3V217h13.2h2h1.7c3.8,0,6.5,0.3,8.1,0.8c0.9,0.3,1.8,0.6,2.5,1
			c0.4,0.2,0.8,0.5,1.1,0.7c0.3,0.3,0.7,0.6,1.2,1c2,1.6,3.6,3.8,4.6,6.4c1,2.7,1.6,5.4,1.6,8.3
			C989.1,239.2,988.4,242.6,987.2,245.4z M982.1,228.5c-0.6-2.1-1.6-3.8-3-5.1c-1.4-1.3-3.2-2.3-5.4-2.9c-2.2-0.6-4.9-0.9-8.1-0.9
			l-6.9,0.2V254l3.5,0.1h2.1c0.3,0,0.5,0,0.8,0c0.3,0,0.6,0,1,0.1c1.9,0,3.5-0.1,4.9-0.3c1.4-0.2,2.8-0.6,4-1.3
			c2.8-1.5,4.9-3.8,6.2-6.7c1.2-2.7,1.7-5.9,1.7-9.8C983,233.2,982.7,230.6,982.1,228.5z"/>
		<path class="st2" d="M1017.3,255.1l0.2,2h-20.8V217h20.5l-0.2,2l0.3,1.9l-2.9-0.4l-2.4-0.2l-5.6-0.1h-4.2v14h8.4h0.6h1l1.3-0.2
			l2.5-0.3l-0.3,1.9l0.2,1.8l-5.4-0.3h-8.4v16.4l5-0.1l3-0.1h2h1h0.8l0.7-0.1c0.5,0,1.4-0.2,2.9-0.5L1017.3,255.1z"/>
		<path class="st2" d="M1053.8,257l-3.2,0.1l-1.6-4.6c-0.2-0.6-0.4-1.2-0.6-1.7c-0.2-0.5-0.3-0.9-0.5-1.3c-0.5-1.4-1-2.8-1.5-4.1
			c-0.5-1.3-1.1-2.7-1.7-3.9h-14l-1.6,4.3l-1.3,3.3l-1.6,4.3l-1.1,3.6l-2.2-0.1l-2.4,0.2l17.9-41h1.6l17.3,41L1053.8,257z
			 M1037.7,224.7l-5.6,14h11.6L1037.7,224.7z"/>
	</g>
</g>
<g id="wpbZnr.tif">
	
		<image style="overflow:visible;" width="459" height="754" id="Layer_1_2_" xlink:href="59FCE3688FEAE62E.png"  transform="matrix(0.7135 0 0 0.6359 811.0234 38.4945)">
	</image>
</g>
</svg>
