<?xml version="1.0" encoding="utf-8"?>
<!-- Generator: Adobe Illustrator 20.0.0, SVG Export Plug-In . SVG Version: 6.00 Build 0)  -->
<svg version="1.1" id="Layer_1" xmlns="http://www.w3.org/2000/svg" xmlns:xlink="http://www.w3.org/1999/xlink" x="0px" y="0px"
	 viewBox="0 0 1920 1080" style="enable-background:new 0 0 1920 1080;" xml:space="preserve">
<style type="text/css">
	.st0{fill:#132328;}
	.st1{fill:#29B6F6;}
	.st2{fill:#81D4FA;}
	.st3{opacity:0.2;fill:#B2B2B2;enable-background:new    ;}
	.st4{opacity:0.4;fill:#534741;enable-background:new    ;}
	.st5{opacity:0.4;fill:#988575;enable-background:new    ;}
	.st6{opacity:0.51;fill:#534741;enable-background:new    ;}
	.st7{opacity:0.51;fill:#988575;enable-background:new    ;}
	.st8{opacity:0.85;}
	.st9{fill:#FFFFFF;}
	.st10{opacity:0.2;}
	.st11{fill:#F1F2F2;}
	.st12{opacity:0.3;}
	.st13{fill:#EAEAEB;}
	.st14{fill:#FFDF00;}
	.st15{fill:#FFBA00;}
	.st16{fill:#00A89C;}
	.st17{fill:#047265;}
	.st18{fill:#028D80;}
	.st19{fill:#028B7B;}
	.st20{fill:#04BEA8;}
	.st21{fill:#FAFAFA;}
	.st22{fill:#E5E5E5;}
	.st23{fill:url(#SVGID_1_);}
	.st24{fill:#F1F1F1;}
	.st25{fill:url(#SVGID_2_);}
	.st26{fill:url(#SVGID_3_);}
	.st27{fill:url(#SVGID_4_);}
	.st28{fill:#FFC700;}
	.st29{fill:#FFCD00;}
	.st30{fill:none;}
	.st31{opacity:0.12;fill:#534741;enable-background:new    ;}
	.st32{fill:#B2B2B2;}
	.st33{fill:#EC1C24;}
	.st34{opacity:0.1;fill:#FFFFFF;enable-background:new    ;}
	.st35{opacity:0.3;fill:#FFFFFF;enable-background:new    ;}
</style>
<title>Startup</title>
<g>
	<g id="Layer_1_1_">
		<polygon class="st0" points="953.5,46.3 470.6,46.3 470.6,1078.6 953.5,1078.6 1436.3,1078.6 1436.3,46.3 		"/>
		<rect x="955.2" class="st1" width="964.8" height="1078.6"/>
		<rect class="st2" width="955.2" height="1078.6"/>
		<path class="st3" d="M826.7,1039.3l-0.2,0.3v-0.3c-0.3-1.4-0.4-2.9-0.1-4.4c0.2-1.6,0.9-3.1,2.1-4.1h0.1l0,0l0,0
			c0.3,0.1,0.6,0.3,0.8,0.6c0.6,1,0.5,3.4-1.8,6.7L826.7,1039.3z M840.5,1036.2l-0.2,0.3v-0.4c-0.4-2.9,0.4-6.7,2.7-8.4l0.1-0.1l0,0
			c0.2,0,0.6,0.3,0.8,0.7c0.5,1,0.2,3.4-2.4,6.6L840.5,1036.2z M884.5,1033.3c0-0.1,0-0.2,0-0.4c0.1-1.5,0.4-2.9,1-4.3
			c0.6-1.5,1.7-2.8,3.2-3.5h0.1h0.1c0.3,0.2,0.5,0.4,0.6,0.8c0.3,1.1-0.4,3.4-3.5,6.1l-1.3,1.1L884.5,1033.3z M898.6,1033.6v-0.4
			c0.3-1.5,0.8-2.9,1.6-4.2c0.8-1.5,2-2.6,3.5-3.3h0.2l0,0c0.2,0,0.5,0.5,0.6,0.8c0.2,1.1-0.7,3.3-4.2,5.8l-1.4,1L898.6,1033.6z"/>
		<path class="st4" d="M755.2,794.7c0-8.2-6.2-14.9-13.9-14.9h0c-0.6,0-1.1,0-1.7,0.1c-1.1-6.8-7.2-11.3-13.6-10.1
			c-0.8,0.2-1.6,0.4-2.3,0.7c-3.1-12.5-15.2-19.9-26.9-16.6c-9.6,2.8-16.3,12.1-16.3,22.8c0,0.7,0,1.3,0,1.9
			c-8.7-3.5-18.4,1.2-21.7,10.5c-0.7,2-1.1,4.2-1.1,6.3h97.3C755.1,795.3,755.2,795,755.2,794.7z"/>
		<path class="st5" d="M1372.9,585.8c-5.9-28.9-32.6-47.1-59.6-40.8c-3.5,0.8-7,2.1-10.2,3.7c3.5-28.8-15.6-55.2-42.5-58.9
			c-27-3.7-51.7,16.6-55.1,45.5c-0.3,2.3-0.4,4.5-0.4,6.8c0,0.6,0,1.2,0,1.8c-19.5-9.2-42.3,0.3-50.9,21.2
			c-2.7,6.6-3.8,13.8-3.1,20.9L1372.9,585.8z"/>
		<path class="st4" d="M772.3,469.5c0-0.2,0-0.4,0-0.6c0-10.7-8.1-19.4-18.1-19.4c-3.8,0-7.5,1.3-10.6,3.6
			c-0.9-13.2-11.7-23.2-24.1-22.2c-9.9,0.8-18.2,8.5-20.3,18.9c-7.2-3.5-15.6-0.2-19,7.4c-1.7,3.9-1.8,8.3-0.2,12.3L772.3,469.5z"/>
		<path class="st6" d="M693.3,454.4c2.1,0,4.1,0.5,6,1.4c2.7-13,14.6-21.2,26.8-18.4c9.7,2.3,16.9,11.1,17.6,21.7
			c8.1-6.2,19.4-4.3,25.3,4.4c1.2,1.8,2.1,3.8,2.7,6h0.7c0-0.2,0-0.4,0-0.6c0-10.7-8.1-19.4-18.1-19.4c-3.8,0-7.5,1.3-10.6,3.6
			c-0.9-13.2-11.7-23.2-24.1-22.2c-9.9,0.8-18.2,8.5-20.3,18.9c-7.1-3.6-15.6-0.4-19,7.2c-1.3,3-1.7,6.4-1.1,9.6
			C680.5,459.5,686.4,454.3,693.3,454.4z"/>
		<path class="st5" d="M1164,236c0-8.7-6.6-15.7-14.7-15.8c-0.6,0-1.2,0-1.8,0.1c-1.2-7.2-7.7-12-14.4-10.7
			c-0.9,0.2-1.7,0.4-2.5,0.8c-3.3-13.3-16.1-21.2-28.5-17.6c-10.2,2.9-17.3,12.8-17.3,24.1c0,0.7,0,1.4,0,2.1
			c-9.2-3.7-19.5,1.3-23,11.1c-0.8,2.2-1.1,4.4-1.1,6.7H1164C1164,236.6,1164,236.2,1164,236z"/>
		<path class="st7" d="M1078.6,221.9c2.2,0,4.3,0.4,6.3,1.2c0-0.7,0-1.4,0-2.1c0.1-13.8,10.5-24.9,23.4-24.8
			c10.5,0,19.6,7.5,22.4,18.3c6.3-2.8,13.6,0.5,16.2,7.2c0.3,0.9,0.6,1.8,0.7,2.7c0.6-0.1,1.2-0.1,1.8-0.1c6.9,0,12.9,5.2,14.4,12.4
			h0.3c0-0.3,0-0.6,0-0.8c0-8.7-6.6-15.7-14.7-15.8c-0.6,0-1.2,0-1.8,0.1c-1.2-7.2-7.7-12-14.4-10.7c-0.9,0.2-1.7,0.4-2.5,0.8
			c-3.3-13.3-16.1-21.2-28.5-17.6c-10.2,2.9-17.3,12.8-17.3,24.2c0,0.7,0,1.4,0,2.1c-9.2-3.7-19.5,1.3-23,11.1
			c-0.8,2.2-1.1,4.4-1.1,6.7h0.4C1062.9,228.1,1070.2,221.9,1078.6,221.9z"/>
		<path class="st7" d="M1303.5,550.7c0,2.2-0.1,4.4-0.4,6.6c25.1-12.3,54.8-0.6,66.4,26.3c0.3,0.7,0.6,1.4,0.9,2.2h2.5
			c-5.9-28.9-32.5-47.2-59.5-40.9c-3.5,0.8-6.8,2-10,3.6C1303.5,549.2,1303.5,550,1303.5,550.7z"/>
		<path class="st7" d="M1205,542c0,0.6,0,1.2,0,1.8c-19.5-9.2-42.3,0.3-50.9,21.2c-2.7,6.6-3.7,13.7-3.1,20.9
			c2.3-22.7,21.4-39,42.6-36.6c3.9,0.5,7.8,1.6,11.4,3.3c0-0.6,0-1.2,0-1.8c-0.2-29.1,21.7-52.8,48.9-52.9
			c25.8-0.2,47.3,21,49.4,48.5c0.1-1.4,0.2-2.8,0.2-4.3c0-29.1-22.1-52.6-49.3-52.6S1205,512.9,1205,542L1205,542z"/>
		<path class="st5" d="M1345.6,728.5c0-0.2,0-0.4,0-0.6c0-10.7-8.1-19.4-18.1-19.3c-6.1,0-11.7,3.3-15.1,8.6
			c-2.1-16.1-16-27.2-31-25c-15,2.3-25.5,17.1-23.4,33.2c0.1,1,0.3,2.1,0.6,3.1H1345.6z"/>
		<path class="st7" d="M1327.5,708.6c-6.1,0-11.8,3.3-15.1,8.7c-2.3-16-16.3-27.1-31.3-24.6c-13.3,2.2-23.2,14.4-23.4,28.8
			c0,1,0,1.9,0.1,2.9c1.6-16.1,15.1-27.8,30.2-26.1c12.5,1.4,22.5,11.7,24.3,24.9c5.5-8.9,16.7-11.4,25.1-5.5
			c3.6,2.6,6.3,6.4,7.5,10.9h0.7c0-0.2,0-0.4,0-0.6C1345.5,717.2,1337.4,708.6,1327.5,708.6z"/>
		<path class="st5" d="M1256.1,854.8c0-6.7-5.1-12.1-11.3-12.1c-0.5,0-0.9,0-1.4,0c-0.9-5.5-5.9-9.2-11.1-8.2
			c-0.7,0.1-1.3,0.3-1.9,0.6c-2.6-10.2-12.4-16.2-21.9-13.5c-7.8,2.3-13.2,9.8-13.2,18.5c0,0.5,0,1.1,0,1.6c-7.1-2.9-15,1-17.7,8.6
			c-0.6,1.6-0.9,3.4-0.9,5.2h79.2C1256,855.3,1256.1,855,1256.1,854.8z"/>
		<path class="st7" d="M1244.7,842.7c-0.5,0-0.9,0-1.4,0c-0.9-5.5-5.9-9.2-11.1-8.2c-0.7,0.1-1.3,0.3-1.9,0.6
			c-2.6-10.2-12.4-16.2-21.9-13.5c-7.8,2.3-13.2,9.8-13.2,18.5c0,0.5,0,1.1,0,1.6c-7.1-2.9-15,1-17.7,8.6c-0.6,1.6-0.9,3.4-0.9,5.2
			h0.6c2.2-7.7,9.8-12.1,17.1-9.8c0.3,0.1,0.6,0.2,0.9,0.3c0-0.5,0-1.1,0-1.6c0-10.6,8-19.1,17.9-19.1c8.1,0,15.2,5.8,17.3,14.1
			c4.9-2.1,10.4,0.4,12.4,5.6c0.3,0.7,0.4,1.4,0.6,2.1c0.5,0,0.9,0,1.4,0c5,0,9.3,3.4,10.8,8.5h0.5c0-0.2,0-0.4,0-0.6
			C1256,848.1,1251,842.7,1244.7,842.7z"/>
		<path class="st4" d="M579.9,352.4c0-0.2,0-0.3,0-0.5c0-8.6,6.6-15.6,14.6-15.6c4.9,0,9.5,2.6,12.2,7c2.4-12.9,14-21.2,26-18.7
			c12,2.5,19.9,15,17.5,27.8H579.9z"/>
		<path class="st6" d="M628.6,322.9c-11,0-20.4,8.6-22,20.3c-4.5-7.2-13.5-9.2-20.3-4.4c-4.1,2.9-6.6,7.8-6.6,13c0,0.2,0,0.3,0,0.5
			h0.9c2.8-8.1,11.2-12.3,18.8-9.3c2.9,1.2,5.5,3.3,7.2,6.1c1.7-13,13-21.9,25.1-20.1c9.9,1.5,17.7,10,18.9,20.6
			c1.6-13-7-24.8-19.1-26.5C630.5,323,629.6,322.9,628.6,322.9z"/>
		<path class="st6" d="M741.2,779.9c-0.6,0-1.1,0-1.7,0.1c-1.1-6.8-7.2-11.3-13.6-10.1c-0.8,0.2-1.6,0.4-2.3,0.7
			c-3.1-12.5-15.2-19.9-26.9-16.6c-9.6,2.8-16.3,12.1-16.3,22.8c0,0.7,0,1.3,0,1.9c-8.7-3.5-18.4,1.2-21.7,10.5
			c-0.7,2-1.1,4.2-1.1,6.3h0.9c3-9.4,12.6-14.4,21.4-11.2c0.2,0.1,0.3,0.1,0.5,0.2c0-0.6,0-1.3,0-1.9c-0.1-13,9.7-23.5,21.9-23.6
			c10,0,18.7,7.1,21.3,17.4c6-2.6,12.8,0.5,15.3,6.9c0.3,0.8,0.5,1.6,0.7,2.5c0.6-0.1,1.1-0.1,1.7-0.1c5.8,0,11.1,3.9,13.1,9.8h0.8
			c0-0.3,0-0.5,0-0.8C755.1,786.5,748.9,779.9,741.2,779.9z"/>
		<g id="cofee_wapor" class="st8">
			<path class="st9" d="M963.5,906.2l-4.9-0.6c-10.6-2.7-18.6-7.7-20-18.2c-11.8,14.9-48.9-2.3-35.8-25.5c-10.7-0.6-12.3-11-12.9-21
				l0.6-5.3c2.7-11.3,8.7-18.3,20.3-17.7c-3.9-18.6,20.9-28.8,32.8-18.1c0.1-1.5,0.6-3,1.3-4.3c7.7-13.4,42.5-12.4,45,5.9
				c6.8-12.4,32.2-0.8,35.6,10.3c0.8,2.8,0.6,5.9-0.4,8.7c16.6-3.1,31.9,22,18.7,35.1c3.2,3.2,5,7.5,5.2,12.1
				c-0.1,1.2-0.3,2.4-0.4,3.6c-3.9,12.4-11.1,19.9-24.6,19.1c-0.1,1.7-0.4,3.3-0.8,4.9c-3,8.3-15.6,13.9-25.7,12
				c-5.8-1.4-11.1-4.6-15.3-9.2C979.2,905.1,971.5,906,963.5,906.2z"/>
			<path class="st9" d="M929.9,815.7c-19.1,11.5-31.1-25.2-10.2-28.2c-8.1-17.4,11.6-33.5,23.3-19.1c4.1-15.1,37.4-15.2,37.4,3.9
				c6.5-1.6,14.5-7.6,20.7-1.7c4.7,4.5,2.2,15-1.5,20.4c18.4,0.9,10.7,34.2-5.6,27c1.3,22-25.1,20.5-30.6,6.8
				C959.8,844.9,924.2,833.7,929.9,815.7z"/>
			<path class="st9" d="M952.4,707.8l5.2,0.7c5.2,1.5,7.7,7.3,8.1,10.9c12.4-0.4,10,16.1,1.9,18c1.4,6.6-2.5,13.1-8.7,14.6
				c-1,0.2-1.9,0.3-2.9,0.3c-4.5-0.4-6.9-5.9-8.6-6c-0.7,0-3.4,3.3-4.4,3.7c-10,4.1-18.9-7.8-11.6-15.6c-6.6-7.9-0.9-25.7,12-18.4
				C944.5,710.6,948.4,709.1,952.4,707.8z"/>
		</g>
		<g class="st10">
			<rect x="802.8" y="291.4" class="st11" width="4.6" height="96.3"/>
			<polygon class="st11" points="790.2,293.5 805.1,277.6 820,293.5 			"/>
			<rect x="1132" y="440.4" class="st11" width="4.6" height="96.3"/>
			<polygon class="st11" points="1119.4,442.5 1134.3,426.7 1149.1,442.5 			"/>
		</g>
		<g class="st12">
			<rect x="769.2" y="205.2" class="st11" width="4.6" height="96.3"/>
			<polygon class="st11" points="756.6,207.4 771.5,191.5 786.4,207.4 			"/>
			<rect x="1098.4" y="354.2" class="st11" width="4.6" height="96.3"/>
			<polygon class="st11" points="1085.8,356.4 1100.7,340.5 1115.5,356.4 			"/>
		</g>
		<path class="st13" d="M863.6,951.7H638v-4.1h225.7c10.4,0,18.8-9,18.8-20.1V926c0-11.1-8.4-20.1-18.8-20.1H744.9
			c-12.5,0-22.7-10.9-22.7-24.2v-1.5c0-13.4,10.2-24.2,22.7-24.3h188.4c10.4,0,18.8-9,18.8-20.1V674.2h3.9v161.6
			c0,13.4-10.2,24.2-22.7,24.2H744.8c-10.4,0-18.8,9-18.8,20.1v1.5c0,11.1,8.4,20.1,18.8,20.1h118.7c12.5,0,22.7,10.8,22.8,24.2v1.5
			C886.3,940.8,876.1,951.7,863.6,951.7L863.6,951.7z"/>
		<path class="st14" d="M954.4,669l-40.6,16l14.1,27.3c0,0,14-1.6,26.5-1.6c12.5,0,26.5,1.6,26.5,1.6L995,685L954.4,669z"/>
		<path class="st15" d="M974.8,677c1.3,2.2,1.9,4.7,1.9,7.3c0,13.7-20,24.8-44.8,24.8c-1.9,0-3.9,0-5.8-0.2l1.7,3.3
			c0,0,14-1.6,26.5-1.6s26.5,1.6,26.5,1.6l14.1-27.3L974.8,677z"/>
		<path class="st15" d="M989.9,694.8l5-9.8l-40.6-16l-40.6,16l4.8,9.5c11.6-2,23.4-2.9,35.1-2.9C965.9,691.6,978,692.6,989.9,694.8z
			"/>
		<path class="st16" d="M953.9,628.5l-78.2,17.8l36.7,46.1c13.6-3,27.5-4.4,41.4-4.1c25.4,0,40.9,4.1,40.9,4.1l40-45L953.9,628.5z"
			/>
		<path class="st17" d="M953.9,628.5l-3.5,0.8c7.1,6.2,22.9,13.8,22.2,28c-1,19.6-33.9,29.9-63.2,31.3l3.1,3.9
			c13.6-3,27.5-4.4,41.4-4.1c25.4,0,40.9,4.1,40.9,4.1l40-45L953.9,628.5z"/>
		<path class="st18" d="M954.4,653.9c22.9-0.1,45.7,2.4,68.1,7.5l12.3-13.8l-80.9-19l-78.2,17.8l11.6,14.7
			C909.4,656.1,931.9,653.7,954.4,653.9z"/>
		<path class="st16" d="M1095.5,560.1c-5.1,4.3-11.5,6.7-18,6.8c-8.1,0-17.8-3.6-21.7-10v73.4c38.6,0,71.3,50,81.6,118.3
			c2.1-14.9,3.1-30,3-45.1C1140.4,641.6,1122.1,587.8,1095.5,560.1z"/>
		<path class="st19" d="M1137.9,741.9c-10.2-68.3-43.7-118.2-81.1-118.3v6.7c37.4,0,70.8,50,81.1,118.3c2-14.9,3-30,2.8-45.1
			c0-0.8,0-1.6,0-2.4C1140.7,714.8,1139.8,728.4,1137.9,741.9z"/>
		<path class="st20" d="M1078.1,575.2c6.6,0,11.8-2.4,17.5-6.8c26.1,27.3,44.5,79.8,45.1,140.4c0-1.8,0-3.6,0-5.4
			c0-61.9-18.6-115.6-45.1-143.4c-5.8,4.4-10.9,6.8-17.5,6.8c-8.1,0-16.5-3.6-21.2-10v8.3C1061.6,571.6,1070,575.2,1078.1,575.2z"/>
		<path class="st16" d="M812.1,560.1c5,4.3,11.2,6.7,17.7,6.8c8.1,0,17.5-3.6,21.3-10v73.4c-38.6,0-71,50-81.2,118.3
			c-2.1-14.9-3-30-2.9-45.1C767,641.6,785.5,587.8,812.1,560.1z"/>
		<path class="st19" d="M770.7,741.9c-2-13.8-3.1-27.7-3.2-41.7c0,1.1,0,2.2,0,3.3c0,15.1,1.1,30.2,3.3,45.1
			c10.3-68.3,43.1-118.2,82-118.3v-6.7C813.8,623.7,781,673.7,770.7,741.9z"/>
		<path class="st20" d="M830.6,566.9c-6.7-0.1-13.2-2.5-18.5-6.8c-26.6,27.7-44.7,81.5-44.7,143.4c0,1.4,0,2.8,0,4.1
			c0.8-60.1,18.6-112.2,44.6-139.3c5.3,4.3,11.8,6.7,18.5,6.8c8.3-0.1,16.3-3.7,22.2-10v-8.3C846.8,563.2,838.9,566.7,830.6,566.9z"
			/>
		<path class="st21" d="M955.1,152c0,0-125.8,245.7-125.8,360.7c-0.3,22.9,2.2,45.7,7.3,67.9c8.7,35.7,24.6,61.7,46.4,78.3
			c47.4-11.1,96.4-11.1,143.8,0.2c21.5-16.5,37.3-42.6,45.8-78.5c5-22.3,7.4-45.1,7.1-68C1079.6,397.7,955.1,152,955.1,152z"/>
		<ellipse class="st22" cx="953.8" cy="397.4" rx="49.6" ry="53"/>
		
			<linearGradient id="SVGID_1_" gradientUnits="userSpaceOnUse" x1="904.2006" y1="688.5492" x2="1003.3221" y2="688.5492" gradientTransform="matrix(1 0 0 -1 0 1082.64)">
			<stop  offset="0" style="stop-color:#F1697A"/>
			<stop  offset="0.49" style="stop-color:#F14F69"/>
			<stop  offset="1" style="stop-color:#F1385A"/>
		</linearGradient>
		<ellipse class="st23" cx="953.8" cy="394.1" rx="49.6" ry="53"/>
		<ellipse class="st24" cx="953.8" cy="394.1" rx="36.6" ry="39.1"/>
		
			<linearGradient id="SVGID_2_" gradientUnits="userSpaceOnUse" x1="920.135" y1="688.5492" x2="987.3878" y2="688.5492" gradientTransform="matrix(1 0 0 -1 0 1082.64)">
			<stop  offset="1.000000e-02" style="stop-color:#A5EFF4"/>
			<stop  offset="9.000000e-02" style="stop-color:#9DEDF1"/>
			<stop  offset="0.71" style="stop-color:#61DEDF"/>
			<stop  offset="1" style="stop-color:#4AD8D8"/>
		</linearGradient>
		<ellipse class="st25" cx="953.8" cy="394.1" rx="33.6" ry="35.9"/>
		<ellipse class="st24" cx="973.8" cy="353.9" rx="4" ry="4.3"/>
		<ellipse class="st24" cx="988.9" cy="368.4" rx="4" ry="4.3"/>
		<ellipse class="st24" cx="996" cy="388.8" rx="4" ry="4.3"/>
		<ellipse class="st24" cx="993.4" cy="410.8" rx="4" ry="4.3"/>
		<ellipse class="st24" cx="981.9" cy="428.3" rx="4" ry="4.3"/>
		<ellipse class="st24" cx="964" cy="438.3" rx="4" ry="4.3"/>
		<ellipse class="st24" cx="943.1" cy="438.2" rx="4" ry="4.3"/>
		<ellipse class="st24" cx="925.3" cy="428" rx="4" ry="4.3"/>
		<ellipse class="st24" cx="914" cy="410.4" rx="4" ry="4.3"/>
		<ellipse class="st24" cx="911.5" cy="388.3" rx="4" ry="4.3"/>
		<ellipse class="st24" cx="918.8" cy="368" rx="4" ry="4.3"/>
		<ellipse class="st24" cx="933.7" cy="353.9" rx="4" ry="4.3"/>
		<ellipse class="st24" cx="953.7" cy="348.6" rx="4" ry="4.3"/>
		<ellipse class="st22" cx="953.8" cy="512.3" rx="32.8" ry="35.1"/>
		
			<linearGradient id="SVGID_3_" gradientUnits="userSpaceOnUse" x1="920.9268" y1="573.6154" x2="986.5959" y2="573.6154" gradientTransform="matrix(1 0 0 -1 0 1082.64)">
			<stop  offset="0" style="stop-color:#F1697A"/>
			<stop  offset="0.49" style="stop-color:#F14F69"/>
			<stop  offset="1" style="stop-color:#F1385A"/>
		</linearGradient>
		<ellipse class="st26" cx="953.8" cy="509" rx="32.8" ry="35.1"/>
		<ellipse class="st24" cx="953.8" cy="509" rx="24.2" ry="25.9"/>
		
			<linearGradient id="SVGID_4_" gradientUnits="userSpaceOnUse" x1="931.4918" y1="573.6154" x2="976.0309" y2="573.6154" gradientTransform="matrix(1 0 0 -1 0 1082.64)">
			<stop  offset="1.000000e-02" style="stop-color:#A5EFF4"/>
			<stop  offset="9.000000e-02" style="stop-color:#9DEDF1"/>
			<stop  offset="0.71" style="stop-color:#61DEDF"/>
			<stop  offset="1" style="stop-color:#4AD8D8"/>
		</linearGradient>
		<ellipse class="st27" cx="953.8" cy="509" rx="22.3" ry="23.8"/>
		<ellipse class="st24" cx="967" cy="482.4" rx="2.6" ry="2.8"/>
		<ellipse class="st24" cx="977" cy="492" rx="2.6" ry="2.8"/>
		<ellipse class="st24" cx="981.8" cy="505.5" rx="2.6" ry="2.8"/>
		<ellipse class="st24" cx="980" cy="520.1" rx="2.6" ry="2.8"/>
		<ellipse class="st24" cx="972.4" cy="531.7" rx="2.6" ry="2.8"/>
		<ellipse class="st24" cx="960.6" cy="538.3" rx="2.6" ry="2.8"/>
		<ellipse class="st24" cx="946.7" cy="538.2" rx="2.6" ry="2.8"/>
		<ellipse class="st24" cx="934.9" cy="531.5" rx="2.6" ry="2.8"/>
		<ellipse class="st24" cx="927.4" cy="519.8" rx="2.6" ry="2.8"/>
		<ellipse class="st24" cx="925.8" cy="505.2" rx="2.6" ry="2.8"/>
		<ellipse class="st24" cx="930.6" cy="491.8" rx="2.6" ry="2.8"/>
		<ellipse class="st24" cx="940.5" cy="482.4" rx="2.6" ry="2.8"/>
		<ellipse class="st24" cx="953.7" cy="478.9" rx="2.6" ry="2.8"/>
		<path class="st16" d="M966.7,669.4c-0.1,38.2-4.4,76.3-12.8,113.4c-8.4-37.1-12.7-75.2-12.8-113.4c0-62.6-5.3-89.5,12.8-89.5
			C972,579.9,966.7,606.8,966.7,669.4z"/>
		<path class="st19" d="M953.9,579.9v202.9c8.4-37.1,12.7-75.2,12.8-113.4C966.7,606.8,972,579.9,953.9,579.9z"/>
		<path class="st15" d="M954.7,152.6c-3.6,7.1-36.2,71.6-67.2,147.9c7.4-1,15.2-1.9,23.3-2.6c11.9-49.1,26.6-97.4,44.2-144.5
			L954.7,152.6z"/>
		<path class="st28" d="M910.8,298c13.5-1.1,28-1.7,43-1.7c15.9,0,31.2,0.7,45.5,2c-11.9-49.2-26.6-97.6-44.2-144.8
			C937.4,200.5,922.7,248.8,910.8,298z"/>
		<path class="st28" d="M955.4,152.5l-0.3-0.5l-0.3,0.7l0.3,0.8L955.4,152.5z"/>
		<path class="st29" d="M955.4,152.5l-0.3,0.9c17.6,47.2,32.3,95.6,44.2,144.8c7.9,0.7,15.6,1.6,22.8,2.6
			C991.1,223.8,958.6,158.9,955.4,152.5z"/>
		<path class="st30" d="M1140.6,703.5c0,2.4,0,4.9,0,7.3c0-1.6,0-3.3,0.1-4.9c0-1,0-1.9,0-2.9
			C1140.6,703.1,1140.6,703.3,1140.6,703.5z"/>
		<path class="st31" d="M1140.7,703.5c0-0.8,0-1.6,0-2.4l0,0c-0.5-60.9-18.9-113.7-45.1-141.1l0,0c-5,4.3-11.2,6.7-17.6,6.8
			c-0.9,0-1.8,0-2.7-0.1c3-17.9,4.4-36,4.3-54.1c0-113.4-121.3-354.3-124.4-360.5v-0.1l0,0l-1.1,427.9l0.1,202.6
			c5.3-23.5,8.9-47.3,10.8-71.4c8.7,0.5,16,1.3,16,1.3l0,0l10.6-20.5c2.1,0.4,3.3,0.7,3.3,0.7l0,0l30.2-34l1.7,0.4
			c12.1-9.5,22.3-21.6,29.8-35.6v6.9c37.4,0,71,50,81.3,118.3c0-0.3,0-0.6,0.1-0.8c0,0.3,0,0.5,0.1,0.8c1.8-13.2,2.7-26.4,2.7-39.7
			l0,0C1140.7,707,1140.7,705.3,1140.7,703.5z M1140.5,710.8c0-2.4,0-4.8,0-7.3c0-0.2,0-0.3,0-0.5c0,0.9,0,1.9,0,2.9
			C1140.6,707.5,1140.6,709.1,1140.5,710.8L1140.5,710.8z"/>
		<path class="st9" d="M574.4,880.6c0.2,1.5-0.8,3-2.2,3.2c-0.2,0-0.5,0-0.7,0h-9.8c-1.4,0.2-2.7-0.9-2.9-2.4c0-0.3,0-0.5,0-0.8
			v-8.3h4.9v7.1h5.9v-6.8l-9.8-9.9c-0.7-0.7-1.1-1.7-1.1-2.8v-7.7c-0.2-1.5,0.8-3,2.2-3.2c0.2,0,0.5,0,0.7,0h9.8
			c1.4-0.2,2.7,0.8,3,2.4c0,0.3,0,0.5,0,0.8v7.8h-4.8v-6.6h-5.9v6.3l9.8,9.8c0.7,0.7,1.1,1.8,1.1,2.8L574.4,880.6z"/>
		<path class="st9" d="M587.1,883.8h-5.3c-1.3,0.2-2.4-0.7-2.6-2.1c0-0.2,0-0.5,0-0.7v-15.4h-2.3v-4.3h2.3v-6.2h4.8v6.2h3.1v4.3
			h-3.1v13.8h3.2L587.1,883.8z"/>
		<path class="st9" d="M603.3,883.8h-4.6V883l-3.2,0.5c-1.1,0.2-2.1,0.3-3.2,0.3c-1.2,0.2-2.4-0.7-2.6-2c0-0.2,0-0.5,0-0.7V873
			c-0.2-1.4,0.7-2.6,2-2.8c0.2,0,0.4,0,0.7,0h6.4v-5.2h-4.5v3.2h-4.3v-4.1c-0.2-1.4,0.7-2.6,2-2.8c0.2,0,0.4,0,0.7,0h8.1
			c1.3-0.2,2.4,0.7,2.6,2.1c0,0.2,0,0.5,0,0.7L603.3,883.8z M598.8,879.7v-6h-4.5v6.2L598.8,879.7z"/>
		<path class="st9" d="M620,870.7h-4.7v-5.1h-3.9v18.1h-4.8v-22.4h4.8v0.8l2.9-0.6c1-0.2,2-0.3,3-0.3c1.2-0.2,2.4,0.7,2.6,2
			c0,0.2,0,0.5,0,0.7L620,870.7z"/>
		<path class="st9" d="M631.7,883.8h-5.3c-1.3,0.2-2.4-0.7-2.6-2.1c0-0.2,0-0.5,0-0.7v-15.4h-2.2v-4.3h2.2v-6.2h4.8v6.2h3.1v4.3
			h-3.1v13.8h3.2V883.8z"/>
		<path class="st9" d="M650.9,880.6c0.2,1.5-0.8,3-2.3,3.2c-0.2,0-0.5,0-0.7,0h-10.4c-1.4,0.2-2.8-0.9-3-2.4c0-0.3,0-0.5,0-0.8V849
			h4.9v30.4h6.6V849h4.9V880.6z"/>
		<path class="st9" d="M670.6,868c0.2,1.6-0.8,3-2.2,3.2c-0.2,0-0.5,0-0.7,0h-7.9v12.6h-4.9V849h12.8c1.4-0.2,2.8,0.9,3,2.4
			c0,0.3,0,0.5,0,0.8V868z M665.7,866.8v-13.2h-5.9v13.3L665.7,866.8z"/>
		<ellipse class="st13" cx="612.7" cy="950.7" rx="33.5" ry="35.8"/>
		<ellipse class="st32" cx="612.7" cy="952.8" rx="24.1" ry="25.7"/>
		<ellipse class="st33" cx="612.7" cy="950.6" rx="24.1" ry="25.7"/>
		<path class="st34" d="M617.8,925.4c0.4,1.9,0.6,3.9,0.6,5.8c0,15.1-11.4,27.8-26.9,31.6c6.3,12.5,20.9,17.2,32.6,10.4
			c11.7-6.8,16-22.4,9.7-34.9C630.5,931.8,624.6,927,617.8,925.4L617.8,925.4z"/>
		<path class="st35" d="M1233.8,347.3c0-2.2-0.1-4.5-0.4-6.7l10.3-6.2c-0.4-2.1-0.9-4.2-1.5-6.2l-11.8,0.2
			c-1.6-4.2-3.7-8.1-6.3-11.6l6.1-10.8c-1.3-1.6-2.7-3.1-4.2-4.5l-10.1,6.5c-3.3-2.8-7-5-10.9-6.7l0.2-12.6
			c-1.9-0.7-3.8-1.2-5.8-1.6l-5.8,11c-4.2-0.6-8.4-0.6-12.6,0l-5.8-11c-2,0.4-3.9,1-5.8,1.6l0.2,12.6c-3.9,1.7-7.5,4-10.9,6.7
			l-10.1-6.5c-1.5,1.4-2.9,2.9-4.2,4.5l6.1,10.8c-2.6,3.5-4.7,7.4-6.3,11.6l-11.8-0.2c-0.6,2-1.1,4.1-1.5,6.2l10.3,6.2
			c-0.6,4.5-0.6,9,0,13.4l-10.1,6c0.4,2.1,0.9,4.2,1.5,6.2l11.8-0.2c1.6,4.2,3.7,8.1,6.3,11.6l-6.1,10.8c1.3,1.6,2.7,3.1,4.2,4.5
			l10.1-6.5c3.3,2.7,6.9,5,10.8,6.6l-0.2,12.6c1.9,0.7,3.8,1.2,5.8,1.6l5.8-11c4.2,0.6,8.4,0.6,12.6,0l5.8,11c2-0.4,3.9-1,5.8-1.6
			l-0.2-12.6c3.9-1.7,7.5-4,10.9-6.7l10.1,6.5c1.5-1.4,2.9-2.9,4.2-4.5l-6.1-10.8c2.6-3.5,4.7-7.4,6.3-11.6l11.8,0.2
			c0.6-2,1.1-4.1,1.5-6.2l-10.3-6.2C1233.8,351.7,1233.8,349.5,1233.8,347.3z M1187.4,382.7c-18.3,0-33-15.8-33-35.3
			c0-19.5,14.8-35.3,33-35.3c18.3,0,33,15.8,33,35.3v0C1220.5,366.8,1205.7,382.7,1187.4,382.7
			C1187.4,382.7,1187.4,382.7,1187.4,382.7L1187.4,382.7z M1187.4,324.5c-11.7,0-21.2,10.2-21.2,22.7s9.5,22.7,21.2,22.7
			s21.2-10.2,21.2-22.7S1199.2,324.5,1187.4,324.5C1187.4,324.5,1187.4,324.5,1187.4,324.5L1187.4,324.5z M1187.4,365.5
			c-9.4,0-17-8.1-17-18.1c0-10,7.6-18.2,17-18.2c9.4,0,17,8.1,17,18.1c0,0,0,0,0,0C1204.4,357.3,1196.8,365.5,1187.4,365.5
			L1187.4,365.5z"/>
		<path class="st35" d="M1328.5,360.7c0-1.9-0.1-3.8-0.4-5.7l8.8-5.2c-0.3-1.8-0.8-3.5-1.3-5.2l-10.1,0.2c-1.4-3.5-3.2-6.9-5.4-9.9
			l5.2-9.2c-1.1-1.3-2.3-2.6-3.6-3.8l-8.6,5.5c-2.8-2.4-6-4.3-9.3-5.7l0.2-10.8c-1.6-0.6-3.2-1-4.9-1.4l-4.9,9.4
			c-3.5-0.5-7.2-0.5-10.7,0l-4.9-9.4c-1.7,0.4-3.3,0.8-4.9,1.4l0.2,10.8c-3.3,1.5-6.4,3.4-9.3,5.7l-8.6-5.5
			c-1.3,1.2-2.4,2.5-3.6,3.8l5.2,9.2c-2.2,3-4,6.4-5.4,9.9l-10.1-0.2c-0.5,1.7-0.9,3.5-1.3,5.2l8.8,5.2c-0.5,3.8-0.5,7.6,0,11.4
			l-8.8,5.2c0.3,1.8,0.8,3.5,1.3,5.2l10.1-0.2c1.4,3.5,3.2,6.9,5.4,9.9l-5.2,9.2c1.1,1.3,2.3,2.6,3.6,3.8l8.6-5.5
			c2.8,2.4,6,4.3,9.3,5.7l-0.2,10.8c1.6,0.6,3.2,1,4.9,1.4l4.9-9.4c3.5,0.5,7.2,0.5,10.7,0l4.9,9.4c1.7-0.4,3.3-0.8,4.9-1.4
			l-0.2-10.8c3.3-1.5,6.4-3.4,9.3-5.7l8.6,5.5c1.3-1.2,2.4-2.5,3.6-3.8l-5.2-9.2c2.2-3,4-6.4,5.4-9.9l10.1,0.2
			c0.5-1.7,0.9-3.5,1.3-5.2l-8.8-5.2C1328.4,364.5,1328.5,362.6,1328.5,360.7z M1288.9,390.8c-15.6,0-28.2-13.5-28.2-30.1
			s12.6-30.1,28.2-30.1c15.6,0,28.2,13.5,28.2,30.1C1317.1,377.4,1304.5,390.8,1288.9,390.8L1288.9,390.8z"/>
		<path class="st35" d="M670,698.5l-1.1-2.2l-6.3-12.2c-2.1,0.2-4.2,0.3-6.3,0.4c-2,0-4.2-0.1-6.3-0.4l-6.3,12.2l-1.1,2.2l-2.3-0.5
			c-2.6-0.6-5.2-1.3-7.7-2.2l-2.3-0.8v-2.5l0.2-13.9c-3.8-1.9-7.5-4.1-10.9-6.8l-11.2,7.2l-2,1.3l-1.8-1.7c-2-1.9-3.8-3.9-5.6-6
			l-1.6-1.9l1.2-2.2l6.7-11.9c-2.5-3.7-4.6-7.6-6.3-11.7l-13,0.2h-2.4l-0.7-2.4c-0.8-2.7-1.5-5.5-2-8.3l-0.5-2.5l2.1-1.2l11.4-6.8
			c-0.4-4.5-0.4-9,0-13.5l-11.4-6.8l-2.1-1.2l0.5-2.5c0.5-2.8,1.2-5.5,2-8.3l0.7-2.4h2.4l13,0.2c1.7-4.1,3.8-8,6.3-11.7l-6.7-12
			l-1.2-2.2l1.6-1.9c1.8-2.1,3.7-4.1,5.6-6l1.8-1.7l2,1.3l11.2,7.2c3.4-2.6,7.1-4.9,10.9-6.8l-0.2-13.9v-2.5l2.3-0.8
			c2.5-0.9,5.1-1.6,7.7-2.2l2.3-0.5l1.1,2.2l6.3,12.2c4.2-0.5,8.4-0.5,12.6,0l6.3-12.2l1.1-2.2l2.3,0.5c2.6,0.6,5.2,1.3,7.7,2.2
			l2.2,0.8v2.5l-0.2,13.9c3.8,1.9,7.5,4.1,10.9,6.8l11.2-7.2l2-1.3l1.8,1.7c2,1.9,3.8,3.9,5.6,6l1.6,1.9l-1.2,2.2l-6.7,12
			c2.5,3.7,4.6,7.6,6.3,11.7l13-0.2h2.4l0.7,2.4c0.8,2.7,1.5,5.5,2,8.3l0.5,2.5l-2.1,1.2l-11.4,6.8c0.4,4.5,0.4,9,0,13.5l11.4,6.8
			l2.1,1.2l-0.5,2.5c-0.5,2.8-1.2,5.5-2,8.3l-0.7,2.4h-2.4l-13-0.2c-1.7,4.1-3.9,8-6.3,11.7l6.7,11.9l1.2,2.1l-1.6,1.9
			c-1.8,2.1-3.7,4.1-5.6,6l-1.8,1.7l-2-1.3l-11.3-7c-3.4,2.6-7.1,4.9-10.9,6.8l0.2,13.9v2.5l-2.2,0.8c-2.5,0.9-5.1,1.6-7.7,2.2
			L670,698.5L670,698.5z M656.2,575.4c-21.7,0-39.3,18.8-39.3,42c0,23.2,17.6,42,39.3,42c21.7,0,39.3-18.8,39.3-42v0
			C695.4,594.2,677.8,575.4,656.2,575.4z M656.2,650.1c-16.9,0-30.6-14.6-30.6-32.7c0-18.1,13.7-32.7,30.6-32.7
			c16.9,0,30.6,14.6,30.6,32.7l0,0C686.7,635.4,673.1,650,656.2,650.1z M656.2,597.4c-10.3,0-18.6,8.9-18.6,19.9s8.3,19.9,18.6,19.9
			c10.3,0,18.6-8.9,18.6-19.9l0,0C674.8,606.4,666.5,597.4,656.2,597.4z"/>
	</g>
</g>
</svg>
