<svg id="Layer_1" data-name="Layer 1" xmlns="http://www.w3.org/2000/svg" viewBox="0 0 82.6 96"><defs><style>.cls-1,.cls-12{fill:#fff;}.cls-1,.cls-11,.cls-12,.cls-2,.cls-6{stroke:#231f20;stroke-miterlimit:10;}.cls-1,.cls-11{stroke-width:0.25px;}.cls-2,.cls-6{fill:none;}.cls-2{stroke-width:2px;}.cls-3{fill:#453591;}.cls-4{fill:#528bc9;}.cls-5{fill:#f3b71a;}.cls-6{stroke-width:5px;}.cls-11,.cls-7{fill:#49abdb;}.cls-8{fill:#ee3337;}.cls-9{fill:#82c341;}.cls-10{fill:#712e8d;}</style></defs><title>favicon</title><path class="cls-1" d="M443.77,25"/><line class="cls-2" x1="27.46" y1="6.28" x2="42.93" y2="19.42"/><circle class="cls-3" cx="27.46" cy="6.28" r="6.28"/><circle class="cls-4" cx="42.93" cy="19.42" r="3.69"/><line class="cls-2" x1="8.45" y1="34.71" x2="22.42" y2="25.4"/><circle class="cls-3" cx="22.42" cy="25.4" r="5.17"/><ellipse class="cls-5" cx="8.45" cy="34.71" rx="3.69" ry="3.69"/><line class="cls-6" x1="49.96" y1="52.39" x2="72.38" y2="22.49"/><line class="cls-6" x1="52.06" y1="64.03" x2="63.9" y2="86.03"/><line class="cls-6" x1="4.82" y1="54.61" x2="46.99" y2="54.61"/><circle class="cls-7" cx="46.99" cy="56.35" r="24.01"/><circle class="cls-8" cx="7.39" cy="54.61" r="7.39"/><circle class="cls-9" cx="64.7" cy="88.61" r="7.39"/><circle class="cls-10" cx="75.21" cy="18.62" r="7.39"/><path class="cls-1" d="M45.33,53h9.5s.83-6.92-6.24-7.87c-.65-.09-7.68.49-7.33,7.85s9.11,6.47,9.11,6.47V56.07S45.72,56.65,45.33,53Z"/><path class="cls-11" d="M50.19,49.9H45.72S48.2,47.2,50.19,49.9Z"/><path class="cls-1" d="M56.09,52.34s.52,1.68-1,4.68-2.88,3.78-2.9,8.38c0,1-2.66,1.79-7.57,1.89-1.85,0-4.35,2,0,2.78,4.6.86,9.18-.54,9.69-3.67.39-2.38.8-3.74,1-5.07s2.52-4.73,2.91-6.12a8.19,8.19,0,0,0,.19-2.86Z"/><path class="cls-1" d="M52,69.38a28.23,28.23,0,0,1-5.23.92h-.05c1.72.2,6.88.71-.59,1.28-1.31.1-3.81-.1-3.85,1.71s2.74,1.24,3.4,1.24c.16,0,.6,0,1.19-.11A27.61,27.61,0,0,0,53,73.15C54.64,72.36,55.79,71.31,52,69.38Z"/><path class="cls-1" d="M52.18,76.49s-3-2.24-4.92-2.06,5-.84,5.16-1,1.8,1.37,1.77,2.07C54.17,76,54.06,77.07,52.18,76.49Z"/><path class="cls-1" d="M48.67,41.18S38,40,37.1,51.48c-.3,3.82,2.54,7.67,2.54,7.67a8.49,8.49,0,0,1,1.83,5.79s1,2.2,2.09,0c.76-1.52-.27-4.07-1-5s-3-4.55-3.3-7.57c-.16-1.7.87-9.26,9.35-9Z"/><polygon class="cls-1" points="32.34 51.38 35.32 51.38 35.32 52.34 32.34 52.1 32.34 51.38"/><polyline class="cls-1" points="37.09 44.21 34.94 42.34 35.53 41.7 37.58 43.36 37.09 44"/><polygon class="cls-1" points="43.68 39.78 42.88 37.84 43.68 37.44 44.32 39.55 43.68 39.78"/><path class="cls-12" d="M49.26,74.82"/></svg>